<svg width="96" height="28" viewBox="0 0 96 28" fill="none" xmlns="http://www.w3.org/2000/svg" xmlns:xlink="http://www.w3.org/1999/xlink">
<path d="M31.852,7.887L31.816,7.887L31.816,7.89C31.828,7.889 31.838,7.888 31.852,7.887Z" fill="#168F8C"/>
<path d="M32.063,7.579L32.063,27.283L36.672,27.283L36.672,12.516C36.672,11.413 36.086,8.081 32.063,7.579Z" fill="#0CA49D"/>
<path d="M7.561,23.854C8.148,23.854 8.627,23.78 8.999,23.63C9.371,23.481 9.662,23.287 9.872,23.05C10.082,22.812 10.226,22.544 10.305,22.245C10.384,21.946 10.423,21.643 10.423,21.335C10.423,20.983 10.377,20.667 10.285,20.385C10.194,20.104 10.036,19.867 9.813,19.673C9.59,19.48 9.294,19.33 8.927,19.225C8.559,19.119 8.095,19.066 7.535,19.066L4.437,19.066L4.437,23.854L7.561,23.854ZM4.437,11.337L4.437,16.085L6.748,16.085C7.237,16.085 7.68,16.05 8.073,15.98C8.467,15.909 8.802,15.786 9.078,15.61C9.353,15.435 9.563,15.193 9.708,14.885C9.852,14.577 9.924,14.19 9.924,13.724C9.924,13.267 9.867,12.887 9.754,12.583C9.64,12.28 9.465,12.036 9.229,11.851C8.992,11.666 8.692,11.535 8.329,11.455C7.966,11.376 7.535,11.337 7.036,11.337L4.437,11.337ZM7.036,8C8.358,8 9.482,8.123 10.41,8.369C11.338,8.615 12.095,8.962 12.681,9.411C13.267,9.859 13.694,10.405 13.961,11.046C14.228,11.689 14.362,12.405 14.362,13.197C14.362,13.627 14.3,14.043 14.178,14.443C14.055,14.843 13.863,15.217 13.6,15.564C13.338,15.912 13.001,16.23 12.589,16.521C12.178,16.811 11.684,17.061 11.106,17.272C12.366,17.58 13.298,18.077 13.902,18.763C14.506,19.449 14.808,20.337 14.808,21.427C14.808,22.245 14.65,23.006 14.335,23.709C14.02,24.413 13.558,25.026 12.95,25.549C12.342,26.073 11.592,26.481 10.699,26.776C9.806,27.071 8.787,27.218 7.64,27.218L0,27.218L0,8L7.036,8Z" fill="#0CA49D"/>
<path d="M28.145,11.904C28.014,12.115 27.876,12.273 27.731,12.379C27.587,12.484 27.401,12.537 27.174,12.537C26.972,12.537 26.756,12.473 26.524,12.346C26.292,12.218 26.029,12.076 25.736,11.917C25.443,11.759 25.108,11.616 24.732,11.488C24.356,11.361 23.927,11.297 23.445,11.297C22.614,11.297 21.995,11.475 21.588,11.832C21.181,12.188 20.977,12.669 20.977,13.276C20.977,13.663 21.1,13.984 21.345,14.239C21.59,14.494 21.912,14.714 22.31,14.898C22.708,15.083 23.163,15.252 23.675,15.406C24.187,15.56 24.71,15.732 25.244,15.92C25.778,16.11 26.301,16.332 26.813,16.587C27.325,16.842 27.78,17.167 28.178,17.563C28.576,17.958 28.898,18.44 29.143,19.007C29.388,19.574 29.51,20.258 29.51,21.058C29.51,21.946 29.357,22.777 29.051,23.551C28.744,24.325 28.3,25 27.718,25.576C27.136,26.152 26.419,26.605 25.566,26.934C24.712,27.264 23.743,27.429 22.658,27.429C22.063,27.429 21.456,27.367 20.84,27.245C20.222,27.121 19.625,26.948 19.048,26.723C18.47,26.499 17.927,26.233 17.42,25.925C16.912,25.618 16.47,25.275 16.094,24.896L17.406,22.812C17.512,22.663 17.649,22.538 17.82,22.437C17.991,22.335 18.177,22.285 18.378,22.285C18.64,22.285 18.905,22.368 19.172,22.535C19.439,22.703 19.741,22.887 20.078,23.09C20.415,23.292 20.802,23.476 21.24,23.644C21.677,23.811 22.194,23.894 22.789,23.894C23.594,23.894 24.22,23.716 24.666,23.36C25.112,23.004 25.336,22.439 25.336,21.665C25.336,21.216 25.213,20.852 24.968,20.57C24.723,20.289 24.401,20.056 24.003,19.871C23.605,19.686 23.152,19.524 22.644,19.383C22.137,19.242 21.616,19.086 21.082,18.915C20.548,18.743 20.028,18.532 19.52,18.282C19.012,18.031 18.559,17.701 18.162,17.292C17.763,16.883 17.441,16.373 17.196,15.762C16.952,15.151 16.829,14.397 16.829,13.5C16.829,12.779 16.973,12.076 17.262,11.389C17.551,10.704 17.975,10.093 18.535,9.556C19.096,9.02 19.783,8.591 20.597,8.27C21.41,7.949 22.342,7.789 23.393,7.789C23.979,7.789 24.55,7.835 25.106,7.927C25.662,8.019 26.189,8.156 26.688,8.336C27.187,8.516 27.653,8.732 28.086,8.982C28.519,9.233 28.906,9.517 29.248,9.833L28.145,11.904Z" fill="#0CA49D"/>
<path d="M37.177,0.477C37.167,0.315 37.149,0.157 37.125,0C38.156,1.07 39.629,1.697 41.224,1.596C41.987,1.547 42.701,1.336 43.336,1C42.843,1.865 42.587,2.879 42.654,3.948C42.737,5.272 43.301,6.449 44.162,7.322C43.722,7.233 43.263,7.199 42.793,7.229C40.927,7.348 39.352,8.434 38.517,9.969C38.188,7.699 36.436,5.934 34.244,5.546C36.096,4.636 37.316,2.671 37.177,0.477Z" fill="#F9AD3C"/>
<path d="M45.087,19.421C45.298,19.421 45.48,19.397 45.633,19.348C45.785,19.299 45.91,19.232 46.007,19.145C46.106,19.055 46.179,18.95 46.225,18.83C46.27,18.707 46.293,18.573 46.293,18.427C46.293,18.143 46.193,17.919 45.992,17.755C45.791,17.589 45.489,17.506 45.087,17.506L43.903,17.506L43.903,19.421L45.087,19.421ZM43.903,15.099L43.903,16.976L44.88,16.976C45.089,16.976 45.27,16.953 45.423,16.907C45.578,16.861 45.705,16.797 45.804,16.715C45.906,16.633 45.981,16.534 46.03,16.419C46.078,16.302 46.102,16.174 46.102,16.036C46.102,15.711 46.006,15.474 45.812,15.325C45.619,15.174 45.318,15.099 44.911,15.099L43.903,15.099ZM44.911,14.512C45.247,14.512 45.536,14.545 45.778,14.612C46.022,14.678 46.222,14.773 46.377,14.896C46.535,15.018 46.651,15.169 46.725,15.348C46.799,15.525 46.836,15.725 46.836,15.947C46.836,16.083 46.814,16.213 46.771,16.339C46.73,16.462 46.667,16.577 46.583,16.684C46.499,16.792 46.393,16.889 46.263,16.976C46.135,17.06 45.985,17.129 45.812,17.183C46.214,17.26 46.516,17.405 46.717,17.617C46.921,17.827 47.023,18.103 47.023,18.446C47.023,18.679 46.979,18.891 46.893,19.083C46.809,19.275 46.684,19.44 46.519,19.578C46.356,19.716 46.155,19.824 45.915,19.901C45.676,19.975 45.404,20.012 45.098,20.012L43.166,20.012L43.166,14.512L44.911,14.512Z" fill="#0CA49D"/>
<path d="M50.933,17.97L50.074,15.732C50.049,15.666 50.022,15.589 49.994,15.502C49.966,15.412 49.939,15.318 49.914,15.218C49.86,15.425 49.806,15.598 49.75,15.736L48.89,17.97L50.933,17.97ZM52.476,20.012L51.903,20.012C51.837,20.012 51.784,19.995 51.743,19.962C51.702,19.929 51.672,19.887 51.651,19.835L51.139,18.507L48.684,18.507L48.173,19.835C48.157,19.882 48.128,19.923 48.085,19.958C48.041,19.994 47.988,20.012 47.924,20.012L47.352,20.012L49.539,14.512L50.288,14.512L52.476,20.012Z" fill="#0CA49D"/>
<path d="M57.63,14.512L57.63,20.012L57.26,20.012C57.201,20.012 57.152,20.002 57.111,19.981C57.073,19.961 57.035,19.926 56.997,19.878L53.831,15.732C53.836,15.796 53.84,15.859 53.843,15.92C53.845,15.982 53.846,16.039 53.846,16.093L53.846,20.012L53.197,20.012L53.197,14.512L53.579,14.512C53.612,14.512 53.64,14.514 53.663,14.519C53.686,14.522 53.706,14.528 53.724,14.539C53.742,14.546 53.76,14.559 53.778,14.577C53.795,14.592 53.815,14.613 53.835,14.638L57,18.78C56.995,18.713 56.99,18.649 56.985,18.588C56.982,18.524 56.981,18.464 56.981,18.408L56.981,14.512L57.63,14.512Z" fill="#0CA49D"/>
<path d="M59.766,16.922L60.045,16.922C60.142,16.922 60.219,16.911 60.278,16.888C60.337,16.862 60.39,16.82 60.438,16.761L62.26,14.688C62.311,14.622 62.364,14.576 62.42,14.55C62.476,14.525 62.545,14.512 62.626,14.512L63.252,14.512L61.168,16.88C61.117,16.941 61.067,16.993 61.019,17.034C60.973,17.072 60.923,17.104 60.87,17.129C60.939,17.152 61.001,17.187 61.057,17.233C61.113,17.277 61.168,17.334 61.221,17.406L63.398,20.012L62.756,20.012C62.708,20.012 62.666,20.009 62.63,20.004C62.597,19.997 62.568,19.986 62.542,19.974C62.517,19.958 62.494,19.942 62.474,19.924C62.456,19.903 62.438,19.88 62.42,19.855L60.534,17.671C60.483,17.607 60.428,17.562 60.37,17.536C60.311,17.508 60.222,17.494 60.102,17.494L59.766,17.494L59.766,20.012L59.029,20.012L59.029,14.512L59.766,14.512L59.766,16.922Z" fill="#0CA49D"/>
<path d="M68.837,15.371C68.815,15.41 68.789,15.439 68.761,15.46C68.736,15.478 68.704,15.487 68.666,15.487C68.622,15.487 68.571,15.465 68.513,15.421C68.454,15.378 68.381,15.33 68.291,15.279C68.205,15.226 68.099,15.177 67.974,15.133C67.852,15.09 67.703,15.068 67.528,15.068C67.362,15.068 67.216,15.091 67.089,15.137C66.964,15.181 66.858,15.241 66.772,15.318C66.688,15.394 66.624,15.485 66.581,15.59C66.538,15.693 66.516,15.804 66.516,15.924C66.516,16.078 66.553,16.206 66.627,16.308C66.703,16.408 66.802,16.493 66.924,16.565C67.049,16.637 67.189,16.699 67.344,16.753C67.502,16.804 67.663,16.858 67.826,16.914C67.991,16.971 68.151,17.035 68.307,17.106C68.465,17.175 68.605,17.264 68.727,17.371C68.851,17.479 68.951,17.611 69.025,17.767C69.101,17.923 69.139,18.115 69.139,18.342C69.139,18.583 69.098,18.809 69.017,19.022C68.936,19.232 68.816,19.414 68.658,19.571C68.503,19.727 68.31,19.85 68.081,19.939C67.855,20.029 67.596,20.073 67.306,20.073C66.95,20.073 66.627,20.009 66.336,19.881C66.046,19.751 65.798,19.576 65.592,19.356L65.806,19.002C65.826,18.974 65.85,18.951 65.878,18.933C65.909,18.913 65.942,18.903 65.977,18.903C66.011,18.903 66.048,18.917 66.088,18.945C66.132,18.97 66.18,19.004 66.233,19.045C66.287,19.086 66.348,19.13 66.417,19.179C66.485,19.228 66.563,19.272 66.65,19.313C66.739,19.354 66.839,19.389 66.951,19.417C67.063,19.443 67.189,19.455 67.329,19.455C67.505,19.455 67.661,19.431 67.799,19.382C67.936,19.334 68.052,19.266 68.146,19.179C68.243,19.09 68.317,18.983 68.368,18.861C68.419,18.738 68.444,18.601 68.444,18.45C68.444,18.283 68.406,18.148 68.33,18.043C68.256,17.935 68.158,17.846 68.036,17.774C67.913,17.703 67.773,17.642 67.615,17.594C67.458,17.543 67.297,17.491 67.134,17.44C66.972,17.386 66.811,17.325 66.653,17.256C66.495,17.187 66.355,17.097 66.233,16.987C66.111,16.877 66.012,16.74 65.935,16.577C65.862,16.41 65.825,16.206 65.825,15.963C65.825,15.768 65.862,15.58 65.935,15.398C66.012,15.217 66.121,15.055 66.264,14.915C66.409,14.774 66.586,14.661 66.795,14.577C67.006,14.492 67.248,14.45 67.52,14.45C67.826,14.45 68.103,14.499 68.353,14.596C68.605,14.693 68.826,14.834 69.017,15.018L68.837,15.371Z" fill="#0CA49D"/>
<path d="M72.128,17.82L72.128,20.012L71.387,20.012L71.387,17.82L69.383,14.512L70.032,14.512C70.098,14.512 70.15,14.528 70.188,14.562C70.227,14.592 70.26,14.633 70.288,14.684L71.54,16.822C71.586,16.912 71.628,16.996 71.666,17.076C71.704,17.152 71.737,17.23 71.765,17.31C71.793,17.23 71.825,17.152 71.861,17.076C71.897,16.996 71.936,16.912 71.979,16.822L73.228,14.684C73.251,14.641 73.283,14.601 73.323,14.565C73.364,14.53 73.416,14.512 73.48,14.512L74.133,14.512L72.128,17.82Z" fill="#0CA49D"/>
<path d="M77.209,17.97L76.349,15.732C76.324,15.666 76.297,15.589 76.269,15.502C76.241,15.412 76.215,15.318 76.189,15.218C76.136,15.425 76.081,15.598 76.025,15.736L75.166,17.97L77.209,17.97ZM78.751,20.012L78.179,20.012C78.112,20.012 78.059,19.995 78.018,19.962C77.977,19.929 77.947,19.887 77.927,19.835L77.415,18.507L74.96,18.507L74.448,19.835C74.433,19.882 74.403,19.923 74.36,19.958C74.317,19.994 74.263,20.012 74.2,20.012L73.627,20.012L75.815,14.512L76.563,14.512L78.751,20.012Z" fill="#0CA49D"/>
<path d="M80.987,17.175C81.2,17.175 81.389,17.15 81.552,17.099C81.717,17.045 81.855,16.971 81.964,16.876C82.076,16.779 82.16,16.664 82.216,16.531C82.272,16.398 82.3,16.25 82.3,16.089C82.3,15.762 82.193,15.515 81.979,15.348C81.766,15.182 81.445,15.099 81.017,15.099L80.208,15.099L80.208,17.175L80.987,17.175ZM83.514,20.012L82.858,20.012C82.723,20.012 82.623,19.96 82.56,19.855L81.139,17.889C81.096,17.828 81.049,17.784 80.998,17.759C80.95,17.731 80.873,17.717 80.769,17.717L80.208,17.717L80.208,20.012L79.471,20.012L79.471,14.512L81.017,14.512C81.363,14.512 81.662,14.548 81.914,14.619C82.167,14.688 82.374,14.789 82.537,14.922C82.702,15.055 82.825,15.217 82.903,15.406C82.982,15.593 83.022,15.803 83.022,16.036C83.022,16.23 82.991,16.412 82.93,16.581C82.869,16.749 82.78,16.902 82.663,17.037C82.548,17.17 82.407,17.284 82.239,17.379C82.074,17.474 81.885,17.545 81.674,17.594C81.768,17.648 81.85,17.726 81.918,17.828L83.514,20.012Z" fill="#0CA49D"/>
<rect  x="84.258" y="14.512" width="0.741" height="5.5" fill="#0CA49D"/>
<path d="M89.304,17.97L88.445,15.732C88.42,15.666 88.393,15.589 88.365,15.502C88.337,15.412 88.31,15.318 88.285,15.218C88.231,15.425 88.177,15.598 88.121,15.736L87.261,17.97L89.304,17.97ZM90.847,20.012L90.274,20.012C90.208,20.012 90.155,19.995 90.114,19.962C90.073,19.929 90.043,19.887 90.022,19.835L89.51,18.507L87.055,18.507L86.544,19.835C86.528,19.882 86.499,19.923 86.456,19.958C86.413,19.994 86.359,20.012 86.295,20.012L85.723,20.012L87.911,14.512L88.659,14.512L90.847,20.012Z" fill="#0CA49D"/>
<path d="M95.999,14.512L95.999,20.012L95.259,20.012L95.259,17.509L92.307,17.509L92.307,20.012L91.566,20.012L91.566,14.512L92.307,14.512L92.307,16.964L95.259,16.964L95.259,14.512L95.999,14.512Z" fill="#0CA49D"/>
<rect  x="43.166" y="21.762" width="0.741" height="5.5" fill="#0CA49D"/>
<path d="M49.74,21.762L49.74,27.263L49.369,27.263C49.311,27.263 49.261,27.252 49.221,27.232C49.182,27.211 49.144,27.177 49.106,27.128L45.94,22.983C45.946,23.047 45.949,23.109 45.952,23.171C45.955,23.232 45.956,23.29 45.956,23.344L45.956,27.263L45.307,27.263L45.307,21.762L45.688,21.762C45.722,21.762 45.75,21.765 45.772,21.77C45.795,21.773 45.816,21.779 45.834,21.789C45.851,21.797 45.869,21.81 45.887,21.827C45.905,21.843 45.924,21.863 45.944,21.889L49.11,26.03C49.105,25.964 49.1,25.9 49.095,25.839C49.092,25.775 49.091,25.714 49.091,25.658L49.091,21.762L49.74,21.762Z" fill="#0CA49D"/>
<path d="M55.881,24.514C55.881,24.926 55.816,25.301 55.686,25.639C55.557,25.977 55.373,26.266 55.136,26.507C54.9,26.747 54.615,26.934 54.281,27.067C53.95,27.197 53.584,27.263 53.182,27.263L51.139,27.263L51.139,21.762L53.182,21.762C53.584,21.762 53.95,21.829 54.281,21.962C54.615,22.092 54.9,22.279 55.136,22.522C55.373,22.763 55.557,23.052 55.686,23.39C55.816,23.727 55.881,24.102 55.881,24.514ZM55.121,24.514C55.121,24.177 55.075,23.875 54.984,23.609C54.892,23.342 54.762,23.117 54.594,22.933C54.426,22.749 54.223,22.608 53.983,22.511C53.744,22.414 53.477,22.365 53.182,22.365L51.879,22.365L51.879,26.66L53.182,26.66C53.477,26.66 53.744,26.611 53.983,26.514C54.223,26.417 54.426,26.277 54.594,26.096C54.762,25.912 54.892,25.686 54.984,25.42C55.075,25.154 55.121,24.852 55.121,24.514Z" fill="#0CA49D"/>
<path d="M62.003,24.514C62.003,24.926 61.938,25.305 61.808,25.65C61.678,25.993 61.495,26.289 61.258,26.537C61.022,26.785 60.736,26.978 60.403,27.117C60.072,27.252 59.706,27.32 59.303,27.32C58.901,27.32 58.534,27.252 58.204,27.117C57.873,26.978 57.589,26.785 57.352,26.537C57.115,26.289 56.932,25.993 56.802,25.65C56.672,25.305 56.607,24.926 56.607,24.514C56.607,24.102 56.672,23.725 56.802,23.382C56.932,23.036 57.115,22.74 57.352,22.491C57.589,22.241 57.873,22.046 58.204,21.908C58.534,21.77 58.901,21.701 59.303,21.701C59.706,21.701 60.072,21.77 60.403,21.908C60.736,22.046 61.022,22.241 61.258,22.491C61.495,22.74 61.678,23.036 61.808,23.382C61.938,23.725 62.003,24.102 62.003,24.514ZM61.243,24.514C61.243,24.176 61.197,23.873 61.106,23.605C61.014,23.336 60.884,23.109 60.716,22.925C60.548,22.738 60.344,22.595 60.105,22.495C59.866,22.395 59.599,22.346 59.303,22.346C59.011,22.346 58.745,22.395 58.505,22.495C58.266,22.595 58.061,22.738 57.891,22.925C57.722,23.109 57.593,23.336 57.501,23.605C57.409,23.873 57.364,24.176 57.364,24.514C57.364,24.852 57.409,25.155 57.501,25.424C57.593,25.69 57.722,25.916 57.891,26.103C58.061,26.287 58.266,26.43 58.505,26.529C58.745,26.627 59.011,26.675 59.303,26.675C59.599,26.675 59.866,26.627 60.105,26.529C60.344,26.43 60.548,26.287 60.716,26.103C60.884,25.916 61.014,25.69 61.106,25.424C61.197,25.155 61.243,24.852 61.243,24.514Z" fill="#0CA49D"/>
<path d="M67.496,21.762L67.496,27.263L67.125,27.263C67.067,27.263 67.017,27.252 66.976,27.232C66.938,27.211 66.9,27.177 66.862,27.128L63.696,22.983C63.701,23.047 63.705,23.109 63.708,23.171C63.71,23.232 63.712,23.29 63.712,23.344L63.712,27.263L63.063,27.263L63.063,21.762L63.444,21.762C63.477,21.762 63.505,21.765 63.528,21.77C63.551,21.773 63.572,21.779 63.589,21.789C63.607,21.797 63.625,21.81 63.643,21.827C63.661,21.843 63.68,21.863 63.7,21.889L66.866,26.03C66.861,25.964 66.855,25.9 66.85,25.839C66.848,25.775 66.847,25.714 66.847,25.658L66.847,21.762L67.496,21.762Z" fill="#0CA49D"/>
<path d="M72.27,26.656L72.266,27.263L68.895,27.263L68.895,21.762L72.266,21.762L72.266,22.369L69.635,22.369L69.635,24.196L71.766,24.196L71.766,24.779L69.635,24.779L69.635,26.656L72.27,26.656Z" fill="#0CA49D"/>
<path d="M76.101,22.622C76.078,22.66 76.053,22.69 76.025,22.71C75.999,22.728 75.968,22.737 75.929,22.737C75.886,22.737 75.835,22.715 75.776,22.672C75.718,22.628 75.644,22.581 75.555,22.53C75.469,22.476 75.363,22.427 75.238,22.384C75.116,22.34 74.967,22.319 74.791,22.319C74.626,22.319 74.48,22.342 74.352,22.388C74.228,22.431 74.122,22.491 74.035,22.568C73.951,22.645 73.888,22.736 73.844,22.841C73.801,22.943 73.779,23.054 73.779,23.175C73.779,23.328 73.816,23.456 73.89,23.558C73.967,23.658 74.066,23.744 74.188,23.816C74.313,23.887 74.453,23.95 74.608,24.004C74.766,24.055 74.926,24.109 75.089,24.165C75.255,24.221 75.415,24.285 75.57,24.357C75.728,24.426 75.868,24.514 75.99,24.622C76.115,24.729 76.214,24.861 76.288,25.017C76.365,25.173 76.403,25.365 76.403,25.593C76.403,25.833 76.362,26.06 76.281,26.272C76.199,26.482 76.079,26.665 75.922,26.821C75.766,26.977 75.574,27.1 75.345,27.189C75.118,27.279 74.86,27.324 74.57,27.324C74.213,27.324 73.89,27.26 73.6,27.132C73.31,27.001 73.062,26.826 72.855,26.606L73.069,26.253C73.09,26.225 73.114,26.202 73.142,26.184C73.172,26.163 73.205,26.153 73.241,26.153C73.274,26.153 73.311,26.167 73.352,26.195C73.395,26.221 73.443,26.254 73.497,26.295C73.55,26.336 73.611,26.381 73.68,26.43C73.749,26.478 73.827,26.523 73.913,26.564C74.002,26.605 74.103,26.639 74.215,26.667C74.327,26.693 74.453,26.706 74.593,26.706C74.768,26.706 74.925,26.682 75.062,26.633C75.2,26.584 75.316,26.516 75.41,26.43C75.507,26.34 75.581,26.234 75.631,26.111C75.682,25.988 75.708,25.851 75.708,25.7C75.708,25.534 75.67,25.398 75.593,25.293C75.519,25.186 75.421,25.096 75.299,25.025C75.177,24.953 75.037,24.893 74.879,24.844C74.721,24.793 74.561,24.742 74.398,24.691C74.235,24.637 74.075,24.576 73.917,24.507C73.759,24.437 73.619,24.348 73.497,24.238C73.375,24.128 73.276,23.991 73.199,23.827C73.125,23.661 73.088,23.456 73.088,23.213C73.088,23.018 73.125,22.83 73.199,22.649C73.276,22.467 73.385,22.306 73.527,22.165C73.673,22.024 73.85,21.912 74.058,21.827C74.27,21.743 74.511,21.701 74.784,21.701C75.089,21.701 75.367,21.749 75.616,21.846C75.868,21.944 76.09,22.084 76.281,22.269L76.101,22.622Z" fill="#0CA49D"/>
<rect  x="77.449" y="21.762" width="0.741" height="5.5" fill="#0CA49D"/>
<path d="M82.496,25.221L81.637,22.983C81.611,22.916 81.584,22.84 81.556,22.753C81.528,22.663 81.502,22.568 81.476,22.468C81.423,22.676 81.368,22.848 81.312,22.987L80.453,25.221L82.496,25.221ZM84.038,27.263L83.466,27.263C83.399,27.263 83.346,27.246 83.305,27.213C83.265,27.18 83.234,27.137 83.214,27.086L82.702,25.758L80.247,25.758L79.735,27.086C79.72,27.132 79.69,27.173 79.647,27.209C79.604,27.245 79.55,27.263 79.487,27.263L78.914,27.263L81.102,21.762L81.85,21.762L84.038,27.263Z" fill="#0CA49D"/>
</svg>
