<svg width="60" height="18" viewBox="0 0 60 18" fill="none" xmlns="http://www.w3.org/2000/svg" xmlns:xlink="http://www.w3.org/1999/xlink">
<path d="M19.911,4.332L19.89,4.332L19.89,4.334C19.897,4.333 19.903,4.333 19.911,4.332Z" fill="#168F8C"/>
<path d="M20.038,4.147L20.038,15.97L22.803,15.97L22.803,7.109C22.803,6.447 22.452,4.448 20.038,4.147Z" fill="#0CA49D"/>
<path d="M5.337,13.913C5.688,13.913 5.976,13.868 6.199,13.778C6.422,13.689 6.597,13.573 6.723,13.43C6.849,13.288 6.936,13.127 6.983,12.947C7.03,12.768 7.054,12.586 7.054,12.401C7.054,12.19 7.026,12 6.971,11.831C6.916,11.663 6.822,11.52 6.688,11.404C6.554,11.288 6.377,11.198 6.156,11.135C5.935,11.072 5.657,11.04 5.321,11.04L3.462,11.04L3.462,13.913L5.337,13.913ZM3.462,6.402L3.462,9.251L4.849,9.251C5.142,9.251 5.408,9.23 5.644,9.188C5.88,9.146 6.081,9.072 6.247,8.966C6.412,8.861 6.538,8.716 6.625,8.531C6.711,8.347 6.755,8.114 6.755,7.835C6.755,7.56 6.72,7.332 6.652,7.15C6.584,6.968 6.479,6.822 6.337,6.711C6.195,6.6 6.015,6.521 5.798,6.473C5.58,6.426 5.321,6.402 5.022,6.402L3.462,6.402ZM5.022,4.4C5.815,4.4 6.489,4.474 7.046,4.622C7.603,4.769 8.057,4.978 8.409,5.247C8.76,5.516 9.016,5.843 9.177,6.228C9.337,6.613 9.417,7.043 9.417,7.518C9.417,7.777 9.38,8.026 9.307,8.266C9.233,8.506 9.118,8.73 8.96,8.939C8.802,9.147 8.6,9.338 8.354,9.513C8.107,9.687 7.81,9.837 7.464,9.964C8.22,10.148 8.779,10.446 9.141,10.858C9.503,11.269 9.685,11.802 9.685,12.457C9.685,12.947 9.59,13.404 9.401,13.826C9.212,14.248 8.935,14.616 8.57,14.93C8.205,15.244 7.755,15.489 7.219,15.666C6.684,15.843 6.072,15.931 5.384,15.931L0.8,15.931L0.8,4.4L5.022,4.4Z" fill="#0CA49D"/>
<path d="M17.687,6.742C17.609,6.869 17.526,6.964 17.439,7.027C17.353,7.09 17.241,7.122 17.105,7.122C16.984,7.122 16.854,7.084 16.715,7.007C16.576,6.931 16.418,6.845 16.242,6.75C16.066,6.655 15.865,6.569 15.64,6.493C15.414,6.416 15.156,6.378 14.868,6.378C14.369,6.378 13.997,6.485 13.753,6.699C13.509,6.912 13.387,7.201 13.387,7.565C13.387,7.798 13.46,7.99 13.607,8.143C13.754,8.296 13.947,8.428 14.186,8.539C14.425,8.65 14.698,8.751 15.006,8.843C15.313,8.936 15.626,9.039 15.947,9.152C16.267,9.266 16.581,9.399 16.888,9.552C17.195,9.705 17.468,9.9 17.707,10.137C17.946,10.375 18.139,10.664 18.286,11.004C18.433,11.344 18.507,11.755 18.507,12.235C18.507,12.768 18.415,13.266 18.231,13.73C18.047,14.195 17.781,14.6 17.431,14.945C17.082,15.291 16.652,15.563 16.14,15.76C15.628,15.958 15.046,16.057 14.395,16.057C14.038,16.057 13.674,16.02 13.304,15.947C12.934,15.873 12.576,15.768 12.229,15.634C11.882,15.499 11.557,15.34 11.252,15.155C10.947,14.97 10.682,14.765 10.457,14.538L11.244,13.287C11.307,13.197 11.39,13.122 11.492,13.062C11.595,13.001 11.706,12.971 11.827,12.971C11.985,12.971 12.143,13.021 12.304,13.121C12.464,13.221 12.645,13.332 12.847,13.454C13.049,13.575 13.282,13.686 13.544,13.786C13.807,13.886 14.117,13.936 14.474,13.936C14.957,13.936 15.332,13.829 15.6,13.616C15.868,13.402 16.002,13.063 16.002,12.599C16.002,12.33 15.928,12.111 15.781,11.942C15.634,11.773 15.441,11.633 15.203,11.522C14.963,11.412 14.692,11.314 14.387,11.23C14.083,11.145 13.77,11.052 13.45,10.949C13.129,10.846 12.817,10.719 12.513,10.569C12.208,10.418 11.936,10.221 11.697,9.975C11.458,9.73 11.265,9.424 11.118,9.057C10.971,8.69 10.898,8.238 10.898,7.7C10.898,7.267 10.984,6.845 11.158,6.433C11.331,6.022 11.586,5.655 11.922,5.334C12.258,5.012 12.67,4.754 13.158,4.562C13.647,4.369 14.206,4.273 14.836,4.273C15.188,4.273 15.531,4.301 15.864,4.356C16.197,4.411 16.514,4.493 16.813,4.601C17.113,4.71 17.392,4.839 17.652,4.989C17.912,5.14 18.144,5.31 18.349,5.5L17.687,6.742Z" fill="#0CA49D"/>
<path d="M23.106,-0.114C23.1,-0.211 23.089,-0.306 23.075,-0.4C23.694,0.242 24.577,0.618 25.534,0.557C25.992,0.528 26.42,0.401 26.801,0.2C26.505,0.719 26.352,1.327 26.392,1.969C26.442,2.763 26.78,3.469 27.297,3.993C27.033,3.94 26.758,3.919 26.476,3.937C25.356,4.008 24.411,4.66 23.91,5.581C23.713,4.219 22.661,3.16 21.346,2.927C22.457,2.382 23.189,1.203 23.106,-0.114Z" fill="#F9AD3C"/>
<path d="M27.852,11.253C27.978,11.253 28.088,11.238 28.179,11.209C28.271,11.18 28.346,11.139 28.404,11.087C28.463,11.033 28.507,10.97 28.534,10.898C28.562,10.824 28.576,10.744 28.576,10.656C28.576,10.486 28.515,10.351 28.395,10.253C28.274,10.153 28.093,10.103 27.852,10.103L27.141,10.103L27.141,11.253L27.852,11.253ZM27.141,8.659L27.141,9.786L27.728,9.786C27.853,9.786 27.962,9.772 28.053,9.744C28.147,9.717 28.223,9.678 28.282,9.629C28.344,9.58 28.389,9.521 28.418,9.452C28.447,9.381 28.461,9.304 28.461,9.221C28.461,9.026 28.403,8.884 28.287,8.795C28.171,8.705 27.991,8.659 27.746,8.659L27.141,8.659ZM27.746,8.307C27.948,8.307 28.121,8.327 28.266,8.367C28.413,8.407 28.533,8.464 28.626,8.537C28.721,8.611 28.79,8.702 28.835,8.809C28.879,8.915 28.901,9.035 28.901,9.168C28.901,9.25 28.888,9.328 28.862,9.403C28.838,9.477 28.8,9.546 28.75,9.611C28.699,9.675 28.635,9.733 28.557,9.786C28.481,9.836 28.391,9.878 28.287,9.91C28.528,9.956 28.709,10.043 28.83,10.17C28.952,10.296 29.013,10.462 29.013,10.668C29.013,10.807 28.987,10.935 28.935,11.05C28.885,11.165 28.81,11.264 28.711,11.347C28.613,11.43 28.493,11.494 28.349,11.541C28.205,11.585 28.042,11.607 27.859,11.607L26.699,11.607L26.699,8.307L27.746,8.307Z" fill="#0CA49D"/>
<path d="M31.36,10.382L30.845,9.039C30.829,9 30.813,8.953 30.797,8.901C30.78,8.848 30.764,8.791 30.749,8.731C30.716,8.855 30.684,8.959 30.65,9.042L30.134,10.382L31.36,10.382ZM32.286,11.607L31.942,11.607C31.902,11.607 31.87,11.597 31.846,11.577C31.821,11.557 31.803,11.532 31.791,11.501L31.484,10.705L30.011,10.705L29.704,11.501C29.695,11.529 29.677,11.554 29.651,11.575C29.625,11.597 29.593,11.607 29.555,11.607L29.211,11.607L30.524,8.307L30.973,8.307L32.286,11.607Z" fill="#0CA49D"/>
<path d="M35.378,8.307L35.378,11.607L35.155,11.607C35.12,11.607 35.091,11.601 35.066,11.589C35.043,11.577 35.02,11.556 34.997,11.527L33.098,9.039C33.101,9.078 33.103,9.116 33.105,9.152C33.107,9.189 33.107,9.224 33.107,9.256L33.107,11.607L32.718,11.607L32.718,8.307L32.947,8.307C32.967,8.307 32.984,8.309 32.997,8.312C33.011,8.313 33.023,8.317 33.034,8.323C33.045,8.328 33.055,8.336 33.066,8.346C33.077,8.356 33.088,8.368 33.1,8.383L35,10.868C34.997,10.828 34.994,10.79 34.991,10.753C34.989,10.715 34.988,10.678 34.988,10.645L34.988,8.307L35.378,8.307Z" fill="#0CA49D"/>
<path d="M36.659,9.753L36.827,9.753C36.885,9.753 36.931,9.746 36.966,9.733C37.001,9.717 37.033,9.692 37.062,9.657L38.155,8.413C38.186,8.373 38.218,8.346 38.252,8.33C38.285,8.315 38.326,8.307 38.375,8.307L38.751,8.307L37.5,9.728C37.47,9.765 37.44,9.796 37.411,9.82C37.383,9.843 37.354,9.862 37.321,9.878C37.363,9.892 37.4,9.912 37.434,9.94C37.467,9.966 37.5,10.001 37.532,10.044L38.838,11.607L38.453,11.607C38.424,11.607 38.399,11.606 38.378,11.603C38.358,11.598 38.34,11.592 38.325,11.584C38.31,11.575 38.296,11.565 38.284,11.554C38.273,11.542 38.262,11.528 38.252,11.513L37.12,10.203C37.089,10.164 37.056,10.137 37.021,10.122C36.986,10.105 36.933,10.097 36.861,10.097L36.659,10.097L36.659,11.607L36.217,11.607L36.217,8.307L36.659,8.307L36.659,9.753Z" fill="#0CA49D"/>
<path d="M42.103,8.823C42.089,8.846 42.073,8.863 42.057,8.876C42.041,8.886 42.022,8.892 41.999,8.892C41.973,8.892 41.943,8.879 41.908,8.853C41.873,8.827 41.828,8.798 41.775,8.767C41.723,8.735 41.66,8.706 41.585,8.68C41.511,8.654 41.422,8.641 41.317,8.641C41.217,8.641 41.13,8.655 41.053,8.682C40.978,8.708 40.915,8.744 40.863,8.791C40.813,8.837 40.774,8.891 40.749,8.954C40.723,9.015 40.71,9.082 40.71,9.154C40.71,9.247 40.732,9.323 40.776,9.385C40.822,9.445 40.881,9.496 40.955,9.539C41.03,9.582 41.114,9.62 41.207,9.652C41.301,9.683 41.398,9.715 41.495,9.749C41.595,9.782 41.691,9.821 41.784,9.864C41.879,9.905 41.963,9.958 42.036,10.023C42.111,10.087 42.171,10.166 42.215,10.26C42.261,10.354 42.283,10.469 42.283,10.605C42.283,10.75 42.259,10.885 42.21,11.013C42.161,11.139 42.09,11.249 41.995,11.342C41.902,11.436 41.786,11.51 41.649,11.563C41.513,11.617 41.358,11.644 41.184,11.644C40.97,11.644 40.776,11.606 40.602,11.529C40.428,11.451 40.279,11.345 40.155,11.213L40.283,11.001C40.296,10.984 40.31,10.971 40.327,10.96C40.345,10.948 40.365,10.942 40.387,10.942C40.406,10.942 40.429,10.95 40.453,10.967C40.479,10.982 40.508,11.002 40.54,11.027C40.572,11.051 40.609,11.078 40.65,11.107C40.691,11.136 40.738,11.163 40.79,11.188C40.843,11.212 40.904,11.233 40.971,11.25C41.038,11.265 41.114,11.273 41.198,11.273C41.303,11.273 41.397,11.259 41.479,11.229C41.562,11.2 41.631,11.159 41.688,11.107C41.746,11.054 41.79,10.99 41.821,10.916C41.851,10.842 41.867,10.76 41.867,10.67C41.867,10.57 41.844,10.489 41.798,10.426C41.754,10.361 41.695,10.307 41.621,10.264C41.548,10.221 41.464,10.185 41.369,10.156C41.275,10.126 41.178,10.095 41.081,10.064C40.983,10.032 40.887,9.995 40.792,9.954C40.697,9.912 40.613,9.858 40.54,9.792C40.467,9.726 40.407,9.644 40.361,9.546C40.317,9.446 40.295,9.323 40.295,9.177C40.295,9.061 40.317,8.948 40.361,8.839C40.407,8.73 40.473,8.633 40.558,8.549C40.645,8.464 40.752,8.397 40.877,8.346C41.004,8.295 41.149,8.27 41.312,8.27C41.495,8.27 41.662,8.299 41.812,8.358C41.963,8.416 42.096,8.5 42.21,8.611L42.103,8.823Z" fill="#0CA49D"/>
<path d="M44.076,10.292L44.076,11.607L43.632,11.607L43.632,10.292L42.429,8.307L42.819,8.307C42.858,8.307 42.89,8.317 42.913,8.337C42.936,8.356 42.955,8.38 42.972,8.411L43.724,9.694C43.751,9.747 43.776,9.798 43.799,9.846C43.822,9.892 43.842,9.938 43.859,9.986C43.876,9.938 43.895,9.892 43.916,9.846C43.938,9.798 43.961,9.747 43.987,9.694L44.736,8.411C44.75,8.385 44.769,8.361 44.794,8.339C44.818,8.318 44.849,8.307 44.887,8.307L45.279,8.307L44.076,10.292Z" fill="#0CA49D"/>
<path d="M47.125,10.382L46.609,9.039C46.594,9 46.578,8.953 46.561,8.901C46.544,8.848 46.528,8.791 46.513,8.731C46.481,8.855 46.448,8.959 46.415,9.042L45.899,10.382L47.125,10.382ZM48.05,11.607L47.707,11.607C47.667,11.607 47.635,11.597 47.61,11.577C47.586,11.557 47.568,11.532 47.556,11.501L47.248,10.705L45.775,10.705L45.468,11.501C45.459,11.529 45.442,11.554 45.416,11.575C45.39,11.597 45.358,11.607 45.319,11.607L44.976,11.607L46.289,8.307L46.738,8.307L48.05,11.607Z" fill="#0CA49D"/>
<path d="M49.392,9.905C49.52,9.905 49.633,9.89 49.731,9.859C49.83,9.827 49.913,9.783 49.978,9.726C50.045,9.667 50.096,9.598 50.129,9.518C50.163,9.439 50.18,9.35 50.18,9.254C50.18,9.057 50.116,8.909 49.987,8.809C49.859,8.709 49.667,8.659 49.41,8.659L48.924,8.659L48.924,9.905L49.392,9.905ZM50.908,11.607L50.514,11.607C50.433,11.607 50.374,11.576 50.336,11.513L49.483,10.334C49.457,10.297 49.429,10.271 49.399,10.255C49.37,10.239 49.324,10.23 49.261,10.23L48.924,10.23L48.924,11.607L48.482,11.607L48.482,8.307L49.41,8.307C49.618,8.307 49.797,8.329 49.948,8.372C50.1,8.413 50.224,8.474 50.322,8.554C50.421,8.633 50.494,8.73 50.542,8.844C50.589,8.956 50.613,9.082 50.613,9.221C50.613,9.338 50.594,9.447 50.558,9.548C50.521,9.65 50.468,9.741 50.397,9.823C50.329,9.902 50.244,9.971 50.143,10.027C50.044,10.084 49.931,10.127 49.804,10.156C49.861,10.189 49.909,10.236 49.951,10.297L50.908,11.607Z" fill="#0CA49D"/>
<rect  x="51.355" y="8.307" width="0.444" height="3.3" fill="#0CA49D"/>
<path d="M54.383,10.382L53.867,9.039C53.852,9 53.836,8.953 53.819,8.901C53.802,8.848 53.786,8.791 53.771,8.731C53.739,8.855 53.706,8.959 53.672,9.042L53.157,10.382L54.383,10.382ZM55.308,11.607L54.965,11.607C54.925,11.607 54.893,11.597 54.868,11.577C54.844,11.557 54.826,11.532 54.813,11.501L54.506,10.705L53.033,10.705L52.726,11.501C52.717,11.529 52.699,11.554 52.673,11.575C52.647,11.597 52.615,11.607 52.577,11.607L52.234,11.607L53.546,8.307L53.995,8.307L55.308,11.607Z" fill="#0CA49D"/>
<path d="M58.4,8.307L58.4,11.607L57.956,11.607L57.956,10.106L56.185,10.106L56.185,11.607L55.74,11.607L55.74,8.307L56.185,8.307L56.185,9.779L57.956,9.779L57.956,8.307L58.4,8.307Z" fill="#0CA49D"/>
<rect  x="26.699" y="12.657" width="0.444" height="3.3" fill="#0CA49D"/>
<path d="M30.643,12.657L30.643,15.957L30.421,15.957C30.386,15.957 30.356,15.951 30.332,15.939C30.309,15.927 30.286,15.906 30.263,15.877L28.364,13.39C28.367,13.428 28.369,13.466 28.371,13.502C28.372,13.539 28.373,13.574 28.373,13.606L28.373,15.957L27.983,15.957L27.983,12.657L28.212,12.657C28.232,12.657 28.249,12.659 28.263,12.662C28.277,12.663 28.289,12.667 28.3,12.673C28.31,12.678 28.321,12.686 28.332,12.696C28.342,12.706 28.354,12.718 28.366,12.733L30.265,15.218C30.262,15.178 30.259,15.14 30.256,15.103C30.255,15.065 30.254,15.029 30.254,14.995L30.254,12.657L30.643,12.657Z" fill="#0CA49D"/>
<path d="M34.328,14.309C34.328,14.556 34.289,14.781 34.211,14.983C34.133,15.186 34.023,15.359 33.881,15.504C33.739,15.648 33.568,15.76 33.368,15.84C33.17,15.918 32.95,15.957 32.708,15.957L31.483,15.957L31.483,12.657L32.708,12.657C32.95,12.657 33.17,12.697 33.368,12.777C33.568,12.855 33.739,12.967 33.881,13.113C34.023,13.258 34.133,13.431 34.211,13.634C34.289,13.836 34.328,14.061 34.328,14.309ZM33.872,14.309C33.872,14.106 33.845,13.925 33.79,13.765C33.735,13.605 33.657,13.47 33.556,13.36C33.455,13.249 33.333,13.165 33.19,13.106C33.046,13.048 32.886,13.019 32.708,13.019L31.927,13.019L31.927,15.596L32.708,15.596C32.886,15.596 33.046,15.567 33.19,15.508C33.333,15.45 33.455,15.366 33.556,15.257C33.657,15.147 33.735,15.012 33.79,14.852C33.845,14.692 33.872,14.511 33.872,14.309Z" fill="#0CA49D"/>
<path d="M38.002,14.309C38.002,14.556 37.963,14.783 37.885,14.99C37.807,15.196 37.697,15.373 37.555,15.522C37.413,15.671 37.242,15.787 37.042,15.87C36.843,15.952 36.623,15.992 36.382,15.992C36.141,15.992 35.921,15.952 35.722,15.87C35.524,15.787 35.353,15.671 35.211,15.522C35.069,15.373 34.959,15.196 34.882,14.99C34.804,14.783 34.765,14.556 34.765,14.309C34.765,14.062 34.804,13.835 34.882,13.629C34.959,13.422 35.069,13.244 35.211,13.095C35.353,12.945 35.524,12.828 35.722,12.745C35.921,12.662 36.141,12.621 36.382,12.621C36.623,12.621 36.843,12.662 37.042,12.745C37.242,12.828 37.413,12.945 37.555,13.095C37.697,13.244 37.807,13.422 37.885,13.629C37.963,13.835 38.002,14.062 38.002,14.309ZM37.546,14.309C37.546,14.106 37.519,13.924 37.464,13.763C37.409,13.602 37.331,13.466 37.23,13.355C37.129,13.243 37.007,13.157 36.863,13.097C36.72,13.037 36.559,13.008 36.382,13.008C36.206,13.008 36.047,13.037 35.903,13.097C35.76,13.157 35.637,13.243 35.534,13.355C35.434,13.466 35.356,13.602 35.301,13.763C35.246,13.924 35.218,14.106 35.218,14.309C35.218,14.511 35.246,14.693 35.301,14.855C35.356,15.014 35.434,15.15 35.534,15.262C35.637,15.373 35.76,15.458 35.903,15.518C36.047,15.576 36.206,15.605 36.382,15.605C36.559,15.605 36.72,15.576 36.863,15.518C37.007,15.458 37.129,15.373 37.23,15.262C37.331,15.15 37.409,15.014 37.464,14.855C37.519,14.693 37.546,14.511 37.546,14.309Z" fill="#0CA49D"/>
<path d="M41.298,12.657L41.298,15.957L41.075,15.957C41.04,15.957 41.011,15.951 40.986,15.939C40.963,15.927 40.94,15.906 40.917,15.877L39.018,13.39C39.021,13.428 39.023,13.466 39.025,13.502C39.027,13.539 39.027,13.574 39.027,13.606L39.027,15.957L38.638,15.957L38.638,12.657L38.867,12.657C38.887,12.657 38.904,12.659 38.917,12.662C38.931,12.663 38.943,12.667 38.954,12.673C38.965,12.678 38.975,12.686 38.986,12.696C38.997,12.706 39.008,12.718 39.02,12.733L40.92,15.218C40.917,15.178 40.914,15.14 40.911,15.103C40.909,15.065 40.908,15.029 40.908,14.995L40.908,12.657L41.298,12.657Z" fill="#0CA49D"/>
<path d="M44.162,15.594L44.16,15.957L42.137,15.957L42.137,12.657L44.16,12.657L44.16,13.021L42.581,13.021L42.581,14.117L43.86,14.117L43.86,14.467L42.581,14.467L42.581,15.594L44.162,15.594Z" fill="#0CA49D"/>
<path d="M46.461,13.173C46.447,13.196 46.432,13.214 46.415,13.226C46.4,13.237 46.381,13.242 46.358,13.242C46.332,13.242 46.301,13.229 46.266,13.203C46.231,13.177 46.187,13.149 46.133,13.118C46.081,13.086 46.018,13.057 45.943,13.03C45.87,13.004 45.78,12.991 45.675,12.991C45.576,12.991 45.488,13.005 45.412,13.033C45.337,13.059 45.273,13.095 45.221,13.141C45.171,13.187 45.133,13.242 45.107,13.305C45.081,13.366 45.068,13.433 45.068,13.505C45.068,13.597 45.09,13.674 45.134,13.735C45.18,13.795 45.24,13.847 45.313,13.89C45.388,13.933 45.472,13.97 45.565,14.002C45.66,14.033 45.756,14.065 45.854,14.099C45.953,14.133 46.049,14.171 46.142,14.214C46.237,14.256 46.321,14.309 46.394,14.373C46.469,14.438 46.529,14.517 46.573,14.61C46.619,14.704 46.642,14.819 46.642,14.956C46.642,15.1 46.617,15.236 46.569,15.363C46.52,15.489 46.448,15.599 46.353,15.693C46.26,15.786 46.145,15.86 46.007,15.914C45.871,15.968 45.716,15.995 45.542,15.995C45.328,15.995 45.134,15.956 44.96,15.879C44.786,15.801 44.637,15.696 44.513,15.564L44.642,15.352C44.654,15.335 44.668,15.321 44.685,15.31C44.704,15.298 44.723,15.292 44.745,15.292C44.765,15.292 44.787,15.301 44.811,15.317C44.837,15.333 44.866,15.353 44.898,15.377C44.93,15.402 44.967,15.429 45.008,15.458C45.05,15.487 45.096,15.514 45.148,15.538C45.202,15.563 45.262,15.584 45.329,15.601C45.396,15.616 45.472,15.624 45.556,15.624C45.661,15.624 45.755,15.609 45.838,15.58C45.92,15.551 45.99,15.51 46.046,15.458C46.104,15.404 46.149,15.34 46.179,15.267C46.21,15.193 46.225,15.111 46.225,15.02C46.225,14.921 46.202,14.839 46.156,14.776C46.112,14.712 46.053,14.658 45.98,14.615C45.906,14.572 45.822,14.536 45.728,14.507C45.633,14.476 45.537,14.445 45.439,14.415C45.341,14.382 45.245,14.346 45.15,14.304C45.056,14.263 44.972,14.209 44.898,14.143C44.825,14.077 44.766,13.995 44.72,13.896C44.675,13.797 44.653,13.674 44.653,13.528C44.653,13.411 44.675,13.298 44.72,13.189C44.766,13.08 44.831,12.984 44.917,12.899C45.004,12.815 45.11,12.747 45.235,12.697C45.362,12.646 45.507,12.621 45.67,12.621C45.854,12.621 46.02,12.65 46.17,12.708C46.321,12.766 46.454,12.851 46.569,12.961L46.461,13.173Z" fill="#0CA49D"/>
<rect  x="47.269" y="12.657" width="0.445" height="3.3" fill="#0CA49D"/>
<path d="M50.297,14.732L49.782,13.39C49.766,13.35 49.75,13.304 49.734,13.251C49.717,13.198 49.701,13.141 49.685,13.081C49.653,13.205 49.621,13.309 49.587,13.392L49.071,14.732L50.297,14.732ZM51.223,15.957L50.879,15.957C50.839,15.957 50.807,15.947 50.783,15.928C50.758,15.908 50.74,15.882 50.728,15.852L50.421,15.055L48.948,15.055L48.641,15.852C48.632,15.879 48.614,15.904 48.588,15.925C48.562,15.947 48.53,15.957 48.492,15.957L48.148,15.957L49.461,12.657L49.91,12.657L51.223,15.957Z" fill="#0CA49D"/>
</svg>
