<svg width="96" height="28" viewBox="0 0 96 28" fill="none" xmlns="http://www.w3.org/2000/svg" xmlns:xlink="http://www.w3.org/1999/xlink">
<path d="M31.852,7.887L31.816,7.887L31.816,7.89C31.828,7.889 31.838,7.888 31.852,7.887Z" fill="#168F8C"/>
<path d="M32.063,7.578L32.063,27.283L36.672,27.283L36.672,12.515C36.672,11.412 36.086,8.08 32.063,7.578Z" fill="#0CA49D"/>
<path d="M7.561,23.854C8.148,23.854 8.627,23.779 8.999,23.63C9.371,23.48 9.662,23.287 9.872,23.049C10.082,22.812 10.226,22.544 10.305,22.245C10.384,21.946 10.423,21.642 10.423,21.335C10.423,20.983 10.377,20.666 10.285,20.385C10.194,20.103 10.036,19.866 9.813,19.673C9.59,19.479 9.294,19.33 8.927,19.224C8.559,19.119 8.095,19.066 7.535,19.066L4.437,19.066L4.437,23.854L7.561,23.854ZM4.437,11.336L4.437,16.085L6.748,16.085C7.237,16.085 7.68,16.05 8.073,15.979C8.467,15.909 8.802,15.786 9.078,15.61C9.353,15.434 9.563,15.192 9.708,14.884C9.852,14.577 9.924,14.19 9.924,13.724C9.924,13.267 9.867,12.886 9.754,12.583C9.64,12.279 9.465,12.035 9.229,11.851C8.992,11.666 8.692,11.534 8.329,11.455C7.966,11.376 7.535,11.336 7.036,11.336L4.437,11.336ZM7.036,7.999C8.358,7.999 9.483,8.122 10.41,8.368C11.338,8.615 12.095,8.962 12.681,9.41C13.267,9.859 13.694,10.404 13.961,11.046C14.228,11.688 14.362,12.405 14.362,13.196C14.362,13.627 14.3,14.043 14.178,14.443C14.055,14.843 13.863,15.216 13.6,15.564C13.337,15.911 13.001,16.23 12.589,16.52C12.178,16.81 11.684,17.061 11.106,17.272C12.366,17.58 13.298,18.076 13.902,18.762C14.506,19.448 14.808,20.337 14.808,21.427C14.808,22.245 14.65,23.005 14.335,23.709C14.02,24.412 13.558,25.026 12.95,25.549C12.342,26.072 11.592,26.481 10.699,26.776C9.806,27.07 8.787,27.217 7.64,27.217L0,27.217L0,7.999L7.036,7.999Z" fill="#0CA49D"/>
<path d="M28.146,11.903C28.015,12.115 27.877,12.273 27.732,12.378C27.588,12.484 27.402,12.537 27.175,12.537C26.973,12.537 26.757,12.473 26.525,12.345C26.293,12.218 26.03,12.075 25.737,11.917C25.444,11.758 25.109,11.615 24.733,11.488C24.357,11.361 23.928,11.297 23.446,11.297C22.615,11.297 21.996,11.475 21.589,11.831C21.182,12.187 20.978,12.669 20.978,13.275C20.978,13.662 21.101,13.983 21.346,14.238C21.591,14.493 21.913,14.713 22.311,14.898C22.709,15.082 23.164,15.252 23.676,15.406C24.188,15.56 24.711,15.731 25.245,15.92C25.779,16.109 26.302,16.331 26.814,16.586C27.326,16.841 27.781,17.166 28.179,17.562C28.577,17.958 28.899,18.439 29.144,19.006C29.389,19.574 29.511,20.258 29.511,21.058C29.511,21.946 29.358,22.777 29.052,23.551C28.745,24.324 28.301,24.999 27.719,25.575C27.137,26.151 26.42,26.604 25.567,26.934C24.713,27.264 23.744,27.429 22.659,27.429C22.064,27.429 21.457,27.367 20.841,27.244C20.223,27.121 19.626,26.947 19.049,26.723C18.471,26.499 17.928,26.233 17.421,25.925C16.913,25.617 16.471,25.274 16.095,24.896L17.407,22.812C17.513,22.662 17.65,22.537 17.821,22.436C17.992,22.335 18.177,22.284 18.379,22.284C18.641,22.284 18.906,22.368 19.173,22.535C19.44,22.702 19.742,22.887 20.079,23.089C20.416,23.291 20.803,23.476 21.241,23.643C21.678,23.81 22.195,23.894 22.79,23.894C23.595,23.894 24.221,23.715 24.667,23.359C25.113,23.003 25.337,22.438 25.337,21.665C25.337,21.216 25.214,20.851 24.969,20.57C24.724,20.288 24.402,20.055 24.004,19.87C23.606,19.686 23.153,19.523 22.645,19.382C22.138,19.242 21.617,19.086 21.083,18.914C20.549,18.743 20.029,18.532 19.521,18.281C19.013,18.03 18.56,17.701 18.163,17.292C17.764,16.883 17.442,16.373 17.197,15.762C16.953,15.151 16.83,14.397 16.83,13.5C16.83,12.779 16.974,12.075 17.263,11.389C17.552,10.703 17.976,10.092 18.536,9.556C19.097,9.02 19.784,8.591 20.598,8.269C21.411,7.949 22.343,7.788 23.394,7.788C23.98,7.788 24.551,7.834 25.107,7.927C25.663,8.019 26.19,8.155 26.689,8.336C27.188,8.516 27.654,8.731 28.087,8.982C28.52,9.233 28.907,9.516 29.249,9.833L28.146,11.903Z" fill="#0CA49D"/>
<path d="M37.177,0.476C37.167,0.315 37.149,0.156 37.125,0C38.156,1.07 39.629,1.697 41.224,1.595C41.987,1.547 42.701,1.336 43.336,0.999C42.843,1.864 42.587,2.879 42.654,3.948C42.737,5.271 43.301,6.449 44.162,7.322C43.722,7.233 43.263,7.199 42.793,7.229C40.927,7.347 39.352,8.433 38.517,9.969C38.188,7.699 36.436,5.934 34.244,5.545C36.096,4.636 37.316,2.671 37.177,0.476Z" fill="#F9AD3C"/>
<path d="M45.087,19.42C45.298,19.42 45.48,19.396 45.633,19.347C45.785,19.298 45.91,19.231 46.007,19.144C46.106,19.054 46.179,18.949 46.225,18.829C46.27,18.706 46.293,18.572 46.293,18.426C46.293,18.142 46.193,17.918 45.992,17.754C45.791,17.588 45.489,17.505 45.087,17.505L43.903,17.505L43.903,19.42L45.087,19.42ZM43.903,15.098L43.903,16.975L44.88,16.975C45.089,16.975 45.27,16.952 45.423,16.906C45.578,16.86 45.705,16.796 45.804,16.714C45.906,16.632 45.981,16.534 46.03,16.418C46.078,16.301 46.102,16.173 46.102,16.035C46.102,15.71 46.006,15.473 45.812,15.324C45.619,15.173 45.318,15.098 44.911,15.098L43.903,15.098ZM44.911,14.511C45.247,14.511 45.536,14.544 45.778,14.611C46.022,14.677 46.222,14.772 46.377,14.895C46.535,15.017 46.651,15.168 46.725,15.347C46.799,15.524 46.836,15.724 46.836,15.946C46.836,16.082 46.814,16.212 46.771,16.338C46.73,16.461 46.667,16.576 46.583,16.683C46.499,16.791 46.393,16.888 46.263,16.975C46.135,17.059 45.985,17.129 45.812,17.182C46.214,17.259 46.516,17.404 46.717,17.616C46.921,17.826 47.023,18.102 47.023,18.445C47.023,18.678 46.979,18.89 46.893,19.082C46.809,19.274 46.684,19.439 46.519,19.577C46.356,19.716 46.155,19.823 45.915,19.9C45.676,19.974 45.404,20.011 45.098,20.011L43.166,20.011L43.166,14.511L44.911,14.511Z" fill="#0CA49D"/>
<path d="M50.933,17.969L50.074,15.731C50.049,15.665 50.022,15.588 49.994,15.501C49.966,15.411 49.939,15.317 49.914,15.217C49.86,15.424 49.806,15.597 49.75,15.735L48.89,17.969L50.933,17.969ZM52.476,20.011L51.903,20.011C51.837,20.011 51.784,19.995 51.743,19.961C51.702,19.928 51.672,19.886 51.651,19.834L51.139,18.506L48.684,18.506L48.173,19.834C48.157,19.881 48.128,19.922 48.085,19.957C48.041,19.993 47.988,20.011 47.924,20.011L47.352,20.011L49.539,14.511L50.288,14.511L52.476,20.011Z" fill="#0CA49D"/>
<path d="M57.629,14.511L57.629,20.011L57.259,20.011C57.2,20.011 57.151,20.001 57.11,19.98C57.072,19.96 57.034,19.925 56.996,19.877L53.83,15.731C53.835,15.795 53.839,15.858 53.842,15.919C53.844,15.981 53.845,16.038 53.845,16.092L53.845,20.011L53.196,20.011L53.196,14.511L53.578,14.511C53.611,14.511 53.639,14.513 53.662,14.518C53.685,14.521 53.705,14.527 53.723,14.538C53.741,14.545 53.759,14.558 53.777,14.576C53.795,14.591 53.814,14.612 53.834,14.637L56.999,18.779C56.994,18.712 56.989,18.648 56.984,18.587C56.981,18.523 56.98,18.463 56.98,18.407L56.98,14.511L57.629,14.511Z" fill="#0CA49D"/>
<path d="M59.765,16.921L60.044,16.921C60.141,16.921 60.218,16.91 60.277,16.887C60.336,16.861 60.389,16.819 60.437,16.76L62.259,14.687C62.31,14.621 62.363,14.575 62.419,14.549C62.475,14.524 62.544,14.511 62.625,14.511L63.251,14.511L61.167,16.879C61.116,16.94 61.066,16.992 61.018,17.033C60.972,17.071 60.922,17.103 60.869,17.129C60.938,17.152 61,17.186 61.056,17.232C61.112,17.276 61.167,17.333 61.22,17.405L63.397,20.011L62.755,20.011C62.707,20.011 62.665,20.009 62.629,20.003C62.596,19.996 62.567,19.986 62.541,19.973C62.516,19.957 62.493,19.941 62.473,19.923C62.455,19.902 62.437,19.879 62.419,19.854L60.533,17.67C60.482,17.606 60.427,17.561 60.369,17.535C60.31,17.507 60.221,17.493 60.101,17.493L59.765,17.493L59.765,20.011L59.028,20.011L59.028,14.511L59.765,14.511L59.765,16.921Z" fill="#0CA49D"/>
<path d="M68.837,15.371C68.815,15.41 68.789,15.439 68.761,15.46C68.736,15.478 68.704,15.487 68.666,15.487C68.622,15.487 68.571,15.465 68.513,15.421C68.454,15.378 68.381,15.33 68.291,15.279C68.205,15.226 68.099,15.177 67.974,15.133C67.852,15.09 67.703,15.068 67.528,15.068C67.362,15.068 67.216,15.091 67.089,15.137C66.964,15.181 66.858,15.241 66.772,15.318C66.688,15.394 66.624,15.485 66.581,15.59C66.538,15.693 66.516,15.804 66.516,15.924C66.516,16.078 66.553,16.206 66.627,16.308C66.703,16.408 66.802,16.493 66.924,16.565C67.049,16.637 67.189,16.699 67.344,16.753C67.502,16.804 67.663,16.858 67.826,16.914C67.991,16.971 68.151,17.035 68.307,17.106C68.465,17.175 68.605,17.264 68.727,17.371C68.851,17.479 68.951,17.611 69.025,17.767C69.101,17.923 69.139,18.115 69.139,18.342C69.139,18.583 69.098,18.809 69.017,19.022C68.936,19.232 68.816,19.414 68.658,19.571C68.503,19.727 68.31,19.85 68.081,19.939C67.855,20.029 67.596,20.073 67.306,20.073C66.95,20.073 66.627,20.009 66.336,19.881C66.046,19.751 65.798,19.576 65.592,19.356L65.806,19.002C65.826,18.974 65.85,18.951 65.878,18.933C65.909,18.913 65.942,18.903 65.977,18.903C66.011,18.903 66.048,18.917 66.088,18.945C66.132,18.97 66.18,19.004 66.233,19.045C66.287,19.086 66.348,19.13 66.417,19.179C66.485,19.228 66.563,19.272 66.65,19.313C66.739,19.354 66.839,19.389 66.951,19.417C67.063,19.443 67.189,19.455 67.329,19.455C67.505,19.455 67.661,19.431 67.799,19.382C67.936,19.334 68.052,19.266 68.146,19.179C68.243,19.09 68.317,18.983 68.368,18.861C68.419,18.738 68.444,18.601 68.444,18.45C68.444,18.283 68.406,18.148 68.33,18.043C68.256,17.935 68.158,17.846 68.036,17.774C67.913,17.703 67.773,17.642 67.615,17.594C67.458,17.543 67.297,17.491 67.134,17.44C66.972,17.386 66.811,17.325 66.653,17.256C66.495,17.187 66.355,17.097 66.233,16.987C66.111,16.877 66.012,16.74 65.935,16.577C65.862,16.41 65.825,16.206 65.825,15.963C65.825,15.768 65.862,15.58 65.935,15.398C66.012,15.217 66.121,15.055 66.264,14.915C66.409,14.774 66.586,14.661 66.795,14.577C67.006,14.492 67.248,14.45 67.52,14.45C67.826,14.45 68.103,14.499 68.353,14.596C68.605,14.693 68.826,14.834 69.017,15.018L68.837,15.371Z" fill="#0CA49D"/>
<path d="M72.127,17.819L72.127,20.011L71.386,20.011L71.386,17.819L69.382,14.511L70.031,14.511C70.097,14.511 70.149,14.527 70.188,14.561C70.226,14.591 70.259,14.632 70.287,14.683L71.539,16.821C71.585,16.911 71.627,16.995 71.665,17.075C71.703,17.152 71.736,17.229 71.764,17.309C71.792,17.229 71.824,17.152 71.86,17.075C71.896,16.995 71.935,16.911 71.978,16.821L73.227,14.683C73.25,14.64 73.282,14.6 73.322,14.564C73.363,14.529 73.415,14.511 73.479,14.511L74.132,14.511L72.127,17.819Z" fill="#0CA49D"/>
<path d="M77.208,17.969L76.348,15.731C76.323,15.665 76.296,15.588 76.268,15.501C76.24,15.411 76.214,15.317 76.188,15.217C76.135,15.424 76.08,15.597 76.024,15.735L75.165,17.969L77.208,17.969ZM78.75,20.011L78.178,20.011C78.111,20.011 78.058,19.995 78.017,19.961C77.976,19.928 77.946,19.886 77.926,19.834L77.414,18.506L74.959,18.506L74.447,19.834C74.432,19.881 74.402,19.922 74.359,19.957C74.316,19.993 74.262,20.011 74.199,20.011L73.626,20.011L75.814,14.511L76.562,14.511L78.75,20.011Z" fill="#0CA49D"/>
<path d="M80.987,17.175C81.2,17.175 81.389,17.149 81.552,17.098C81.717,17.044 81.855,16.97 81.964,16.875C82.076,16.778 82.16,16.663 82.216,16.53C82.272,16.397 82.3,16.249 82.3,16.088C82.3,15.761 82.193,15.514 81.979,15.347C81.766,15.181 81.445,15.098 81.017,15.098L80.208,15.098L80.208,17.175L80.987,17.175ZM83.514,20.011L82.858,20.011C82.723,20.011 82.623,19.959 82.56,19.854L81.139,17.888C81.096,17.827 81.049,17.784 80.998,17.758C80.95,17.73 80.873,17.716 80.769,17.716L80.208,17.716L80.208,20.011L79.471,20.011L79.471,14.511L81.017,14.511C81.363,14.511 81.662,14.547 81.914,14.618C82.167,14.687 82.374,14.788 82.537,14.921C82.702,15.054 82.825,15.216 82.903,15.405C82.982,15.592 83.022,15.802 83.022,16.035C83.022,16.229 82.991,16.411 82.93,16.58C82.869,16.748 82.78,16.901 82.663,17.036C82.548,17.169 82.407,17.283 82.239,17.378C82.074,17.473 81.885,17.544 81.674,17.593C81.768,17.647 81.85,17.725 81.918,17.827L83.514,20.011Z" fill="#0CA49D"/>
<rect  x="84.258" y="14.511" width="0.741" height="5.5" fill="#0CA49D"/>
<path d="M89.304,17.969L88.445,15.731C88.42,15.665 88.393,15.588 88.365,15.501C88.337,15.411 88.31,15.317 88.285,15.217C88.231,15.424 88.177,15.597 88.121,15.735L87.261,17.969L89.304,17.969ZM90.847,20.011L90.274,20.011C90.208,20.011 90.155,19.995 90.114,19.961C90.073,19.928 90.043,19.886 90.022,19.834L89.51,18.506L87.055,18.506L86.544,19.834C86.528,19.881 86.499,19.922 86.456,19.957C86.413,19.993 86.359,20.011 86.295,20.011L85.723,20.011L87.911,14.511L88.659,14.511L90.847,20.011Z" fill="#0CA49D"/>
<path d="M96,14.511L96,20.011L95.26,20.011L95.26,17.509L92.308,17.509L92.308,20.011L91.567,20.011L91.567,14.511L92.308,14.511L92.308,16.963L95.26,16.963L95.26,14.511L96,14.511Z" fill="#0CA49D"/>
<rect  x="43.166" y="21.762" width="0.741" height="5.5" fill="#0CA49D"/>
<path d="M49.739,21.762L49.739,27.262L49.368,27.262C49.31,27.262 49.26,27.252 49.22,27.231C49.181,27.211 49.143,27.176 49.105,27.128L45.94,22.982C45.945,23.046 45.948,23.109 45.951,23.17C45.954,23.232 45.955,23.289 45.955,23.343L45.955,27.262L45.306,27.262L45.306,21.762L45.687,21.762C45.721,21.762 45.749,21.764 45.771,21.77C45.794,21.772 45.815,21.778 45.833,21.789C45.85,21.796 45.868,21.809 45.886,21.827C45.904,21.842 45.923,21.863 45.943,21.888L49.109,26.03C49.104,25.963 49.099,25.9 49.094,25.838C49.091,25.774 49.09,25.714 49.09,25.658L49.09,21.762L49.739,21.762Z" fill="#0CA49D"/>
<path d="M55.88,24.514C55.88,24.926 55.815,25.301 55.685,25.638C55.556,25.976 55.372,26.265 55.135,26.506C54.899,26.747 54.614,26.933 54.28,27.066C53.949,27.197 53.583,27.262 53.181,27.262L51.138,27.262L51.138,21.762L53.181,21.762C53.583,21.762 53.949,21.828 54.28,21.961C54.614,22.092 54.899,22.279 55.135,22.522C55.372,22.762 55.556,23.052 55.685,23.389C55.815,23.727 55.88,24.102 55.88,24.514ZM55.12,24.514C55.12,24.176 55.075,23.874 54.983,23.608C54.891,23.342 54.761,23.117 54.593,22.932C54.425,22.748 54.222,22.607 53.982,22.51C53.743,22.413 53.476,22.364 53.181,22.364L51.878,22.364L51.878,26.659L53.181,26.659C53.476,26.659 53.743,26.611 53.982,26.514C54.222,26.416 54.425,26.277 54.593,26.095C54.761,25.911 54.891,25.686 54.983,25.42C55.075,25.154 55.12,24.852 55.12,24.514Z" fill="#0CA49D"/>
<path d="M62.003,24.514C62.003,24.926 61.938,25.304 61.808,25.65C61.678,25.993 61.495,26.288 61.258,26.536C61.022,26.785 60.736,26.978 60.403,27.116C60.072,27.252 59.706,27.32 59.303,27.32C58.901,27.32 58.534,27.252 58.204,27.116C57.873,26.978 57.589,26.785 57.352,26.536C57.115,26.288 56.932,25.993 56.802,25.65C56.672,25.304 56.607,24.926 56.607,24.514C56.607,24.102 56.672,23.724 56.802,23.381C56.932,23.036 57.115,22.739 57.352,22.491C57.589,22.24 57.873,22.046 58.204,21.907C58.534,21.769 58.901,21.7 59.303,21.7C59.706,21.7 60.072,21.769 60.403,21.907C60.736,22.046 61.022,22.24 61.258,22.491C61.495,22.739 61.678,23.036 61.808,23.381C61.938,23.724 62.003,24.102 62.003,24.514ZM61.243,24.514C61.243,24.176 61.197,23.873 61.106,23.604C61.014,23.335 60.884,23.109 60.716,22.925C60.548,22.738 60.344,22.595 60.105,22.495C59.866,22.395 59.599,22.345 59.303,22.345C59.011,22.345 58.745,22.395 58.505,22.495C58.266,22.595 58.061,22.738 57.891,22.925C57.722,23.109 57.593,23.335 57.501,23.604C57.409,23.873 57.364,24.176 57.364,24.514C57.364,24.851 57.409,25.155 57.501,25.423C57.593,25.689 57.722,25.916 57.891,26.103C58.061,26.287 58.266,26.429 58.505,26.529C58.745,26.626 59.011,26.675 59.303,26.675C59.599,26.675 59.866,26.626 60.105,26.529C60.344,26.429 60.548,26.287 60.716,26.103C60.884,25.916 61.014,25.689 61.106,25.423C61.197,25.155 61.243,24.851 61.243,24.514Z" fill="#0CA49D"/>
<path d="M67.497,21.762L67.497,27.262L67.126,27.262C67.068,27.262 67.018,27.252 66.977,27.231C66.939,27.211 66.901,27.176 66.863,27.128L63.697,22.982C63.702,23.046 63.706,23.109 63.709,23.17C63.711,23.232 63.713,23.289 63.713,23.343L63.713,27.262L63.063,27.262L63.063,21.762L63.445,21.762C63.478,21.762 63.506,21.764 63.529,21.77C63.552,21.772 63.573,21.778 63.59,21.789C63.608,21.796 63.626,21.809 63.644,21.827C63.662,21.842 63.681,21.863 63.701,21.888L66.867,26.03C66.862,25.963 66.856,25.9 66.851,25.838C66.849,25.774 66.847,25.714 66.847,25.658L66.847,21.762L67.497,21.762Z" fill="#0CA49D"/>
<path d="M72.27,26.656L72.266,27.262L68.895,27.262L68.895,21.762L72.266,21.762L72.266,22.368L69.635,22.368L69.635,24.195L71.766,24.195L71.766,24.779L69.635,24.779L69.635,26.656L72.27,26.656Z" fill="#0CA49D"/>
<path d="M76.101,22.621C76.078,22.66 76.053,22.689 76.025,22.71C75.999,22.727 75.968,22.736 75.929,22.736C75.886,22.736 75.835,22.715 75.776,22.671C75.718,22.628 75.644,22.58 75.555,22.529C75.469,22.475 75.363,22.427 75.238,22.383C75.116,22.34 74.967,22.318 74.791,22.318C74.626,22.318 74.48,22.341 74.352,22.387C74.228,22.431 74.122,22.491 74.035,22.568C73.951,22.644 73.888,22.735 73.844,22.84C73.801,22.943 73.779,23.054 73.779,23.174C73.779,23.328 73.816,23.456 73.89,23.558C73.967,23.658 74.066,23.743 74.188,23.815C74.313,23.887 74.453,23.95 74.608,24.003C74.766,24.054 74.926,24.108 75.089,24.164C75.255,24.221 75.415,24.285 75.57,24.356C75.728,24.425 75.868,24.514 75.99,24.621C76.115,24.729 76.214,24.86 76.288,25.016C76.365,25.173 76.403,25.364 76.403,25.592C76.403,25.833 76.362,26.059 76.281,26.272C76.199,26.482 76.079,26.664 75.922,26.82C75.766,26.977 75.574,27.1 75.345,27.189C75.118,27.279 74.86,27.323 74.57,27.323C74.213,27.323 73.89,27.259 73.6,27.131C73.31,27.001 73.062,26.826 72.855,26.606L73.069,26.252C73.09,26.224 73.114,26.201 73.142,26.183C73.172,26.163 73.205,26.153 73.241,26.153C73.274,26.153 73.311,26.167 73.352,26.195C73.395,26.22 73.443,26.254 73.497,26.295C73.55,26.336 73.611,26.38 73.68,26.429C73.749,26.478 73.827,26.522 73.913,26.563C74.002,26.604 74.103,26.639 74.215,26.667C74.327,26.693 74.453,26.705 74.593,26.705C74.768,26.705 74.925,26.681 75.062,26.632C75.2,26.584 75.316,26.516 75.41,26.429C75.507,26.339 75.581,26.233 75.631,26.11C75.682,25.988 75.708,25.851 75.708,25.7C75.708,25.533 75.67,25.398 75.593,25.293C75.519,25.185 75.421,25.096 75.299,25.024C75.177,24.952 75.037,24.892 74.879,24.844C74.721,24.793 74.561,24.741 74.398,24.69C74.235,24.636 74.075,24.575 73.917,24.506C73.759,24.437 73.619,24.347 73.497,24.237C73.375,24.127 73.276,23.99 73.199,23.827C73.125,23.66 73.088,23.456 73.088,23.212C73.088,23.018 73.125,22.83 73.199,22.648C73.276,22.467 73.385,22.305 73.527,22.165C73.673,22.024 73.85,21.911 74.058,21.827C74.27,21.742 74.511,21.7 74.784,21.7C75.089,21.7 75.367,21.749 75.616,21.846C75.868,21.943 76.09,22.084 76.281,22.268L76.101,22.621Z" fill="#0CA49D"/>
<rect  x="77.449" y="21.762" width="0.741" height="5.5" fill="#0CA49D"/>
<path d="M82.496,25.22L81.637,22.982C81.611,22.916 81.584,22.839 81.556,22.752C81.528,22.663 81.502,22.568 81.476,22.468C81.423,22.675 81.368,22.848 81.312,22.986L80.453,25.22L82.496,25.22ZM84.038,27.262L83.466,27.262C83.399,27.262 83.346,27.245 83.305,27.212C83.265,27.179 83.234,27.137 83.214,27.086L82.702,25.757L80.247,25.757L79.735,27.086C79.72,27.132 79.69,27.173 79.647,27.208C79.604,27.244 79.55,27.262 79.487,27.262L78.914,27.262L81.102,21.762L81.85,21.762L84.038,27.262Z" fill="#0CA49D"/>
</svg>
