<svg width="54" height="30" viewBox="0 0 54 30" fill="none" xmlns="http://www.w3.org/2000/svg" xmlns:xlink="http://www.w3.org/1999/xlink">
<path d="M50.75,9.75L50.75,9.75C51.901,9.75 52.833,10.683 52.833,11.833L52.833,16C52.833,17.151 51.901,18.083 50.75,18.083L50.75,18.083L50.75,9.75Z" fill="#3C3C43" fill-opacity="0.6"/>
<path d="M7,1.417L42.417,1.417C45.868,1.417 48.667,4.215 48.667,7.667L48.667,20.167C48.667,23.619 45.868,26.417 42.417,26.417L7,26.417C3.548,26.417 0.75,23.619 0.75,20.167L0.75,7.667C0.75,4.215 3.548,1.417 7,1.417ZM7,3.5C4.699,3.5 2.833,5.366 2.833,7.667L2.833,20.167C2.833,22.468 4.699,24.334 7,24.334L42.417,24.334C44.718,24.334 46.583,22.468 46.583,20.167L46.583,7.667C46.583,5.366 44.718,3.5 42.417,3.5L7,3.5Z" clip-rule="evenodd" fill-rule="evenodd" fill="#3C3C43" fill-opacity="0.6"/>
<rect  x="4.917" y="5" width="39.583" height="16.667" rx="2.083" fill="#333333"/>
</svg>
