<svg width="60" height="26" viewBox="0 0 60 26" fill="none" xmlns="http://www.w3.org/2000/svg" xmlns:xlink="http://www.w3.org/1999/xlink">
<path d="M53.349,19.002C53.349,20.696 53.577,23.482 51.679,24.16L51.679,24.273L58.888,24.273L58.888,24.16C56.991,23.445 57.218,20.696 57.218,19.002L57.218,4.807C57.218,3.114 56.991,0.327 58.888,-0.388L58.888,-0.501L51.679,-0.501L51.679,-0.388C53.614,0.327 53.349,3.076 53.349,4.807L53.349,19.002ZM26.917,4.807L39.93,21.186C41.599,23.331 42.776,24.574 45.47,25.478L45.47,4.356C45.47,2.248 45.47,0.741 47.443,-0.388L47.443,-0.501L40.765,-0.501L40.765,-0.388C42.776,0.741 42.737,2.248 42.737,4.356L42.737,18.625L28.852,1.231L28.32,0.478C28.055,0.177 27.904,-0.012 27.752,-0.463L27.752,-0.501L22.212,-0.501L22.212,-0.388C24.185,0.741 24.185,2.248 24.185,4.356L24.185,19.379C24.185,21.487 24.185,22.993 22.175,24.16L22.175,24.273L28.89,24.273L28.89,24.16C26.879,22.993 26.917,21.487 26.917,19.379L26.917,4.807ZM5.704,9.477L5.704,2.097L8.246,1.833C10.523,1.607 12.95,2.963 12.95,5.561C12.95,8.648 9.422,9.477 6.956,9.477L5.704,9.477ZM5.704,21.261L5.704,11.961L8.36,11.811C11.699,11.622 15.265,13.204 15.265,16.856C15.265,20.433 12.117,21.863 9.005,21.562L5.704,21.261ZM1.834,18.964C1.834,20.696 2.062,23.445 0.164,24.16L0.164,24.273L6.425,24.273C9.27,24.273 12.268,24.386 14.923,23.106C17.465,21.901 19.476,19.416 19.476,16.517C19.476,12.828 16.706,10.568 13.292,9.852C15.455,8.911 17.085,7.481 17.085,4.958C17.085,1.607 14.165,-0.501 9.157,-0.501L0.164,-0.501L0.164,-0.388C2.1,0.327 1.834,3.076 1.834,4.77L1.834,18.964Z" clip-rule="evenodd" fill-rule="evenodd" fill="#005B6A"/>
</svg>
