<svg width="60" height="26" viewBox="0 0 60 26" fill="none" xmlns="http://www.w3.org/2000/svg" xmlns:xlink="http://www.w3.org/1999/xlink">
<path d="M53.348,19.002C53.348,20.697 53.577,23.483 51.679,24.161L51.679,24.274L58.887,24.274L58.887,24.161C56.99,23.445 57.218,20.697 57.218,19.002L57.218,4.808C57.218,3.114 56.99,0.328 58.887,-0.388L58.887,-0.5L51.679,-0.5L51.679,-0.388C53.614,0.328 53.348,3.076 53.348,4.808L53.348,19.002ZM26.917,4.808L39.93,21.186C41.599,23.332 42.776,24.575 45.469,25.478L45.469,4.356C45.469,2.248 45.469,0.742 47.443,-0.388L47.443,-0.5L40.765,-0.5L40.765,-0.388C42.776,0.742 42.737,2.248 42.737,4.356L42.737,18.626L28.852,1.231L28.32,0.478C28.055,0.177 27.904,-0.011 27.752,-0.463L27.752,-0.5L22.212,-0.5L22.212,-0.388C24.185,0.742 24.185,2.248 24.185,4.356L24.185,19.379C24.185,21.487 24.185,22.993 22.174,24.161L22.174,24.274L28.89,24.274L28.89,24.161C26.879,22.993 26.917,21.487 26.917,19.379L26.917,4.808ZM5.704,9.477L5.704,2.098L8.246,1.834C10.522,1.608 12.95,2.963 12.95,5.562C12.95,8.649 9.422,9.477 6.956,9.477L5.704,9.477ZM5.704,21.262L5.704,11.961L8.359,11.811C11.698,11.623 15.264,13.205 15.264,16.856C15.264,20.433 12.116,21.864 9.004,21.563L5.704,21.262ZM1.834,18.965C1.834,20.697 2.062,23.445 0.164,24.161L0.164,24.274L6.424,24.274C9.27,24.274 12.268,24.387 14.923,23.107C17.465,21.902 19.476,19.416 19.476,16.517C19.476,12.828 16.706,10.569 13.291,9.853C15.454,8.912 17.085,7.481 17.085,4.959C17.085,1.608 14.165,-0.5 9.157,-0.5L0.164,-0.5L0.164,-0.388C2.1,0.328 1.834,3.076 1.834,4.77L1.834,18.965Z" clip-rule="evenodd" fill-rule="evenodd" fill="#005B6A"/>
</svg>
