<svg width="36" height="18" viewBox="0 0 36 18" fill="none" xmlns="http://www.w3.org/2000/svg" xmlns:xlink="http://www.w3.org/1999/xlink">
<path d="M32.188,12.201C32.188,13.218 32.322,14.889 31.204,15.296L31.204,15.364L35.452,15.364L35.452,15.296C34.334,14.867 34.468,13.218 34.468,12.201L34.468,3.685C34.468,2.668 34.334,0.996 35.452,0.567L35.452,0.5L31.204,0.5L31.204,0.567C32.344,0.996 32.188,2.646 32.188,3.685L32.188,12.201ZM16.612,3.685L24.28,13.512C25.264,14.799 25.957,15.545 27.545,16.087L27.545,3.414C27.545,2.149 27.545,1.245 28.707,0.567L28.707,0.5L24.772,0.5L24.772,0.567C25.957,1.245 25.935,2.149 25.935,3.414L25.935,11.975L17.752,1.538L17.439,1.087C17.283,0.906 17.193,0.793 17.104,0.522L17.104,0.5L13.839,0.5L13.839,0.567C15.002,1.245 15.002,2.149 15.002,3.414L15.002,12.427C15.002,13.692 15.002,14.596 13.817,15.296L13.817,15.364L17.775,15.364L17.775,15.296C16.59,14.596 16.612,13.692 16.612,12.427L16.612,3.685ZM4.112,6.486L4.112,2.058L5.609,1.9C6.951,1.764 8.381,2.578 8.381,4.137C8.381,5.989 6.302,6.486 4.849,6.486L4.112,6.486ZM4.112,13.557L4.112,7.977L5.676,7.886C7.644,7.773 9.745,8.723 9.745,10.914C9.745,13.06 7.89,13.918 6.056,13.737L4.112,13.557ZM1.831,12.179C1.831,13.218 1.965,14.867 0.847,15.296L0.847,15.364L4.536,15.364C6.213,15.364 7.979,15.432 9.544,14.664C11.042,13.941 12.227,12.45 12.227,10.71C12.227,8.497 10.595,7.141 8.583,6.711C9.857,6.147 10.818,5.289 10.818,3.775C10.818,1.764 9.097,0.5 6.146,0.5L0.847,0.5L0.847,0.567C1.988,0.996 1.831,2.646 1.831,3.662L1.831,12.179Z" clip-rule="evenodd" fill-rule="evenodd" fill="#005B6A"/>
</svg>
