<svg width="42" height="12" viewBox="0 0 42 12" fill="none" xmlns="http://www.w3.org/2000/svg" xmlns:xlink="http://www.w3.org/1999/xlink">
<path d="M5.263,0.257C4.693,0.029 4.06,0.055 3.463,0.13C2.171,0.333 1.038,1.337 0.655,2.609C0.481,3.114 0.485,3.658 0.531,4.184C0.685,5.529 1.679,6.71 2.941,7.122C3.835,7.397 4.867,7.406 5.692,6.913C5.8,6.853 5.898,6.778 5.996,6.703L5.996,6.703C6.087,6.633 6.179,6.563 6.278,6.504L6.28,6.574C6.292,7.129 6.306,7.756 5.892,8.174C5.615,8.519 5.196,8.7 4.773,8.767C3.857,8.937 2.889,8.619 2.208,7.981C2.057,8.138 1.899,8.288 1.74,8.438C1.484,8.68 1.227,8.923 1.002,9.195C1.714,9.881 2.616,10.376 3.595,10.508C4.551,10.63 5.58,10.571 6.432,10.071C7.154,9.662 7.724,8.964 7.947,8.151C8.085,7.746 8.083,7.313 8.081,6.889L8.081,6.818C8.08,4.575 8.08,2.333 8.081,0.09C7.735,0.085 7.389,0.085 7.042,0.086C6.792,0.086 6.542,0.086 6.292,0.084L6.293,0.269C6.294,0.469 6.295,0.67 6.291,0.87C5.982,0.613 5.642,0.387 5.263,0.257ZM2.993,2.211C3.29,1.944 3.683,1.841 4.066,1.783C4.83,1.665 5.688,2.021 6.079,2.717C6.237,2.999 6.23,3.318 6.224,3.634L6.224,3.634C6.222,3.744 6.219,3.854 6.224,3.962C6.288,4.626 5.781,5.211 5.199,5.437C4.496,5.706 3.629,5.725 3.016,5.227C2.097,4.525 2.078,2.923 2.993,2.211ZM20.963,0.086C20.199,0.081 19.403,0.313 18.852,0.874L18.838,0.659L18.838,0.659C18.83,0.536 18.822,0.412 18.813,0.29C18.211,0.282 17.61,0.28 17.008,0.29C17.009,2.147 17.009,4.004 17.009,5.861L17.009,5.88C17.009,7.266 17.009,8.653 17.009,10.039C17.432,10.067 17.855,10.064 18.279,10.062C18.476,10.061 18.673,10.06 18.87,10.062C18.884,9.201 18.88,8.34 18.877,7.479C18.876,7.185 18.875,6.891 18.875,6.597C20.202,7.671 22.315,7.553 23.508,6.321C24.808,4.995 24.882,2.631 23.631,1.246C22.973,0.476 21.962,0.05 20.963,0.086ZM18.962,2.879C19.157,2.284 19.751,1.928 20.328,1.812C20.923,1.689 21.588,1.842 22.047,2.254C22.826,2.975 22.832,4.36 22.098,5.115C21.361,5.841 20.057,5.828 19.325,5.101C19.013,4.821 18.85,4.381 18.877,3.962C18.883,3.851 18.88,3.739 18.877,3.626C18.871,3.372 18.864,3.117 18.962,2.879ZM11.612,0.178C12.662,-0.037 13.811,0.093 14.725,0.688C15.421,1.115 15.95,1.808 16.186,2.599C16.511,3.638 16.365,4.827 15.758,5.731C15.154,6.642 14.123,7.201 13.059,7.305C12.404,7.351 11.726,7.328 11.106,7.085C10.079,6.734 9.217,5.87 8.914,4.804C8.589,3.805 8.74,2.661 9.297,1.776C9.813,0.949 10.677,0.384 11.612,0.178ZM12.052,1.822C11.79,1.898 11.546,2.03 11.331,2.199C10.589,2.795 10.408,3.971 10.937,4.768C11.54,5.782 13.098,5.982 13.916,5.133C14.315,4.759 14.505,4.201 14.452,3.654C14.497,2.441 13.176,1.463 12.052,1.822ZM29.206,0.131C28.131,-0.013 26.966,0.14 26.074,0.809C25.559,1.226 25.119,1.799 25.032,2.481C25.288,2.526 25.543,2.582 25.798,2.639C26.129,2.712 26.461,2.786 26.798,2.834C26.943,2.238 27.45,1.765 28.045,1.667C28.43,1.6 28.831,1.62 29.205,1.736C29.533,1.844 29.782,2.209 29.638,2.557C29.371,2.805 29.008,2.88 28.662,2.951C28.617,2.96 28.573,2.969 28.529,2.979L28.349,3.005C27.471,3.131 26.557,3.263 25.81,3.779C24.885,4.438 24.881,5.987 25.737,6.706C26.442,7.324 27.436,7.395 28.322,7.275C28.934,7.159 29.551,6.889 29.942,6.375C29.944,6.501 29.944,6.628 29.944,6.755C29.944,6.882 29.944,7.009 29.947,7.136L30.351,7.135L30.351,7.135C30.779,7.134 31.207,7.132 31.636,7.139C31.638,6.289 31.637,5.439 31.637,4.59L31.637,4.59L31.637,4.59C31.637,3.952 31.637,3.315 31.637,2.678C31.644,2.161 31.459,1.658 31.179,1.232C30.725,0.583 29.955,0.256 29.206,0.131ZM26.88,5.281C26.782,5.045 26.971,4.813 27.159,4.697C27.539,4.483 27.967,4.404 28.394,4.324C28.908,4.229 29.422,4.133 29.849,3.804C29.845,3.908 29.848,4.016 29.851,4.125L29.851,4.125L29.851,4.125C29.863,4.496 29.874,4.883 29.607,5.159C29.092,5.683 28.306,5.779 27.612,5.734C27.324,5.717 26.945,5.615 26.88,5.281ZM32.38,0.284C32.181,0.285 31.982,0.285 31.784,0.285C32.308,1.4 32.844,2.51 33.38,3.62C33.882,4.661 34.385,5.702 34.879,6.749C34.636,7.291 34.373,7.824 34.109,8.357C33.83,8.92 33.552,9.484 33.298,10.059C33.511,10.058 33.725,10.059 33.939,10.061C34.414,10.065 34.889,10.068 35.363,10.043C36.92,6.794 38.476,3.545 40.03,0.295C39.332,0.277 38.634,0.28 37.937,0.292C37.267,1.789 36.589,3.282 35.908,4.773C35.707,4.331 35.504,3.89 35.301,3.45C34.969,2.73 34.638,2.01 34.316,1.286C34.264,1.168 34.207,1.053 34.15,0.937C34.046,0.725 33.942,0.513 33.87,0.287C33.373,0.283 32.876,0.284 32.38,0.284Z" clip-rule="evenodd" fill-rule="evenodd" fill="#010101"/>
</svg>
