<svg width="12" height="14" viewBox="0 0 12 14" fill="none" xmlns="http://www.w3.org/2000/svg" xmlns:xlink="http://www.w3.org/1999/xlink">
<path d="M4.642,0.382C5.268,0.278 5.91,0.29 6.539,0.354C7.122,0.476 7.71,0.613 8.245,0.888C9.328,1.414 10.249,2.267 10.863,3.316C11.372,4.286 11.723,5.374 11.67,6.485C11.685,8.767 10.265,10.941 8.255,11.91C6.951,12.542 5.435,12.628 4.042,12.282C3.099,11.987 2.19,11.51 1.504,10.777C0.85,10.16 0.356,9.372 0.043,8.525C-0.366,7.483 -0.403,6.324 -0.229,5.227C0.089,3.596 1.078,2.101 2.479,1.234C3.13,0.797 3.88,0.537 4.642,0.382ZM3.805,3.309C3.334,3.358 2.819,3.527 2.558,3.96C2.27,4.375 2.239,4.895 2.211,5.388L2.204,5.509C2.198,5.633 2.187,5.757 2.176,5.882C2.154,6.132 2.132,6.383 2.151,6.636C2.166,6.806 2.176,6.978 2.186,7.149C2.211,7.576 2.237,8.004 2.328,8.424C2.441,8.953 2.909,9.363 3.425,9.459C4.386,9.635 5.365,9.62 6.339,9.605L6.606,9.6C7.004,9.578 7.403,9.537 7.796,9.473C8.386,9.394 8.907,8.905 9.004,8.303C9.173,7.565 9.203,6.804 9.153,6.05C9.059,5.567 8.723,5.132 8.267,4.955C8.062,4.854 7.834,4.855 7.61,4.855C7.571,4.855 7.532,4.855 7.493,4.855C7.053,4.855 6.614,4.855 6.175,4.855L6.174,4.855L6.174,4.855C5.404,4.854 4.635,4.854 3.866,4.858C3.778,4.86 3.696,4.829 3.614,4.798C3.583,4.787 3.553,4.776 3.523,4.766C3.521,4.598 3.527,4.345 3.749,4.341C4.328,4.328 4.908,4.332 5.488,4.336C6.251,4.341 7.015,4.346 7.776,4.312C7.694,3.92 7.459,3.512 7.056,3.403C6.692,3.304 6.315,3.254 5.94,3.218C5.833,3.217 5.726,3.215 5.619,3.213C5.012,3.201 4.402,3.189 3.805,3.309ZM7.932,6.596C7.737,6.543 7.505,6.621 7.437,6.825C7.394,7.059 7.462,7.286 7.53,7.51C7.559,7.605 7.587,7.699 7.607,7.793L7.785,7.898C7.861,7.853 7.938,7.812 8.019,7.777C8.028,7.578 8.075,7.387 8.122,7.196C8.142,7.111 8.163,7.027 8.181,6.941C8.145,6.801 8.054,6.672 7.932,6.596Z" clip-rule="evenodd" fill-rule="evenodd" fill="#01ACD7"/>
</svg>
