<svg width="20" height="22" viewBox="0 0 20 22" fill="none" xmlns="http://www.w3.org/2000/svg" xmlns:xlink="http://www.w3.org/1999/xlink">
<path d="M8.059,0.636C9.121,0.463 10.211,0.483 11.278,0.59C12.268,0.794 13.266,1.022 14.174,1.48C16.011,2.357 17.575,3.778 18.617,5.527C19.481,7.143 20.075,8.957 19.986,10.809C20.011,14.611 17.602,18.234 14.19,19.851C11.978,20.903 9.405,21.047 7.041,20.47C5.442,19.979 3.899,19.184 2.734,17.962C1.624,16.933 0.787,15.621 0.255,14.209C-0.438,12.472 -0.501,10.541 -0.206,8.711C0.333,5.993 2.012,3.502 4.388,2.057C5.494,1.328 6.766,0.896 8.059,0.636ZM6.639,5.516C5.839,5.597 4.965,5.878 4.523,6.6C4.033,7.292 3.982,8.158 3.934,8.98L3.922,9.181C3.912,9.389 3.893,9.596 3.875,9.803L3.875,9.803C3.838,10.221 3.8,10.639 3.833,11.06C3.857,11.344 3.874,11.629 3.892,11.914C3.935,12.627 3.978,13.34 4.133,14.039C4.324,14.921 5.118,15.605 5.994,15.765C7.625,16.059 9.287,16.033 10.939,16.008L11.392,16.001C12.068,15.963 12.744,15.894 13.413,15.788C14.413,15.657 15.297,14.842 15.462,13.839C15.749,12.609 15.8,11.339 15.715,10.084C15.554,9.279 14.985,8.553 14.211,8.258C13.863,8.09 13.476,8.091 13.097,8.092C13.03,8.092 12.963,8.092 12.897,8.091C12.151,8.092 11.405,8.092 10.659,8.092L10.659,8.092C9.353,8.091 8.048,8.09 6.743,8.096C6.593,8.099 6.453,8.048 6.315,7.997C6.263,7.978 6.212,7.959 6.16,7.943C6.157,7.663 6.167,7.242 6.544,7.235C7.527,7.213 8.511,7.219 9.494,7.226L9.495,7.226C10.79,7.234 12.086,7.243 13.379,7.186C13.238,6.534 12.841,5.853 12.156,5.672C11.538,5.507 10.898,5.423 10.262,5.364C10.081,5.362 9.899,5.358 9.718,5.355C8.688,5.335 7.653,5.315 6.639,5.516ZM13.642,10.993C13.312,10.904 12.917,11.035 12.802,11.375C12.729,11.766 12.845,12.143 12.961,12.517C13.009,12.674 13.057,12.831 13.092,12.989C13.129,13.01 13.186,13.043 13.242,13.076C13.298,13.108 13.355,13.141 13.392,13.163C13.522,13.088 13.653,13.02 13.79,12.961C13.805,12.63 13.885,12.312 13.964,11.994C14,11.852 14.035,11.711 14.065,11.569C14.003,11.334 13.849,11.12 13.642,10.993Z" clip-rule="evenodd" fill-rule="evenodd" fill="#01ACD7"/>
</svg>
