<svg width="20" height="22" viewBox="0 0 20 22" fill="none" xmlns="http://www.w3.org/2000/svg" xmlns:xlink="http://www.w3.org/1999/xlink">
<path d="M8.059,0.636C9.121,0.463 10.211,0.483 11.278,0.589C12.268,0.794 13.266,1.022 14.174,1.48C16.011,2.356 17.575,3.777 18.617,5.526C19.481,7.143 20.075,8.956 19.986,10.809C20.011,14.611 17.602,18.234 14.19,19.85C11.978,20.902 9.405,21.047 7.041,20.47C5.442,19.978 3.899,19.183 2.734,17.962C1.624,16.932 0.787,15.62 0.255,14.208C-0.438,12.471 -0.501,10.54 -0.206,8.71C0.333,5.993 2.012,3.501 4.388,2.056C5.494,1.328 6.766,0.895 8.059,0.636ZM6.639,5.515C5.839,5.597 4.965,5.878 4.523,6.6C4.033,7.292 3.982,8.157 3.934,8.979L3.922,9.181C3.912,9.388 3.893,9.595 3.875,9.802L3.875,9.802C3.838,10.22 3.8,10.638 3.833,11.059C3.857,11.344 3.874,11.629 3.892,11.914C3.935,12.627 3.978,13.339 4.133,14.039C4.324,14.921 5.118,15.604 5.994,15.765C7.625,16.059 9.287,16.033 10.939,16.007L11.392,16C12.068,15.963 12.744,15.894 13.413,15.787C14.413,15.657 15.297,14.842 15.462,13.838C15.749,12.608 15.8,11.339 15.715,10.084C15.554,9.279 14.985,8.552 14.211,8.258C13.863,8.089 13.476,8.09 13.097,8.091C13.03,8.092 12.963,8.092 12.897,8.091C12.151,8.092 11.405,8.091 10.659,8.091L10.659,8.091C9.353,8.09 8.048,8.09 6.743,8.096C6.593,8.099 6.453,8.047 6.315,7.997C6.263,7.978 6.212,7.959 6.16,7.943C6.157,7.662 6.167,7.242 6.544,7.234C7.527,7.212 8.511,7.219 9.494,7.225L9.495,7.225C10.79,7.234 12.086,7.243 13.379,7.186C13.238,6.533 12.841,5.852 12.156,5.672C11.538,5.506 10.898,5.422 10.262,5.363C10.081,5.361 9.899,5.358 9.718,5.354C8.688,5.335 7.653,5.315 6.639,5.515ZM13.642,10.993C13.312,10.904 12.917,11.034 12.802,11.374C12.729,11.765 12.845,12.142 12.961,12.517C13.009,12.674 13.057,12.831 13.092,12.988C13.129,13.01 13.186,13.043 13.242,13.075C13.298,13.108 13.355,13.14 13.392,13.162C13.522,13.087 13.653,13.019 13.79,12.96C13.805,12.63 13.885,12.311 13.964,11.993C14,11.852 14.035,11.711 14.065,11.568C14.003,11.334 13.849,11.12 13.642,10.993Z" clip-rule="evenodd" fill-rule="evenodd" fill="#01ACD7"/>
</svg>
