<svg width="68" height="18" viewBox="0 0 68 18" fill="none" xmlns="http://www.w3.org/2000/svg" xmlns:xlink="http://www.w3.org/1999/xlink">
<path d="M8.87,-0.239C7.903,-0.618 6.83,-0.575 5.817,-0.45C3.624,-0.111 1.701,1.562 1.051,3.682C0.756,4.522 0.763,5.429 0.84,6.306C1.103,8.548 2.789,10.517 4.93,11.203C6.447,11.662 8.198,11.677 9.599,10.855C9.782,10.754 9.948,10.629 10.114,10.504C10.269,10.387 10.424,10.271 10.593,10.173L10.596,10.29C10.617,11.214 10.64,12.259 9.939,12.957C9.468,13.532 8.757,13.834 8.039,13.944C6.485,14.229 4.842,13.698 3.687,12.635C3.43,12.896 3.161,13.146 2.892,13.396C2.457,13.8 2.022,14.204 1.639,14.658C2.848,15.801 4.379,16.627 6.04,16.846C7.663,17.05 9.408,16.951 10.854,16.117C12.081,15.436 13.046,14.274 13.425,12.918C13.66,12.243 13.657,11.521 13.654,10.815L13.653,10.696C13.652,6.958 13.652,3.221 13.653,-0.518C13.066,-0.525 12.478,-0.525 11.89,-0.524C11.466,-0.524 11.041,-0.524 10.617,-0.526L10.619,-0.218C10.62,0.115 10.622,0.449 10.615,0.783C10.092,0.355 9.513,-0.022 8.87,-0.239ZM5.019,3.019C5.522,2.572 6.189,2.402 6.84,2.305C8.135,2.108 9.593,2.702 10.256,3.862C10.523,4.332 10.512,4.863 10.501,5.389L10.501,5.389L10.501,5.389L10.501,5.389L10.501,5.389C10.497,5.573 10.494,5.757 10.502,5.937C10.611,7.043 9.749,8.019 8.762,8.395C7.57,8.844 6.099,8.874 5.058,8.045C3.498,6.875 3.466,4.205 5.019,3.019ZM35.514,-0.524C34.217,-0.533 32.865,-0.145 31.931,0.79C31.923,0.671 31.915,0.551 31.907,0.432C31.894,0.226 31.88,0.021 31.865,-0.184C30.844,-0.197 29.823,-0.2 28.802,-0.184C28.804,2.911 28.803,6.006 28.803,9.101C28.803,11.422 28.803,13.743 28.803,16.065C29.521,16.111 30.24,16.107 30.958,16.103L30.959,16.103L30.959,16.103L30.959,16.103L30.959,16.103L30.959,16.103L30.959,16.103L30.959,16.103L30.959,16.103C31.293,16.101 31.627,16.099 31.961,16.102C31.985,14.669 31.979,13.234 31.974,11.799L31.974,11.799L31.974,11.799L31.974,11.799L31.974,11.799C31.972,11.309 31.971,10.819 31.97,10.329C34.222,12.118 37.808,11.921 39.833,9.868C42.037,7.658 42.164,3.717 40.041,1.41C38.924,0.126 37.208,-0.584 35.514,-0.524ZM32.118,4.131C32.448,3.139 33.456,2.547 34.435,2.353C35.445,2.149 36.574,2.403 37.354,3.09C38.675,4.292 38.685,6.6 37.439,7.858C36.189,9.068 33.976,9.046 32.734,7.836C32.204,7.368 31.927,6.636 31.974,5.936C31.984,5.751 31.979,5.564 31.974,5.377L31.974,5.377L31.974,5.377L31.974,5.377L31.974,5.377C31.963,4.953 31.952,4.528 32.118,4.131ZM19.645,-0.37C21.427,-0.728 23.377,-0.513 24.928,0.479C26.108,1.192 27.006,2.347 27.408,3.665C27.958,5.397 27.711,7.378 26.68,8.885C25.656,10.404 23.906,11.334 22.101,11.509C20.988,11.584 19.838,11.546 18.786,11.141C17.043,10.556 15.581,9.117 15.066,7.34C14.515,5.675 14.77,3.769 15.716,2.294C16.591,0.915 18.059,-0.027 19.645,-0.37ZM20.391,2.369C19.947,2.496 19.532,2.717 19.168,2.999C17.909,3.991 17.602,5.952 18.499,7.28C19.523,8.969 22.167,9.303 23.554,7.888C24.232,7.265 24.555,6.335 24.464,5.423C24.541,3.401 22.299,1.772 20.391,2.369ZM49.502,-0.449C47.677,-0.688 45.701,-0.434 44.187,0.681C43.313,1.376 42.565,2.332 42.417,3.468C42.853,3.542 43.285,3.637 43.718,3.731L43.718,3.731C44.281,3.854 44.844,3.976 45.415,4.056C45.662,3.064 46.522,2.275 47.531,2.112C48.185,1.999 48.865,2.033 49.5,2.226C50.056,2.407 50.478,3.015 50.235,3.594C49.782,4.008 49.166,4.133 48.578,4.252C48.503,4.267 48.427,4.282 48.353,4.298L48.047,4.341C46.556,4.552 45.007,4.771 43.738,5.632C42.169,6.73 42.163,9.312 43.614,10.511C44.811,11.54 46.498,11.658 48,11.459C49.04,11.264 50.087,10.814 50.751,9.957C50.754,10.169 50.754,10.38 50.754,10.592C50.754,10.803 50.754,11.015 50.758,11.227C50.987,11.226 51.216,11.226 51.445,11.225C52.171,11.223 52.898,11.22 53.625,11.232C53.628,9.815 53.627,8.399 53.627,6.982C53.627,5.92 53.626,4.858 53.627,3.796C53.639,2.935 53.324,2.096 52.85,1.386C52.08,0.305 50.773,-0.24 49.502,-0.449ZM45.554,8.134C45.388,7.742 45.708,7.354 46.028,7.161C46.673,6.806 47.399,6.673 48.123,6.541C48.996,6.381 49.868,6.222 50.593,5.674C50.586,5.846 50.591,6.026 50.597,6.209L50.597,6.209C50.616,6.826 50.635,7.472 50.183,7.932C49.307,8.805 47.974,8.966 46.797,8.89C46.308,8.861 45.664,8.692 45.554,8.134ZM54.887,-0.193C54.55,-0.192 54.213,-0.192 53.876,-0.192C54.765,1.667 55.675,3.517 56.584,5.366C57.437,7.102 58.291,8.837 59.128,10.581C58.716,11.485 58.269,12.374 57.821,13.262C57.349,14.2 56.876,15.139 56.445,16.097C56.808,16.096 57.17,16.099 57.533,16.101C58.339,16.108 59.145,16.114 59.95,16.072C62.593,10.657 65.232,5.242 67.87,-0.175C66.685,-0.205 65.501,-0.2 64.317,-0.18C63.181,2.314 62.031,4.803 60.875,7.288C60.534,6.551 60.189,5.817 59.845,5.082C59.282,3.883 58.719,2.683 58.172,1.476C58.085,1.28 57.988,1.087 57.892,0.895C57.715,0.542 57.538,0.189 57.416,-0.188C56.573,-0.196 55.73,-0.194 54.887,-0.193Z" clip-rule="evenodd" fill-rule="evenodd" fill="#010101"/>
</svg>
