<svg width="100" height="26" viewBox="0 0 100 26" fill="none" xmlns="http://www.w3.org/2000/svg" xmlns:xlink="http://www.w3.org/1999/xlink">
<mask id="mask_0_i_1201_926;848_566" style="mask-type:alpha" maskUnits="userSpaceOnUse" x="0.399902" y="0.799805" width="49.52813" height="11.764596">
<path d="M0.4,24.329L99.456,24.329L99.456,0.8L0.4,0.8L0.4,24.329Z" clip-rule="evenodd" fill-rule="evenodd" fill="#000000"/>
</mask>
<path d="M85.701,6.705L91.221,6.705C93.283,6.705 94.963,7.644 94.963,9.659C94.963,11.219 94.231,12.259 92.735,12.611L92.735,12.644C93.731,12.913 93.799,13.801 94.381,15.228L95.512,18.415L92.286,18.415L91.621,16.303C90.989,14.289 90.589,13.785 89.442,13.785L88.793,13.785L88.793,18.415L85.701,18.415L85.701,6.705ZM88.793,11.57L89.608,11.57C90.606,11.57 91.87,11.536 91.87,10.211C91.87,9.121 90.788,8.919 89.608,8.919L88.793,8.919L88.793,11.57Z" clip-rule="evenodd" fill-rule="evenodd" fill="#FFFFFF"/>
<path d="M96.364,18.415L99.456,18.415L99.456,6.705L96.364,6.705L96.364,18.415Z" clip-rule="evenodd" fill-rule="evenodd" fill="#FFFFFF"/>
<path d="M20.144,0.8L3.957,0.8C1.993,0.8 0.4,2.447 0.4,4.478L0.4,4.517L0.4,20.651C0.4,22.663 1.963,24.299 3.903,24.329L20.136,24.329C22.101,24.329 23.694,22.682 23.694,20.651L23.702,4.478C23.702,2.447 22.11,0.8 20.144,0.8L20.144,0.8ZM5.882,22.444L4.999,22.453C3.93,22.453 3.063,21.567 3.063,20.474L3.058,20.318L3.058,5.382L3.064,4.578C3.104,3.52 3.9,2.668 4.944,2.668L6.739,2.668C8.366,2.668 9.685,4.095 9.685,5.78C9.685,6.612 9.362,7.368 8.838,7.917L4.258,12.606L8.551,17.017C9.104,17.592 9.439,18.349 9.439,19.178C9.439,20.982 7.846,22.444 5.882,22.444L5.882,22.444ZM19.079,22.429L11.076,22.425C11.076,22.425 12.001,20.407 12.001,19.158C12.001,17.636 11.496,16.275 10.706,15.374L7.968,12.559L10.763,9.646C11.594,8.857 12.147,7.457 12.147,5.862C12.147,4.599 11.801,3.481 11.244,2.668L13.183,2.668C14.81,2.668 16.13,4.095 16.13,5.78C16.13,6.612 15.807,7.368 15.283,7.917L10.79,12.557L20.121,22.158C19.826,22.346 19.453,22.429 19.079,22.429L19.079,22.429ZM21.034,19.431L14.347,12.555L17.532,9.289C18.18,8.472 18.591,7.239 18.591,5.862C18.591,4.591 18.24,3.445 17.678,2.632L19.104,2.675C20.173,2.675 21.039,3.563 21.039,4.656L21.034,19.431Z" clip-rule="evenodd" fill-rule="evenodd" fill="#FFFFFF"/>
</svg>
