<svg width="52" height="12" viewBox="0 0 52 12" fill="none" xmlns="http://www.w3.org/2000/svg" xmlns:xlink="http://www.w3.org/1999/xlink">
<mask id="mask_0_i_877_1408;848_660" style="mask-type:alpha" maskUnits="userSpaceOnUse" x="0.714279" y="0.585449" width="5.511937" height="5.623551">
<rect  x="0.714" y="0.585" width="11.024" height="11.247" fill="#000000"/>
</mask>
<path d="M32.011,4.565L30.829,8.075L29.63,4.565L27.638,4.565L29.879,9.584L28.991,11.553L30.922,11.553L34.004,4.565L32.011,4.565Z" clip-rule="evenodd" fill-rule="evenodd" fill="#231F20"/>
<path d="M36.131,8.42L36.131,5.78C36.497,5.654 37.822,5.316 37.822,7.032C37.822,8.78 36.463,8.512 36.131,8.42L36.131,8.42ZM34.294,9.325C34.294,9.325 35.249,9.69 36.588,9.69C37.926,9.69 39.669,9.266 39.669,6.916C39.669,4.565 37.356,4.48 37.086,4.48C36.576,4.48 36.251,4.622 36.131,4.684L36.131,2.268L34.294,2.268L34.294,9.325Z" clip-rule="evenodd" fill-rule="evenodd" fill="#231F20"/>
<path d="M41.579,8.037C41.579,7.316 42.923,7.265 43.292,7.264L43.292,8.549C42.907,8.596 41.579,8.708 41.579,8.037L41.579,8.037ZM40.655,5.836C43.291,5.041 43.292,5.995 43.292,6.121L43.292,6.292C41.158,6.31 39.887,6.932 39.887,8.059C39.887,9.202 41.071,9.7 42.638,9.7C44.205,9.7 45.004,9.329 45.004,9.329L45.004,6.206C45.004,5.105 44.308,4.406 42.638,4.406C40.967,4.406 40.241,4.809 40.241,4.809L40.655,5.836Z" clip-rule="evenodd" fill-rule="evenodd" fill="#231F20"/>
<path d="M24.332,8.037C24.332,7.316 25.676,7.265 26.044,7.264L26.044,8.549C25.66,8.596 24.332,8.708 24.332,8.037L24.332,8.037ZM23.409,5.836C26.044,5.041 26.044,5.995 26.044,6.121L26.044,6.292C23.912,6.31 22.641,6.932 22.641,8.059C22.641,9.202 23.824,9.7 25.391,9.7C26.958,9.7 27.757,9.329 27.757,9.329L27.757,6.206C27.757,5.105 27.062,4.406 25.391,4.406C23.72,4.406 22.994,4.809 22.994,4.809L23.409,5.836Z" clip-rule="evenodd" fill-rule="evenodd" fill="#231F20"/>
<path d="M49.061,9.573L50.877,9.573L50.877,6.397C50.877,4.745 49.715,4.396 48.283,4.396C46.851,4.396 45.699,4.798 45.699,4.798L45.699,9.573L47.515,9.573L47.515,5.775C48.912,5.359 49.061,6.043 49.061,6.375L49.061,9.573Z" clip-rule="evenodd" fill-rule="evenodd" fill="#231F20"/>
<path d="M3.852,4.24C3.852,4.24 3.969,3.771 4.156,3.613C4.343,3.454 5.015,3.001 5.985,2.683C6.1,2.645 6.235,2.689 6.241,2.691C6.234,2.73 6.23,2.756 6.229,2.765C6.216,2.839 6.161,2.887 6.161,2.887C6.359,2.913 6.488,2.771 6.525,2.606C6.561,2.443 6.685,1.792 6.888,1.802C7.453,1.828 7.858,3.692 7.817,3.776C7.789,3.832 7.568,3.787 7.568,3.787C7.92,4.353 8.382,4.348 8.486,4.258C8.59,4.169 8.533,3.877 8.533,3.877C9.643,4.549 9.581,5.349 9.581,5.349C9.913,4.026 9.145,3.459 9.145,3.459C9.446,3.448 9.773,3.644 9.773,3.644C9.306,3.004 8.341,2.649 8.341,2.649C8.341,2.649 7.215,1.373 6.852,1.421C6.551,1.46 6.379,2.024 6.294,2.409C6.253,2.405 6.174,2.402 6.071,2.415C5.992,2.314 5.655,1.906 5.523,2.04C5.472,2.092 5.456,2.46 5.452,2.614C4.906,2.835 3.978,3.251 3.79,3.556C3.619,3.834 3.58,4.041 3.58,4.041C3.58,4.041 2.467,4.771 2.195,5.566C2.195,5.566 2.942,4.676 3.852,4.24Z" clip-rule="evenodd" fill-rule="evenodd" fill="#231F20"/>
<g mask="url(#mask_0_i_877_1408;848_660)">
<path d="M6.226,0.585C3.187,0.585 0.714,3.109 0.714,6.209C0.714,9.309 3.187,11.833 6.226,11.833C9.266,11.833 11.738,9.309 11.738,6.209C11.738,3.109 9.266,0.585 6.226,0.585M6.226,1.055C9.016,1.055 11.277,3.362 11.277,6.209C11.277,9.055 9.016,11.362 6.226,11.362C3.437,11.362 1.175,9.055 1.175,6.209C1.175,3.362 3.437,1.055 6.226,1.055Z" clip-rule="evenodd" fill-rule="evenodd" fill="#231F20"/>
</g>
<path d="M7.433,3.65C7.417,3.062 7.132,2.591 6.986,2.564C6.841,2.538 6.794,3.099 6.794,3.099C7.179,3.358 7.433,3.65 7.433,3.65Z" clip-rule="evenodd" fill-rule="evenodd" fill="#231F20"/>
<path d="M4.698,3.544C4.475,3.681 4.574,3.798 4.574,3.798C4.574,3.798 4.537,3.681 4.812,3.602C5.303,3.46 5.746,3.316 5.736,3.194C5.725,3.073 5.393,3.025 5.393,3.025C5.487,3.152 4.921,3.406 4.698,3.544Z" clip-rule="evenodd" fill-rule="evenodd" fill="#231F20"/>
<path d="M4.929,4.321C4.996,4.321 5.051,4.266 5.051,4.197C5.051,4.16 5.034,4.127 5.008,4.104C5.089,4.099 5.274,4.109 5.274,4.109C5.253,4.104 5.207,4.157 5.103,4.29C4.999,4.422 4.901,4.321 4.901,4.321L4.899,4.316C4.909,4.318 4.918,4.321 4.929,4.321M4.537,4.888C4.537,4.888 4.677,4.555 4.781,4.513C4.781,4.513 4.963,4.56 5.061,4.523C5.16,4.486 5.347,4.232 5.419,4.226C5.419,4.226 5.227,5.078 4.449,5.062C4.449,5.062 5.01,5.386 5.295,5.158C5.58,4.93 5.362,4.756 5.731,4.39C6.099,4.025 5.855,4.009 5.84,4.015C5.824,4.02 5.71,3.983 5.71,3.983C5.71,3.983 5.762,3.914 5.866,3.867C5.97,3.819 6.566,3.544 6.577,3.379C6.587,3.215 6.146,3.03 5.923,3.035C5.923,3.035 6.125,3.119 6.115,3.236C6.104,3.353 5.523,3.612 5.523,3.946C5.523,3.946 5.316,3.961 5.165,3.93C5.015,3.898 4.854,3.914 4.688,4.025C4.522,4.136 4.512,3.888 4.527,3.856C4.527,3.856 4.205,4.062 4.61,4.327C4.61,4.327 4.444,4.501 4.428,4.544C4.413,4.586 4.345,4.814 4.537,4.888Z" clip-rule="evenodd" fill-rule="evenodd" fill="#231F20"/>
<path d="M4.024,5.978C4.024,5.978 4.016,5.677 3.743,5.74C3.285,5.847 3.128,6.677 3.128,6.677C3.643,5.708 4.024,5.978 4.024,5.978Z" clip-rule="evenodd" fill-rule="evenodd" fill="#231F20"/>
<path d="M4.195,6.717C4.444,6.304 4.14,6.042 3.751,6.264C3.362,6.487 3.268,7.019 3.268,7.019C4.039,6.161 4.195,6.717 4.195,6.717Z" clip-rule="evenodd" fill-rule="evenodd" fill="#231F20"/>
<path d="M7.869,6.185C7.869,6.185 7.588,5.931 7.619,5.462C7.65,4.993 7.736,4.288 6.958,3.795C6.958,3.795 7.277,4.295 7.16,4.787C7.043,5.28 6.654,6.12 6.685,6.399C6.755,7.011 7.378,7.122 7.331,7.956C7.331,7.956 7.697,7.503 7.627,6.971C7.557,6.439 7.098,6.208 7.3,5.788C7.3,5.788 7.534,6.137 7.869,6.185Z" clip-rule="evenodd" fill-rule="evenodd" fill="#231F20"/>
<path d="M4.331,8.63C4.261,8.607 4.199,8.345 4.199,8.345C4.3,8.429 4.506,8.432 4.506,8.432C4.409,8.527 4.401,8.654 4.331,8.63M5.108,7.794C5.108,7.794 5.352,7.805 5.362,7.763C5.373,7.72 5.284,7.429 5.284,7.429C5.284,7.429 5.591,7.46 5.596,7.561C5.601,7.661 5.425,7.916 5.051,8.08C5.051,8.08 5.119,7.879 5.108,7.794M3.525,7.524C3.558,7.505 3.59,7.484 3.619,7.46C3.695,7.402 3.751,7.374 3.79,7.361C3.782,7.473 3.776,7.669 3.81,7.832C3.81,7.832 3.608,7.701 3.525,7.524M2.55,6.508C2.431,6.508 2.218,6.185 2.182,6.121C2.145,6.058 2.384,5.941 2.457,5.92C2.529,5.899 2.606,5.917 2.617,5.953C2.628,5.983 2.467,6.084 2.446,6.121C2.426,6.159 2.574,6.298 2.597,6.327C2.638,6.381 2.67,6.508 2.55,6.508M10.109,3.969C10.109,3.969 10.79,5.857 10.022,7.572C10.022,7.572 10.065,7.323 9.876,6.831C9.674,6.304 9.742,5.624 9.825,5.497C9.825,5.497 9.451,5.878 9.472,6.514C9.493,7.148 9.658,8.938 8.393,9.605C8.393,9.605 8.872,8.71 8.693,7.661C8.693,7.661 8.857,7.726 8.943,7.948C8.943,7.948 9.285,7.027 8.841,5.899C8.841,5.899 9.09,5.947 9.246,6.082C9.246,6.082 9.41,5.275 8.514,4.708C8.289,4.565 8.32,4.486 8.32,4.486C8.32,4.486 8.25,4.668 8.397,4.851C8.545,5.034 8.748,5.391 8.717,5.574C8.717,5.574 8.475,5.399 8.125,5.447C8.125,5.447 8.794,6.026 8.693,7.273C8.693,7.273 8.522,7.082 8.086,7.003C8.086,7.003 8.577,7.94 8.141,8.837C8.141,8.837 8.11,8.519 7.97,8.321C7.97,8.321 7.861,8.98 7.082,9.211C7.082,9.211 7.712,8.408 6.966,8.004C6.218,7.598 5.588,8.496 5.464,9.282C5.464,9.282 4.6,9.345 4.514,8.988C4.428,8.63 4.677,8.479 4.677,8.479C4.677,8.479 4.81,8.567 5.114,8.424C5.417,8.281 6.055,7.892 5.993,7.4C5.93,6.908 5.176,6.423 4.576,6.621C3.977,6.82 3.634,7.36 3.323,7.352C3.012,7.344 2.63,6.86 2.685,6.606C2.739,6.352 2.942,6.28 3.012,5.851C3.012,5.851 2.903,5.862 2.83,5.814C2.758,5.766 2.566,5.687 2.462,5.714C2.358,5.74 2.104,5.915 2.093,5.883C2.083,5.851 2.119,5.66 2.119,5.66C2.119,5.66 1.839,5.962 1.881,6.084C1.922,6.206 2.166,6.508 2.42,6.677C2.42,6.677 2.467,7.047 2.799,7.392C2.997,7.598 3.182,7.635 3.34,7.6C3.407,7.701 3.634,8.004 3.996,8.071C3.996,8.071 3.934,7.645 3.979,7.324C3.993,7.316 4.007,7.308 4.018,7.296C4.075,7.239 4.74,6.614 5.232,7.217C5.232,7.217 5.009,7.302 4.921,7.587C4.833,7.874 4.781,8.583 4.05,8.128C4.05,8.128 3.987,8.535 4.21,8.779C4.21,8.779 4.179,9.213 4.662,9.451C5.144,9.689 5.482,9.51 5.793,9.668C5.793,9.668 5.762,9.017 6.026,8.62C6.291,8.223 6.665,8.091 6.846,8.245C7.028,8.398 7.142,8.98 6.442,9.584C6.442,9.584 7.246,9.689 7.796,9.261C7.796,9.261 7.727,10.017 7.172,10.658C9.184,10.217 10.686,8.393 10.686,6.208C10.686,5.394 10.476,4.63 10.109,3.969Z" clip-rule="evenodd" fill-rule="evenodd" fill="#231F20"/>
<path d="M6.878,4.147C6.878,4.147 6.353,3.846 6.12,4.157C5.9,4.452 6.043,4.955 5.914,5.27C5.91,5.267 5.906,5.262 5.902,5.259C5.611,4.993 5.254,5.444 5.186,5.576C5.119,5.709 5.03,5.724 5.03,5.724C4.392,5.857 4.527,5.333 4.314,5.174C4.102,5.015 3.743,5.249 3.743,5.249C4.101,5.179 4.184,5.433 4.174,5.534C4.164,5.635 4.236,5.931 4.335,6.095C4.433,6.259 4.833,6.143 5.16,6.17C5.487,6.196 5.674,6.603 5.674,6.603C5.871,6.116 5.342,5.894 5.342,5.894C5.342,5.894 5.496,5.595 5.679,5.698C6.26,6.026 6.115,7.355 6.115,7.355C6.615,6.395 6.395,5.831 6.134,5.502C6.166,5.202 6.315,4.258 6.878,4.147Z" clip-rule="evenodd" fill-rule="evenodd" fill="#231F20"/>
</svg>
