<svg width="86" height="20" viewBox="0 0 86 20" fill="none" xmlns="http://www.w3.org/2000/svg" xmlns:xlink="http://www.w3.org/1999/xlink">
<mask id="mask_0_i_1201_930;848_660" style="mask-type:alpha" maskUnits="userSpaceOnUse" x="0" y="0.975586" width="9.35359" height="9.372585">
<rect  x="0" y="0.976" width="18.707" height="18.745" fill="#000000"/>
</mask>
<path d="M53.11,7.608L51.103,13.458L49.068,7.608L45.688,7.608L49.492,15.973L47.985,19.255L51.261,19.255L56.491,7.608L53.11,7.608Z" clip-rule="evenodd" fill-rule="evenodd" fill="#231F20"/>
<path d="M60.101,14.032L60.101,9.632C60.722,9.423 62.971,8.86 62.971,11.718C62.971,14.632 60.664,14.185 60.101,14.032L60.101,14.032ZM56.984,15.541C56.984,15.541 58.604,16.149 60.876,16.149C63.147,16.149 66.105,15.442 66.105,11.526C66.105,7.608 62.179,7.466 61.721,7.466C60.856,7.466 60.304,7.702 60.101,7.806L60.101,3.778L56.984,3.778L56.984,15.541Z" clip-rule="evenodd" fill-rule="evenodd" fill="#231F20"/>
<path d="M69.346,13.396C69.346,12.194 71.626,12.108 72.253,12.107L72.253,14.248C71.6,14.327 69.346,14.513 69.346,13.396L69.346,13.396ZM67.779,9.726C72.252,8.402 72.253,9.992 72.253,10.202L72.253,10.486C68.632,10.517 66.476,11.553 66.476,13.431C66.476,15.337 68.484,16.166 71.143,16.166C73.802,16.166 75.158,15.548 75.158,15.548L75.158,10.344C75.158,8.508 73.978,7.344 71.143,7.344C68.307,7.344 67.075,8.015 67.075,8.015L67.779,9.726Z" clip-rule="evenodd" fill-rule="evenodd" fill="#231F20"/>
<path d="M40.079,13.396C40.079,12.194 42.359,12.108 42.984,12.107L42.984,14.248C42.332,14.327 40.079,14.513 40.079,13.396L40.079,13.396ZM38.511,9.726C42.984,8.402 42.984,9.992 42.984,10.202L42.984,10.486C39.365,10.517 37.208,11.553 37.208,13.431C37.208,15.337 39.216,16.166 41.875,16.166C44.534,16.166 45.89,15.548 45.89,15.548L45.89,10.344C45.89,8.508 44.711,7.344 41.875,7.344C39.04,7.344 37.807,8.015 37.807,8.015L38.511,9.726Z" clip-rule="evenodd" fill-rule="evenodd" fill="#231F20"/>
<path d="M82.043,15.955L85.125,15.955L85.125,10.662C85.125,7.909 83.153,7.326 80.722,7.326C78.293,7.326 76.338,7.997 76.338,7.997L76.338,15.955L79.42,15.955L79.42,9.626C81.79,8.932 82.043,10.073 82.043,10.626L82.043,15.955Z" clip-rule="evenodd" fill-rule="evenodd" fill="#231F20"/>
<path d="M5.325,7.066C5.325,7.066 5.524,6.285 5.84,6.02C6.158,5.755 7.298,5.001 8.944,4.472C9.14,4.408 9.368,4.481 9.378,4.484C9.367,4.549 9.361,4.594 9.358,4.608C9.336,4.732 9.243,4.811 9.243,4.811C9.578,4.855 9.798,4.617 9.86,4.343C9.922,4.071 10.133,2.987 10.477,3.003C11.436,3.047 12.123,6.153 12.053,6.293C12.006,6.386 11.63,6.311 11.63,6.311C12.228,7.255 13.012,7.246 13.188,7.096C13.364,6.947 13.267,6.461 13.267,6.461C15.152,7.582 15.046,8.914 15.046,8.914C15.609,6.709 14.307,5.764 14.307,5.764C14.817,5.746 15.372,6.073 15.372,6.073C14.579,5.005 12.941,4.414 12.941,4.414C12.941,4.414 11.031,2.288 10.415,2.367C9.904,2.434 9.612,3.373 9.469,4.014C9.399,4.008 9.265,4.003 9.091,4.024C8.955,3.856 8.383,3.176 8.161,3.4C8.074,3.486 8.047,4.099 8.039,4.356C7.114,4.725 5.539,5.418 5.219,5.927C4.929,6.39 4.863,6.735 4.863,6.735C4.863,6.735 2.975,7.952 2.512,9.277C2.512,9.277 3.78,7.793 5.325,7.066Z" clip-rule="evenodd" fill-rule="evenodd" fill="#231F20"/>
<g mask="url(#mask_0_i_1201_930;848_660)">
<path d="M9.353,0.976C4.196,0.976 0,5.181 0,10.348C0,15.516 4.196,19.721 9.353,19.721C14.511,19.721 18.707,15.516 18.707,10.348C18.707,5.181 14.511,0.976 9.353,0.976M9.353,1.758C14.087,1.758 17.925,5.603 17.925,10.348C17.925,15.092 14.087,18.937 9.353,18.937C4.62,18.937 0.782,15.092 0.782,10.348C0.782,5.603 4.62,1.758 9.353,1.758Z" clip-rule="evenodd" fill-rule="evenodd" fill="#231F20"/>
</g>
<path d="M11.401,6.083C11.374,5.103 10.89,4.318 10.643,4.273C10.397,4.23 10.318,5.164 10.318,5.164C10.97,5.596 11.401,6.083 11.401,6.083Z" clip-rule="evenodd" fill-rule="evenodd" fill="#231F20"/>
<path d="M6.76,5.906C6.381,6.134 6.549,6.329 6.549,6.329C6.549,6.329 6.488,6.134 6.955,6.002C7.787,5.767 8.539,5.525 8.521,5.323C8.504,5.121 7.94,5.041 7.94,5.041C8.099,5.252 7.139,5.676 6.76,5.906Z" clip-rule="evenodd" fill-rule="evenodd" fill="#231F20"/>
<path d="M7.152,7.202C7.266,7.202 7.359,7.11 7.359,6.995C7.359,6.933 7.331,6.879 7.287,6.84C7.424,6.831 7.738,6.849 7.738,6.849C7.703,6.84 7.623,6.929 7.447,7.149C7.271,7.37 7.104,7.202 7.104,7.202L7.102,7.192C7.118,7.196 7.134,7.202 7.152,7.202M6.488,8.146C6.488,8.146 6.725,7.591 6.901,7.521C6.901,7.521 7.21,7.6 7.377,7.537C7.544,7.476 7.861,7.053 7.984,7.044C7.984,7.044 7.659,8.463 6.338,8.437C6.338,8.437 7.289,8.976 7.773,8.596C8.258,8.217 7.887,7.926 8.513,7.317C9.138,6.707 8.724,6.682 8.698,6.691C8.671,6.699 8.477,6.638 8.477,6.638C8.477,6.638 8.565,6.523 8.742,6.445C8.918,6.364 9.93,5.906 9.948,5.631C9.965,5.358 9.217,5.05 8.839,5.058C8.839,5.058 9.181,5.199 9.164,5.394C9.147,5.588 8.161,6.02 8.161,6.576C8.161,6.576 7.809,6.602 7.553,6.55C7.298,6.496 7.024,6.523 6.743,6.707C6.461,6.893 6.444,6.479 6.47,6.426C6.47,6.426 5.924,6.77 6.611,7.211C6.611,7.211 6.329,7.502 6.302,7.573C6.276,7.643 6.162,8.022 6.488,8.146Z" clip-rule="evenodd" fill-rule="evenodd" fill="#231F20"/>
<path d="M5.616,9.964C5.616,9.964 5.603,9.461 5.14,9.567C4.363,9.745 4.096,11.128 4.096,11.128C4.969,9.514 5.616,9.964 5.616,9.964Z" clip-rule="evenodd" fill-rule="evenodd" fill="#231F20"/>
<path d="M5.907,11.194C6.329,10.507 5.814,10.07 5.154,10.439C4.494,10.81 4.334,11.697 4.334,11.697C5.642,10.268 5.907,11.194 5.907,11.194Z" clip-rule="evenodd" fill-rule="evenodd" fill="#231F20"/>
<path d="M12.141,10.308C12.141,10.308 11.665,9.886 11.718,9.104C11.771,8.323 11.916,7.147 10.596,6.325C10.596,6.325 11.136,7.159 10.938,7.979C10.74,8.8 10.079,10.201 10.133,10.666C10.252,11.685 11.308,11.87 11.229,13.26C11.229,13.26 11.85,12.505 11.731,11.619C11.612,10.732 10.833,10.347 11.176,9.647C11.176,9.647 11.572,10.229 12.141,10.308Z" clip-rule="evenodd" fill-rule="evenodd" fill="#231F20"/>
<path d="M6.138,14.384C6.018,14.345 5.913,13.908 5.913,13.908C6.085,14.047 6.435,14.054 6.435,14.054C6.269,14.212 6.257,14.423 6.138,14.384M7.456,12.99C7.456,12.99 7.87,13.008 7.888,12.937C7.905,12.867 7.755,12.381 7.755,12.381C7.755,12.381 8.275,12.434 8.284,12.602C8.293,12.769 7.993,13.194 7.359,13.467C7.359,13.467 7.474,13.131 7.456,12.99M4.77,12.541C4.826,12.508 4.88,12.473 4.929,12.434C5.058,12.337 5.154,12.29 5.219,12.269C5.206,12.455 5.195,12.782 5.253,13.054C5.253,13.054 4.911,12.834 4.77,12.541M3.115,10.846C2.913,10.846 2.552,10.308 2.49,10.202C2.429,10.097 2.833,9.902 2.957,9.867C3.08,9.831 3.21,9.861 3.23,9.921C3.247,9.972 2.975,10.14 2.939,10.202C2.904,10.264 3.155,10.496 3.194,10.545C3.265,10.635 3.318,10.846 3.115,10.846M15.943,6.615C15.943,6.615 17.098,9.761 15.795,12.619C15.795,12.619 15.869,12.204 15.548,11.385C15.204,10.507 15.319,9.373 15.46,9.162C15.46,9.162 14.825,9.796 14.861,10.856C14.897,11.913 15.178,14.896 13.03,16.007C13.03,16.007 13.844,14.516 13.54,12.769C13.54,12.769 13.818,12.876 13.963,13.246C13.963,13.246 14.544,11.711 13.791,9.831C13.791,9.831 14.214,9.911 14.478,10.136C14.478,10.136 14.756,8.791 13.237,7.846C12.854,7.608 12.906,7.476 12.906,7.476C12.906,7.476 12.788,7.78 13.038,8.085C13.289,8.389 13.633,8.985 13.58,9.29C13.58,9.29 13.17,8.998 12.576,9.078C12.576,9.078 13.712,10.043 13.54,12.121C13.54,12.121 13.25,11.804 12.511,11.671C12.511,11.671 13.342,13.233 12.602,14.728C12.602,14.728 12.55,14.199 12.312,13.868C12.312,13.868 12.127,14.967 10.807,15.351C10.807,15.351 11.876,14.013 10.608,13.339C9.34,12.663 8.27,14.159 8.059,15.47C8.059,15.47 6.594,15.575 6.448,14.98C6.303,14.384 6.725,14.132 6.725,14.132C6.725,14.132 6.95,14.278 7.466,14.04C7.98,13.802 9.063,13.153 8.957,12.333C8.852,11.513 7.571,10.705 6.553,11.035C5.537,11.367 4.955,12.267 4.427,12.254C3.899,12.24 3.251,11.433 3.345,11.01C3.436,10.586 3.78,10.467 3.899,9.752C3.899,9.752 3.714,9.77 3.591,9.69C3.468,9.61 3.142,9.479 2.966,9.523C2.789,9.567 2.358,9.859 2.34,9.805C2.322,9.752 2.385,9.434 2.385,9.434C2.385,9.434 1.909,9.936 1.98,10.14C2.05,10.343 2.464,10.846 2.895,11.129C2.895,11.129 2.975,11.746 3.538,12.32C3.875,12.663 4.188,12.725 4.456,12.667C4.57,12.835 4.955,13.341 5.57,13.451C5.57,13.451 5.463,12.742 5.54,12.206C5.564,12.194 5.588,12.18 5.607,12.16C5.704,12.064 6.831,11.023 7.667,12.028C7.667,12.028 7.289,12.17 7.139,12.645C6.99,13.123 6.902,14.305 5.66,13.546C5.66,13.546 5.554,14.225 5.933,14.632C5.933,14.632 5.88,15.355 6.699,15.751C7.518,16.149 8.09,15.849 8.619,16.113C8.619,16.113 8.566,15.028 9.014,14.366C9.464,13.705 10.098,13.484 10.406,13.741C10.714,13.996 10.908,14.967 9.719,15.973C9.719,15.973 11.084,16.149 12.017,15.434C12.017,15.434 11.901,16.695 10.959,17.763C14.373,17.029 16.921,13.987 16.921,10.347C16.921,8.991 16.565,7.717 15.943,6.615Z" clip-rule="evenodd" fill-rule="evenodd" fill="#231F20"/>
<path d="M10.459,6.911C10.459,6.911 9.57,6.409 9.174,6.929C8.8,7.419 9.043,8.258 8.824,8.783C8.818,8.777 8.81,8.77 8.803,8.765C8.31,8.322 7.703,9.073 7.588,9.293C7.474,9.515 7.324,9.54 7.324,9.54C6.241,9.761 6.47,8.888 6.109,8.624C5.749,8.358 5.14,8.747 5.14,8.747C5.748,8.631 5.889,9.056 5.872,9.223C5.854,9.391 5.977,9.886 6.144,10.159C6.311,10.432 6.99,10.238 7.544,10.283C8.099,10.326 8.416,11.005 8.416,11.005C8.75,10.193 7.853,9.823 7.853,9.823C7.853,9.823 8.115,9.325 8.425,9.496C9.411,10.043 9.164,12.258 9.164,12.258C10.014,10.657 9.64,9.718 9.197,9.169C9.252,8.67 9.505,7.097 10.459,6.911Z" clip-rule="evenodd" fill-rule="evenodd" fill="#231F20"/>
</svg>
