<svg width="800" height="366" viewBox="0 0 800 366" fill="none" xmlns="http://www.w3.org/2000/svg" xmlns:xlink="http://www.w3.org/1999/xlink">
<path d="M4.323,276.228C-1.925,282.475 -1.925,292.607 4.323,298.855C10.572,305.103 20.702,305.103 26.951,298.855L4.323,276.228ZM655.049,89.489C661.297,83.241 661.297,73.11 655.049,66.862C648.801,60.613 638.671,60.613 632.421,66.862L655.049,89.489ZM394.771,247.944L383.457,259.257L394.771,247.944ZM26.951,298.855L196.719,129.087L174.092,106.46L4.323,276.228L26.951,298.855ZM253.287,129.087L383.457,259.257L406.085,236.63L275.915,106.46L253.287,129.087ZM485.281,259.257L655.049,89.489L632.421,66.862L462.653,236.63L485.281,259.257ZM383.457,259.257C411.575,287.375 457.163,287.375 485.281,259.257L462.653,236.63C447.033,252.251 421.707,252.251 406.085,236.63L383.457,259.257ZM196.719,129.087C212.34,113.466 237.667,113.466 253.287,129.087L275.915,106.46C247.797,78.342 202.209,78.342 174.092,106.46L196.719,129.087Z" transform="rotate(-30 329.686 182.859)" fill="#E7CEC0"/>
<path d="M144.323,216.228C138.075,222.475 138.075,232.607 144.323,238.855C150.572,245.103 160.702,245.103 166.951,238.855L144.323,216.228ZM795.049,29.489C801.297,23.241 801.297,13.11 795.049,6.862C788.801,0.613 778.671,0.613 772.421,6.862L795.049,29.489ZM534.771,187.944L523.457,199.257L534.771,187.944ZM166.951,238.855L336.719,69.087L314.092,46.46L144.323,216.228L166.951,238.855ZM393.287,69.087L523.457,199.257L546.085,176.63L415.915,46.46L393.287,69.087ZM625.281,199.257L795.049,29.489L772.421,6.862L602.653,176.63L625.281,199.257ZM523.457,199.257C551.575,227.375 597.163,227.375 625.281,199.257L602.653,176.63C587.033,192.251 561.707,192.251 546.085,176.63L523.457,199.257ZM336.719,69.087C352.34,53.466 377.667,53.466 393.287,69.087L415.915,46.46C387.797,18.342 342.209,18.342 314.092,46.46L336.719,69.087Z" transform="rotate(-30 469.686 122.859)" fill="#E7CEC0"/>
</svg>
