<svg width="32" height="34" viewBox="0 0 32 34" fill="none" xmlns="http://www.w3.org/2000/svg" xmlns:xlink="http://www.w3.org/1999/xlink">
<path d="M0,32.815L2.296,24.278C0.444,20.953 -0.144,17.072 0.639,13.349C1.422,9.625 3.524,6.308 6.559,4.007C9.594,1.705 13.358,0.574 17.161,0.82C20.964,1.066 24.551,2.672 27.263,5.345C29.975,8.018 31.631,11.578 31.927,15.371C32.222,19.164 31.137,22.937 28.872,25.996C26.606,29.056 23.311,31.197 19.592,32.026C15.872,32.856 11.978,32.319 8.623,30.514L0,32.815ZM9.039,27.319L9.573,27.635C12.002,29.073 14.84,29.668 17.644,29.328C20.449,28.987 23.061,27.73 25.075,25.752C27.088,23.775 28.39,21.188 28.777,18.394C29.164,15.601 28.615,12.758 27.215,10.309C25.815,7.86 23.643,5.942 21.037,4.854C18.431,3.766 15.537,3.569 12.808,4.294C10.078,5.02 7.665,6.626 5.945,8.863C4.226,11.1 3.295,13.842 3.299,16.662C3.297,19 3.945,21.293 5.17,23.286L5.505,23.836L4.221,28.601L9.039,27.319Z" fill="#FFFFFF"/>
<path d="M21.983,18.854C21.67,18.602 21.304,18.425 20.913,18.336C20.521,18.247 20.114,18.248 19.723,18.34C19.136,18.583 18.756,19.504 18.376,19.964C18.296,20.074 18.179,20.152 18.046,20.182C17.912,20.212 17.773,20.192 17.653,20.126C15.502,19.285 13.699,17.743 12.537,15.75C12.438,15.625 12.391,15.467 12.406,15.309C12.421,15.151 12.497,15.005 12.618,14.902C13.042,14.483 13.353,13.965 13.522,13.395C13.56,12.766 13.416,12.139 13.107,11.59C12.868,10.82 12.413,10.134 11.796,9.613C11.478,9.471 11.125,9.423 10.78,9.475C10.435,9.528 10.113,9.68 9.852,9.911C9.4,10.301 9.041,10.787 8.802,11.334C8.562,11.88 8.449,12.473 8.47,13.07C8.471,13.404 8.513,13.738 8.596,14.062C8.806,14.842 9.129,15.587 9.554,16.273C9.861,16.799 10.196,17.308 10.558,17.798C11.732,19.408 13.209,20.775 14.905,21.823C15.757,22.356 16.667,22.789 17.617,23.113C18.604,23.56 19.695,23.732 20.772,23.61C21.385,23.517 21.967,23.275 22.465,22.905C22.963,22.536 23.362,22.049 23.628,21.489C23.784,21.151 23.831,20.773 23.764,20.406C23.601,19.657 22.598,19.215 21.983,18.854Z" clip-rule="evenodd" fill-rule="evenodd" fill="#FFFFFF"/>
</svg>
