<svg width="86" height="20" viewBox="0 0 86 20" fill="none" xmlns="http://www.w3.org/2000/svg" xmlns:xlink="http://www.w3.org/1999/xlink">
<mask id="mask_0_i_1402_4339;848_660" style="mask-type:alpha" maskUnits="userSpaceOnUse" x="0" y="0.976074" width="9.35359" height="9.372585">
<rect  x="0" y="0.976" width="18.707" height="18.745" fill="#000000"/>
</mask>
<path d="M53.109,7.608L51.103,13.458L49.068,7.608L45.688,7.608L49.491,15.973L47.985,19.255L51.261,19.255L56.49,7.608L53.109,7.608Z" clip-rule="evenodd" fill-rule="evenodd" fill="#231F20"/>
<path d="M60.102,14.033L60.102,9.633C60.723,9.424 62.971,8.861 62.971,11.719C62.971,14.633 60.665,14.186 60.102,14.033L60.102,14.033ZM56.984,15.542C56.984,15.542 58.605,16.149 60.877,16.149C63.148,16.149 66.106,15.443 66.106,11.526C66.106,7.609 62.18,7.467 61.722,7.467C60.857,7.467 60.305,7.703 60.102,7.807L60.102,3.779L56.984,3.779L56.984,15.542Z" clip-rule="evenodd" fill-rule="evenodd" fill="#231F20"/>
<path d="M69.347,13.396C69.347,12.194 71.627,12.108 72.254,12.107L72.254,14.248C71.601,14.327 69.347,14.513 69.347,13.396L69.347,13.396ZM67.78,9.726C72.253,8.402 72.254,9.992 72.254,10.202L72.254,10.486C68.633,10.517 66.477,11.553 66.477,13.431C66.477,15.337 68.485,16.166 71.144,16.166C73.803,16.166 75.159,15.548 75.159,15.548L75.159,10.344C75.159,8.508 73.979,7.344 71.144,7.344C68.308,7.344 67.076,8.015 67.076,8.015L67.78,9.726Z" clip-rule="evenodd" fill-rule="evenodd" fill="#231F20"/>
<path d="M40.08,13.396C40.08,12.194 42.36,12.108 42.985,12.107L42.985,14.248C42.333,14.327 40.08,14.513 40.08,13.396L40.08,13.396ZM38.512,9.726C42.985,8.402 42.985,9.992 42.985,10.202L42.985,10.486C39.366,10.517 37.209,11.553 37.209,13.431C37.209,15.337 39.217,16.166 41.876,16.166C44.535,16.166 45.891,15.548 45.891,15.548L45.891,10.344C45.891,8.508 44.711,7.344 41.876,7.344C39.04,7.344 37.808,8.015 37.808,8.015L38.512,9.726Z" clip-rule="evenodd" fill-rule="evenodd" fill="#231F20"/>
<path d="M82.043,15.955L85.125,15.955L85.125,10.662C85.125,7.909 83.153,7.326 80.722,7.326C78.293,7.326 76.338,7.997 76.338,7.997L76.338,15.955L79.42,15.955L79.42,9.626C81.79,8.932 82.043,10.073 82.043,10.626L82.043,15.955Z" clip-rule="evenodd" fill-rule="evenodd" fill="#231F20"/>
<path d="M5.325,7.067C5.325,7.067 5.523,6.286 5.84,6.021C6.157,5.756 7.297,5.002 8.944,4.473C9.14,4.409 9.367,4.482 9.378,4.485C9.367,4.55 9.36,4.595 9.358,4.609C9.336,4.733 9.243,4.812 9.243,4.812C9.578,4.856 9.798,4.618 9.859,4.344C9.922,4.072 10.133,2.988 10.476,3.004C11.436,3.047 12.123,6.154 12.052,6.294C12.006,6.387 11.629,6.312 11.629,6.312C12.228,7.256 13.011,7.247 13.188,7.097C13.364,6.948 13.267,6.462 13.267,6.462C15.152,7.583 15.046,8.915 15.046,8.915C15.609,6.71 14.306,5.765 14.306,5.765C14.817,5.747 15.372,6.074 15.372,6.074C14.579,5.006 12.941,4.415 12.941,4.415C12.941,4.415 11.031,2.289 10.415,2.368C9.904,2.435 9.612,3.374 9.469,4.015C9.398,4.009 9.264,4.004 9.09,4.025C8.955,3.857 8.383,3.177 8.161,3.401C8.074,3.487 8.046,4.1 8.039,4.357C7.113,4.726 5.539,5.419 5.219,5.927C4.929,6.391 4.862,6.736 4.862,6.736C4.862,6.736 2.974,7.953 2.512,9.278C2.512,9.278 3.78,7.794 5.325,7.067Z" clip-rule="evenodd" fill-rule="evenodd" fill="#231F20"/>
<g mask="url(#mask_0_i_1402_4339;848_660)">
<path d="M9.353,0.976C4.196,0.976 0,5.181 0,10.348C0,15.516 4.196,19.721 9.353,19.721C14.512,19.721 18.707,15.516 18.707,10.348C18.707,5.181 14.512,0.976 9.353,0.976M9.353,1.759C14.087,1.759 17.926,5.604 17.926,10.348C17.926,15.092 14.087,18.937 9.353,18.937C4.62,18.937 0.782,15.092 0.782,10.348C0.782,5.604 4.62,1.759 9.353,1.759Z" clip-rule="evenodd" fill-rule="evenodd" fill="#231F20"/>
</g>
<path d="M11.401,6.083C11.374,5.103 10.891,4.318 10.644,4.273C10.398,4.23 10.318,5.164 10.318,5.164C10.97,5.596 11.401,6.083 11.401,6.083Z" clip-rule="evenodd" fill-rule="evenodd" fill="#231F20"/>
<path d="M6.76,5.907C6.381,6.135 6.549,6.329 6.549,6.329C6.549,6.329 6.487,6.135 6.954,6.003C7.786,5.767 8.539,5.526 8.52,5.324C8.503,5.121 7.94,5.042 7.94,5.042C8.099,5.253 7.139,5.677 6.76,5.907Z" clip-rule="evenodd" fill-rule="evenodd" fill="#231F20"/>
<path d="M7.152,7.203C7.267,7.203 7.359,7.111 7.359,6.996C7.359,6.933 7.331,6.879 7.287,6.841C7.424,6.832 7.738,6.849 7.738,6.849C7.703,6.841 7.624,6.929 7.447,7.15C7.271,7.371 7.105,7.203 7.105,7.203L7.102,7.193C7.118,7.196 7.135,7.203 7.152,7.203M6.488,8.147C6.488,8.147 6.725,7.592 6.902,7.521C6.902,7.521 7.21,7.6 7.377,7.538C7.544,7.477 7.861,7.054 7.985,7.044C7.985,7.044 7.659,8.464 6.338,8.438C6.338,8.438 7.289,8.976 7.773,8.597C8.258,8.217 7.888,7.926 8.513,7.317C9.138,6.708 8.725,6.683 8.698,6.692C8.672,6.7 8.477,6.638 8.477,6.638C8.477,6.638 8.565,6.524 8.742,6.445C8.918,6.365 9.931,5.907 9.948,5.631C9.966,5.359 9.217,5.05 8.839,5.058C8.839,5.058 9.182,5.199 9.164,5.394C9.147,5.588 8.161,6.021 8.161,6.577C8.161,6.577 7.809,6.603 7.553,6.551C7.298,6.497 7.025,6.524 6.743,6.708C6.461,6.894 6.444,6.48 6.47,6.426C6.47,6.426 5.924,6.77 6.611,7.211C6.611,7.211 6.329,7.503 6.303,7.574C6.276,7.644 6.162,8.023 6.488,8.147Z" clip-rule="evenodd" fill-rule="evenodd" fill="#231F20"/>
<path d="M5.615,9.965C5.615,9.965 5.602,9.462 5.139,9.568C4.362,9.745 4.096,11.129 4.096,11.129C4.968,9.515 5.615,9.965 5.615,9.965Z" clip-rule="evenodd" fill-rule="evenodd" fill="#231F20"/>
<path d="M5.906,11.195C6.328,10.508 5.814,10.071 5.153,10.44C4.493,10.811 4.334,11.698 4.334,11.698C5.642,10.269 5.906,11.195 5.906,11.195Z" clip-rule="evenodd" fill-rule="evenodd" fill="#231F20"/>
<path d="M12.14,10.308C12.14,10.308 11.664,9.886 11.717,9.104C11.77,8.323 11.915,7.147 10.595,6.325C10.595,6.325 11.136,7.159 10.937,7.979C10.739,8.8 10.078,10.201 10.132,10.666C10.251,11.685 11.308,11.87 11.228,13.26C11.228,13.26 11.849,12.505 11.731,11.619C11.612,10.732 10.832,10.347 11.175,9.647C11.175,9.647 11.571,10.229 12.14,10.308Z" clip-rule="evenodd" fill-rule="evenodd" fill="#231F20"/>
<path d="M6.138,14.384C6.018,14.346 5.913,13.908 5.913,13.908C6.085,14.048 6.435,14.054 6.435,14.054C6.269,14.212 6.257,14.424 6.138,14.384M7.456,12.991C7.456,12.991 7.87,13.008 7.888,12.938C7.905,12.867 7.755,12.381 7.755,12.381C7.755,12.381 8.275,12.434 8.284,12.603C8.293,12.769 7.993,13.194 7.359,13.467C7.359,13.467 7.474,13.131 7.456,12.991M4.77,12.541C4.826,12.508 4.88,12.473 4.929,12.434C5.058,12.337 5.154,12.29 5.219,12.269C5.206,12.455 5.195,12.782 5.253,13.054C5.253,13.054 4.911,12.835 4.77,12.541M3.115,10.846C2.913,10.846 2.552,10.308 2.49,10.202C2.429,10.097 2.833,9.902 2.957,9.867C3.08,9.832 3.21,9.861 3.23,9.921C3.247,9.973 2.975,10.141 2.939,10.202C2.904,10.265 3.155,10.497 3.194,10.546C3.265,10.636 3.318,10.846 3.115,10.846M15.943,6.616C15.943,6.616 17.098,9.762 15.795,12.62C15.795,12.62 15.869,12.205 15.548,11.386C15.204,10.508 15.319,9.374 15.46,9.162C15.46,9.162 14.825,9.797 14.861,10.856C14.897,11.914 15.178,14.896 13.03,16.008C13.03,16.008 13.844,14.517 13.54,12.769C13.54,12.769 13.818,12.876 13.963,13.247C13.963,13.247 14.544,11.712 13.791,9.832C13.791,9.832 14.214,9.912 14.478,10.136C14.478,10.136 14.756,8.791 13.237,7.847C12.854,7.608 12.906,7.477 12.906,7.477C12.906,7.477 12.788,7.781 13.038,8.085C13.289,8.39 13.633,8.985 13.58,9.29C13.58,9.29 13.17,8.998 12.576,9.078C12.576,9.078 13.712,10.044 13.54,12.122C13.54,12.122 13.25,11.804 12.511,11.672C12.511,11.672 13.342,13.234 12.602,14.729C12.602,14.729 12.55,14.199 12.312,13.868C12.312,13.868 12.127,14.967 10.807,15.351C10.807,15.351 11.876,14.014 10.608,13.34C9.34,12.664 8.27,14.16 8.059,15.471C8.059,15.471 6.594,15.575 6.448,14.98C6.303,14.384 6.725,14.133 6.725,14.133C6.725,14.133 6.95,14.278 7.466,14.04C7.98,13.802 9.063,13.153 8.957,12.333C8.852,11.513 7.571,10.706 6.553,11.036C5.537,11.368 4.955,12.267 4.427,12.254C3.899,12.241 3.251,11.433 3.345,11.011C3.436,10.587 3.78,10.467 3.899,9.753C3.899,9.753 3.714,9.77 3.591,9.691C3.468,9.611 3.142,9.479 2.966,9.524C2.789,9.568 2.358,9.859 2.34,9.806C2.322,9.753 2.385,9.434 2.385,9.434C2.385,9.434 1.909,9.937 1.98,10.141C2.05,10.344 2.464,10.846 2.895,11.129C2.895,11.129 2.975,11.746 3.538,12.32C3.875,12.663 4.188,12.725 4.456,12.668C4.57,12.835 4.955,13.341 5.57,13.452C5.57,13.452 5.463,12.743 5.54,12.207C5.564,12.194 5.588,12.18 5.607,12.161C5.704,12.065 6.831,11.023 7.667,12.029C7.667,12.029 7.289,12.17 7.139,12.646C6.99,13.123 6.902,14.305 5.66,13.547C5.66,13.547 5.554,14.226 5.933,14.632C5.933,14.632 5.88,15.355 6.699,15.752C7.518,16.149 8.09,15.85 8.619,16.114C8.619,16.114 8.566,15.028 9.014,14.367C9.464,13.705 10.098,13.485 10.406,13.741C10.714,13.997 10.908,14.967 9.719,15.973C9.719,15.973 11.084,16.149 12.017,15.435C12.017,15.435 11.901,16.695 10.959,17.763C14.373,17.029 16.921,13.988 16.921,10.348C16.921,8.991 16.565,7.718 15.943,6.616Z" clip-rule="evenodd" fill-rule="evenodd" fill="#231F20"/>
<path d="M10.459,6.912C10.459,6.912 9.57,6.41 9.174,6.929C8.801,7.42 9.043,8.259 8.824,8.784C8.818,8.778 8.81,8.771 8.804,8.765C8.31,8.323 7.703,9.074 7.588,9.294C7.475,9.515 7.324,9.54 7.324,9.54C6.241,9.762 6.47,8.888 6.109,8.624C5.749,8.359 5.141,8.748 5.141,8.748C5.748,8.632 5.889,9.056 5.872,9.223C5.854,9.391 5.977,9.886 6.144,10.159C6.312,10.432 6.99,10.238 7.545,10.284C8.099,10.327 8.416,11.005 8.416,11.005C8.751,10.194 7.853,9.824 7.853,9.824C7.853,9.824 8.115,9.325 8.425,9.497C9.411,10.043 9.165,12.258 9.165,12.258C10.014,10.658 9.64,9.718 9.197,9.17C9.253,8.671 9.505,7.097 10.459,6.912Z" clip-rule="evenodd" fill-rule="evenodd" fill="#231F20"/>
</svg>
