<svg width="40" height="42" viewBox="0 0 40 42" fill="none" xmlns="http://www.w3.org/2000/svg" xmlns:xlink="http://www.w3.org/1999/xlink">
<path d="M0,40.519L2.87,29.848C0.556,25.691 -0.18,20.84 0.799,16.186C1.778,11.531 4.405,7.385 8.199,4.509C11.992,1.632 16.698,0.217 21.451,0.525C26.205,0.832 30.689,2.841 34.079,6.182C37.469,9.523 39.539,13.972 39.908,18.714C40.278,23.456 38.922,28.171 36.09,31.995C33.257,35.82 29.139,38.496 24.49,39.533C19.841,40.571 14.973,39.899 10.779,37.643L0,40.519ZM11.299,33.649L11.966,34.044C15.003,35.841 18.551,36.585 22.056,36.16C25.561,35.734 28.826,34.163 31.343,31.691C33.86,29.219 35.488,25.985 35.972,22.493C36.456,19.001 35.769,15.448 34.019,12.387C32.269,9.325 29.553,6.928 26.296,5.568C23.038,4.208 19.422,3.962 16.01,4.868C12.598,5.775 9.582,7.782 7.432,10.579C5.282,13.375 4.119,16.803 4.124,20.328C4.121,23.25 4.931,26.117 6.463,28.607L6.881,29.295L5.277,35.251L11.299,33.649Z" fill="#FFFFFF"/>
<path d="M27.479,23.068C27.088,22.753 26.63,22.532 26.141,22.42C25.651,22.309 25.143,22.31 24.654,22.425C23.919,22.729 23.445,23.88 22.97,24.455C22.87,24.593 22.723,24.69 22.557,24.727C22.39,24.765 22.216,24.74 22.066,24.658C19.378,23.607 17.124,21.679 15.671,19.187C15.547,19.032 15.489,18.834 15.508,18.637C15.527,18.439 15.622,18.256 15.773,18.127C16.302,17.604 16.691,16.956 16.903,16.243C16.95,15.457 16.769,14.674 16.383,13.987C16.084,13.025 15.516,12.167 14.745,11.517C14.347,11.338 13.906,11.278 13.475,11.344C13.044,11.411 12.641,11.6 12.315,11.889C11.75,12.376 11.301,12.984 11.002,13.667C10.703,14.35 10.561,15.092 10.587,15.837C10.588,16.256 10.642,16.672 10.745,17.078C11.007,18.052 11.411,18.984 11.943,19.842C12.326,20.499 12.745,21.135 13.197,21.748C14.665,23.76 16.511,25.469 18.632,26.779C19.696,27.445 20.833,27.986 22.021,28.392C23.255,28.95 24.618,29.165 25.964,29.012C26.732,28.896 27.459,28.594 28.081,28.132C28.704,27.67 29.203,27.062 29.535,26.362C29.73,25.939 29.789,25.466 29.704,25.008C29.501,24.072 28.247,23.519 27.479,23.068Z" clip-rule="evenodd" fill-rule="evenodd" fill="#FFFFFF"/>
</svg>
