<svg width="100" height="26" viewBox="0 0 100 26" fill="none" xmlns="http://www.w3.org/2000/svg" xmlns:xlink="http://www.w3.org/1999/xlink">
<mask id="mask_0_i_1402_1354;848_566" style="mask-type:alpha" maskUnits="userSpaceOnUse" x="0.400391" y="0.800293" width="49.52813" height="11.764596">
<path d="M0.4,24.329L99.457,24.329L99.457,0.8L0.4,0.8L0.4,24.329Z" clip-rule="evenodd" fill-rule="evenodd" fill="#000000"/>
</mask>
<path d="M85.701,6.706L91.222,6.706C93.283,6.706 94.964,7.645 94.964,9.659C94.964,11.219 94.232,12.259 92.736,12.611L92.736,12.644C93.731,12.913 93.799,13.802 94.381,15.228L95.512,18.416L92.287,18.416L91.621,16.303C90.989,14.29 90.59,13.785 89.442,13.785L88.794,13.785L88.794,18.416L85.701,18.416L85.701,6.706ZM88.794,11.571L89.609,11.571C90.607,11.571 91.871,11.537 91.871,10.212C91.871,9.122 90.789,8.92 89.609,8.92L88.794,8.92L88.794,11.571Z" clip-rule="evenodd" fill-rule="evenodd" fill="#FFFFFF"/>
<path d="M96.364,18.416L99.457,18.416L99.457,6.706L96.364,6.706L96.364,18.416Z" clip-rule="evenodd" fill-rule="evenodd" fill="#FFFFFF"/>
<path d="M20.145,0.8L3.958,0.8C1.993,0.8 0.4,2.447 0.4,4.479L0.4,4.518L0.4,20.652C0.4,22.664 1.964,24.299 3.903,24.329L20.136,24.329C22.101,24.329 23.695,22.683 23.695,20.652L23.702,4.479C23.702,2.447 22.11,0.8 20.145,0.8L20.145,0.8ZM5.882,22.444L4.999,22.454C3.93,22.454 3.064,21.568 3.064,20.475L3.059,20.319L3.059,5.383L3.064,4.579C3.104,3.52 3.901,2.669 4.944,2.669L6.74,2.669C8.366,2.669 9.686,4.096 9.686,5.78C9.686,6.612 9.362,7.368 8.838,7.918L4.258,12.607L8.551,17.017C9.105,17.593 9.439,18.349 9.439,19.178C9.439,20.982 7.846,22.444 5.882,22.444L5.882,22.444ZM19.08,22.429L11.076,22.426C11.076,22.426 12.002,20.408 12.002,19.159C12.002,17.636 11.497,16.275 10.707,15.375L7.969,12.559L10.763,9.647C11.595,8.858 12.147,7.457 12.147,5.863C12.147,4.6 11.801,3.481 11.244,2.669L13.184,2.669C14.811,2.669 16.13,4.096 16.13,5.78C16.13,6.612 15.807,7.368 15.283,7.918L10.791,12.558L20.122,22.158C19.826,22.346 19.453,22.429 19.08,22.429L19.08,22.429ZM21.035,19.432L14.347,12.556L17.532,9.29C18.181,8.472 18.592,7.24 18.592,5.863C18.592,4.592 18.241,3.446 17.678,2.633L19.104,2.676C20.173,2.676 21.04,3.563 21.04,4.656L21.035,19.432Z" clip-rule="evenodd" fill-rule="evenodd" fill="#FFFFFF"/>
</svg>
