<svg width="10" height="14" viewBox="0 0 10 14" fill="none" xmlns="http://www.w3.org/2000/svg" xmlns:xlink="http://www.w3.org/1999/xlink">
<path d="M-0.396,0.706L4.942,0.706C7.103,0.706 8.716,1.662 8.716,3.675C8.716,5.152 7.969,5.974 6.672,6.409L6.672,6.443C8.218,6.762 9.016,7.601 9.016,9.026C9.016,11.829 6.571,12.416 4.494,12.416L-0.396,12.416L-0.396,0.706ZM2.697,5.336L3.561,5.336C4.576,5.336 5.622,5.084 5.622,4.094C5.622,3.021 4.626,2.92 3.595,2.92L2.697,2.92L2.697,5.336ZM2.697,10.201L3.612,10.201C4.742,10.201 5.923,10.033 5.923,8.842C5.923,7.568 4.709,7.45 3.645,7.45L2.697,7.45L2.697,10.201Z" clip-rule="evenodd" fill-rule="evenodd" fill="#FFFFFF"/>
</svg>
