<svg width="10" height="14" viewBox="0 0 10 14" fill="none" xmlns="http://www.w3.org/2000/svg" xmlns:xlink="http://www.w3.org/1999/xlink">
<path d="M-0.397,0.705L4.941,0.705C7.102,0.705 8.716,1.662 8.716,3.675C8.716,5.151 7.968,5.973 6.671,6.409L6.671,6.442C8.217,6.762 9.015,7.601 9.015,9.026C9.015,11.828 6.571,12.415 4.493,12.415L-0.397,12.415L-0.397,0.705ZM2.696,5.336L3.56,5.336C4.575,5.336 5.622,5.084 5.622,4.093C5.622,3.021 4.625,2.919 3.595,2.919L2.696,2.919L2.696,5.336ZM2.696,10.201L3.611,10.201C4.741,10.201 5.922,10.033 5.922,8.842C5.922,7.568 4.709,7.449 3.644,7.449L2.696,7.449L2.696,10.201Z" clip-rule="evenodd" fill-rule="evenodd" fill="#FFFFFF"/>
</svg>
