<svg width="10" height="14" viewBox="0 0 10 14" fill="none" xmlns="http://www.w3.org/2000/svg" xmlns:xlink="http://www.w3.org/1999/xlink">
<path d="M-0.797,0.706L4.541,0.706C6.703,0.706 8.314,1.662 8.314,3.675C8.314,5.152 7.567,5.974 6.27,6.409L6.27,6.443C7.816,6.762 8.614,7.601 8.614,9.026C8.614,11.829 6.169,12.416 4.091,12.416L-0.797,12.416L-0.797,0.706ZM2.295,5.336L3.161,5.336C4.175,5.336 5.223,5.084 5.223,4.094C5.223,3.021 4.225,2.92 3.193,2.92L2.295,2.92L2.295,5.336ZM2.295,10.201L3.211,10.201C4.341,10.201 5.521,10.033 5.521,8.842C5.521,7.568 4.308,7.45 3.244,7.45L2.295,7.45L2.295,10.201Z" clip-rule="evenodd" fill-rule="evenodd" fill="#FFFFFF"/>
</svg>
