<svg width="10" height="14" viewBox="0 0 10 14" fill="none" xmlns="http://www.w3.org/2000/svg" xmlns:xlink="http://www.w3.org/1999/xlink">
<path d="M-0.798,0.706L4.54,0.706C6.702,0.706 8.313,1.662 8.313,3.675C8.313,5.152 7.566,5.974 6.269,6.409L6.269,6.443C7.815,6.762 8.613,7.601 8.613,9.026C8.613,11.829 6.168,12.416 4.09,12.416L-0.798,12.416L-0.798,0.706ZM2.294,5.336L3.16,5.336C4.174,5.336 5.222,5.084 5.222,4.094C5.222,3.021 4.224,2.92 3.192,2.92L2.294,2.92L2.294,5.336ZM2.294,10.201L3.21,10.201C4.34,10.201 5.52,10.033 5.52,8.842C5.52,7.568 4.307,7.45 3.243,7.45L2.294,7.45L2.294,10.201Z" clip-rule="evenodd" fill-rule="evenodd" fill="#FFFFFF"/>
</svg>
