<svg width="54" height="54" viewBox="0 0 54 54" fill="none" xmlns="http://www.w3.org/2000/svg" xmlns:xlink="http://www.w3.org/1999/xlink">
<path d="M26.23,52.518C11.779,52.518 0.018,40.756 0.018,26.306C0.018,11.856 11.779,0.094 26.23,0.094C40.68,0.094 52.442,11.856 52.442,26.306C52.442,40.756 40.68,52.518 26.23,52.518ZM26.23,4.322C14.105,4.322 4.246,14.181 4.246,26.306C4.246,38.431 14.105,48.29 26.23,48.29C38.355,48.29 48.214,38.431 48.214,26.306C48.214,14.181 38.355,4.322 26.23,4.322Z" fill="#FFFFFF"/>
<path d="M18.621,23.727C13.666,23.727 8.305,22.991 2.589,21.503C1.456,21.207 0.78,20.057 1.076,18.924C1.372,17.791 2.522,17.115 3.655,17.411C20.972,21.909 34.526,19.06 42.846,9.184C43.598,8.296 44.934,8.177 45.822,8.93C46.718,9.683 46.828,11.018 46.076,11.906C39.472,19.744 30.137,23.727 18.621,23.727Z" fill="#FFFFFF"/>
<path d="M8.053,44.24C7.562,44.24 7.08,44.071 6.683,43.732C5.795,42.971 5.694,41.636 6.446,40.748C18.808,26.297 34.806,22.865 50.338,31.345C51.361,31.903 51.742,33.189 51.184,34.212C50.626,35.235 49.34,35.615 48.317,35.057C29.665,24.885 16.094,35.979 9.659,43.504C9.245,43.986 8.653,44.24 8.053,44.24Z" fill="#FFFFFF"/>
<path d="M33.155,51.504C33.079,51.504 33.003,51.504 32.926,51.496C31.768,51.369 30.931,50.329 31.058,49.162C32.707,34.044 28.817,18.799 19.508,3.833C18.89,2.843 19.195,1.541 20.184,0.924C21.173,0.307 22.476,0.611 23.093,1.6C32.918,17.387 37.01,33.545 35.26,49.627C35.133,50.709 34.22,51.504 33.155,51.504Z" fill="#FFFFFF"/>
</svg>
