<svg width="60" height="24" viewBox="0 0 60 24" fill="none" xmlns="http://www.w3.org/2000/svg" xmlns:xlink="http://www.w3.org/1999/xlink">
<path d="M8.057,23.602C13.657,23.602 16.983,19.223 16.983,11.807C16.983,9.014 16.449,6.665 15.427,4.849C13.947,2.026 11.398,0.5 8.179,0.5C3.387,0.5 0,3.72 0,8.236C0,12.478 3.052,15.56 7.248,15.56C9.827,15.56 11.917,14.355 12.955,12.265L13,12.265C13,12.265 13.062,12.265 13.077,12.265C13.107,12.265 13.214,12.265 13.214,12.265C13.214,17.3 11.307,20.306 8.087,20.306C6.195,20.306 4.73,19.268 4.227,17.605L0.305,17.605C0.961,21.221 4.028,23.602 8.057,23.602ZM8.194,12.432C5.661,12.432 3.86,10.632 3.86,8.114C3.86,5.657 5.753,3.781 8.209,3.781C10.666,3.781 12.558,5.688 12.558,8.175C12.558,10.632 10.712,12.432 8.194,12.432Z" fill="#333333"/>
<path d="M23.423,23.388C24.872,23.388 25.864,22.351 25.864,20.977C25.864,19.589 24.872,18.566 23.423,18.566C21.989,18.566 20.981,19.589 20.981,20.977C20.981,22.351 21.989,23.388 23.423,23.388ZM23.423,11.944C24.872,11.944 25.864,10.922 25.864,9.548C25.864,8.16 24.872,7.138 23.423,7.138C21.989,7.138 20.981,8.16 20.981,9.548C20.981,10.922 21.989,11.944 23.423,11.944Z" fill="#333333"/>
<path d="M40.147,23.068L43.916,23.068L43.916,18.963L46.891,18.963L46.891,15.637L43.916,15.637L43.916,1.049L38.362,1.049C34.471,6.909 31.373,11.807 29.39,15.454L29.39,18.963L40.147,18.963L40.147,23.068ZM33.036,15.499C35.6,10.983 37.889,7.366 39.995,4.254L40.208,4.254L40.208,15.728L33.036,15.728L33.036,15.499Z" fill="#333333"/>
<path d="M55.284,23.068L59.221,23.068L59.221,1.049L55.3,1.049L49.547,5.078L49.547,8.862L55.025,5.017L55.284,5.017L55.284,23.068Z" fill="#333333"/>
</svg>
