<svg width="16" height="16" viewBox="0 0 16 16" fill="none" xmlns="http://www.w3.org/2000/svg" xmlns:xlink="http://www.w3.org/1999/xlink">
<path d="M4.703,12.503L6.943,15.327L1.398,15.327L4.703,12.503ZM3.999,11.63L-0.339,15.335L-0.341,6.223L3.999,11.63ZM14.436,2.455C14.436,2.455 13.484,1.996 12.378,2.063C11.113,2.138 10.055,2.632 9.447,3.284C9.064,3.693 8.641,4.193 8.428,4.735C8.12,5.52 8.054,6.557 8.054,6.557C8.054,6.557 7.612,6.174 7.058,5.06C6.413,3.765 6.237,2.98 6.15,2.085C6.072,1.299 6.194,0.522 6.194,0.522L14.436,0.522L14.436,2.455ZM14.436,5.038L14.436,10.784C14.436,10.784 13.924,10.984 13.506,10.984C13.088,10.984 12.376,10.921 11.549,10.458C10.729,9.999 10.275,9.444 9.922,8.941C9.565,8.429 9.27,7.719 9.183,7.208C9.112,6.799 9.036,5.778 9.447,4.949C9.669,4.499 10.267,3.728 11.418,3.684C12.355,3.647 12.875,3.898 13.352,4.165C14.259,4.673 14.436,5.038 14.436,5.038L14.436,5.038ZM5.461,10.38L6.948,9.118C6.474,8.502 6.349,8.27 5.819,7.474C5.277,6.66 4.823,5.764 4.434,4.713C4.014,3.574 3.912,2.935 3.959,2.085C4.017,1.003 4.258,0.522 4.258,0.522L-0.343,0.522L-0.341,3.047C-0.341,3.047 3.181,7.541 5.461,10.38L5.461,10.38ZM9.709,15.323L14.436,15.323L14.436,11.813C14.436,11.813 13.264,12.361 12.502,12.405C12.048,12.432 11.608,12.45 10.897,12.257C10.107,12.044 9.658,11.835 8.926,11.22C8.338,10.727 7.666,9.999 7.666,9.999L6.17,11.269C6.864,12.133 7.377,12.762 7.534,12.931C8.208,13.657 8.494,13.923 8.948,14.182C9.402,14.441 10.919,14.427 10.919,14.427L9.709,15.323Z" clip-rule="evenodd" fill-rule="evenodd" fill="#E94E0F"/>
</svg>
