<svg width="26" height="26" viewBox="0 0 26 26" fill="none" xmlns="http://www.w3.org/2000/svg" xmlns:xlink="http://www.w3.org/1999/xlink">
<path d="M8.163,19.505L11.964,24.212L2.553,24.212L8.163,19.505ZM6.968,18.051L-0.394,24.226L-0.397,9.039L6.968,18.051ZM24.68,2.758C24.68,2.758 23.064,1.993 21.186,2.105C19.04,2.231 17.244,3.054 16.212,4.14C15.563,4.823 14.845,5.655 14.484,6.559C13.961,7.867 13.849,9.595 13.849,9.595C13.849,9.595 13.098,8.958 12.158,7.101C11.064,4.942 10.765,3.634 10.617,2.142C10.485,0.832 10.692,-0.463 10.692,-0.463L24.68,-0.463L24.68,2.758ZM24.68,7.064L24.68,16.64C24.68,16.64 23.81,16.974 23.101,16.974C22.392,16.974 21.184,16.869 19.781,16.097C18.388,15.332 17.617,14.407 17.02,13.568C16.413,12.715 15.913,11.532 15.764,10.68C15.645,9.998 15.516,8.298 16.212,6.916C16.59,6.166 17.604,4.88 19.557,4.807C21.148,4.746 22.031,5.165 22.84,5.608C24.379,6.455 24.68,7.064 24.68,7.064L24.68,7.064ZM9.449,15.967L11.972,13.864C11.168,12.837 10.955,12.45 10.057,11.124C9.136,9.767 8.365,8.274 7.706,6.522C6.993,4.624 6.82,3.558 6.899,2.142C6.998,0.339 7.408,-0.463 7.408,-0.463L-0.4,-0.463L-0.397,3.745C-0.397,3.745 5.58,11.236 9.449,15.967L9.449,15.967ZM16.658,24.205L24.68,24.205L24.68,18.356C24.68,18.356 22.69,19.268 21.397,19.342C20.627,19.387 19.879,19.417 18.674,19.096C17.333,18.74 16.572,18.393 15.329,17.368C14.331,16.546 13.19,15.332 13.19,15.332L10.653,17.448C11.83,18.888 12.7,19.937 12.966,20.219C14.11,21.429 14.596,21.873 15.366,22.304C16.137,22.736 18.712,22.713 18.712,22.713L16.658,24.205Z" clip-rule="evenodd" fill-rule="evenodd" fill="#E94E0F"/>
</svg>
