<svg width="96" height="30" viewBox="0 0 96 30" fill="none" xmlns="http://www.w3.org/2000/svg" xmlns:xlink="http://www.w3.org/1999/xlink">
<path d="M0.101,20.37C0.101,18.935 0.076,17.731 0,16.658L2.629,16.658L2.753,18.502L2.826,18.502C3.422,17.528 4.512,16.375 6.545,16.375C8.132,16.375 9.371,17.299 9.891,18.681L9.942,18.681C10.364,17.99 10.858,17.478 11.428,17.118C12.098,16.633 12.867,16.375 13.858,16.375C15.866,16.375 17.897,17.783 17.897,21.778L17.897,29.126L14.923,29.126L14.923,22.24C14.923,20.166 14.23,18.935 12.768,18.935C11.725,18.935 10.956,19.705 10.636,20.602C10.561,20.908 10.486,21.292 10.486,21.648L10.486,29.126L7.511,29.126L7.511,21.906C7.511,20.166 6.843,18.935 5.43,18.935C4.289,18.935 3.522,19.859 3.249,20.727C3.124,21.037 3.074,21.394 3.074,21.752L3.074,29.126L0.101,29.126L0.101,20.37Z" clip-rule="evenodd" fill-rule="evenodd" fill="#FFFFFF"/>
<path d="M29.486,26.132C29.486,27.258 29.535,28.357 29.659,29.127L26.907,29.127L26.709,27.745L26.634,27.745C25.891,28.719 24.626,29.409 23.065,29.409C20.635,29.409 19.272,27.593 19.272,25.697C19.272,22.546 21.973,20.96 26.436,20.986L26.436,20.78C26.436,19.96 26.113,18.604 23.982,18.604C22.791,18.604 21.551,18.989 20.734,19.525L20.138,17.479C21.032,16.914 22.595,16.376 24.502,16.376C28.371,16.376 29.486,18.912 29.486,21.625L29.486,26.132ZM26.51,23.034C24.354,22.982 22.297,23.469 22.297,25.364C22.297,26.592 23.065,27.156 24.032,27.156C25.245,27.156 26.139,26.336 26.411,25.441C26.485,25.21 26.51,24.953 26.51,24.749L26.51,23.034Z" clip-rule="evenodd" fill-rule="evenodd" fill="#FFFFFF"/>
<path d="M31.594,20.37C31.594,18.935 31.566,17.731 31.494,16.658L34.169,16.658L34.319,18.527L34.392,18.527C34.913,17.555 36.227,16.375 38.234,16.375C40.342,16.375 42.523,17.783 42.523,21.727L42.523,29.126L39.475,29.126L39.475,22.086C39.475,20.293 38.83,18.935 37.169,18.935C35.954,18.935 35.112,19.832 34.789,20.78C34.691,21.062 34.665,21.447 34.665,21.803L34.665,29.126L31.594,29.126L31.594,20.37Z" clip-rule="evenodd" fill-rule="evenodd" fill="#FFFFFF"/>
<path d="M55.741,11.648L55.741,25.618C55.741,26.898 55.79,28.283 55.84,29.127L53.113,29.127L52.991,27.156L52.94,27.156C52.221,28.539 50.756,29.409 48.998,29.409C46.124,29.409 43.843,26.875 43.843,23.034C43.818,18.86 46.346,16.376 49.246,16.376C50.906,16.376 52.097,17.094 52.642,18.016L52.692,18.016L52.692,11.648L55.741,11.648ZM52.692,21.854C52.692,21.601 52.666,21.292 52.619,21.037C52.346,19.808 51.378,18.809 49.99,18.809C48.032,18.809 46.941,20.602 46.941,22.932C46.941,25.21 48.032,26.875 49.965,26.875C51.204,26.875 52.296,26.004 52.593,24.648C52.666,24.365 52.692,24.058 52.692,23.724L52.692,21.854Z" clip-rule="evenodd" fill-rule="evenodd" fill="#FFFFFF"/>
<path d="M57.896,29.127L60.972,29.127L60.972,16.659L57.896,16.659L57.896,29.127Z" clip-rule="evenodd" fill-rule="evenodd" fill="#FFFFFF"/>
<path d="M63.127,20.678C63.127,18.989 63.101,17.784 63.027,16.658L65.68,16.658L65.777,19.038L65.88,19.038C66.474,17.272 67.887,16.658 69.176,16.658C69.472,16.658 69.646,16.606 69.894,16.658L69.894,19.424C69.646,19.373 69.374,19.322 69.002,19.322C67.54,19.322 66.547,20.294 66.275,21.701C66.227,21.983 66.177,22.317 66.177,22.677L66.177,29.127L63.127,29.127L63.127,20.678Z" clip-rule="evenodd" fill-rule="evenodd" fill="#FFFFFF"/>
<path d="M71.308,29.127L74.38,29.127L74.38,16.659L71.308,16.659L71.308,29.127Z" clip-rule="evenodd" fill-rule="evenodd" fill="#FFFFFF"/>
<path d="M70.581,1.584C68.736,2.688 64.383,5.266 62.758,6.227L62.758,6.227C61.767,6.748 59.474,6.975 58.177,5.168L58.177,5.168C58.153,5.136 56.451,2.939 56.382,2.856L56.382,2.856C56.333,2.798 55.232,1.112 52.78,1.059L52.78,1.059C52.418,1.05 50.617,1.04 48.859,2.072L48.859,2.072C46.523,3.451 41.09,6.659 41.09,6.659L41.09,6.659C41.088,6.659 41.088,6.662 41.086,6.662L41.086,6.662C38.852,7.982 37.112,9.009 37.112,9.009L37.112,9.009L39.168,11.618C40.13,12.851 42.299,13.805 44.18,12.69L44.18,12.69C44.18,12.69 51.129,8.533 51.155,8.521L51.155,8.521C54.16,6.818 56.48,6.818 58.019,7.452L58.019,7.452C59.401,8.055 60.603,9.558 60.603,9.558L60.603,9.558C60.603,9.558 62.173,11.568 62.451,11.92L62.451,11.92C63.344,13.057 64.824,12.61 64.824,12.61L64.824,12.61C64.824,12.61 65.372,12.546 66.198,12.039L66.198,12.039C66.198,12.039 72.93,8.008 72.934,8.006L72.934,8.006C75.072,6.711 77.032,6.469 78.034,6.564L78.034,6.564C81.172,6.859 82.147,9.123 83.508,10.703L83.508,10.703C84.309,11.632 85.032,12.16 86.138,12.133L86.138,12.133C86.865,12.118 87.685,11.662 87.806,11.58L87.806,11.58L95.867,6.775C95.867,6.775 95.04,5.488 93.346,3.486L93.346,3.486C91.83,1.7 90.22,2.508 88.936,3.165L88.936,3.165C88.397,3.441 86.443,4.784 84.506,5.72L84.506,5.72C83.127,6.388 81.145,6.187 80.059,4.801L80.059,4.801C79.994,4.717 78.237,2.519 78.052,2.249L78.052,2.249C77.343,1.331 75.96,0.51 74.186,0.51L74.186,0.51C73.108,0.51 71.885,0.814 70.581,1.584Z" clip-rule="evenodd" fill-rule="evenodd" fill="url(#pf_0_i_1402_2225;848_639)"/>
<defs>
<linearGradient id="pf_0_i_1402_2225;848_639" x1="37.112" y1="13.184" x2="95.867" y2="13.184" gradientUnits="userSpaceOnUse">
<stop stop-color="#FFCA06"/>
<stop offset="0.331" stop-color="#FBAA18"/>
<stop offset="0.695" stop-color="#FFC907"/>
<stop offset="1" stop-color="#FAA619"/>
</linearGradient>
</defs>
</svg>
