<svg width="46" height="27" viewBox="0 0 46 27" fill="none" xmlns="http://www.w3.org/2000/svg">
<path fill-rule="evenodd" clip-rule="evenodd" d="M19.6689 3.97045C19.8887 3.97034 20.1085 3.97024 20.3283 3.97024C20.3838 2.85583 20.6499 1.66467 21.4419 0.832742C22.2118 0.0220376 23.6356 -0.0212326 24.4332 0.771511C25.2823 1.59609 25.604 2.82154 25.6636 3.97024C26.0517 3.97189 26.44 3.97101 26.8282 3.97012C27.4005 3.96882 27.9727 3.96752 28.5447 3.97432C28.806 3.96045 29.0631 4.15067 29.0966 4.41437C29.1231 4.66042 29.1022 4.90724 29.0813 5.15377C29.0719 5.26471 29.0625 5.3756 29.0574 5.48633C28.8916 7.71068 28.7297 9.93582 28.5679 12.1602L28.5611 12.2545C28.5202 12.7549 28.3382 13.2791 27.9324 13.5991C27.6679 13.8105 27.3242 13.8881 26.9911 13.8791C25.5642 13.8774 24.1374 13.8777 22.7106 13.8781C21.4426 13.8784 20.1746 13.8786 18.9069 13.8775C18.4448 13.893 17.977 13.6677 17.737 13.266C17.4692 12.853 17.4414 12.3599 17.4143 11.88C17.409 11.785 17.4037 11.6905 17.3965 11.5972C17.3282 10.6727 17.2609 9.74814 17.1936 8.82365C17.0967 7.49332 16.9998 6.16312 16.9001 4.8332C16.8993 4.81658 16.8984 4.79977 16.8974 4.78281C16.8856 4.56807 16.8724 4.32926 17.0275 4.16128C17.1809 3.97506 17.4377 3.97181 17.6608 3.96899C17.6704 3.96887 17.6801 3.96875 17.6896 3.96861C18.3497 3.97106 19.0094 3.97075 19.6689 3.97045ZM23.3204 0.930713C22.713 0.774776 22.0664 1.09481 21.7227 1.59773C21.2402 2.28679 21.0933 3.14566 21.032 3.96779C22.3416 3.97188 23.6511 3.97188 24.9598 3.96779C24.888 3.22404 24.7484 2.46721 24.3793 1.80918C24.1499 1.40179 23.7874 1.0393 23.3204 0.930713ZM22.5922 5.68227C21.9227 5.79576 21.3365 6.34276 21.2329 7.02202C21.1626 7.47676 21.37 7.93886 21.7129 8.2344C22.113 8.60367 22.6366 8.76911 23.1464 8.93016C23.2047 8.94857 23.2628 8.96692 23.3204 8.98551C23.8021 9.15777 24.3116 9.39698 24.5843 9.85336C24.8039 10.2191 24.7524 10.7188 24.4651 11.0331C24.1548 11.3768 23.6805 11.5238 23.2306 11.5548C22.5538 11.5785 21.8982 11.3245 21.3463 10.9457C21.2226 10.8352 21.1197 10.9495 21.033 11.0459L21.033 11.0459C21.0127 11.0684 20.9934 11.0899 20.9749 11.1074C21.3602 11.5531 21.9342 11.7817 22.4959 11.9107C23.2012 12.0618 23.9981 11.9981 24.5932 11.5613C25.1582 11.1482 25.3158 10.331 25.0562 9.70151C24.8447 9.22309 24.3777 8.92183 23.9123 8.72507C23.7116 8.63653 23.4972 8.56603 23.282 8.49522L23.282 8.49522L23.282 8.49521C22.749 8.31987 22.2102 8.14264 21.8566 7.68495C21.5072 7.24245 21.7407 6.58768 22.1775 6.3003C22.7008 5.93455 23.3923 6.01292 23.9581 6.22928C24.0526 6.25957 24.142 6.30451 24.2312 6.3494C24.3609 6.41461 24.4903 6.47968 24.6349 6.49951C24.8039 6.43501 24.8243 6.19335 24.6643 6.10763C24.0699 5.6986 23.2984 5.55818 22.5922 5.68227Z" fill="white"/>
<path fill-rule="evenodd" clip-rule="evenodd" d="M1.49288 19.4303C1.90177 19.8207 2.42411 20.0078 2.94595 20.1947C3.47156 20.3829 3.99666 20.571 4.40478 20.9664C4.77582 21.2796 4.81737 21.851 4.60662 22.2665C4.33354 22.7311 3.75917 22.9077 3.25011 22.9285C2.4086 22.9314 1.6784 22.4595 1.00904 22.0038C0.990595 22.0192 0.970862 22.0352 0.9504 22.0518C0.733825 22.2275 0.435456 22.4695 0.71073 22.7326C1.80603 23.7373 3.68942 24.1544 4.91681 23.1555C5.79394 22.4506 5.75684 21.0243 4.90939 20.3119C4.50126 19.886 3.96323 19.6995 3.42476 19.5129C2.97633 19.3574 2.5276 19.2019 2.15332 18.9079C1.53443 18.4805 1.82087 17.4015 2.52585 17.2427C3.24269 17.0023 3.98031 17.2664 4.62443 17.584C5.05632 17.826 5.33386 17.0616 4.94501 16.8642C4.10647 16.3077 2.9518 16.1355 2.02272 16.5615C0.963035 17.0156 0.603871 18.6437 1.49288 19.4303ZM6.17092 22.8424L6.17171 22.9178C6.17383 23.1368 6.17597 23.3584 6.2199 23.5741C6.38315 23.7818 6.78832 23.8071 6.92338 23.5577C7.03588 23.1582 7.01283 22.7241 6.98983 22.2911C6.95459 21.6273 6.91947 20.966 7.37308 20.4351C7.87769 19.7657 9.17484 19.8192 9.45089 20.6696C9.54216 21.1712 9.52846 21.681 9.51476 22.1911C9.50239 22.6514 9.49001 23.1118 9.55478 23.5666C9.77444 23.8754 10.3933 23.7344 10.3236 23.3173C10.331 22.5159 10.3369 21.7144 10.331 20.913C10.3384 19.9468 9.4034 19.1246 8.45503 19.1602C7.91628 19.1083 7.43245 19.3695 6.98423 19.6307C6.98376 19.3269 6.98717 19.0229 6.99058 18.7187V18.7187V18.7186V18.7185V18.7185V18.7184V18.7183V18.7183C6.99792 18.0625 7.00527 17.4063 6.97384 16.7514C6.98423 16.5036 6.78832 16.2765 6.52563 16.3418C6.21099 16.3136 6.17389 16.6802 6.17537 16.9117C6.1728 17.7684 6.17385 18.625 6.1749 19.4816V19.4818C6.17627 20.602 6.17765 21.7222 6.17092 22.8424ZM31.9252 23.8917L31.9262 23.8916L31.9264 23.8916L31.9266 23.8916L31.9268 23.8916L31.927 23.8916L31.9272 23.8916L31.9274 23.8916L31.9276 23.8916C32.0933 23.8898 32.2593 23.8879 32.4255 23.8857C32.5033 23.3875 32.591 22.8917 32.6788 22.396L32.6788 22.3959C32.7301 22.106 32.7814 21.8162 32.8307 21.5259C32.9594 21.5238 33.0882 21.5234 33.217 21.5229C33.6293 21.5215 34.0421 21.5201 34.4514 21.4636C35.5853 21.29 36.5782 20.1828 36.3912 19.0059C36.2888 18.2757 35.5912 17.7651 34.8833 17.7325C34.456 17.7163 34.0287 17.7195 33.6014 17.7226C33.2421 17.7253 32.8828 17.7279 32.5235 17.7191C32.3122 18.8869 32.1051 20.0551 31.8981 21.2236C31.7401 22.1149 31.5822 23.0062 31.4223 23.8976C31.5898 23.8954 31.7574 23.8935 31.9252 23.8917ZM33.1992 19.4845L33.1995 19.4828C33.2483 19.2112 33.2971 18.9398 33.3472 18.669C33.5188 18.6755 33.6926 18.6702 33.8668 18.6649C34.244 18.6535 34.6228 18.6419 34.9842 18.7506C35.5586 19.0059 35.4769 19.8459 35.0673 20.2199C34.6622 20.6206 34.1044 20.5989 33.5632 20.5778C33.3708 20.5703 33.1805 20.5629 32.9999 20.5746C33.0686 20.2116 33.1339 19.8481 33.1992 19.4849L33.1992 19.4845ZM11.6163 22.9522C11.0256 22.2576 10.8697 21.1935 11.3372 20.3921C11.6519 19.8281 12.2218 19.4407 12.8348 19.2626C13.985 18.9272 15.2866 19.7034 15.6264 20.8328C15.7897 21.4725 15.7199 22.1953 15.3341 22.7444C14.5534 23.9763 12.5305 24.0846 11.6163 22.9522ZM14.8191 21.9489C15.248 20.9189 14.1349 19.7702 13.0856 20.0655C12.0467 20.2006 11.4812 21.5779 12.204 22.3675C12.8719 23.2965 14.4703 23.0294 14.8191 21.9489ZM16.9236 19.2389C16.6475 19.1231 16.3626 19.4526 16.4145 19.7227C16.4038 20.6693 16.4057 21.6159 16.4077 22.5627V22.5628V22.5629V22.563V22.5631V22.5632V22.5636V22.5637C16.4095 23.4514 16.4113 24.3392 16.4026 25.2274C16.4066 25.2943 16.4064 25.3632 16.4061 25.4328C16.4053 25.6475 16.4044 25.868 16.5288 26.0496C16.7603 26.1431 17.2145 26.1788 17.2174 25.8285C17.258 25.2321 17.248 24.6336 17.2381 24.0355V24.0354V24.0354V24.0354V24.0353V24.0353V24.0351V24.0349V24.0348V24.0346V24.0344C17.2335 23.7562 17.2288 23.478 17.2293 23.2001C18.3142 24.052 20.1472 23.8917 20.8432 22.6242C21.5541 21.5052 20.9931 19.8904 19.7761 19.4021C18.9643 18.9791 17.9788 19.2166 17.2917 19.7702C17.2633 19.7181 17.2432 19.6539 17.2228 19.5883C17.1715 19.4242 17.1177 19.2516 16.9236 19.2389ZM18.1851 20.162C18.8901 19.8652 19.8088 20.0982 20.162 20.8106C20.634 21.5289 20.1709 22.5366 19.4051 22.8201C18.6378 23.1867 17.6493 22.7236 17.3941 21.9252C17.1061 21.244 17.5425 20.4484 18.1851 20.162ZM25.7335 23.3574C24.8549 23.9035 23.6349 23.9778 22.7489 23.4034C21.5452 22.504 21.5912 20.4113 22.8171 19.5535C23.7863 18.8619 25.3818 19.1914 25.8611 20.3208C26.0274 20.729 26.1357 21.2068 25.9754 21.6343C25.8381 21.7305 25.6701 21.7349 25.5075 21.7391C25.4645 21.7402 25.4219 21.7413 25.3803 21.7441C25.0662 21.7457 24.752 21.7442 24.4377 21.7427C23.846 21.7399 23.2541 21.7371 22.6628 21.7545C22.6879 21.8167 22.7118 21.8813 22.7361 21.9468C22.8622 22.2877 22.9966 22.6511 23.3514 22.8068C24.0045 23.1125 24.7554 22.9299 25.3936 22.6732C25.7721 22.461 26.106 23.1689 25.7335 23.3574ZM24.659 20.162C24.2924 20.0106 23.8709 20.0077 23.4924 20.113C23.1648 20.2043 22.9962 20.5064 22.8394 20.7874C22.8101 20.8399 22.7813 20.8917 22.7518 20.9412C23.58 20.9545 24.4096 20.9531 25.2393 20.9412C25.2103 20.8867 25.1828 20.8297 25.1551 20.7721C25.0378 20.5289 24.9158 20.276 24.659 20.162ZM27.5946 23.3188C28.4599 23.9911 29.7407 23.9154 30.6564 23.3826C31.0631 23.1733 30.7024 22.3986 30.2913 22.691C29.6888 22.9403 28.9853 23.0858 28.3604 22.835C27.9637 22.6802 27.8098 22.278 27.6679 21.9072C27.6479 21.8549 27.6282 21.8033 27.608 21.753C28.2161 21.7368 28.8243 21.74 29.4324 21.7431C29.7148 21.7446 29.9971 21.7461 30.2795 21.7456C30.3264 21.7425 30.3748 21.7417 30.4238 21.7408C30.6103 21.7376 30.8045 21.7342 30.9503 21.6061C31.1165 20.9857 30.8954 20.3045 30.4961 19.8192C29.7719 19.0771 28.4836 18.9762 27.6674 19.6292C26.5854 20.5093 26.5364 22.3986 27.5946 23.3188ZM27.7089 20.9442C27.9152 20.4366 28.3397 19.9676 28.9422 20.0418C29.5418 19.9631 30.0316 20.3831 30.1845 20.9427C29.3593 20.9531 28.5341 20.9516 27.7089 20.9442ZM39.0077 20.3579C38.3918 19.9527 37.6319 20.2911 37.1273 20.7156L36.5351 20.1947C37.0294 19.7598 37.623 19.4036 38.2968 19.3621C38.8742 19.3279 39.5539 19.3858 39.9591 19.8533C40.2618 20.1679 40.3108 20.6444 40.2411 21.0584C40.1291 21.7667 39.9998 22.4717 39.8704 23.1771C39.8265 23.4162 39.7826 23.6553 39.7394 23.8946L39.7391 23.8946C39.4186 23.8932 39.0982 23.8917 38.7792 23.8917L38.892 23.3752C38.2731 23.9971 37.2416 24.2924 36.4639 23.7908C35.7307 23.298 35.8895 22.1686 36.498 21.6402C37.2475 20.9367 38.3799 20.9902 39.3016 21.2618C39.2911 21.1893 39.2875 21.1107 39.2838 21.0306C39.2716 20.7698 39.2587 20.493 39.0077 20.3579ZM39.1621 22.0484C38.5848 21.8168 37.8709 21.6595 37.3158 22.0291C36.9388 22.268 36.7964 22.9225 37.2668 23.1451C38.0846 23.5013 38.9291 22.8201 39.1621 22.0484ZM41.1142 20.8263C40.9983 20.3854 40.8825 19.9446 40.765 19.5045H41.8499C41.9636 19.9586 42.0719 20.414 42.1802 20.8694C42.3067 21.4009 42.4331 21.9325 42.5682 22.4624C42.9733 21.8457 43.3411 21.2069 43.7089 20.5681C43.9138 20.2123 44.1186 19.8565 44.3299 19.5045C44.6846 19.5045 45.0393 19.506 45.3955 19.5075L45.4 19.5075C44.9286 20.2691 44.4603 21.0328 43.9921 21.7964C43.1792 23.122 42.3663 24.4477 41.5367 25.7632C41.3121 25.7602 41.0874 25.7586 40.8628 25.7569C40.7505 25.7561 40.6383 25.7553 40.526 25.7543C40.6786 25.512 40.8329 25.2707 40.9873 25.0294C41.2848 24.5642 41.5824 24.099 41.8677 23.626C41.6055 22.6963 41.3598 21.761 41.1142 20.8263Z" fill="white"/>
</svg>
