<svg width="50" height="13" viewBox="0 0 50 13" fill="none" xmlns="http://www.w3.org/2000/svg">
<path fill-rule="evenodd" clip-rule="evenodd" d="M13.601 3.35254H16.27C17.3508 3.35254 18.1566 3.83075 18.1566 4.83748C18.1566 5.5756 17.783 5.98667 17.1342 6.20445V6.22105C17.9075 6.38088 18.3066 6.80037 18.3066 7.51296C18.3066 8.91416 17.0841 9.20752 16.045 9.20752H13.601V3.35254ZM15.1469 5.66777H15.5796C16.0868 5.66777 16.6109 5.5419 16.6109 5.04658C16.6109 4.51041 16.1118 4.4596 15.5958 4.4596H15.1469V5.66777ZM15.1469 8.10045H15.6049C16.1698 8.10045 16.7599 8.01645 16.7599 7.42079C16.7599 6.78377 16.1533 6.72454 15.6211 6.72454H15.1469V8.10045Z" fill="white"/>
<path fill-rule="evenodd" clip-rule="evenodd" d="M20.3362 3.35254H22.2319L24.4684 9.20752H22.7722L22.3402 7.95799H20.1618L19.7043 9.20752H18.1331L20.3362 3.35254ZM21.2844 4.56071H21.267L20.5192 6.85092H21.974L21.2844 4.56071Z" fill="white"/>
<path fill-rule="evenodd" clip-rule="evenodd" d="M24.6837 3.35254H26.6541L28.6163 7.32888H28.6325L28.6079 3.35254H30.0218V9.20752H28.1011L26.0718 5.20641H26.0558L26.1054 9.20752H24.6837V3.35254Z" fill="white"/>
<path fill-rule="evenodd" clip-rule="evenodd" d="M30.5466 3.35254H32.0928V5.74386H32.1095L33.8549 3.35254H35.7179L33.5725 6.07858L35.8842 9.20752H33.9131L32.1095 6.54862H32.0928V9.20752H30.5466V3.35254Z" fill="white"/>
<path fill-rule="evenodd" clip-rule="evenodd" d="M37.8014 3.35254H40.4704C41.551 3.35254 42.3578 3.83075 42.3578 4.83748C42.3578 5.5756 41.9842 5.98667 41.3354 6.20445V6.22105C42.1085 6.38088 42.5076 6.80037 42.5076 7.51296C42.5076 8.91416 41.2853 9.20752 40.2465 9.20752H37.8014V3.35254ZM39.3481 5.66777H39.7801C40.2875 5.66777 40.8108 5.5419 40.8108 5.04658C40.8108 4.51041 40.3125 4.4596 39.7973 4.4596H39.3481V5.66777ZM39.3481 8.10045H39.8056C40.3705 8.10045 40.9611 8.01645 40.9611 7.42079C40.9611 6.78377 40.3543 6.72454 39.8221 6.72454H39.3481V8.10045Z" fill="white"/>
<path fill-rule="evenodd" clip-rule="evenodd" d="M42.8503 3.35254H45.6107C46.6415 3.35254 47.4816 3.82207 47.4816 4.82931C47.4816 5.60931 47.1157 6.12939 46.3676 6.30531V6.3219C46.8654 6.45645 46.8993 6.90071 47.1903 7.61382L47.7559 9.20752H46.1432L45.8104 8.15126C45.4943 7.14454 45.2947 6.89228 44.721 6.89228H44.3965V9.20752H42.8503V3.35254ZM44.3965 5.78522H44.8042C45.303 5.78522 45.9352 5.76811 45.9352 5.10556C45.9352 4.56071 45.3941 4.4596 44.8042 4.4596H44.3965V5.78522Z" fill="white"/>
<mask id="mask0_1410_1162" style="mask-type:luminance" maskUnits="userSpaceOnUse" x="0" y="0" width="50" height="13">
<path fill-rule="evenodd" clip-rule="evenodd" d="M0.199951 12.1645H49.7281V0.399902H0.199951V12.1645Z" fill="white"/>
</mask>
<g mask="url(#mask0_1410_1162)">
<path fill-rule="evenodd" clip-rule="evenodd" d="M48.1819 9.20752H49.7281V3.35254H48.1819V9.20752Z" fill="white"/>
<path fill-rule="evenodd" clip-rule="evenodd" d="M10.0721 0.399902H1.97872C0.996335 0.399902 0.199951 1.22331 0.199951 2.23922V2.25863V10.3257C0.199951 11.3316 0.981657 12.1494 1.95139 12.1645H10.0678C11.0505 12.1645 11.8471 11.3411 11.8471 10.3257L11.8509 2.23922C11.8509 1.22331 11.0548 0.399902 10.0721 0.399902ZM2.94086 11.2219L2.49927 11.2267C1.9648 11.2267 1.53156 10.7837 1.53156 10.2371L1.52903 10.1592V2.69114L1.53181 2.28901C1.5518 1.75999 1.95012 1.33412 2.47193 1.33412H3.36954C4.18288 1.33412 4.84261 2.04773 4.84261 2.88977C4.84261 3.30594 4.68091 3.68382 4.41899 3.95854L2.12878 6.30314L4.27525 8.50833C4.5521 8.79607 4.71937 9.17445 4.71937 9.58884C4.71937 10.4909 3.92299 11.2219 2.94086 11.2219ZM9.53968 11.2145L5.53777 11.2127C5.53777 11.2127 6.00062 10.2036 6.00062 9.57914C6.00062 8.81777 5.74807 8.13735 5.35304 7.68722L3.98423 6.27939L5.38138 4.82305C5.79716 4.42858 6.0735 3.7285 6.0735 2.93114C6.0735 2.29973 5.90041 1.74033 5.62179 1.33412H6.59152C7.40511 1.33412 8.06484 2.04773 8.06484 2.88977C8.06484 3.30594 7.90339 3.68382 7.64147 3.95854L5.39505 6.27863L10.0607 11.0789C9.91295 11.1728 9.72644 11.2145 9.53968 11.2145ZM10.517 9.71573L7.17331 6.2776L8.76582 4.64458C9.09025 4.23582 9.29573 3.61973 9.29573 2.93114C9.29573 2.29565 9.12011 1.72271 8.83896 1.31624L9.55183 1.33769C10.0863 1.33769 10.5195 1.78143 10.5195 2.32782L10.517 9.71573Z" fill="white"/>
</g>
</svg>
