<svg width="58" height="18" viewBox="0 0 58 18" fill="none" xmlns="http://www.w3.org/2000/svg" xmlns:xlink="http://www.w3.org/1999/xlink">
<path d="M0.774,11.422C0.774,10.561 0.759,9.839 0.714,9.195L2.264,9.195L2.336,10.301L2.38,10.301C2.731,9.716 3.373,9.025 4.571,9.025C5.506,9.025 6.237,9.579 6.543,10.409L6.573,10.409C6.822,9.994 7.113,9.687 7.449,9.471C7.844,9.179 8.297,9.025 8.881,9.025C10.064,9.025 11.261,9.87 11.261,12.267L11.261,16.676L9.508,16.676L9.508,12.544C9.508,11.3 9.1,10.561 8.238,10.561C7.624,10.561 7.171,11.023 6.982,11.561C6.938,11.745 6.894,11.975 6.894,12.189L6.894,16.676L5.141,16.676L5.141,12.343C5.141,11.3 4.747,10.561 3.914,10.561C3.242,10.561 2.79,11.115 2.629,11.636C2.555,11.822 2.526,12.036 2.526,12.251L2.526,16.676L0.774,16.676L0.774,11.422Z" clip-rule="evenodd" fill-rule="evenodd" fill="#FFFFFF"/>
<path d="M18.09,14.878C18.09,15.554 18.119,16.213 18.192,16.676L16.57,16.676L16.454,15.846L16.409,15.846C15.971,16.431 15.226,16.845 14.306,16.845C12.874,16.845 12.071,15.755 12.071,14.617C12.071,12.727 13.663,11.776 16.292,11.791L16.292,11.667C16.292,11.176 16.102,10.362 14.846,10.362C14.145,10.362 13.414,10.592 12.932,10.915L12.581,9.687C13.108,9.348 14.029,9.025 15.153,9.025C17.433,9.025 18.09,10.547 18.09,12.174L18.09,14.878ZM16.336,13.02C15.065,12.989 13.853,13.281 13.853,14.418C13.853,15.154 14.306,15.493 14.876,15.493C15.591,15.493 16.118,15.001 16.278,14.464C16.321,14.325 16.336,14.171 16.336,14.049L16.336,13.02Z" clip-rule="evenodd" fill-rule="evenodd" fill="#FFFFFF"/>
<path d="M19.332,11.422C19.332,10.561 19.316,9.839 19.273,9.195L20.849,9.195L20.938,10.316L20.981,10.316C21.288,9.733 22.062,9.025 23.245,9.025C24.487,9.025 25.772,9.87 25.772,12.236L25.772,16.676L23.976,16.676L23.976,12.452C23.976,11.376 23.596,10.561 22.617,10.561C21.902,10.561 21.405,11.099 21.215,11.668C21.157,11.837 21.142,12.068 21.142,12.282L21.142,16.676L19.332,16.676L19.332,11.422Z" clip-rule="evenodd" fill-rule="evenodd" fill="#FFFFFF"/>
<path d="M33.562,6.188L33.562,14.57C33.562,15.338 33.591,16.169 33.62,16.676L32.013,16.676L31.941,15.493L31.911,15.493C31.488,16.323 30.624,16.845 29.588,16.845C27.895,16.845 26.55,15.324 26.55,13.02C26.536,10.516 28.025,9.025 29.734,9.025C30.713,9.025 31.414,9.456 31.735,10.009L31.765,10.009L31.765,6.188L33.562,6.188ZM31.765,12.312C31.765,12.16 31.75,11.975 31.722,11.822C31.561,11.084 30.991,10.485 30.173,10.485C29.019,10.485 28.376,11.561 28.376,12.959C28.376,14.325 29.019,15.324 30.158,15.324C30.888,15.324 31.531,14.802 31.706,13.988C31.75,13.818 31.765,13.634 31.765,13.434L31.765,12.312Z" clip-rule="evenodd" fill-rule="evenodd" fill="#FFFFFF"/>
<path d="M34.831,16.675L36.645,16.675L36.645,9.195L34.831,9.195L34.831,16.675Z" clip-rule="evenodd" fill-rule="evenodd" fill="#FFFFFF"/>
<path d="M37.914,11.606C37.914,10.592 37.899,9.869 37.855,9.194L39.419,9.194L39.476,10.622L39.537,10.622C39.887,9.562 40.719,9.194 41.479,9.194C41.654,9.194 41.756,9.163 41.902,9.194L41.902,10.854C41.756,10.823 41.595,10.792 41.376,10.792C40.514,10.792 39.93,11.376 39.769,12.22C39.741,12.389 39.711,12.59 39.711,12.806L39.711,16.676L37.914,16.676L37.914,11.606Z" clip-rule="evenodd" fill-rule="evenodd" fill="#FFFFFF"/>
<path d="M42.735,16.675L44.545,16.675L44.545,9.195L42.735,9.195L42.735,16.675Z" clip-rule="evenodd" fill-rule="evenodd" fill="#FFFFFF"/>
<path d="M42.307,0.15C41.219,0.812 38.654,2.359 37.696,2.935L37.696,2.935C37.113,3.248 35.761,3.385 34.997,2.301L34.997,2.301C34.983,2.281 33.98,0.963 33.939,0.913L33.939,0.913C33.91,0.878 33.262,-0.133 31.817,-0.165L31.817,-0.165C31.603,-0.17 30.542,-0.176 29.506,0.443L29.506,0.443C28.13,1.27 24.928,3.195 24.928,3.195L24.928,3.195C24.927,3.195 24.927,3.197 24.925,3.197L24.925,3.197C23.609,3.989 22.584,4.605 22.584,4.605L22.584,4.605L23.795,6.17C24.362,6.91 25.64,7.483 26.749,6.814L26.749,6.814C26.749,6.814 30.844,4.319 30.859,4.312L30.859,4.312C32.63,3.291 33.997,3.291 34.904,3.671L34.904,3.671C35.718,4.033 36.426,4.934 36.426,4.934L36.426,4.934C36.426,4.934 37.352,6.141 37.515,6.352L37.515,6.352C38.042,7.034 38.914,6.766 38.914,6.766L38.914,6.766C38.914,6.766 39.237,6.727 39.724,6.423L39.724,6.423C39.724,6.423 43.691,4.004 43.693,4.003L43.693,4.003C44.953,3.226 46.108,3.081 46.699,3.138L46.699,3.138C48.548,3.315 49.122,4.674 49.924,5.621L49.924,5.621C50.396,6.179 50.823,6.496 51.474,6.48L51.474,6.48C51.902,6.47 52.386,6.197 52.457,6.148L52.457,6.148L57.207,3.265C57.207,3.265 56.72,2.493 55.722,1.291L55.722,1.291C54.829,0.22 53.88,0.705 53.123,1.099L53.123,1.099C52.805,1.264 51.654,2.07 50.513,2.632L50.513,2.632C49.7,3.032 48.532,2.912 47.892,2.08L47.892,2.08C47.854,2.029 46.818,0.711 46.709,0.549L46.709,0.549C46.291,-0.002 45.476,-0.495 44.431,-0.495L44.431,-0.495C43.796,-0.495 43.075,-0.312 42.307,0.15Z" clip-rule="evenodd" fill-rule="evenodd" fill="url(#pf_0_i_877_1402;848_639)"/>
<defs>
<linearGradient id="pf_0_i_877_1402;848_639" x1="22.584" y1="7.11" x2="57.207" y2="7.11" gradientUnits="userSpaceOnUse">
<stop stop-color="#FFCA06"/>
<stop offset="0.331" stop-color="#FBAA18"/>
<stop offset="0.695" stop-color="#FFC907"/>
<stop offset="1" stop-color="#FAA619"/>
</linearGradient>
</defs>
</svg>
