<svg width="80" height="48" viewBox="0 0 80 48" fill="none" xmlns="http://www.w3.org/2000/svg" xmlns:xlink="http://www.w3.org/1999/xlink">
<path d="M46.892,35.575L44.428,40.427L41.964,35.575L39.314,35.575L39.314,46.573L42.011,46.573L42.011,41.075C42.011,41.075 43.334,43.394 43.533,43.74C43.731,44.086 44.07,44.266 44.427,44.266C44.786,44.266 45.125,44.086 45.323,43.74C45.521,43.394 46.845,41.075 46.845,41.075L46.845,46.573L49.541,46.573L49.541,35.575L46.892,35.575Z" clip-rule="evenodd" fill-rule="evenodd" fill="#595A59"/>
<path d="M51.803,46.573L51.803,35.575L59.261,35.575L59.261,37.985L54.499,37.985L54.499,39.822L58.567,39.822L58.567,42.234L54.499,42.234L54.499,44.166L59.261,44.166L59.261,46.573L51.803,46.573Z" clip-rule="evenodd" fill-rule="evenodd" fill="#595A59"/>
<path d="M68.166,45.524C67.226,46.496 66.178,46.757 64.977,46.757C63.698,46.757 62.727,46.328 61.927,45.524C60.77,44.365 60.817,42.694 60.817,41.043C60.817,39.391 60.77,37.735 61.927,36.574C62.727,35.772 63.654,35.341 64.977,35.341C67.795,35.341 68.998,37.177 69.259,38.985L66.549,38.985C66.332,38.15 65.9,37.748 64.977,37.748C64.484,37.748 64.113,37.966 63.914,38.229C63.667,38.553 63.514,39.035 63.514,41.043C63.514,43.05 63.667,43.562 63.914,43.886C64.113,44.152 64.484,44.35 64.977,44.35C65.547,44.35 65.931,44.181 66.178,43.917C66.486,43.608 66.595,43.059 66.595,42.642L66.595,42.487L64.977,42.487L64.977,40.229L69.275,40.229L69.275,41.759C69.275,43.539 68.998,44.676 68.166,45.524Z" clip-rule="evenodd" fill-rule="evenodd" fill="#595A59"/>
<path d="M73.859,42.735L74.867,39.55L75.876,42.735L73.859,42.735ZM75.907,35.575L73.828,35.575L69.838,46.573L72.61,46.573L73.149,44.935L76.585,44.935L77.124,46.573L79.897,46.573L75.907,35.575Z" clip-rule="evenodd" fill-rule="evenodd" fill="#595A59"/>
<path d="M4.292,41.49L1.302,41.49L1.302,45.523L4.292,45.523C5.648,45.523 6.495,44.735 6.495,43.498C6.495,42.263 5.648,41.49 4.292,41.49M4.168,36.623L1.302,36.623L1.302,40.44L4.168,40.44C5.386,40.44 6.326,39.837 6.326,38.524C6.326,37.21 5.386,36.623 4.168,36.623M4.399,46.573L0.131,46.573L0.131,35.573L4.261,35.573C6.172,35.573 7.497,36.67 7.497,38.508C7.497,39.667 6.803,40.579 5.879,40.919C6.927,41.305 7.666,42.216 7.666,43.53C7.666,45.523 6.341,46.573 4.399,46.573Z" clip-rule="evenodd" fill-rule="evenodd" fill="#595A59"/>
<path d="M12.952,37.257L10.887,43.066L14.986,43.066L12.952,37.257ZM16.204,46.573L15.325,44.086L10.533,44.086L9.654,46.573L8.406,46.573L12.444,35.573L13.43,35.573L17.452,46.573L16.204,46.573Z" clip-rule="evenodd" fill-rule="evenodd" fill="#595A59"/>
<path d="M25.601,46.573L19.777,37.751L19.777,46.573L18.605,46.573L18.605,35.573L19.715,35.573L25.54,44.364L25.54,35.573L26.711,35.573L26.711,46.573L25.601,46.573Z" clip-rule="evenodd" fill-rule="evenodd" fill="#595A59"/>
<path d="M36.096,46.573L32.752,40.718L30.441,43.498L30.441,46.573L29.27,46.573L29.27,35.573L30.441,35.573L30.441,41.892L35.557,35.573L36.99,35.573L33.538,39.822L37.483,46.573L36.096,46.573Z" clip-rule="evenodd" fill-rule="evenodd" fill="#595A59"/>
<path d="M44.051,0.039L40.014,9.129L46.408,23.525L56.838,0.039L44.051,0.039Z" clip-rule="evenodd" fill-rule="evenodd" fill="#949594"/>
<path d="M56.837,0.039L44.051,0.039L56.45,27.958L69.238,27.958L56.837,0.039Z" clip-rule="evenodd" fill-rule="evenodd" fill="#595A59"/>
<path d="M35.98,0.039L23.193,0.039L33.623,23.525L40.017,9.129L35.98,0.039Z" clip-rule="evenodd" fill-rule="evenodd" fill="#EC952D"/>
<path d="M23.194,0.039L10.793,27.958L23.582,27.958L35.98,0.039L23.194,0.039Z" clip-rule="evenodd" fill-rule="evenodd" fill="#F9C623"/>
<path d="M40.015,9.129L33.623,23.525C34.738,25.945 37.183,27.617 40.015,27.617C42.848,27.617 45.292,25.945 46.407,23.525L40.015,9.129Z" clip-rule="evenodd" fill-rule="evenodd" fill="#E3672A"/>
</svg>
