<svg width="48" height="10" viewBox="0 0 48 10" fill="none" xmlns="http://www.w3.org/2000/svg">
<path fill-rule="evenodd" clip-rule="evenodd" d="M15.0689 7.98637L16.469 4.15712L16.9269 7.98637H18.4059L17.6049 2.3623H15.7999L14.6045 5.74083L13.4093 2.3623H11.6043L10.803 7.98637H12.2824L12.7399 4.15712L14.1403 7.98637H15.0689Z" fill="#231F20"/>
<path fill-rule="evenodd" clip-rule="evenodd" d="M26.5548 3.8042L25.5517 6.72913L24.5342 3.8042H22.8441L24.746 7.98654L23.9927 9.62727H25.6307L28.2454 3.8042H26.5548Z" fill="#231F20"/>
<path fill-rule="evenodd" clip-rule="evenodd" d="M43.1439 1.89844V7.98129H44.6762V5.86333L46.2475 7.98129H47.9908L46.261 5.74525L47.8364 3.80385H46.0759L44.6762 5.63034V1.89844H43.1439Z" fill="#231F20"/>
<path fill-rule="evenodd" clip-rule="evenodd" d="M30.0505 7.01614V4.8161C30.3609 4.71127 31.4854 4.4299 31.4854 5.85924C31.4854 7.31594 30.3319 7.09246 30.0505 7.01614ZM28.4918 7.7707C28.4918 7.7707 29.3021 8.07425 30.438 8.07425C31.5736 8.07425 33.0527 7.72087 33.0527 5.76276C33.0527 3.80378 31.0896 3.73322 30.8605 3.73322C30.4282 3.73322 30.152 3.85102 30.0505 3.90314V1.88916H28.4918V7.7707Z" fill="#231F20"/>
<path fill-rule="evenodd" clip-rule="evenodd" d="M34.6732 6.69789C34.6732 6.09684 35.8131 6.05392 36.1264 6.05364V7.12413C35.8002 7.1633 34.6732 7.25632 34.6732 6.69789ZM33.8894 4.86304C36.1258 4.20122 36.1264 4.99581 36.1264 5.10122V5.2432C34.3162 5.25847 33.2378 5.77658 33.2378 6.71575C33.2378 7.66845 34.2418 8.08317 35.5714 8.08317C36.901 8.08317 37.5788 7.77415 37.5788 7.77415V5.17178C37.5788 4.25421 36.989 3.67188 35.5714 3.67188C34.1535 3.67188 33.5376 4.00739 33.5376 4.00739L33.8894 4.86304Z" fill="#231F20"/>
<path fill-rule="evenodd" clip-rule="evenodd" d="M20.0395 6.69789C20.0395 6.09684 21.1795 6.05392 21.4922 6.05364V7.12413C21.1662 7.1633 20.0395 7.25632 20.0395 6.69789ZM19.2557 4.86304C21.4922 4.20122 21.4922 4.99581 21.4922 5.10122V5.2432C19.6825 5.25847 18.6041 5.77658 18.6041 6.71575C18.6041 7.66845 19.6081 8.08317 20.9374 8.08317C22.2671 8.08317 22.9451 7.77415 22.9451 7.77415V5.17178C22.9451 4.25421 22.3553 3.67188 20.9374 3.67188C19.5199 3.67188 18.9036 4.00739 18.9036 4.00739L19.2557 4.86304Z" fill="#231F20"/>
<path fill-rule="evenodd" clip-rule="evenodd" d="M41.0215 7.97761H42.5624V5.33089C42.5624 3.95454 41.5765 3.66309 40.361 3.66309C39.1464 3.66309 38.1688 3.99832 38.1688 3.99832V7.97761H39.71V4.81307C40.8948 4.46603 41.0215 5.03627 41.0215 5.31304V7.97761Z" fill="#231F20"/>
<path fill-rule="evenodd" clip-rule="evenodd" d="M2.66264 3.53292C2.66264 3.53292 2.7618 3.14239 2.92017 3.0102C3.07883 2.87772 3.6488 2.50044 4.47198 2.23577C4.56999 2.20409 4.68381 2.24038 4.68899 2.2421C4.68353 2.27465 4.68036 2.29682 4.67893 2.30402C4.66801 2.36594 4.62173 2.4054 4.62173 2.4054C4.78901 2.42758 4.89909 2.30863 4.92985 2.17154C4.96089 2.03532 5.06638 1.4933 5.23826 1.50137C5.71797 1.52326 6.06144 3.07644 6.02638 3.14671C6.0031 3.19279 5.81483 3.15535 5.81483 3.15535C6.11404 3.62738 6.5058 3.62278 6.59404 3.54818C6.68199 3.47359 6.63371 3.23052 6.63371 3.23052C7.57589 3.79097 7.523 4.45711 7.523 4.45711C7.80468 3.35436 7.15337 2.88204 7.15337 2.88204C7.4086 2.87311 7.68597 3.03641 7.68597 3.03641C7.28961 2.50274 6.47074 2.20697 6.47074 2.20697C6.47074 2.20697 5.51562 1.14396 5.2075 1.1837C4.95198 1.21682 4.80597 1.68626 4.7344 2.0071C4.69933 2.00422 4.63236 2.00162 4.54527 2.01199C4.47773 1.9279 4.19174 1.58777 4.08051 1.6998C4.03711 1.743 4.02331 2.04943 4.01957 2.17817C3.55682 2.36249 2.76956 2.70895 2.60947 2.96326C2.4646 3.1951 2.43126 3.36732 2.43126 3.36732C2.43126 3.36732 1.48736 3.97586 1.25598 4.63826C1.25598 4.63826 1.89004 3.89666 2.66264 3.53292Z" fill="#231F20"/>
<mask id="mask0_1410_334" style="mask-type:luminance" maskUnits="userSpaceOnUse" x="0" y="0" width="10" height="10">
<path fill-rule="evenodd" clip-rule="evenodd" d="M0 0.487793H9.35359V9.86038H0V0.487793Z" fill="white"/>
</mask>
<g mask="url(#mask0_1410_334)">
<path fill-rule="evenodd" clip-rule="evenodd" d="M4.67657 0.487793C2.09808 0.487793 -0.00012207 2.59048 -0.00012207 5.17384C-0.00012207 7.75778 2.09808 9.86047 4.67657 9.86047C7.25564 9.86047 9.35355 7.75778 9.35355 5.17384C9.35355 2.59048 7.25564 0.487793 4.67657 0.487793ZM4.67657 0.879185C7.04352 0.879185 8.96266 2.80158 8.96266 5.17384C8.96266 7.54581 7.04352 9.4685 4.67657 9.4685C2.30991 9.4685 0.391064 7.54581 0.391064 5.17384C0.391064 2.80158 2.30991 0.879185 4.67657 0.879185Z" fill="#231F20"/>
</g>
<path fill-rule="evenodd" clip-rule="evenodd" d="M5.70044 3.04165C5.68694 2.55148 5.44521 2.15922 5.32162 2.13647C5.1986 2.11487 5.15894 2.582 5.15894 2.582C5.48488 2.798 5.70044 3.04165 5.70044 3.04165Z" fill="#231F20"/>
<path fill-rule="evenodd" clip-rule="evenodd" d="M3.38011 2.95308C3.1907 3.06713 3.27463 3.16448 3.27463 3.16448C3.27463 3.16448 3.24388 3.06713 3.47726 3.00118C3.89346 2.88339 4.2697 2.76272 4.2605 2.66163C4.25188 2.56025 3.9702 2.52051 3.9702 2.52051C4.04953 2.6262 3.56953 2.83817 3.38011 2.95308Z" fill="#231F20"/>
<path fill-rule="evenodd" clip-rule="evenodd" d="M3.57605 3.60111C3.63325 3.60111 3.67952 3.55503 3.67952 3.49772C3.67952 3.46633 3.66544 3.43925 3.64331 3.42025C3.712 3.41564 3.86894 3.42428 3.86894 3.42428C3.8514 3.42025 3.81174 3.46431 3.7235 3.57461C3.63555 3.68521 3.55219 3.60111 3.55219 3.60111L3.55076 3.59621C3.55881 3.59794 3.56714 3.60111 3.57605 3.60111ZM3.24379 4.07314C3.24379 4.07314 3.36249 3.79551 3.45073 3.76037C3.45073 3.76037 3.60479 3.79983 3.68843 3.76873C3.77207 3.7382 3.93045 3.52652 3.99224 3.52191C3.99224 3.52191 3.82927 4.23154 3.16877 4.21858C3.16877 4.21858 3.64446 4.48786 3.88647 4.29807C4.12877 4.10828 3.94367 3.96284 4.25639 3.65842C4.56882 3.35372 4.36216 3.34105 4.34894 3.34565C4.33572 3.34969 4.23857 3.31887 4.23857 3.31887C4.23857 3.31887 4.28254 3.26156 4.37107 3.22239C4.45902 3.18207 4.96518 2.95311 4.97409 2.81545C4.98271 2.67922 4.60848 2.52485 4.41936 2.52889C4.41936 2.52889 4.59066 2.59945 4.58204 2.69679C4.57342 2.79385 4.08048 3.01013 4.08048 3.28805C4.08048 3.28805 3.90429 3.30101 3.77639 3.27509C3.64877 3.24802 3.51224 3.26156 3.3714 3.35372C3.23057 3.44674 3.22194 3.23967 3.23488 3.21289C3.23488 3.21289 2.96211 3.38482 3.30558 3.60543C3.30558 3.60543 3.16446 3.75116 3.15124 3.78658C3.13801 3.82172 3.08082 4.01122 3.24379 4.07314Z" fill="#231F20"/>
<path fill-rule="evenodd" clip-rule="evenodd" d="M2.80788 4.98214C2.80788 4.98214 2.80127 4.73071 2.56989 4.7837C2.1813 4.87241 2.04822 5.56418 2.04822 5.56418C2.48453 4.75721 2.80788 4.98214 2.80788 4.98214Z" fill="#231F20"/>
<path fill-rule="evenodd" clip-rule="evenodd" d="M2.95334 5.59699C3.16431 5.25341 2.90707 5.03482 2.57682 5.21971C2.24685 5.40519 2.16724 5.84871 2.16724 5.84871C2.82113 5.13418 2.95334 5.59699 2.95334 5.59699Z" fill="#231F20"/>
<path fill-rule="evenodd" clip-rule="evenodd" d="M6.07036 5.15412C6.07036 5.15412 5.83237 4.94301 5.85882 4.55191C5.88526 4.16138 5.95798 3.57329 5.29776 3.1626C5.29776 3.1626 5.56823 3.57962 5.46907 3.98973C5.3699 4.40013 5.03937 5.10026 5.06638 5.33297C5.12588 5.84244 5.65417 5.93517 5.6145 6.62983C5.6145 6.62983 5.92492 6.25226 5.86571 5.80932C5.80622 5.3658 5.41647 5.1737 5.58806 4.82349C5.58806 4.82349 5.7861 5.11437 6.07036 5.15412Z" fill="#231F20"/>
<path fill-rule="evenodd" clip-rule="evenodd" d="M3.06886 7.19187C3.00908 7.17258 2.95648 6.95399 2.95648 6.95399C3.04242 7.02368 3.21746 7.02685 3.21746 7.02685C3.13468 7.10576 3.12836 7.21175 3.06886 7.19187ZM3.72821 6.4952C3.72821 6.4952 3.93487 6.50384 3.94378 6.46871C3.95269 6.43328 3.87767 6.1905 3.87767 6.1905C3.87767 6.1905 4.13751 6.21699 4.14211 6.30109C4.14642 6.38432 3.99667 6.59687 3.67964 6.73338C3.67964 6.73338 3.73712 6.56547 3.72821 6.4952ZM2.38479 6.27027C2.41324 6.25386 2.43997 6.23629 2.46441 6.21699C2.52879 6.16832 2.57708 6.14499 2.60955 6.13434C2.60294 6.22736 2.59748 6.39095 2.62651 6.52688C2.62651 6.52688 2.45549 6.41715 2.38479 6.27027ZM1.55758 5.42298C1.45641 5.42298 1.2759 5.15399 1.24515 5.10099C1.21439 5.04829 1.41645 4.95095 1.47854 4.93338C1.54005 4.91552 1.605 4.9305 1.61478 4.96045C1.62369 4.98608 1.48745 5.07018 1.46963 5.10099C1.45209 5.1321 1.5777 5.24816 1.59724 5.27264C1.63231 5.31757 1.65904 5.42298 1.55758 5.42298ZM7.97147 3.30762C7.97147 3.30762 8.54891 4.88067 7.89732 6.30973C7.89732 6.30973 7.93439 6.10208 7.77401 5.69255C7.60213 5.25363 7.65962 4.68656 7.73003 4.58087C7.73003 4.58087 7.41272 4.89824 7.43054 5.42787C7.44836 5.95664 7.58891 7.44791 6.51509 8.00375C6.51509 8.00375 6.92208 7.25811 6.77003 6.38432C6.77003 6.38432 6.90886 6.43789 6.98158 6.62307C6.98158 6.62307 7.27217 5.85555 6.89564 4.91552C6.89564 4.91552 7.1069 4.95555 7.23911 5.06787C7.23911 5.06787 7.37794 4.39539 6.61827 3.92307C6.42685 3.80384 6.453 3.73818 6.453 3.73818C6.453 3.73818 6.39379 3.89024 6.51911 4.04231C6.64443 4.19466 6.8166 4.49245 6.79015 4.6448C6.79015 4.6448 6.58522 4.49879 6.28802 4.53882C6.28802 4.53882 6.85597 5.02151 6.77003 6.06061C6.77003 6.06061 6.62517 5.90192 6.25526 5.83568C6.25526 5.83568 6.67116 6.61674 6.30124 7.3641C6.30124 7.3641 6.2748 7.09943 6.15609 6.93383C6.15609 6.93383 6.06354 7.48333 5.40333 7.67543C5.40333 7.67543 5.93794 7.00669 5.30417 6.66973C4.67011 6.33162 4.13521 7.07955 4.02972 7.73504C4.02972 7.73504 3.29679 7.78746 3.22407 7.48995C3.15135 7.19187 3.36261 7.06602 3.36261 7.06602C3.36261 7.06602 3.47499 7.13888 3.73281 7.01994C3.99006 6.90099 4.53157 6.57642 4.47868 6.16631C4.42579 5.75648 3.78541 5.35271 3.27667 5.51773C2.7685 5.68362 2.47763 6.13347 2.21348 6.12685C1.94934 6.12023 1.6257 5.71645 1.67226 5.50506C1.71825 5.29309 1.88984 5.23347 1.94934 4.87607C1.94934 4.87607 1.85708 4.88499 1.79557 4.84525C1.73377 4.80522 1.5708 4.73927 1.48285 4.76173C1.39461 4.78362 1.17904 4.92935 1.17013 4.90256C1.16122 4.87607 1.19226 4.7168 1.19226 4.7168C1.19226 4.7168 0.954561 4.96823 0.989914 5.07018C1.02498 5.17155 1.23193 5.42298 1.44749 5.56439C1.44749 5.56439 1.48745 5.87283 1.76912 6.15997C1.93727 6.33133 2.0942 6.36243 2.22814 6.33363C2.28476 6.41744 2.47763 6.67031 2.78488 6.7256C2.78488 6.7256 2.73171 6.37107 2.77023 6.10323C2.78201 6.0969 2.79379 6.08999 2.80357 6.08019C2.85185 6.0321 3.41549 5.51139 3.8337 6.01424C3.8337 6.01424 3.64429 6.0848 3.56955 6.32269C3.49482 6.56144 3.45085 7.15242 2.83001 6.77312C2.83001 6.77312 2.77712 7.11267 2.96654 7.316C2.96654 7.316 2.94009 7.67744 3.34939 7.87559C3.75897 8.07431 4.04524 7.92455 4.30939 8.05674C4.30939 8.05674 4.28294 7.51386 4.50714 7.18323C4.7319 6.85232 5.04893 6.74202 5.20299 6.87047C5.35676 6.99805 5.45391 7.48333 4.85952 7.98646C4.85952 7.98646 5.54187 8.07431 6.00864 7.71719C6.00864 7.71719 5.95058 8.34733 5.4795 8.88128C7.18651 8.51437 8.46067 6.99373 8.46067 5.17357C8.46067 4.49533 8.28275 3.85856 7.97147 3.30762Z" fill="#231F20"/>
<path fill-rule="evenodd" clip-rule="evenodd" d="M5.22945 3.45557C5.22945 3.45557 4.7848 3.20472 4.58677 3.4645C4.40023 3.70958 4.52152 4.1292 4.41201 4.39157C4.40885 4.38869 4.40482 4.38523 4.40166 4.38235C4.15505 4.16117 3.85153 4.53672 3.79405 4.64674C3.73714 4.75733 3.66212 4.77 3.66212 4.77C3.12061 4.88059 3.235 4.44398 3.0545 4.31179C2.87429 4.17902 2.57019 4.37371 2.57019 4.37371C2.874 4.31554 2.94442 4.52779 2.9358 4.61131C2.92689 4.69541 2.98839 4.9428 3.07203 5.07931C3.15568 5.21582 3.49484 5.11877 3.7722 5.14152C4.04957 5.16312 4.20794 5.50238 4.20794 5.50238C4.37522 5.09659 3.92626 4.9117 3.92626 4.9117C3.92626 4.9117 4.05733 4.66229 4.21225 4.74811C4.70547 5.02142 4.58217 6.12878 4.58217 6.12878C5.00698 5.32872 4.81987 4.85899 4.59826 4.58453C4.62614 4.33512 4.75232 3.5483 5.22945 3.45557Z" fill="#231F20"/>
</svg>
