<svg width="60" height="14" viewBox="0 0 60 14" fill="none" xmlns="http://www.w3.org/2000/svg" xmlns:xlink="http://www.w3.org/1999/xlink">
<mask id="mask_0_i_877_1404;848_566" style="mask-type:alpha" maskUnits="userSpaceOnUse" x="-0.228569" y="-0.719727" width="29.18622" height="7.058758">
<path d="M-0.229,13.398L58.144,13.398L58.144,-0.72L-0.229,-0.72L-0.229,13.398Z" clip-rule="evenodd" fill-rule="evenodd" fill="#000000"/>
</mask>
<path d="M15.565,2.824L18.711,2.824C19.985,2.824 20.935,3.398 20.935,4.606C20.935,5.491 20.494,5.985 19.73,6.246L19.73,6.266C20.641,6.458 21.111,6.961 21.111,7.816C21.111,9.498 19.671,9.85 18.446,9.85L15.565,9.85L15.565,2.824ZM17.387,5.602L17.897,5.602C18.495,5.602 19.113,5.451 19.113,4.857C19.113,4.213 18.525,4.152 17.917,4.152L17.387,4.152L17.387,5.602ZM17.387,8.521L17.927,8.521C18.593,8.521 19.289,8.42 19.289,7.706C19.289,6.941 18.574,6.87 17.946,6.87L17.387,6.87L17.387,8.521Z" clip-rule="evenodd" fill-rule="evenodd" fill="#FFFFFF"/>
<path d="M23.503,2.824L25.738,2.824L28.374,9.85L26.374,9.85L25.865,8.35L23.298,8.35L22.759,9.85L20.907,9.85L23.503,2.824ZM24.621,4.274L24.6,4.274L23.719,7.022L25.434,7.022L24.621,4.274Z" clip-rule="evenodd" fill-rule="evenodd" fill="#FFFFFF"/>
<path d="M28.627,2.824L30.95,2.824L33.262,7.595L33.281,7.595L33.252,2.824L34.919,2.824L34.919,9.85L32.655,9.85L30.263,5.048L30.244,5.048L30.303,9.85L28.627,9.85L28.627,2.824Z" clip-rule="evenodd" fill-rule="evenodd" fill="#FFFFFF"/>
<path d="M35.537,2.824L37.36,2.824L37.36,5.693L37.379,5.693L39.436,2.824L41.632,2.824L39.103,6.095L41.828,9.85L39.505,9.85L37.379,6.659L37.36,6.659L37.36,9.85L35.537,9.85L35.537,2.824Z" clip-rule="evenodd" fill-rule="evenodd" fill="#FFFFFF"/>
<path d="M44.087,2.824L47.233,2.824C48.507,2.824 49.457,3.398 49.457,4.606C49.457,5.491 49.017,5.985 48.253,6.246L48.253,6.266C49.164,6.458 49.634,6.961 49.634,7.816C49.634,9.498 48.193,9.85 46.969,9.85L44.087,9.85L44.087,2.824ZM45.91,5.602L46.419,5.602C47.017,5.602 47.634,5.451 47.634,4.857C47.634,4.213 47.047,4.152 46.44,4.152L45.91,4.152L45.91,5.602ZM45.91,8.521L46.45,8.521C47.115,8.521 47.811,8.42 47.811,7.706C47.811,6.941 47.096,6.87 46.469,6.87L45.91,6.87L45.91,8.521Z" clip-rule="evenodd" fill-rule="evenodd" fill="#FFFFFF"/>
<path d="M50.038,2.824L53.291,2.824C54.506,2.824 55.496,3.387 55.496,4.596C55.496,5.532 55.065,6.156 54.183,6.367L54.183,6.387C54.77,6.548 54.81,7.082 55.153,7.937L55.819,9.85L53.919,9.85L53.527,8.582C53.154,7.374 52.919,7.071 52.243,7.071L51.86,7.071L51.86,9.85L50.038,9.85L50.038,2.824ZM51.86,5.743L52.341,5.743C52.929,5.743 53.674,5.722 53.674,4.927C53.674,4.274 53.036,4.152 52.341,4.152L51.86,4.152L51.86,5.743Z" clip-rule="evenodd" fill-rule="evenodd" fill="#FFFFFF"/>
<path d="M56.322,9.85L58.144,9.85L58.144,2.824L56.322,2.824L56.322,9.85Z" clip-rule="evenodd" fill-rule="evenodd" fill="#FFFFFF"/>
<path d="M11.406,-0.72L1.868,-0.72C0.71,-0.72 -0.229,0.268 -0.229,1.487L-0.229,1.511L-0.229,11.191C-0.229,12.398 0.693,13.38 1.836,13.398L11.401,13.398C12.559,13.398 13.498,12.41 13.498,11.191L13.503,1.487C13.503,0.268 12.565,-0.72 11.406,-0.72L11.406,-0.72ZM3.002,12.267L2.481,12.272C1.851,12.272 1.341,11.741 1.341,11.085L1.338,10.991L1.338,2.03L1.341,1.547C1.365,0.912 1.834,0.401 2.449,0.401L3.507,0.401C4.466,0.401 5.243,1.258 5.243,2.268C5.243,2.768 5.052,3.221 4.744,3.551L2.045,6.364L4.574,9.01C4.901,9.356 5.098,9.81 5.098,10.307C5.098,11.389 4.159,12.267 3.002,12.267L3.002,12.267ZM10.779,12.258L6.062,12.256C6.062,12.256 6.608,11.045 6.608,10.295C6.608,9.382 6.31,8.565 5.845,8.025L4.231,6.336L5.878,4.588C6.368,4.115 6.694,3.275 6.694,2.318C6.694,1.56 6.49,0.889 6.161,0.401L7.304,0.401C8.263,0.401 9.041,1.258 9.041,2.268C9.041,2.768 8.85,3.221 8.542,3.551L5.894,6.335L11.393,12.095C11.219,12.208 10.999,12.258 10.779,12.258L10.779,12.258ZM11.931,10.459L7.99,6.334L9.867,4.374C10.249,3.883 10.491,3.144 10.491,2.318C10.491,1.555 10.284,0.868 9.953,0.38L10.793,0.406C11.423,0.406 11.934,0.938 11.934,1.594L11.931,10.459Z" clip-rule="evenodd" fill-rule="evenodd" fill="#FFFFFF"/>
</svg>
