<svg width="72" height="22" viewBox="0 0 72 22" fill="none" xmlns="http://www.w3.org/2000/svg" xmlns:xlink="http://www.w3.org/1999/xlink">
<path d="M31.236,20.79L25.572,20.79L29.115,-0.541L34.778,-0.541L31.236,20.79Z" clip-rule="evenodd" fill-rule="evenodd" fill="#FFFFFF"/>
<path d="M51.767,-0.02C50.649,-0.451 48.878,-0.928 46.687,-0.928C41.094,-0.928 37.155,1.977 37.131,6.129C37.085,9.193 39.951,10.895 42.095,11.917C44.286,12.96 45.031,13.642 45.031,14.572C45.009,16.001 43.26,16.66 41.63,16.66C39.369,16.66 38.157,16.32 36.316,15.525L35.57,15.185L34.778,19.973C36.106,20.562 38.553,21.085 41.094,21.108C47.037,21.108 50.905,18.249 50.951,13.823C50.974,11.395 49.46,9.534 46.197,8.014C44.216,7.038 43.003,6.38 43.003,5.381C43.026,4.473 44.029,3.543 46.265,3.543C48.107,3.498 49.459,3.929 50.484,4.36L50.996,4.587L51.767,-0.02L51.767,-0.02L51.767,-0.02Z" clip-rule="evenodd" fill-rule="evenodd" fill="#FFFFFF"/>
<path d="M61.904,-0.541L66.285,-0.541L70.854,20.79L65.61,20.79C65.61,20.79 65.097,18.339 64.934,17.59L57.663,17.59C57.452,18.157 56.474,20.79 56.474,20.79L50.531,20.79L58.944,1.229C59.527,-0.156 60.553,-0.541 61.904,-0.541ZM61.555,7.265C61.555,7.265 59.76,12.008 59.294,13.233L64.001,13.233C63.768,12.167 62.696,7.061 62.696,7.061L62.3,5.223C62.133,5.696 61.892,6.347 61.73,6.786C61.62,7.083 61.545,7.283 61.555,7.265Z" clip-rule="evenodd" fill-rule="evenodd" fill="#FFFFFF"/>
<path d="M20.842,-0.541L15.296,14.005L14.69,11.055C13.664,7.651 10.448,3.952 6.859,2.113L11.94,20.768L17.929,20.768L26.831,-0.541L20.842,-0.541L20.842,-0.541L20.842,-0.541Z" clip-rule="evenodd" fill-rule="evenodd" fill="#FFFFFF"/>
<path d="M10.145,-0.541L1.033,-0.541L0.94,-0.11C8.048,1.66 12.755,5.927 14.689,11.056L12.709,1.252C12.382,-0.11 11.38,-0.496 10.145,-0.541L10.145,-0.541Z" clip-rule="evenodd" fill-rule="evenodd" fill="#FFFFFF"/>
</svg>
