<svg width="476" height="240" viewBox="0 0 476 240" fill="none" xmlns="http://www.w3.org/2000/svg" xmlns:xlink="http://www.w3.org/1999/xlink">
<path d="M59.429,161.698C67.053,161.698 70.863,165.901 70.858,174.307C70.858,182.532 67.072,186.714 59.429,186.714L27.433,186.714L27.433,212.686L68.384,212.686C76,212.686 79.809,216.89 79.813,225.296C79.813,233.522 76.027,237.71 68.384,237.71L14.477,237.71C4.38,237.71 0,233.28 0,223.196L0,128.089C0,117.966 4.38,113.575 14.477,113.575L67.432,113.575C75.055,113.575 78.865,117.776 78.861,126.178C78.861,134.403 75.074,138.592 67.432,138.592L27.433,138.592L27.433,161.698L59.429,161.698Z" fill="#7DAA5F"/>
<path d="M147.226,214.218C153.89,214.218 159.217,212.882 164.556,209.638C168.342,207.34 171.037,205.246 174.079,205.246C180.39,205.246 186.467,213.072 186.467,218.994C186.467,223.954 182.27,228.542 175.985,232.168C167.781,236.944 157.128,239.804 145.32,239.804C111.791,239.804 86.074,216.508 86.074,175.269C86.074,134.214 111.601,111.487 145.131,111.487C157.513,111.487 168.367,114.543 175.985,118.934C182.295,122.566 186.467,127.159 186.467,131.923C186.467,138.035 179.986,146.051 173.511,146.051C170.463,146.051 167.793,143.951 163.988,141.66C159.223,138.604 152.748,137.08 146.273,137.08C129.701,137.08 115.792,148.152 115.792,175.079C115.823,202.184 130.079,214.218 147.226,214.218Z" fill="#7DAA5F"/>
<path d="M252.498,111.285C289.644,111.285 313.644,135.915 313.644,175.642C313.644,215.37 289.662,240 252.498,240C215.332,240 191.352,215.362 191.352,175.642C191.352,135.922 215.352,111.285 252.498,111.285ZM252.498,214.788C271.354,214.788 283.932,200.66 283.932,175.642C283.932,150.626 271.354,136.491 252.498,136.491C233.64,136.491 221.07,150.626 221.07,175.642C221.07,200.66 233.64,214.788 252.498,214.788Z" fill="#7DAA5F"/>
<path d="M234.878,26.573C204.036,45.44 198.205,77.821 201.808,104.641C215.85,94.651 250.592,105.192 279.168,87.23C314.774,64.851 317.134,21.429 311.056,0C295.19,21.651 268.93,5.739 234.878,26.573Z" fill="#89BC68"/>
<path d="M171.201,53.387C191.061,65.857 194.917,87.084 192.658,104.635C183.615,98.042 161.35,104.831 142.954,92.968C120.02,78.188 118.341,49.742 122.185,35.716C132.478,49.958 149.271,39.626 171.201,53.387Z" fill="#658C4A"/>
<path d="M349.976,153.524C347.336,153.524 344.958,153.07 342.846,152.162C340.732,151.217 339.072,149.892 337.864,148.19C336.658,146.488 336.054,144.501 336.054,142.231L342.958,142.231C343.11,143.934 343.77,145.334 344.94,146.431C346.146,147.528 347.826,148.076 349.976,148.076C352.202,148.076 353.938,147.547 355.184,146.488C356.428,145.39 357.052,143.991 357.052,142.288C357.052,140.964 356.656,139.886 355.862,139.053C355.108,138.221 354.146,137.578 352.976,137.124C351.844,136.67 350.26,136.178 348.222,135.648C345.656,134.967 343.562,134.287 341.94,133.606C340.354,132.887 338.996,131.79 337.864,130.314C336.732,128.839 336.166,126.871 336.166,124.412C336.166,122.142 336.732,120.156 337.864,118.454C338.996,116.751 340.582,115.446 342.618,114.538C344.656,113.63 347.014,113.176 349.694,113.176C353.504,113.176 356.618,114.141 359.032,116.07C361.484,117.962 362.844,120.572 363.108,123.901L355.976,123.901C355.862,122.464 355.184,121.234 353.938,120.213C352.694,119.191 351.052,118.681 349.014,118.681C347.166,118.681 345.656,119.154 344.486,120.099C343.316,121.045 342.732,122.407 342.732,124.185C342.732,125.396 343.09,126.398 343.808,127.193C344.562,127.95 345.506,128.555 346.638,129.009C347.77,129.463 349.316,129.955 351.278,130.484C353.882,131.203 355.994,131.922 357.618,132.641C359.278,133.36 360.674,134.476 361.806,135.989C362.976,137.464 363.56,139.451 363.56,141.948C363.56,143.953 363.014,145.844 361.918,147.622C360.862,149.401 359.296,150.838 357.222,151.935C355.184,152.995 352.768,153.524 349.976,153.524Z" fill="#658C4A"/>
<path d="M387.304,121.348C389.682,121.348 391.794,121.859 393.644,122.88C395.53,123.901 397.002,125.415 398.058,127.42C399.152,129.425 399.7,131.846 399.7,134.684L399.7,153.127L393.304,153.127L393.304,135.648C393.304,132.849 392.606,130.711 391.21,129.236C389.814,127.723 387.908,126.966 385.492,126.966C383.078,126.966 381.154,127.723 379.72,129.236C378.324,130.711 377.626,132.849 377.626,135.648L377.626,153.127L371.174,153.127L371.174,111.133L377.626,111.133L377.626,125.49C378.72,124.166 380.098,123.145 381.758,122.426C383.456,121.707 385.304,121.348 387.304,121.348Z" fill="#658C4A"/>
<path d="M421.456,153.638C418.514,153.638 415.854,152.976 413.476,151.652C411.098,150.29 409.232,148.398 407.872,145.977C406.514,143.518 405.836,140.68 405.836,137.464C405.836,134.287 406.534,131.468 407.93,129.009C409.326,126.55 411.23,124.658 413.646,123.334C416.06,122.01 418.758,121.348 421.74,121.348C424.72,121.348 427.418,122.01 429.832,123.334C432.248,124.658 434.154,126.55 435.55,129.009C436.946,131.468 437.644,134.287 437.644,137.464C437.644,140.642 436.926,143.461 435.492,145.92C434.058,148.379 432.096,150.29 429.606,151.652C427.154,152.976 424.438,153.638 421.456,153.638ZM421.456,148.02C423.116,148.02 424.664,147.622 426.098,146.828C427.57,146.034 428.758,144.842 429.664,143.253C430.568,141.664 431.022,139.734 431.022,137.464C431.022,135.195 430.588,133.284 429.72,131.733C428.852,130.144 427.702,128.952 426.268,128.158C424.834,127.363 423.286,126.966 421.626,126.966C419.966,126.966 418.418,127.363 416.986,128.158C415.588,128.952 414.476,130.144 413.646,131.733C412.816,133.284 412.4,135.195 412.4,137.464C412.4,140.832 413.25,143.442 414.948,145.296C416.684,147.112 418.852,148.02 421.456,148.02Z" fill="#658C4A"/>
<path d="M450.474,126.455C451.568,125.018 453.058,123.807 454.946,122.823C456.832,121.84 458.964,121.348 461.342,121.348C464.058,121.348 466.53,122.029 468.756,123.391C471.02,124.715 472.792,126.588 474.076,129.009C475.358,131.43 476,134.211 476,137.351C476,140.491 475.358,143.31 474.076,145.807C472.792,148.266 471.02,150.195 468.756,151.595C466.53,152.957 464.058,153.638 461.342,153.638C458.964,153.638 456.85,153.165 455.002,152.219C453.154,151.235 451.644,150.025 450.474,148.587L450.474,167.995L444.022,167.995L444.022,121.859L450.474,121.859L450.474,126.455ZM469.434,137.351C469.434,135.194 468.982,133.341 468.076,131.79C467.208,130.201 466.038,129.009 464.568,128.214C463.134,127.382 461.586,126.966 459.926,126.966C458.304,126.966 456.756,127.382 455.286,128.214C453.852,129.047 452.682,130.257 451.776,131.846C450.908,133.435 450.474,135.308 450.474,137.464C450.474,139.621 450.908,141.513 451.776,143.139C452.682,144.728 453.852,145.939 455.286,146.771C456.756,147.604 458.304,148.02 459.926,148.02C461.586,148.02 463.134,147.604 464.568,146.771C466.038,145.901 467.208,144.653 468.076,143.026C468.982,141.399 469.434,139.507 469.434,137.351Z" fill="#658C4A"/>
</svg>
