<svg width="38" height="26" viewBox="0 0 38 26" fill="none" xmlns="http://www.w3.org/2000/svg" xmlns:xlink="http://www.w3.org/1999/xlink">
<rect  x="13.963" y="3.864" width="9.903" height="16.241" fill="#FF5F00"/>
<path d="M14.983,11.986C14.98,8.817 16.429,5.823 18.911,3.867C14.694,0.539 8.638,1.023 4.999,4.98C1.36,8.937 1.36,15.037 4.999,18.994C8.638,22.951 14.694,23.436 18.911,20.108C16.428,18.151 14.979,15.155 14.983,11.986Z" clip-rule="evenodd" fill-rule="evenodd" fill="#EB001B"/>
<path d="M34.591,18.124L34.591,18.799L34.522,18.799L34.522,18.124L34.374,18.124L34.374,17.985L34.748,17.985L34.748,18.124L34.591,18.124ZM35.317,17.985L35.317,18.799L35.239,18.799L35.239,18.183L35.116,18.712L35.031,18.712L34.909,18.183L34.909,18.799L34.827,18.799L34.827,17.985L34.94,17.985L35.072,18.567L35.204,17.985L35.317,17.985Z" clip-rule="evenodd" fill-rule="evenodd" fill="#F79E1B"/>
<path d="M35.554,11.986C35.554,15.94 33.306,19.547 29.763,21.275C26.221,23.004 22.007,22.549 18.911,20.105C21.393,18.147 22.842,15.153 22.842,11.984C22.842,8.815 21.393,5.822 18.911,3.864C22.007,1.42 26.221,0.965 29.763,2.693C33.306,4.421 35.554,8.029 35.554,11.983L35.554,11.986Z" clip-rule="evenodd" fill-rule="evenodd" fill="#F79E1B"/>
</svg>
