<svg width="160" height="80" viewBox="0 0 160 80" fill="none" xmlns="http://www.w3.org/2000/svg" xmlns:xlink="http://www.w3.org/1999/xlink">
<path d="M19.976,53.899C22.539,53.899 23.819,55.3 23.818,58.102C23.818,60.844 22.545,62.238 19.976,62.238L9.221,62.238L9.221,70.896L22.986,70.896C25.546,70.896 26.827,72.297 26.828,75.099C26.828,77.84 25.555,79.237 22.986,79.237L4.866,79.237C1.472,79.237 0,77.76 0,74.399L0,42.696C0,39.322 1.472,37.858 4.866,37.858L22.666,37.858C25.229,37.858 26.509,39.259 26.508,42.059C26.508,44.801 25.235,46.197 22.666,46.197L9.221,46.197L9.221,53.899L19.976,53.899Z" fill="#FFFFFF"/>
<path d="M49.488,71.406C51.728,71.406 53.518,70.961 55.313,69.879C56.586,69.113 57.491,68.415 58.514,68.415C60.635,68.415 62.678,71.024 62.678,72.998C62.678,74.652 61.267,76.181 59.154,77.389C56.397,78.981 52.816,79.935 48.847,79.935C37.577,79.935 28.932,72.169 28.932,58.423C28.932,44.738 37.513,37.162 48.783,37.162C52.945,37.162 56.594,38.181 59.154,39.645C61.276,40.855 62.678,42.386 62.678,43.974C62.678,46.012 60.499,48.684 58.323,48.684C57.298,48.684 56.401,47.984 55.122,47.22C53.52,46.201 51.344,45.693 49.167,45.693C43.597,45.693 38.922,49.384 38.922,58.36C38.932,67.395 43.724,71.406 49.488,71.406Z" fill="#FFFFFF"/>
<path d="M84.873,37.095C97.359,37.095 105.426,45.305 105.426,58.547C105.426,71.79 97.365,80 84.873,80C72.381,80 64.32,71.788 64.32,58.547C64.32,45.307 72.387,37.095 84.873,37.095ZM84.873,71.596C91.212,71.596 95.439,66.886 95.439,58.547C95.439,50.209 91.212,45.497 84.873,45.497C78.535,45.497 74.309,50.209 74.309,58.547C74.309,66.886 78.535,71.596 84.873,71.596Z" fill="#FFFFFF"/>
<path d="M78.95,8.858C68.584,15.147 66.624,25.94 67.835,34.88C72.555,31.55 84.232,35.064 93.838,29.077C105.806,21.617 106.599,7.143 104.557,0C99.224,7.217 90.397,1.913 78.95,8.858Z" fill="#FFFFFF"/>
<path d="M57.547,17.796C64.222,21.952 65.518,29.028 64.759,34.878C61.719,32.681 54.235,34.944 48.052,30.989C40.343,26.063 39.779,16.581 41.07,11.905C44.53,16.653 50.175,13.209 57.547,17.796Z" fill="#FFFFFF"/>
<path d="M117.639,51.175C116.751,51.175 115.952,51.023 115.242,50.721C114.532,50.406 113.974,49.964 113.568,49.397C113.162,48.829 112.959,48.167 112.959,47.41L115.28,47.41C115.331,47.978 115.553,48.445 115.946,48.81C116.352,49.176 116.916,49.359 117.639,49.359C118.387,49.359 118.971,49.182 119.389,48.829C119.808,48.463 120.017,47.997 120.017,47.429C120.017,46.988 119.884,46.629 119.618,46.351C119.364,46.074 119.041,45.859 118.647,45.708C118.267,45.557 117.734,45.393 117.049,45.216C116.187,44.989 115.483,44.762 114.938,44.535C114.405,44.296 113.948,43.93 113.568,43.438C113.187,42.946 112.997,42.29 112.997,41.471C112.997,40.714 113.187,40.052 113.568,39.485C113.948,38.917 114.481,38.482 115.166,38.179C115.851,37.877 116.644,37.725 117.544,37.725C118.825,37.725 119.871,38.047 120.683,38.69C121.508,39.321 121.964,40.191 122.053,41.3L119.656,41.3C119.618,40.821 119.389,40.411 118.971,40.071C118.552,39.73 118.001,39.56 117.316,39.56C116.694,39.56 116.187,39.718 115.794,40.033C115.401,40.348 115.204,40.802 115.204,41.395C115.204,41.799 115.324,42.133 115.565,42.398C115.819,42.65 116.136,42.852 116.517,43.003C116.897,43.154 117.417,43.318 118.077,43.495C118.952,43.734 119.662,43.974 120.207,44.214C120.766,44.453 121.235,44.825 121.615,45.33C122.008,45.821 122.205,46.484 122.205,47.316C122.205,47.984 122.021,48.615 121.653,49.207C121.298,49.8 120.772,50.279 120.074,50.645C119.389,50.998 118.578,51.175 117.639,51.175Z" fill="#FFFFFF"/>
<path d="M130.186,40.449C130.985,40.449 131.696,40.62 132.317,40.96C132.951,41.3 133.446,41.805 133.801,42.473C134.169,43.142 134.353,43.949 134.353,44.895L134.353,51.042L132.203,51.042L132.203,45.216C132.203,44.283 131.968,43.57 131.499,43.079C131.03,42.574 130.389,42.322 129.577,42.322C128.766,42.322 128.119,42.574 127.637,43.079C127.168,43.57 126.933,44.283 126.933,45.216L126.933,51.042L124.764,51.042L124.764,37.044L126.933,37.044L126.933,41.83C127.301,41.389 127.764,41.048 128.322,40.809C128.893,40.569 129.514,40.449 130.186,40.449Z" fill="#FFFFFF"/>
<path d="M141.666,51.213C140.677,51.213 139.783,50.992 138.984,50.551C138.184,50.097 137.557,49.466 137.1,48.659C136.643,47.839 136.415,46.893 136.415,45.821C136.415,44.762 136.65,43.823 137.119,43.003C137.588,42.183 138.229,41.553 139.041,41.111C139.852,40.67 140.759,40.449 141.761,40.449C142.763,40.449 143.67,40.67 144.482,41.111C145.293,41.553 145.934,42.183 146.403,43.003C146.872,43.823 147.107,44.762 147.107,45.821C147.107,46.881 146.866,47.82 146.384,48.64C145.902,49.46 145.243,50.097 144.406,50.551C143.581,50.992 142.668,51.213 141.666,51.213ZM141.666,49.34C142.224,49.34 142.744,49.207 143.226,48.943C143.721,48.678 144.12,48.281 144.425,47.751C144.729,47.221 144.881,46.578 144.881,45.821C144.881,45.065 144.735,44.428 144.444,43.911C144.152,43.381 143.765,42.984 143.283,42.719C142.801,42.454 142.281,42.322 141.723,42.322C141.165,42.322 140.645,42.454 140.163,42.719C139.694,42.984 139.32,43.381 139.041,43.911C138.762,44.428 138.622,45.065 138.622,45.821C138.622,46.944 138.907,47.814 139.478,48.432C140.062,49.037 140.791,49.34 141.666,49.34Z" fill="#FFFFFF"/>
<path d="M151.42,42.152C151.788,41.673 152.289,41.269 152.923,40.941C153.557,40.613 154.274,40.449 155.073,40.449C155.986,40.449 156.817,40.676 157.565,41.13C158.326,41.572 158.922,42.196 159.353,43.003C159.784,43.81 160,44.737 160,45.784C160,46.83 159.784,47.77 159.353,48.602C158.922,49.422 158.326,50.065 157.565,50.532C156.817,50.986 155.986,51.213 155.073,51.213C154.274,51.213 153.563,51.055 152.942,50.74C152.32,50.412 151.813,50.008 151.42,49.529L151.42,55.998L149.251,55.998L149.251,40.62L151.42,40.62L151.42,42.152ZM157.793,45.784C157.793,45.065 157.641,44.447 157.337,43.93C157.045,43.4 156.652,43.003 156.157,42.738C155.675,42.461 155.155,42.322 154.597,42.322C154.052,42.322 153.532,42.461 153.037,42.738C152.555,43.016 152.162,43.419 151.857,43.949C151.566,44.478 151.42,45.103 151.42,45.821C151.42,46.54 151.566,47.171 151.857,47.713C152.162,48.243 152.555,48.646 153.037,48.924C153.532,49.201 154.052,49.34 154.597,49.34C155.155,49.34 155.675,49.201 156.157,48.924C156.652,48.634 157.045,48.218 157.337,47.675C157.641,47.133 157.793,46.502 157.793,45.784Z" fill="#FFFFFF"/>
</svg>
