<svg width="108" height="54" viewBox="0 0 108 54" fill="none" xmlns="http://www.w3.org/2000/svg" xmlns:xlink="http://www.w3.org/1999/xlink">
<path d="M13.984,35.266C15.693,35.266 16.546,36.2 16.545,38.068C16.545,39.896 15.697,40.826 13.984,40.826L6.814,40.826L6.814,46.597L15.991,46.597C17.697,46.597 18.551,47.531 18.552,49.399C18.552,51.227 17.703,52.158 15.991,52.158L3.911,52.158C1.648,52.158 0.667,51.174 0.667,48.932L0.667,27.798C0.667,25.548 1.648,24.572 3.911,24.572L15.777,24.572C17.486,24.572 18.339,25.506 18.338,27.373C18.338,29.201 17.49,30.132 15.777,30.132L6.814,30.132L6.814,35.266L13.984,35.266Z" fill="#FFFFFF"/>
<path d="M33.658,46.937C35.152,46.937 36.345,46.641 37.542,45.919C38.39,45.409 38.994,44.944 39.676,44.944C41.09,44.944 42.452,46.683 42.452,47.999C42.452,49.101 41.511,50.12 40.103,50.926C38.264,51.988 35.877,52.623 33.231,52.623C25.718,52.623 19.955,47.446 19.955,38.282C19.955,29.159 25.675,24.108 33.189,24.108C35.964,24.108 38.396,24.787 40.103,25.763C41.517,26.57 42.452,27.591 42.452,28.65C42.452,30.008 41,31.789 39.549,31.789C38.865,31.789 38.267,31.322 37.415,30.813C36.347,30.134 34.896,29.796 33.445,29.796C29.731,29.796 26.614,32.256 26.614,38.24C26.621,44.263 29.816,46.937 33.658,46.937Z" fill="#FFFFFF"/>
<path d="M57.249,24.063C65.573,24.063 70.951,29.537 70.951,38.365C70.951,47.193 65.577,52.667 57.249,52.667C48.92,52.667 43.546,47.192 43.546,38.365C43.546,29.538 48.925,24.063 57.249,24.063ZM57.249,47.064C61.474,47.064 64.293,43.924 64.293,38.365C64.293,32.806 61.474,29.665 57.249,29.665C53.023,29.665 50.206,32.806 50.206,38.365C50.206,43.924 53.023,47.064 57.249,47.064Z" fill="#FFFFFF"/>
<path d="M53.3,5.239C46.389,9.431 45.082,16.627 45.89,22.587C49.036,20.367 56.822,22.709 63.225,18.718C71.204,13.745 71.733,4.096 70.371,-0.667C66.816,4.145 60.931,0.609 53.3,5.239Z" fill="#FFFFFF"/>
<path d="M39.031,11.197C43.481,13.968 44.346,18.686 43.839,22.586C41.813,21.121 36.823,22.629 32.701,19.993C27.562,16.709 27.186,10.387 28.047,7.27C30.353,10.435 34.117,8.139 39.031,11.197Z" fill="#FFFFFF"/>
<path d="M79.093,33.45C78.501,33.45 77.968,33.349 77.495,33.147C77.021,32.937 76.649,32.643 76.379,32.265C76.108,31.886 75.973,31.445 75.973,30.94L77.52,30.94C77.554,31.319 77.702,31.63 77.964,31.874C78.234,32.117 78.611,32.239 79.093,32.239C79.592,32.239 79.981,32.122 80.26,31.886C80.539,31.642 80.678,31.331 80.678,30.953C80.678,30.659 80.589,30.419 80.412,30.234C80.243,30.049 80.027,29.906 79.765,29.805C79.511,29.705 79.156,29.595 78.7,29.478C78.125,29.326 77.655,29.175 77.292,29.024C76.937,28.864 76.632,28.62 76.379,28.292C76.125,27.964 75.998,27.527 75.998,26.981C75.998,26.476 76.125,26.035 76.379,25.656C76.632,25.278 76.987,24.988 77.444,24.786C77.9,24.585 78.429,24.484 79.029,24.484C79.883,24.484 80.581,24.698 81.122,25.127C81.672,25.547 81.976,26.127 82.035,26.867L80.437,26.867C80.412,26.548 80.26,26.274 79.981,26.047C79.701,25.82 79.334,25.707 78.877,25.707C78.463,25.707 78.125,25.812 77.862,26.022C77.6,26.232 77.469,26.535 77.469,26.93C77.469,27.199 77.55,27.422 77.71,27.598C77.879,27.767 78.091,27.901 78.344,28.002C78.598,28.103 78.945,28.212 79.384,28.33C79.968,28.49 80.441,28.649 80.805,28.809C81.177,28.969 81.49,29.217 81.743,29.553C82.006,29.881 82.137,30.322 82.137,30.877C82.137,31.323 82.014,31.743 81.769,32.138C81.532,32.534 81.181,32.853 80.716,33.097C80.26,33.332 79.718,33.45 79.093,33.45Z" fill="#FFFFFF"/>
<path d="M87.457,26.3C87.99,26.3 88.464,26.413 88.878,26.64C89.301,26.867 89.63,27.203 89.867,27.649C90.112,28.095 90.235,28.633 90.235,29.263L90.235,33.362L88.802,33.362L88.802,29.478C88.802,28.855 88.645,28.38 88.333,28.052C88.02,27.716 87.593,27.548 87.052,27.548C86.51,27.548 86.079,27.716 85.758,28.052C85.445,28.38 85.289,28.855 85.289,29.478L85.289,33.362L83.843,33.362L83.843,24.03L85.289,24.03L85.289,27.22C85.534,26.926 85.842,26.699 86.214,26.539C86.595,26.379 87.009,26.3 87.457,26.3Z" fill="#FFFFFF"/>
<path d="M95.111,33.475C94.451,33.475 93.855,33.328 93.322,33.034C92.79,32.731 92.371,32.311 92.067,31.773C91.762,31.226 91.61,30.596 91.61,29.881C91.61,29.175 91.766,28.549 92.079,28.002C92.392,27.456 92.819,27.035 93.36,26.741C93.901,26.447 94.506,26.3 95.174,26.3C95.842,26.3 96.447,26.447 96.988,26.741C97.529,27.035 97.956,27.456 98.269,28.002C98.582,28.549 98.738,29.175 98.738,29.881C98.738,30.587 98.577,31.214 98.256,31.76C97.935,32.307 97.495,32.731 96.937,33.034C96.387,33.328 95.779,33.475 95.111,33.475ZM95.111,32.227C95.483,32.227 95.829,32.138 96.151,31.962C96.48,31.785 96.747,31.52 96.95,31.167C97.153,30.814 97.254,30.385 97.254,29.881C97.254,29.377 97.157,28.952 96.962,28.607C96.768,28.254 96.51,27.989 96.189,27.813C95.867,27.636 95.521,27.548 95.149,27.548C94.777,27.548 94.43,27.636 94.109,27.813C93.796,27.989 93.546,28.254 93.36,28.607C93.174,28.952 93.081,29.377 93.081,29.881C93.081,30.629 93.272,31.209 93.652,31.621C94.041,32.025 94.527,32.227 95.111,32.227Z" fill="#FFFFFF"/>
<path d="M101.613,27.435C101.858,27.115 102.192,26.846 102.615,26.627C103.038,26.409 103.516,26.3 104.048,26.3C104.657,26.3 105.211,26.451 105.71,26.754C106.217,27.048 106.615,27.464 106.902,28.002C107.19,28.54 107.333,29.158 107.333,29.856C107.333,30.554 107.19,31.18 106.902,31.735C106.615,32.281 106.217,32.71 105.71,33.021C105.211,33.324 104.657,33.475 104.048,33.475C103.516,33.475 103.042,33.37 102.628,33.16C102.214,32.941 101.875,32.672 101.613,32.353L101.613,36.666L100.167,36.666L100.167,26.413L101.613,26.413L101.613,27.435ZM105.862,29.856C105.862,29.377 105.761,28.965 105.558,28.62C105.363,28.267 105.101,28.002 104.771,27.825C104.45,27.641 104.103,27.548 103.731,27.548C103.368,27.548 103.021,27.641 102.691,27.825C102.37,28.01 102.108,28.279 101.905,28.633C101.71,28.986 101.613,29.402 101.613,29.881C101.613,30.36 101.71,30.781 101.905,31.142C102.108,31.495 102.37,31.764 102.691,31.949C103.021,32.134 103.368,32.227 103.731,32.227C104.103,32.227 104.45,32.134 104.771,31.949C105.101,31.756 105.363,31.478 105.558,31.117C105.761,30.755 105.862,30.335 105.862,29.856Z" fill="#FFFFFF"/>
</svg>
