<svg width="80" height="48" viewBox="0 0 80 48" fill="none" xmlns="http://www.w3.org/2000/svg" xmlns:xlink="http://www.w3.org/1999/xlink">
<path d="M46.891,35.575L44.427,40.427L41.963,35.575L39.313,35.575L39.313,46.573L42.01,46.573L42.01,41.075C42.01,41.075 43.333,43.394 43.532,43.74C43.73,44.086 44.069,44.266 44.426,44.266C44.785,44.266 45.124,44.086 45.322,43.74C45.52,43.394 46.844,41.075 46.844,41.075L46.844,46.573L49.54,46.573L49.54,35.575L46.891,35.575Z" clip-rule="evenodd" fill-rule="evenodd" fill="#595A59"/>
<path d="M51.802,46.573L51.802,35.575L59.26,35.575L59.26,37.985L54.498,37.985L54.498,39.822L58.566,39.822L58.566,42.234L54.498,42.234L54.498,44.166L59.26,44.166L59.26,46.573L51.802,46.573Z" clip-rule="evenodd" fill-rule="evenodd" fill="#595A59"/>
<path d="M68.164,45.524C67.224,46.496 66.176,46.757 64.975,46.757C63.696,46.757 62.725,46.328 61.925,45.524C60.769,44.365 60.815,42.694 60.815,41.043C60.815,39.391 60.769,37.735 61.925,36.574C62.725,35.772 63.652,35.341 64.975,35.341C67.793,35.341 68.996,37.177 69.257,38.985L66.547,38.985C66.33,38.15 65.898,37.748 64.975,37.748C64.482,37.748 64.111,37.966 63.912,38.229C63.665,38.553 63.512,39.035 63.512,41.043C63.512,43.05 63.665,43.562 63.912,43.886C64.111,44.152 64.482,44.35 64.975,44.35C65.545,44.35 65.929,44.181 66.176,43.917C66.485,43.608 66.594,43.059 66.594,42.642L66.594,42.487L64.975,42.487L64.975,40.229L69.273,40.229L69.273,41.759C69.273,43.539 68.996,44.676 68.164,45.524Z" clip-rule="evenodd" fill-rule="evenodd" fill="#595A59"/>
<path d="M73.858,42.735L74.866,39.55L75.875,42.735L73.858,42.735ZM75.906,35.575L73.827,35.575L69.837,46.573L72.609,46.573L73.148,44.935L76.584,44.935L77.123,46.573L79.896,46.573L75.906,35.575Z" clip-rule="evenodd" fill-rule="evenodd" fill="#595A59"/>
<path d="M4.291,41.49L1.301,41.49L1.301,45.523L4.291,45.523C5.647,45.523 6.494,44.735 6.494,43.498C6.494,42.263 5.647,41.49 4.291,41.49M4.167,36.623L1.301,36.623L1.301,40.44L4.167,40.44C5.385,40.44 6.325,39.837 6.325,38.524C6.325,37.21 5.385,36.623 4.167,36.623M4.398,46.573L0.13,46.573L0.13,35.573L4.26,35.573C6.171,35.573 7.496,36.67 7.496,38.508C7.496,39.667 6.802,40.579 5.878,40.919C6.926,41.305 7.665,42.216 7.665,43.53C7.665,45.523 6.34,46.573 4.398,46.573Z" clip-rule="evenodd" fill-rule="evenodd" fill="#595A59"/>
<path d="M12.95,37.257L10.885,43.066L14.984,43.066L12.95,37.257ZM16.202,46.573L15.323,44.086L10.531,44.086L9.652,46.573L8.404,46.573L12.442,35.573L13.428,35.573L17.45,46.573L16.202,46.573Z" clip-rule="evenodd" fill-rule="evenodd" fill="#595A59"/>
<path d="M25.601,46.573L19.777,37.751L19.777,46.573L18.605,46.573L18.605,35.573L19.715,35.573L25.54,44.364L25.54,35.573L26.711,35.573L26.711,46.573L25.601,46.573Z" clip-rule="evenodd" fill-rule="evenodd" fill="#595A59"/>
<path d="M36.094,46.573L32.75,40.718L30.439,43.498L30.439,46.573L29.268,46.573L29.268,35.573L30.439,35.573L30.439,41.892L35.555,35.573L36.988,35.573L33.536,39.822L37.481,46.573L36.094,46.573Z" clip-rule="evenodd" fill-rule="evenodd" fill="#595A59"/>
<path d="M44.05,0.039L40.013,9.129L46.407,23.525L56.837,0.039L44.05,0.039Z" clip-rule="evenodd" fill-rule="evenodd" fill="#949594"/>
<path d="M56.837,0.039L44.051,0.039L56.45,27.958L69.238,27.958L56.837,0.039Z" clip-rule="evenodd" fill-rule="evenodd" fill="#595A59"/>
<path d="M35.979,0.039L23.192,0.039L33.622,23.525L40.016,9.129L35.979,0.039Z" clip-rule="evenodd" fill-rule="evenodd" fill="#EC952D"/>
<path d="M23.193,0.039L10.792,27.958L23.581,27.958L35.979,0.039L23.193,0.039Z" clip-rule="evenodd" fill-rule="evenodd" fill="#F9C623"/>
<path d="M40.014,9.129L33.622,23.525C34.737,25.945 37.182,27.617 40.014,27.617C42.847,27.617 45.291,25.945 46.406,23.525L40.014,9.129Z" clip-rule="evenodd" fill-rule="evenodd" fill="#E3672A"/>
</svg>
