<svg width="47" height="14" viewBox="0 0 47 14" fill="none" xmlns="http://www.w3.org/2000/svg">
<path fill-rule="evenodd" clip-rule="evenodd" d="M5.08156 10.7524L6.98205 13.1059H2.27679L5.08156 10.7524ZM4.48394 10.0254L0.803247 13.1131L0.801738 5.51936L4.48394 10.0254ZM13.34 2.37901C13.34 2.37901 12.532 1.99651 11.5933 2.05237C10.5201 2.11557 9.62232 2.52713 9.10619 3.07019C8.78142 3.41137 8.42239 3.82757 8.24205 4.27957C7.98051 4.93346 7.92467 5.79748 7.92467 5.79748C7.92467 5.79748 7.54934 5.47892 7.07909 4.55066C6.53232 3.47097 6.38276 2.81694 6.30866 2.07079C6.24271 1.416 6.34624 0.768555 6.34624 0.768555H13.34V2.37901ZM13.34 4.53178V9.31988C13.34 9.31988 12.9052 9.48687 12.5505 9.48687C12.1959 9.48687 11.5919 9.4343 10.8905 9.04865C10.1941 8.66614 9.8087 8.20336 9.50989 7.784C9.20685 7.35746 8.95663 6.76618 8.88223 6.34009C8.82247 5.99921 8.75803 5.14898 9.10619 4.45795C9.29514 4.08293 9.80221 3.44012 10.7785 3.40358C11.5743 3.37303 12.0155 3.58225 12.42 3.80421C13.1897 4.22745 13.34 4.53178 13.34 4.53178ZM5.72462 8.98365L6.98612 7.93212C6.58408 7.41857 6.47784 7.22507 6.02841 6.56204C5.56827 5.88344 5.18283 5.13685 4.85323 4.26085C4.49646 3.31192 4.41029 2.77919 4.44968 2.07079C4.49903 1.16948 4.70397 0.768555 4.70397 0.768555H0.799927L0.801738 2.87265C0.801738 2.87265 3.79018 6.61776 5.72462 8.98365ZM9.32909 13.1024H13.34V10.1779C13.34 10.1779 12.3451 10.6342 11.6985 10.6711C11.3135 10.6936 10.9398 10.7084 10.3369 10.548C9.66669 10.3699 9.28593 10.1963 8.66476 9.68397C8.16583 9.273 7.59537 8.66614 7.59537 8.66614L6.32647 9.7241C6.91519 10.4442 7.34998 10.9684 7.48309 11.1095C8.05536 11.7142 8.29788 11.9365 8.68332 12.152C9.06861 12.368 10.3559 12.3563 10.3559 12.3563L9.32909 13.1024Z" fill="#E94E0F"/>
<path fill-rule="evenodd" clip-rule="evenodd" d="M43.6743 10.5008C43.6743 11.3482 43.7885 12.741 42.8396 13.0801V13.1366H46.4438V13.0801C45.4954 12.7224 45.6092 11.3482 45.6092 10.5008V3.40371C45.6092 2.55677 45.4954 1.16362 46.4438 0.805974V0.749512H42.8396V0.805974C43.8071 1.16362 43.6743 2.5379 43.6743 3.40371V10.5008ZM30.4584 3.40371L36.9652 11.5929C37.7996 12.6657 38.388 13.2872 39.7348 13.7388V3.17786C39.7348 2.12379 39.7348 1.3706 40.7215 0.805974V0.749512H37.3825V0.805974C38.388 1.3706 38.3687 2.12379 38.3687 3.17786V10.3127L31.4261 1.61532L31.1602 1.23881C31.0277 1.08829 30.9519 0.994233 30.876 0.768383V0.749512H28.106V0.805974C29.0925 1.3706 29.0925 2.12379 29.0925 3.17786V10.6895C29.0925 11.7434 29.0925 12.4963 28.0874 13.0801V13.1366H31.4451V13.0801C30.4396 12.4963 30.4584 11.7434 30.4584 10.6895V3.40371ZM19.8522 5.7383V2.0486L21.1229 1.91651C22.2613 1.80358 23.4751 2.48143 23.4751 3.78052C23.4751 5.32419 21.7109 5.7383 20.4782 5.7383H19.8522ZM19.8522 11.6305V6.98047L21.1798 6.90529C22.8493 6.81109 24.6323 7.60201 24.6323 9.42799C24.6323 11.2164 23.0583 11.9317 21.5023 11.7811L19.8522 11.6305ZM17.917 10.4821C17.917 11.3482 18.031 12.7224 17.0822 13.0801V13.1366H20.2123C21.635 13.1366 23.134 13.1932 24.4616 12.5531C25.7327 11.9505 26.7382 10.7079 26.7382 9.2583C26.7382 7.41375 25.3531 6.28405 23.6458 5.92611C24.7273 5.45568 25.5427 4.74039 25.5427 3.47904C25.5427 1.80358 24.0824 0.749512 21.5785 0.749512H17.0822V0.805974C18.0501 1.16362 17.917 2.5379 17.917 3.38484V10.4821Z" fill="#005B6A"/>
</svg>
