<svg width="92" height="28" viewBox="0 0 92 28" fill="none" xmlns="http://www.w3.org/2000/svg" xmlns:xlink="http://www.w3.org/1999/xlink">
<path d="M13.035,19.666C13.035,18.592 13.048,15.722 13.02,15.368C13.044,11.098 9.75,8.086 7.669,8.32C6.23,8.438 5.023,8.992 4.375,10.584C3.774,12.068 4.311,14.041 6.308,14.505C8.443,15.002 9.689,15.416 10.592,16C11.697,16.714 12.6,18.08 12.624,19.667Z" clip-rule="evenodd" fill-rule="evenodd" fill="#FFFFFF"/>
<path d="M12.143,19.668C12.15,18.292 11.336,17.075 10.271,16.421C9.326,15.843 8.058,15.463 6.011,14.974C5.379,14.821 4.717,14.483 4.513,14.051C3.971,14.565 3.872,15.722 3.968,16.399C4.078,17.181 5.048,18.471 6.509,18.521C7.401,18.555 8.528,18.34 9.069,18.232C10.002,18.042 11.478,18.593 11.713,19.666Z" clip-rule="evenodd" fill-rule="evenodd" fill="#FFFFFF"/>
<path d="M13.79,1.665C11.313,1.665 9.174,3.205 9.182,5.868C9.189,8.109 11.1,9.308 11.783,10.164C12.813,11.455 13.371,12.983 13.429,15.321C13.474,17.181 13.472,19.018 13.482,19.669L14.028,19.669C14.019,18.988 13.994,17.038 14.022,15.263C14.059,12.925 14.637,11.455 15.668,10.164C16.356,9.308 18.266,8.109 18.27,5.868C18.279,3.205 16.141,1.665 13.667,1.665Z" clip-rule="evenodd" fill-rule="evenodd" fill="#FFFFFF"/>
<path d="M14.418,19.666C14.418,18.592 14.405,15.722 14.433,15.368C14.409,11.098 17.7,8.086 19.783,8.32C21.223,8.438 22.428,8.992 23.078,10.584C23.678,12.068 23.138,14.041 21.144,14.505C19.008,15.002 17.763,15.416 16.858,16C15.754,16.714 14.914,18.08 14.889,19.667Z" clip-rule="evenodd" fill-rule="evenodd" fill="#FFFFFF"/>
<path d="M15.31,19.668C15.302,18.292 16.117,17.075 17.178,16.421C18.127,15.843 19.397,15.463 21.441,14.974C22.075,14.821 22.736,14.483 22.937,14.051C23.481,14.565 23.58,15.722 23.484,16.399C23.371,17.181 22.404,18.471 20.946,18.521C20.054,18.555 18.921,18.34 18.382,18.232C17.453,18.042 15.973,18.593 15.737,19.666Z" clip-rule="evenodd" fill-rule="evenodd" fill="#FFFFFF"/>
<path d="M16.073,24.111L15.757,21.931L16.522,21.822C16.708,21.798 16.934,21.829 17.025,21.939C17.125,22.053 17.156,22.148 17.175,22.299C17.204,22.486 17.147,22.701 16.925,22.808L16.925,22.815C17.173,22.815 17.323,22.983 17.367,23.267C17.373,23.327 17.392,23.472 17.373,23.593C17.323,23.881 17.141,23.973 16.833,24.014L16.073,24.111ZM16.566,23.721C16.656,23.709 16.748,23.704 16.82,23.661C16.931,23.593 16.921,23.448 16.905,23.34C16.867,23.104 16.802,23.014 16.535,23.051L16.368,23.075L16.474,23.733L16.566,23.721ZM16.406,22.714C16.507,22.698 16.644,22.687 16.701,22.596C16.731,22.536 16.77,22.487 16.744,22.353C16.713,22.194 16.657,22.095 16.442,22.133L16.242,22.163L16.321,22.722L16.406,22.714Z" clip-rule="evenodd" fill-rule="evenodd" fill="#FFFFFF"/>
<path d="M19.387,22.8C19.393,22.841 19.4,22.886 19.403,22.926C19.464,23.324 19.387,23.653 18.913,23.744C18.212,23.871 18.078,23.46 17.955,22.886L17.889,22.575C17.792,22.025 17.751,21.609 18.434,21.48C18.819,21.414 19.074,21.559 19.18,21.92C19.196,21.974 19.217,22.027 19.225,22.082L18.805,22.163C18.757,22.027 18.693,21.785 18.504,21.805C18.166,21.844 18.277,22.241 18.312,22.407L18.438,23.003C18.476,23.184 18.551,23.472 18.844,23.416C19.082,23.371 18.978,23.022 18.957,22.879Z" clip-rule="evenodd" fill-rule="evenodd" fill="#FFFFFF"/>
<path d="M20.06,23.46L19.915,21.204L20.478,21.042L21.659,23.004L21.215,23.129L20.935,22.63L20.443,22.77L20.507,23.337L20.06,23.46ZM20.402,22.405L20.758,22.308L20.285,21.396L20.402,22.405Z" clip-rule="evenodd" fill-rule="evenodd" fill="#FFFFFF"/>
<path d="M6.15,21.754C6.326,21.223 6.484,20.831 7.156,21.005C7.516,21.1 7.739,21.249 7.729,21.643C7.727,21.731 7.696,21.82 7.676,21.907L7.258,21.798C7.313,21.58 7.347,21.408 7.063,21.325C6.734,21.24 6.654,21.616 6.609,21.778L6.438,22.369C6.384,22.545 6.319,22.835 6.609,22.91C6.848,22.971 6.993,22.75 7.079,22.427L6.786,22.353L6.888,22.011L7.576,22.22L7.249,23.36L6.933,23.279L7.004,23.038L6.995,23.038C6.849,23.235 6.671,23.255 6.515,23.227C5.827,23.052 5.898,22.627 6.063,22.061Z" clip-rule="evenodd" fill-rule="evenodd" fill="#FFFFFF"/>
<path d="M8.713,22.717L8.506,23.644L8.039,23.549L8.537,21.384L9.332,21.553C9.798,21.648 9.939,21.843 9.873,22.246C9.835,22.477 9.714,22.726 9.419,22.705L9.416,22.702C9.666,22.784 9.687,22.903 9.643,23.107C9.625,23.195 9.495,23.724 9.584,23.809L9.587,23.874L9.104,23.755C9.084,23.609 9.153,23.345 9.18,23.199C9.207,23.07 9.25,22.888 9.111,22.819C9.003,22.764 8.962,22.767 8.839,22.741L8.713,22.717ZM8.793,22.381L9.107,22.461C9.298,22.487 9.404,22.394 9.442,22.176C9.476,21.977 9.432,21.899 9.26,21.861L8.923,21.796L8.793,22.381Z" clip-rule="evenodd" fill-rule="evenodd" fill="#FFFFFF"/>
<path d="M11.707,21.867L12.169,21.918L11.97,23.44C11.873,23.923 11.675,24.133 11.112,24.068C10.539,23.999 10.403,23.753 10.438,23.267L10.638,21.746L11.103,21.796L10.904,23.283C10.882,23.444 10.843,23.684 11.147,23.713C11.418,23.732 11.479,23.563 11.51,23.353Z" clip-rule="evenodd" fill-rule="evenodd" fill="#FFFFFF"/>
<path d="M12.678,24.151L12.817,21.975L13.704,22.011C14.123,22.03 14.233,22.353 14.22,22.661C14.207,22.848 14.145,23.057 13.972,23.171C13.83,23.267 13.648,23.29 13.479,23.282L13.19,23.267L13.132,24.179L12.678,24.151ZM13.203,22.935L13.437,22.947C13.628,22.954 13.755,22.883 13.771,22.619C13.781,22.365 13.679,22.322 13.432,22.312L13.246,22.306L13.203,22.935Z" clip-rule="evenodd" fill-rule="evenodd" fill="#FFFFFF"/>
<path d="M75.238,3.768L71.712,9.801C70.382,8.782 68.757,8.032 66.684,8.032C61.778,8.032 59.785,11.479 59.785,13.908C59.785,15.71 61.037,18.37 65.402,18.37C67.235,18.37 69.839,17.168 70.589,16.621L67.103,23.62C65.441,23.932 64.894,24.126 63.488,24.167C55.674,24.387 52.517,19.862 52.52,15.239C52.525,9.127 58.289,1.694 67.845,1.694C68.431,1.694 69.147,1.885 69.759,2.097L70.378,1.351Z" clip-rule="evenodd" fill-rule="evenodd" fill="#FFFFFF"/>
<path d="M89.785,1.54L90.783,23.463L83.354,23.463L83.349,19.703L78.283,19.703L76.616,23.463L68.559,23.463L76.982,7.808L75.083,7.797L78.692,1.54L89.785,1.54ZM83.301,8.247L80.437,14.623L83.388,14.623L83.301,8.247Z" clip-rule="evenodd" fill-rule="evenodd" fill="#FFFFFF"/>
<path d="M47.829,1.541C51.508,1.56 53.588,3.443 53.588,6.162C53.588,8.669 51.395,10.888 48.988,12.036C51.466,12.895 51.68,15.003 51.68,16.494C51.68,20.097 47.845,23.464 42.86,23.464L31.987,23.464L36.228,8.027L34.486,8.018L38.047,1.541C38.047,1.541 44.837,1.521 47.829,1.541L47.829,1.541ZM44.22,10.429C44.981,10.429 46.325,10.248 46.66,8.859C47.029,7.352 45.768,7.311 45.163,7.311L43.001,7.303L42.247,10.429L44.22,10.429ZM41.164,14.303L40.169,17.907L42.714,17.907C43.715,17.907 45.08,17.438 45.414,16.265C45.744,15.09 44.79,14.303 43.793,14.303L41.164,14.303Z" clip-rule="evenodd" fill-rule="evenodd" fill="#FFFFFF"/>
<path d="M13.888,26.157C10.123,26.157 6.254,25.283 2.391,23.555L2.296,23.511L2.251,23.42C0.517,19.969 -0.4,16.196 -0.4,12.504C-0.4,8.818 0.479,5.206 2.214,1.76L2.262,1.669L2.359,1.623C5.933,0.027 9.777,-0.781 13.79,-0.781C17.527,-0.781 21.519,0.119 25.331,1.826L25.429,1.867L25.474,1.96C27.241,5.474 28.173,9.246 28.173,12.877C28.173,16.494 27.278,20.109 25.509,23.621L25.463,23.713L25.364,23.755C21.845,25.326 17.876,26.157 13.888,26.157M2.748,23.081C6.501,24.746 10.245,25.586 13.888,25.586C17.75,25.586 21.591,24.79 25.01,23.282C26.709,19.879 27.57,16.377 27.57,12.877C27.57,9.363 26.671,5.708 24.971,2.297C21.272,0.658 17.408,-0.212 13.79,-0.212C9.905,-0.212 6.182,0.565 2.716,2.097C1.052,5.437 0.205,8.936 0.205,12.504C0.205,16.079 1.085,19.736 2.748,23.081Z" clip-rule="evenodd" fill-rule="evenodd" fill="#FFFFFF"/>
</svg>
