<svg width="54" height="18" viewBox="0 0 54 18" fill="none" xmlns="http://www.w3.org/2000/svg" xmlns:xlink="http://www.w3.org/1999/xlink">
<path d="M7.575,12.599C7.575,11.955 7.582,10.233 7.565,10.021C7.58,7.459 5.639,5.651 4.413,5.792C3.564,5.863 2.853,6.195 2.471,7.15C2.117,8.041 2.434,9.225 3.61,9.503C4.868,9.801 5.603,10.05 6.135,10.4C6.786,10.829 7.318,11.648 7.332,12.6Z" clip-rule="evenodd" fill-rule="evenodd" fill="#FFFFFF"/>
<path d="M7.049,12.6C7.053,11.775 6.573,11.044 5.945,10.652C5.388,10.305 4.641,10.077 3.435,9.784C3.063,9.692 2.673,9.489 2.552,9.23C2.233,9.539 2.175,10.233 2.231,10.639C2.296,11.108 2.868,11.882 3.728,11.912C4.254,11.932 4.918,11.804 5.237,11.739C5.787,11.625 6.657,11.955 6.795,12.599Z" clip-rule="evenodd" fill-rule="evenodd" fill="#FFFFFF"/>
<path d="M8.019,1.799C6.56,1.799 5.299,2.723 5.304,4.321C5.308,5.665 6.434,6.384 6.836,6.898C7.444,7.673 7.772,8.59 7.806,9.992C7.833,11.109 7.832,12.211 7.838,12.602L8.16,12.602C8.154,12.193 8.14,11.023 8.156,9.958C8.178,8.555 8.519,7.673 9.126,6.898C9.532,6.384 10.657,5.665 10.659,4.321C10.665,2.723 9.405,1.799 7.947,1.799Z" clip-rule="evenodd" fill-rule="evenodd" fill="#FFFFFF"/>
<path d="M8.389,12.599C8.389,11.955 8.382,10.233 8.398,10.021C8.384,7.459 10.324,5.651 11.551,5.792C12.399,5.863 13.11,6.195 13.493,7.15C13.846,8.041 13.528,9.225 12.353,9.503C11.094,9.801 10.36,10.05 9.827,10.4C9.177,10.829 8.682,11.648 8.667,12.6Z" clip-rule="evenodd" fill-rule="evenodd" fill="#FFFFFF"/>
<path d="M8.915,12.6C8.91,11.775 9.39,11.044 10.016,10.652C10.575,10.305 11.323,10.077 12.528,9.784C12.902,9.692 13.291,9.489 13.41,9.23C13.73,9.539 13.788,10.233 13.732,10.639C13.666,11.108 13.095,11.882 12.236,11.912C11.711,11.932 11.043,11.804 10.725,11.739C10.178,11.625 9.306,11.955 9.167,12.599Z" clip-rule="evenodd" fill-rule="evenodd" fill="#FFFFFF"/>
<path d="M9.365,15.266L9.178,13.958L9.629,13.893C9.739,13.878 9.872,13.897 9.926,13.963C9.985,14.032 10.003,14.089 10.014,14.179C10.031,14.291 9.998,14.42 9.867,14.484L9.867,14.488C10.013,14.488 10.101,14.589 10.127,14.76C10.131,14.796 10.142,14.883 10.131,14.955C10.101,15.128 9.994,15.184 9.813,15.208L9.365,15.266ZM9.655,15.032C9.709,15.025 9.763,15.022 9.805,14.996C9.87,14.955 9.864,14.868 9.855,14.804C9.833,14.662 9.794,14.608 9.637,14.63L9.539,14.645L9.601,15.039L9.655,15.032ZM9.561,14.428C9.62,14.418 9.701,14.411 9.735,14.357C9.753,14.321 9.775,14.292 9.76,14.211C9.742,14.116 9.709,14.056 9.582,14.079L9.464,14.097L9.511,14.433L9.561,14.428Z" clip-rule="evenodd" fill-rule="evenodd" fill="#FFFFFF"/>
<path d="M11.318,14.48C11.321,14.504 11.325,14.531 11.327,14.556C11.363,14.794 11.318,14.992 11.038,15.046C10.625,15.122 10.546,14.876 10.473,14.531L10.435,14.345C10.378,14.015 10.353,13.765 10.756,13.688C10.983,13.648 11.133,13.735 11.195,13.952C11.205,13.984 11.217,14.016 11.222,14.049L10.975,14.098C10.946,14.016 10.908,13.871 10.797,13.883C10.598,13.906 10.664,14.144 10.684,14.244L10.758,14.602C10.781,14.71 10.825,14.883 10.998,14.85C11.138,14.823 11.077,14.613 11.064,14.527Z" clip-rule="evenodd" fill-rule="evenodd" fill="#FFFFFF"/>
<path d="M11.714,14.875L11.629,13.522L11.96,13.425L12.656,14.602L12.395,14.677L12.23,14.378L11.94,14.461L11.977,14.802L11.714,14.875ZM11.916,14.243L12.125,14.185L11.847,13.637L11.916,14.243Z" clip-rule="evenodd" fill-rule="evenodd" fill="#FFFFFF"/>
<path d="M3.517,13.852C3.621,13.533 3.714,13.298 4.11,13.403C4.322,13.459 4.454,13.549 4.448,13.786C4.447,13.838 4.428,13.892 4.417,13.944L4.17,13.879C4.202,13.748 4.223,13.644 4.055,13.595C3.861,13.544 3.814,13.769 3.787,13.867L3.687,14.221C3.655,14.327 3.617,14.501 3.787,14.546C3.928,14.582 4.014,14.449 4.065,14.256L3.892,14.212L3.952,14.007L4.358,14.132L4.165,14.816L3.978,14.767L4.02,14.622L4.015,14.622C3.929,14.741 3.824,14.753 3.732,14.736C3.327,14.631 3.369,14.376 3.466,14.036Z" clip-rule="evenodd" fill-rule="evenodd" fill="#FFFFFF"/>
<path d="M5.027,14.43L4.905,14.986L4.63,14.929L4.923,13.63L5.392,13.731C5.667,13.788 5.75,13.906 5.711,14.147C5.689,14.286 5.617,14.435 5.444,14.423L5.442,14.421C5.589,14.47 5.601,14.541 5.576,14.664C5.564,14.716 5.488,15.034 5.541,15.085L5.543,15.124L5.258,15.053C5.246,14.965 5.286,14.807 5.302,14.719C5.318,14.641 5.344,14.532 5.262,14.491C5.198,14.458 5.174,14.46 5.101,14.444L5.027,14.43ZM5.074,14.228L5.26,14.276C5.372,14.292 5.435,14.236 5.457,14.105C5.477,13.986 5.451,13.939 5.35,13.916L5.151,13.877L5.074,14.228Z" clip-rule="evenodd" fill-rule="evenodd" fill="#FFFFFF"/>
<path d="M6.792,13.92L7.064,13.951L6.947,14.864C6.89,15.154 6.773,15.28 6.441,15.241C6.104,15.199 6.024,15.052 6.044,14.76L6.162,13.848L6.436,13.878L6.319,14.77C6.306,14.867 6.283,15.01 6.462,15.028C6.621,15.039 6.658,14.938 6.676,14.812Z" clip-rule="evenodd" fill-rule="evenodd" fill="#FFFFFF"/>
<path d="M7.364,15.29L7.446,13.984L7.968,14.006C8.216,14.018 8.28,14.211 8.273,14.396C8.265,14.509 8.229,14.634 8.127,14.702C8.043,14.76 7.935,14.774 7.836,14.769L7.666,14.76L7.632,15.307L7.364,15.29ZM7.673,14.561L7.812,14.568C7.924,14.572 7.999,14.529 8.008,14.371C8.014,14.219 7.954,14.193 7.808,14.187L7.698,14.183L7.673,14.561Z" clip-rule="evenodd" fill-rule="evenodd" fill="#FFFFFF"/>
<path d="M44.23,3.061L42.152,6.68C41.368,6.069 40.411,5.619 39.189,5.619C36.298,5.619 35.124,7.688 35.124,9.145C35.124,10.226 35.861,11.822 38.434,11.822C39.514,11.822 41.049,11.101 41.49,10.773L39.436,14.972C38.456,15.159 38.135,15.276 37.306,15.3C32.701,15.432 30.841,12.717 30.842,9.943C30.845,6.276 34.242,1.817 39.873,1.817C40.218,1.817 40.64,1.931 41.001,2.058L41.366,1.61Z" clip-rule="evenodd" fill-rule="evenodd" fill="#FFFFFF"/>
<path d="M52.802,1.724L53.39,14.878L49.012,14.878L49.009,12.622L46.024,12.622L45.042,14.878L40.293,14.878L45.257,5.485L44.138,5.478L46.265,1.724L52.802,1.724ZM48.981,5.748L47.293,9.574L49.032,9.574L48.981,5.748Z" clip-rule="evenodd" fill-rule="evenodd" fill="#FFFFFF"/>
<path d="M28.078,1.724C30.246,1.736 31.472,2.865 31.472,4.497C31.472,6.001 30.179,7.332 28.761,8.021C30.221,8.536 30.348,9.801 30.348,10.696C30.348,12.858 28.088,14.878 25.15,14.878L18.743,14.878L21.242,5.616L20.215,5.61L22.314,1.724C22.314,1.724 26.315,1.712 28.078,1.724L28.078,1.724ZM25.951,7.057C26.4,7.057 27.192,6.948 27.39,6.115C27.606,5.211 26.863,5.186 26.507,5.186L25.233,5.181L24.789,7.057L25.951,7.057ZM24.15,9.382L23.564,11.543L25.064,11.543C25.654,11.543 26.458,11.262 26.655,10.559C26.85,9.853 26.287,9.382 25.7,9.382L24.15,9.382Z" clip-rule="evenodd" fill-rule="evenodd" fill="#FFFFFF"/>
<path d="M8.077,16.494C5.858,16.494 3.579,15.97 1.302,14.932L1.246,14.906L1.219,14.851C0.198,12.781 -0.343,10.517 -0.343,8.302C-0.343,6.09 0.175,3.923 1.198,1.856L1.226,1.801L1.283,1.774C3.389,0.816 5.655,0.331 8.019,0.331C10.221,0.331 12.574,0.871 14.82,1.895L14.878,1.92L14.905,1.976C15.946,4.084 16.495,6.348 16.495,8.526C16.495,10.696 15.968,12.865 14.925,14.972L14.898,15.027L14.84,15.053C12.766,15.995 10.427,16.494 8.077,16.494M1.513,14.649C3.724,15.647 5.93,16.152 8.077,16.152C10.353,16.152 12.616,15.674 14.631,14.769C15.632,12.727 16.14,10.626 16.14,8.526C16.14,6.418 15.61,4.224 14.608,2.178C12.428,1.194 10.151,0.673 8.019,0.673C5.73,0.673 3.536,1.139 1.493,2.058C0.513,4.062 0.014,6.161 0.014,8.302C0.014,10.447 0.532,12.641 1.513,14.649Z" clip-rule="evenodd" fill-rule="evenodd" fill="#FFFFFF"/>
</svg>
