<svg width="80" height="48" viewBox="0 0 80 48" fill="none" xmlns="http://www.w3.org/2000/svg" xmlns:xlink="http://www.w3.org/1999/xlink">
<path d="M46.891,35.576L44.427,40.428L41.963,35.576L39.313,35.576L39.313,46.574L42.01,46.574L42.01,41.076C42.01,41.076 43.333,43.395 43.532,43.741C43.73,44.087 44.069,44.267 44.426,44.267C44.785,44.267 45.124,44.087 45.322,43.741C45.52,43.395 46.844,41.076 46.844,41.076L46.844,46.574L49.54,46.574L49.54,35.576L46.891,35.576Z" clip-rule="evenodd" fill-rule="evenodd" fill="#595A59"/>
<path d="M51.802,46.573L51.802,35.575L59.26,35.575L59.26,37.985L54.498,37.985L54.498,39.822L58.566,39.822L58.566,42.234L54.498,42.234L54.498,44.166L59.26,44.166L59.26,46.573L51.802,46.573Z" clip-rule="evenodd" fill-rule="evenodd" fill="#595A59"/>
<path d="M68.164,45.525C67.224,46.497 66.176,46.758 64.975,46.758C63.696,46.758 62.725,46.329 61.925,45.525C60.769,44.366 60.815,42.695 60.815,41.044C60.815,39.392 60.769,37.736 61.925,36.575C62.725,35.773 63.652,35.342 64.975,35.342C67.793,35.342 68.996,37.178 69.257,38.986L66.547,38.986C66.33,38.151 65.898,37.749 64.975,37.749C64.482,37.749 64.111,37.967 63.912,38.23C63.665,38.554 63.512,39.036 63.512,41.044C63.512,43.051 63.665,43.563 63.912,43.887C64.111,44.153 64.482,44.351 64.975,44.351C65.545,44.351 65.929,44.182 66.176,43.918C66.485,43.609 66.594,43.06 66.594,42.643L66.594,42.488L64.975,42.488L64.975,40.23L69.273,40.23L69.273,41.76C69.273,43.54 68.996,44.677 68.164,45.525Z" clip-rule="evenodd" fill-rule="evenodd" fill="#595A59"/>
<path d="M73.858,42.735L74.866,39.55L75.875,42.735L73.858,42.735ZM75.906,35.575L73.827,35.575L69.837,46.573L72.609,46.573L73.148,44.935L76.584,44.935L77.123,46.573L79.896,46.573L75.906,35.575Z" clip-rule="evenodd" fill-rule="evenodd" fill="#595A59"/>
<path d="M4.291,41.491L1.301,41.491L1.301,45.523L4.291,45.523C5.647,45.523 6.494,44.735 6.494,43.499C6.494,42.263 5.647,41.491 4.291,41.491M4.167,36.624L1.301,36.624L1.301,40.44L4.167,40.44C5.385,40.44 6.325,39.838 6.325,38.524C6.325,37.211 5.385,36.624 4.167,36.624M4.398,46.574L0.13,46.574L0.13,35.573L4.26,35.573C6.171,35.573 7.496,36.67 7.496,38.509C7.496,39.668 6.802,40.579 5.878,40.919C6.926,41.305 7.665,42.217 7.665,43.53C7.665,45.523 6.34,46.574 4.398,46.574Z" clip-rule="evenodd" fill-rule="evenodd" fill="#595A59"/>
<path d="M12.95,37.257L10.885,43.066L14.984,43.066L12.95,37.257ZM16.202,46.574L15.323,44.086L10.531,44.086L9.652,46.574L8.404,46.574L12.442,35.573L13.428,35.573L17.45,46.574L16.202,46.574Z" clip-rule="evenodd" fill-rule="evenodd" fill="#595A59"/>
<path d="M25.601,46.574L19.777,37.752L19.777,46.574L18.605,46.574L18.605,35.573L19.715,35.573L25.54,44.364L25.54,35.573L26.711,35.573L26.711,46.574L25.601,46.574Z" clip-rule="evenodd" fill-rule="evenodd" fill="#595A59"/>
<path d="M36.094,46.574L32.75,40.718L30.439,43.499L30.439,46.574L29.268,46.574L29.268,35.573L30.439,35.573L30.439,41.892L35.555,35.573L36.988,35.573L33.536,39.822L37.481,46.574L36.094,46.574Z" clip-rule="evenodd" fill-rule="evenodd" fill="#595A59"/>
<path d="M44.05,0.039L40.013,9.129L46.407,23.525L56.837,0.039L44.05,0.039Z" clip-rule="evenodd" fill-rule="evenodd" fill="#949594"/>
<path d="M56.837,0.039L44.051,0.039L56.45,27.959L69.238,27.959L56.837,0.039Z" clip-rule="evenodd" fill-rule="evenodd" fill="#595A59"/>
<path d="M35.979,0.039L23.192,0.039L33.622,23.525L40.016,9.129L35.979,0.039Z" clip-rule="evenodd" fill-rule="evenodd" fill="#EC952D"/>
<path d="M23.193,0.039L10.792,27.959L23.581,27.959L35.979,0.039L23.193,0.039Z" clip-rule="evenodd" fill-rule="evenodd" fill="#F9C623"/>
<path d="M40.014,9.13L33.622,23.526C34.737,25.946 37.182,27.618 40.014,27.618C42.847,27.618 45.291,25.946 46.406,23.526L40.014,9.13Z" clip-rule="evenodd" fill-rule="evenodd" fill="#E3672A"/>
</svg>
