<svg width="42" height="14" viewBox="0 0 42 14" fill="none" xmlns="http://www.w3.org/2000/svg" xmlns:xlink="http://www.w3.org/1999/xlink">
<path d="M18.192,12.474L14.855,12.474L16.943,-0.325L20.28,-0.325L18.192,12.474Z" clip-rule="evenodd" fill-rule="evenodd" fill="#FFFFFF"/>
<path d="M30.291,-0.012C29.633,-0.271 28.589,-0.557 27.298,-0.557C24.002,-0.557 21.681,1.186 21.667,3.678C21.639,5.516 23.328,6.537 24.592,7.15C25.883,7.776 26.322,8.185 26.322,8.743C26.309,9.601 25.278,9.996 24.317,9.996C22.985,9.996 22.271,9.792 21.186,9.315L20.747,9.111L20.28,11.984C21.062,12.337 22.505,12.651 24.002,12.665C27.504,12.665 29.783,10.949 29.81,8.294C29.824,6.837 28.932,5.721 27.009,4.808C25.842,4.223 25.127,3.828 25.127,3.229C25.141,2.684 25.732,2.126 27.049,2.126C28.134,2.099 28.931,2.357 29.535,2.616L29.837,2.752L30.291,-0.012L30.291,-0.012L30.291,-0.012Z" clip-rule="evenodd" fill-rule="evenodd" fill="#FFFFFF"/>
<path d="M36.265,-0.325L38.846,-0.325L41.539,12.474L38.449,12.474C38.449,12.474 38.146,11.003 38.05,10.554L33.765,10.554L33.065,12.474L29.563,12.474L34.52,0.737C34.864,-0.093 35.469,-0.325 36.265,-0.325ZM36.059,4.359C36.059,4.359 35.002,7.205 34.727,7.94L37.501,7.94C37.363,7.3 36.731,4.236 36.731,4.236L36.498,3.134C36.4,3.418 36.258,3.808 36.162,4.071C36.097,4.25 36.054,4.37 36.059,4.359Z" clip-rule="evenodd" fill-rule="evenodd" fill="#FFFFFF"/>
<path d="M12.068,-0.325L8.799,8.403L8.442,6.633C7.838,4.59 5.943,2.371 3.828,1.268L6.821,12.461L10.351,12.461L15.597,-0.325L12.068,-0.325L12.068,-0.325L12.068,-0.325Z" clip-rule="evenodd" fill-rule="evenodd" fill="#FFFFFF"/>
<path d="M5.764,-0.325L0.394,-0.325L0.34,-0.066C4.528,0.996 7.302,3.556 8.442,6.633L7.275,0.751C7.082,-0.066 6.492,-0.298 5.764,-0.325L5.764,-0.325Z" clip-rule="evenodd" fill-rule="evenodd" fill="#FFFFFF"/>
</svg>
