<svg width="47" height="11" viewBox="0 0 47 11" fill="none" xmlns="http://www.w3.org/2000/svg">
<path fill-rule="evenodd" clip-rule="evenodd" d="M5.02925 0.318058C5.56035 0.231529 6.10523 0.241561 6.63883 0.294858C7.13356 0.397064 7.63267 0.511183 8.08664 0.740048C9.00523 1.17834 9.78713 1.88876 10.3082 2.76346C10.7402 3.5717 11.0374 4.47838 10.9929 5.4045C11.0054 7.30565 9.80093 9.11713 8.09479 9.92537C6.98871 10.4514 5.70205 10.5236 4.52011 10.2351C3.72065 9.98932 2.9494 9.59179 2.3669 8.98106C1.81198 8.46628 1.39312 7.8104 1.12726 7.10437C0.780518 6.23594 0.749167 5.27032 0.896518 4.35549C1.16614 2.99672 2.00573 1.75082 3.19394 1.02848C3.74698 0.664177 4.38279 0.447853 5.02925 0.318058ZM4.31946 2.75782C3.91941 2.79858 3.48238 2.93903 3.26104 3.3002C3.01651 3.64613 2.99099 4.07882 2.96675 4.48988L2.96069 4.59062C2.9557 4.69431 2.94645 4.79786 2.93719 4.90143V4.90144C2.91851 5.1104 2.89982 5.31945 2.91617 5.52991C2.92836 5.67203 2.93696 5.8146 2.94556 5.95721C2.96706 6.31353 2.98856 6.66998 3.06603 7.01972C3.16197 7.46052 3.55887 7.80225 3.99654 7.88251C4.81222 8.02956 5.64316 8.01664 6.46911 8.0038L6.69589 8.00039C7.03386 7.98158 7.37183 7.9471 7.70603 7.8938C8.2064 7.82859 8.64845 7.42102 8.73059 6.9194C8.87418 6.30429 8.89989 5.66973 8.85725 5.04208C8.77699 4.63953 8.49232 4.27648 8.10545 4.12913C7.93114 4.04491 7.73781 4.04542 7.54817 4.04593C7.51473 4.04602 7.48141 4.04611 7.44832 4.04573C7.07529 4.04619 6.70226 4.04598 6.32925 4.04578H6.32922C5.6765 4.04541 5.02388 4.04505 4.3715 4.04824C4.2965 4.04961 4.22651 4.02397 4.15713 3.99855C4.13139 3.98912 4.10573 3.97972 4.07993 3.97174C4.07805 3.83129 4.08307 3.62124 4.2718 3.61747C4.76324 3.60638 5.25513 3.60965 5.74699 3.61292H5.74702C6.39483 3.61723 7.04257 3.62153 7.6891 3.59302C7.61887 3.26697 7.42011 2.92649 7.07775 2.8362C6.76863 2.75343 6.44884 2.71142 6.13094 2.68195C6.04026 2.68082 5.94945 2.67909 5.85856 2.67735C5.34358 2.66751 4.82631 2.65762 4.31946 2.75782ZM7.82078 5.49667C7.65587 5.45216 7.45836 5.51737 7.40067 5.68729C7.36446 5.88291 7.42247 6.07137 7.48011 6.25859C7.50431 6.33723 7.52845 6.41564 7.54551 6.49427C7.56432 6.50524 7.59252 6.52154 7.62073 6.53784C7.64895 6.55414 7.67718 6.57045 7.696 6.58143C7.76058 6.54381 7.82642 6.50995 7.89477 6.48048C7.90215 6.315 7.94202 6.15585 7.98188 5.99676C7.99957 5.92617 8.01725 5.85559 8.03209 5.78448C8.00136 5.66723 7.92424 5.56 7.82078 5.49667Z" fill="#01ACD7"/>
<path fill-rule="evenodd" clip-rule="evenodd" d="M17.435 1.8804C16.9515 1.69103 16.4148 1.71235 15.9081 1.77506C14.8121 1.94435 13.8502 2.78081 13.5254 3.84111C13.3781 4.26122 13.3812 4.71456 13.4201 5.15285C13.5512 6.27397 14.3945 7.25841 15.4648 7.60139C16.2235 7.83088 17.0989 7.83841 17.7993 7.4277C17.8907 7.37711 17.9738 7.3146 18.0569 7.25206C18.1345 7.19371 18.212 7.13533 18.2965 7.0866L18.2978 7.14486C18.3082 7.60701 18.3199 8.12967 17.9692 8.4786C17.7341 8.76578 17.3785 8.91689 17.0192 8.97207C16.2424 9.11441 15.4209 8.84917 14.8435 8.31746C14.7151 8.44823 14.5806 8.57314 14.4461 8.69804C14.2285 8.90012 14.011 9.10215 13.8195 9.32885C14.424 9.9007 15.1896 10.3133 16.0198 10.423C16.8311 10.5252 17.704 10.4757 18.4269 10.0587C19.0401 9.71823 19.523 9.13698 19.7123 8.45916C19.8299 8.1214 19.8283 7.76059 19.8267 7.40761L19.8264 7.34807C19.8258 5.4789 19.8258 3.61036 19.8264 1.7412C19.5326 1.73756 19.2388 1.73772 18.945 1.73788C18.7328 1.738 18.5206 1.73812 18.3084 1.73681L18.3091 1.89083C18.3101 2.05769 18.311 2.22456 18.3072 2.39142C18.0457 2.17761 17.7566 1.98887 17.435 1.8804ZM15.5094 3.50941C15.7608 3.28619 16.0944 3.20092 16.4198 3.15263C17.0675 3.05419 17.7961 3.35077 18.1278 3.93077C18.2616 4.16577 18.256 4.43139 18.2505 4.6945V4.69451V4.69452V4.69453V4.69454C18.2486 4.78664 18.2467 4.87844 18.2507 4.9685C18.3053 5.52154 17.8745 6.00937 17.381 6.19748C16.7847 6.42195 16.0492 6.437 15.5288 6.02254C14.7488 5.43752 14.7331 4.10258 15.5094 3.50941ZM30.7568 1.73806C30.1084 1.73367 29.4325 1.92742 28.9654 2.39519C28.9612 2.33538 28.9573 2.27565 28.9534 2.21601C28.9467 2.11309 28.9401 2.01041 28.9321 1.90799C28.4217 1.90172 27.9113 1.89983 27.4009 1.90799C27.4016 3.45549 27.4015 5.00299 27.4014 6.55049C27.4014 7.71112 27.4013 8.87175 27.4016 10.0324C27.7602 10.0555 28.1197 10.0535 28.4791 10.0515H28.4791H28.4791H28.4791H28.4791H28.4792H28.4792H28.4792H28.4792C28.6464 10.0505 28.8134 10.0496 28.9804 10.0512C28.9921 9.33429 28.9895 8.61705 28.9869 7.89972V7.89967V7.89962V7.89957V7.89938C28.986 7.65438 28.9851 7.40937 28.9848 7.16435C30.1109 8.05912 31.9036 7.96068 32.9163 6.93423C34.0186 5.82879 34.0819 3.85867 33.0203 2.70494C32.4617 2.06286 31.6039 1.70796 30.7568 1.73806ZM29.0588 4.06559C29.2237 3.56961 29.7278 3.27365 30.2175 3.17646C30.7223 3.07426 31.2866 3.20154 31.6766 3.54515C32.3375 4.14584 32.3425 5.3002 31.7193 5.92911C31.0941 6.53419 29.988 6.5229 29.3667 5.91782C29.1021 5.68394 28.9635 5.31776 28.9867 4.96788C28.9919 4.87565 28.9894 4.78207 28.9869 4.6884V4.68838V4.68836V4.68834V4.68832C28.9813 4.47633 28.9757 4.26387 29.0588 4.06559ZM22.8224 1.81519C23.7134 1.63586 24.6884 1.7437 25.464 2.23968C26.0541 2.59583 26.503 3.17333 26.7037 3.83233C26.9789 4.69826 26.8554 5.68896 26.34 6.44265C25.8277 7.20197 24.953 7.66723 24.0501 7.75439C23.4939 7.79201 22.9189 7.7732 22.3929 7.57067C21.5213 7.27785 20.7902 6.55864 20.5331 5.67015C20.2572 4.83746 20.3851 3.88437 20.8579 3.14699C21.2956 2.45726 22.0292 1.98636 22.8224 1.81519ZM23.1955 3.18461C22.9735 3.24794 22.7659 3.3583 22.5841 3.49938C21.9546 3.99536 21.8009 4.97603 22.2493 5.64005C22.7616 6.48466 24.0833 6.65144 24.7768 5.94416C25.116 5.63253 25.2772 5.16727 25.232 4.71142C25.2703 3.70066 24.1492 2.88615 23.1955 3.18461ZM37.7506 1.77568C36.8383 1.65592 35.8501 1.78321 35.0933 2.34063C34.6563 2.68801 34.2825 3.1658 34.2086 3.73389C34.4264 3.7712 34.6425 3.81833 34.8586 3.86546L34.8587 3.86546C35.1401 3.92685 35.4216 3.98824 35.7072 4.02796C35.8307 3.53199 36.2608 3.13759 36.7656 3.05607C37.0923 2.99964 37.4321 3.01657 37.75 3.11313C38.0278 3.20342 38.2391 3.50753 38.1174 3.79722C37.8909 4.00381 37.5826 4.06629 37.289 4.12579C37.2511 4.13347 37.2135 4.1411 37.1763 4.14898L37.0234 4.17068C36.278 4.27597 35.5031 4.38543 34.8688 4.81614C34.0844 5.36479 34.0813 6.65583 34.8067 7.25527C35.4056 7.77006 36.2489 7.829 37.0001 7.7293C37.5199 7.63211 38.0435 7.40701 38.3752 6.97875C38.377 7.0844 38.377 7.19005 38.377 7.29578C38.377 7.40152 38.377 7.50733 38.3789 7.6133C38.4934 7.61315 38.6079 7.61279 38.7224 7.61242C39.0853 7.61126 39.4486 7.61009 39.8123 7.61581C39.8137 6.90744 39.8135 6.19927 39.8133 5.49119C39.8132 4.96015 39.813 4.42916 39.8136 3.89817C39.8192 3.4674 39.6618 3.04792 39.4248 2.69302C39.0398 2.15253 38.3864 1.87977 37.7506 1.77568ZM35.7768 6.06706C35.694 5.8708 35.8539 5.67704 36.0138 5.58048C36.3362 5.40275 36.6992 5.33645 37.0615 5.27027C37.498 5.19052 37.9336 5.11096 38.2961 4.83683C38.2927 4.92291 38.2955 5.01302 38.2982 5.10438V5.10447C38.3077 5.41302 38.3175 5.73584 38.0911 5.9661C37.6534 6.40251 36.9869 6.48277 36.3981 6.44515C36.1536 6.43073 35.8319 6.34608 35.7768 6.06706ZM40.4434 1.90361C40.2749 1.90392 40.1063 1.90422 39.9377 1.90422C40.3825 2.83365 40.8372 3.75841 41.2919 4.68323C41.7185 5.55092 42.1451 6.41867 42.5637 7.29039C42.3579 7.74273 42.1343 8.18678 41.9106 8.63082C41.6741 9.10019 41.4377 9.56955 41.2225 10.0487C41.4036 10.0479 41.5849 10.0493 41.7662 10.0507C42.1692 10.0538 42.5724 10.0569 42.975 10.0361C44.2962 7.32863 45.6161 4.62113 46.9347 1.91237C46.3422 1.89733 45.7502 1.89983 45.1583 1.90987C44.5902 3.15702 44.0153 4.40167 43.4371 5.64381C43.2667 5.27574 43.0944 4.90848 42.9221 4.54124C42.6407 3.9413 42.3593 3.34142 42.0859 2.73817C42.0421 2.63995 41.9939 2.54368 41.9456 2.44744C41.8571 2.27088 41.7687 2.0944 41.7078 1.9061C41.2864 1.90207 40.8649 1.90284 40.4434 1.90361Z" fill="#010101"/>
</svg>
