<svg width="96" height="30" viewBox="0 0 96 30" fill="none" xmlns="http://www.w3.org/2000/svg" xmlns:xlink="http://www.w3.org/1999/xlink">
<path d="M0.101,20.37C0.101,18.935 0.076,17.731 0,16.657L2.629,16.657L2.753,18.502L2.826,18.502C3.422,17.527 4.512,16.375 6.545,16.375C8.132,16.375 9.371,17.299 9.891,18.681L9.942,18.681C10.364,17.99 10.858,17.478 11.428,17.118C12.098,16.632 12.867,16.375 13.858,16.375C15.866,16.375 17.897,17.783 17.897,21.778L17.897,29.126L14.923,29.126L14.923,22.239C14.923,20.166 14.23,18.935 12.768,18.935C11.725,18.935 10.956,19.704 10.636,20.601C10.561,20.907 10.486,21.292 10.486,21.648L10.486,29.126L7.511,29.126L7.511,21.905C7.511,20.166 6.843,18.935 5.43,18.935C4.289,18.935 3.522,19.858 3.249,20.727C3.124,21.036 3.074,21.394 3.074,21.751L3.074,29.126L0.101,29.126L0.101,20.37Z" clip-rule="evenodd" fill-rule="evenodd" fill="#FFFFFF"/>
<path d="M29.486,26.131C29.486,27.257 29.535,28.356 29.659,29.126L26.907,29.126L26.709,27.744L26.634,27.744C25.891,28.718 24.626,29.408 23.065,29.408C20.635,29.408 19.272,27.592 19.272,25.696C19.272,22.545 21.973,20.959 26.436,20.985L26.436,20.779C26.436,19.959 26.113,18.603 23.982,18.603C22.791,18.603 21.551,18.988 20.734,19.524L20.138,17.478C21.032,16.913 22.595,16.375 24.502,16.375C28.371,16.375 29.486,18.911 29.486,21.624L29.486,26.131ZM26.51,23.033C24.354,22.981 22.297,23.468 22.297,25.363C22.297,26.591 23.065,27.155 24.032,27.155C25.245,27.155 26.139,26.335 26.411,25.44C26.485,25.209 26.51,24.952 26.51,24.748L26.51,23.033Z" clip-rule="evenodd" fill-rule="evenodd" fill="#FFFFFF"/>
<path d="M31.594,20.37C31.594,18.935 31.566,17.731 31.494,16.657L34.169,16.657L34.319,18.526L34.392,18.526C34.913,17.555 36.227,16.375 38.234,16.375C40.342,16.375 42.523,17.783 42.523,21.727L42.523,29.126L39.475,29.126L39.475,22.086C39.475,20.292 38.83,18.935 37.169,18.935C35.954,18.935 35.112,19.831 34.789,20.779C34.691,21.061 34.665,21.446 34.665,21.802L34.665,29.126L31.594,29.126L31.594,20.37Z" clip-rule="evenodd" fill-rule="evenodd" fill="#FFFFFF"/>
<path d="M55.741,11.647L55.741,25.617C55.741,26.897 55.79,28.282 55.84,29.126L53.113,29.126L52.991,27.155L52.94,27.155C52.221,28.538 50.756,29.408 48.998,29.408C46.124,29.408 43.843,26.874 43.843,23.033C43.818,18.859 46.346,16.375 49.246,16.375C50.906,16.375 52.097,17.093 52.642,18.015L52.692,18.015L52.692,11.647L55.741,11.647ZM52.692,21.853C52.692,21.6 52.666,21.291 52.619,21.036C52.346,19.807 51.378,18.808 49.99,18.808C48.032,18.808 46.941,20.601 46.941,22.931C46.941,25.209 48.032,26.874 49.965,26.874C51.204,26.874 52.296,26.004 52.593,24.647C52.666,24.364 52.692,24.057 52.692,23.723L52.692,21.853Z" clip-rule="evenodd" fill-rule="evenodd" fill="#FFFFFF"/>
<path d="M57.896,29.126L60.972,29.126L60.972,16.658L57.896,16.658L57.896,29.126Z" clip-rule="evenodd" fill-rule="evenodd" fill="#FFFFFF"/>
<path d="M63.127,20.677C63.127,18.988 63.101,17.783 63.027,16.657L65.68,16.657L65.777,19.037L65.88,19.037C66.474,17.271 67.887,16.657 69.176,16.657C69.472,16.657 69.646,16.605 69.894,16.657L69.894,19.423C69.646,19.372 69.374,19.321 69.002,19.321C67.54,19.321 66.547,20.293 66.275,21.7C66.227,21.982 66.177,22.316 66.177,22.676L66.177,29.126L63.127,29.126L63.127,20.677Z" clip-rule="evenodd" fill-rule="evenodd" fill="#FFFFFF"/>
<path d="M71.308,29.126L74.38,29.126L74.38,16.658L71.308,16.658L71.308,29.126Z" clip-rule="evenodd" fill-rule="evenodd" fill="#FFFFFF"/>
<path d="M70.581,1.583C68.736,2.687 64.383,5.266 62.758,6.226L62.758,6.226C61.767,6.747 59.474,6.975 58.177,5.168L58.177,5.168C58.153,5.135 56.451,2.938 56.382,2.856L56.382,2.856C56.333,2.797 55.232,1.111 52.78,1.059L52.78,1.059C52.418,1.05 50.617,1.04 48.859,2.072L48.859,2.072C46.523,3.45 41.09,6.659 41.09,6.659L41.09,6.659C41.088,6.659 41.088,6.661 41.086,6.661L41.086,6.661C38.852,7.981 37.112,9.009 37.112,9.009L37.112,9.009L39.168,11.617C40.13,12.851 42.299,13.805 44.18,12.69L44.18,12.69C44.18,12.69 51.129,8.533 51.155,8.521L51.155,8.521C54.16,6.818 56.48,6.818 58.019,7.452L58.019,7.452C59.401,8.055 60.603,9.557 60.603,9.557L60.603,9.557C60.603,9.557 62.173,11.568 62.451,11.92L62.451,11.92C63.344,13.056 64.824,12.61 64.824,12.61L64.824,12.61C64.824,12.61 65.372,12.545 66.198,12.039L66.198,12.039C66.198,12.039 72.93,8.007 72.934,8.006L72.934,8.006C75.072,6.71 77.032,6.469 78.034,6.564L78.034,6.564C81.172,6.858 82.147,9.123 83.508,10.703L83.508,10.703C84.309,11.632 85.032,12.16 86.138,12.133L86.138,12.133C86.865,12.117 87.685,11.662 87.806,11.58L87.806,11.58L95.867,6.775C95.867,6.775 95.04,5.488 93.346,3.486L93.346,3.486C91.83,1.7 90.22,2.508 88.936,3.165L88.936,3.165C88.397,3.44 86.443,4.783 84.506,5.72L84.506,5.72C83.127,6.387 81.145,6.186 80.059,4.8L80.059,4.8C79.994,4.716 78.237,2.519 78.052,2.248L78.052,2.248C77.343,1.331 75.96,0.509 74.186,0.509L74.186,0.509C73.108,0.509 71.885,0.813 70.581,1.583Z" clip-rule="evenodd" fill-rule="evenodd" fill="url(#pf_0_i_1402_1352;848_639)"/>
<defs>
<linearGradient id="pf_0_i_1402_1352;848_639" x1="37.112" y1="13.183" x2="95.867" y2="13.183" gradientUnits="userSpaceOnUse">
<stop stop-color="#FFCA06"/>
<stop offset="0.331" stop-color="#FBAA18"/>
<stop offset="0.695" stop-color="#FFC907"/>
<stop offset="1" stop-color="#FAA619"/>
</linearGradient>
</defs>
</svg>
