<svg width="64" height="42" viewBox="0 0 64 42" fill="none" xmlns="http://www.w3.org/2000/svg" xmlns:xlink="http://www.w3.org/1999/xlink">
<rect  x="23.452" y="6.439" width="16.805" height="27.069" fill="#FF5F00"/>
<path d="M25.183,19.976C25.178,14.695 27.637,9.705 31.849,6.444C24.693,0.898 14.416,1.706 8.241,8.3C2.066,14.895 2.066,25.062 8.241,31.657C14.416,38.252 24.693,39.06 31.849,33.513C27.635,30.251 25.177,25.259 25.183,19.976Z" clip-rule="evenodd" fill-rule="evenodd" fill="#EB001B"/>
<path d="M58.458,30.207L58.458,31.332L58.341,31.332L58.341,30.207L58.09,30.207L58.09,29.975L58.725,29.975L58.725,30.207L58.458,30.207ZM59.69,29.975L59.69,31.332L59.557,31.332L59.557,30.304L59.349,31.187L59.205,31.187L58.997,30.304L58.997,31.332L58.858,31.332L58.858,29.975L59.05,29.975L59.274,30.944L59.498,29.975L59.69,29.975Z" clip-rule="evenodd" fill-rule="evenodd" fill="#F79E1B"/>
<path d="M60.092,19.976C60.092,26.567 56.276,32.579 50.265,35.459C44.254,38.339 37.103,37.581 31.85,33.508C36.06,30.245 38.519,25.255 38.519,19.974C38.519,14.692 36.06,9.703 31.85,6.439C37.103,2.366 44.254,1.608 50.265,4.489C56.276,7.369 60.092,13.381 60.092,19.971L60.092,19.976Z" clip-rule="evenodd" fill-rule="evenodd" fill="#F79E1B"/>
</svg>
