<svg width="92" height="28" viewBox="0 0 92 28" fill="none" xmlns="http://www.w3.org/2000/svg" xmlns:xlink="http://www.w3.org/1999/xlink">
<path d="M13.036,19.666C13.036,18.592 13.048,15.722 13.02,15.368C13.044,11.098 9.751,8.086 7.67,8.32C6.23,8.438 5.023,8.992 4.375,10.584C3.774,12.068 4.311,14.041 6.308,14.505C8.443,15.002 9.69,15.416 10.592,16C11.697,16.714 12.6,18.08 12.624,19.667Z" clip-rule="evenodd" fill-rule="evenodd" fill="#FFFFFF"/>
<path d="M12.143,19.668C12.15,18.292 11.335,17.075 10.27,16.421C9.326,15.843 8.057,15.463 6.011,14.974C5.379,14.821 4.717,14.483 4.512,14.051C3.971,14.565 3.872,15.722 3.967,16.399C4.078,17.181 5.048,18.471 6.509,18.521C7.401,18.555 8.528,18.34 9.069,18.232C10.002,18.042 11.478,18.593 11.713,19.666Z" clip-rule="evenodd" fill-rule="evenodd" fill="#FFFFFF"/>
<path d="M13.79,1.665C11.313,1.665 9.175,3.205 9.182,5.868C9.19,8.109 11.101,9.308 11.783,10.164C12.814,11.455 13.371,12.983 13.429,15.321C13.474,17.181 13.472,19.018 13.482,19.669L14.029,19.669C14.019,18.988 13.995,17.038 14.023,15.263C14.06,12.925 14.638,11.455 15.669,10.164C16.357,9.308 18.266,8.109 18.27,5.868C18.28,3.205 16.142,1.665 13.668,1.665Z" clip-rule="evenodd" fill-rule="evenodd" fill="#FFFFFF"/>
<path d="M14.419,19.666C14.419,18.592 14.406,15.722 14.433,15.368C14.409,11.098 17.701,8.086 19.783,8.32C21.223,8.438 22.429,8.992 23.078,10.584C23.678,12.068 23.138,14.041 21.144,14.505C19.008,15.002 17.763,15.416 16.859,16C15.754,16.714 14.915,18.08 14.889,19.667Z" clip-rule="evenodd" fill-rule="evenodd" fill="#FFFFFF"/>
<path d="M15.31,19.668C15.302,18.292 16.117,17.075 17.179,16.421C18.128,15.843 19.397,15.463 21.442,14.974C22.075,14.821 22.736,14.483 22.937,14.051C23.482,14.565 23.58,15.722 23.485,16.399C23.372,17.181 22.404,18.471 20.946,18.521C20.055,18.555 18.921,18.34 18.383,18.232C17.453,18.042 15.973,18.593 15.737,19.666Z" clip-rule="evenodd" fill-rule="evenodd" fill="#FFFFFF"/>
<path d="M16.074,24.111L15.757,21.931L16.522,21.822C16.708,21.798 16.935,21.829 17.026,21.939C17.126,22.053 17.156,22.148 17.176,22.299C17.205,22.486 17.148,22.701 16.925,22.808L16.925,22.815C17.174,22.815 17.324,22.983 17.367,23.267C17.374,23.327 17.393,23.472 17.374,23.593C17.323,23.881 17.141,23.973 16.834,24.014L16.074,24.111ZM16.566,23.721C16.657,23.709 16.749,23.704 16.821,23.661C16.931,23.593 16.921,23.448 16.906,23.34C16.867,23.104 16.802,23.014 16.536,23.051L16.368,23.075L16.475,23.733L16.566,23.721ZM16.406,22.714C16.508,22.698 16.645,22.687 16.702,22.596C16.732,22.536 16.77,22.487 16.745,22.353C16.714,22.194 16.658,22.095 16.443,22.133L16.242,22.163L16.322,22.722L16.406,22.714Z" clip-rule="evenodd" fill-rule="evenodd" fill="#FFFFFF"/>
<path d="M19.387,22.8C19.393,22.841 19.4,22.886 19.403,22.926C19.465,23.324 19.387,23.653 18.913,23.744C18.212,23.871 18.078,23.46 17.955,22.886L17.889,22.575C17.793,22.025 17.751,21.609 18.434,21.48C18.82,21.414 19.074,21.559 19.18,21.92C19.196,21.974 19.217,22.027 19.225,22.082L18.806,22.163C18.757,22.027 18.693,21.785 18.504,21.805C18.166,21.844 18.278,22.241 18.313,22.407L18.438,23.003C18.476,23.184 18.552,23.472 18.845,23.416C19.082,23.371 18.978,23.022 18.957,22.879Z" clip-rule="evenodd" fill-rule="evenodd" fill="#FFFFFF"/>
<path d="M20.06,23.46L19.915,21.204L20.478,21.042L21.659,23.004L21.216,23.129L20.936,22.63L20.443,22.77L20.507,23.337L20.06,23.46ZM20.402,22.405L20.758,22.308L20.285,21.396L20.402,22.405Z" clip-rule="evenodd" fill-rule="evenodd" fill="#FFFFFF"/>
<path d="M6.15,21.754C6.326,21.223 6.484,20.831 7.157,21.005C7.517,21.1 7.74,21.249 7.729,21.643C7.727,21.731 7.697,21.82 7.677,21.907L7.258,21.798C7.313,21.58 7.348,21.408 7.063,21.325C6.734,21.24 6.654,21.616 6.609,21.778L6.439,22.369C6.385,22.545 6.32,22.835 6.609,22.91C6.848,22.971 6.993,22.75 7.079,22.427L6.787,22.353L6.888,22.011L7.577,22.22L7.25,23.36L6.933,23.279L7.004,23.038L6.995,23.038C6.849,23.235 6.671,23.255 6.515,23.227C5.827,23.052 5.899,22.627 6.063,22.061Z" clip-rule="evenodd" fill-rule="evenodd" fill="#FFFFFF"/>
<path d="M8.713,22.717L8.506,23.644L8.039,23.549L8.537,21.384L9.332,21.553C9.798,21.648 9.939,21.843 9.873,22.246C9.835,22.477 9.714,22.726 9.419,22.705L9.416,22.702C9.666,22.784 9.687,22.903 9.643,23.107C9.625,23.195 9.495,23.724 9.584,23.809L9.587,23.874L9.104,23.755C9.084,23.609 9.153,23.345 9.18,23.199C9.207,23.07 9.25,22.888 9.111,22.819C9.003,22.764 8.962,22.767 8.839,22.741L8.713,22.717ZM8.793,22.381L9.107,22.461C9.298,22.487 9.404,22.394 9.442,22.176C9.476,21.977 9.432,21.899 9.26,21.861L8.923,21.796L8.793,22.381Z" clip-rule="evenodd" fill-rule="evenodd" fill="#FFFFFF"/>
<path d="M11.708,21.867L12.169,21.918L11.97,23.44C11.874,23.923 11.676,24.133 11.113,24.068C10.54,23.999 10.404,23.753 10.438,23.267L10.639,21.746L11.104,21.796L10.904,23.283C10.883,23.444 10.844,23.684 11.148,23.713C11.418,23.732 11.48,23.563 11.51,23.353Z" clip-rule="evenodd" fill-rule="evenodd" fill="#FFFFFF"/>
<path d="M12.678,24.151L12.817,21.975L13.704,22.011C14.123,22.03 14.233,22.353 14.22,22.661C14.208,22.848 14.146,23.057 13.973,23.171C13.831,23.267 13.648,23.29 13.479,23.282L13.19,23.267L13.132,24.179L12.678,24.151ZM13.203,22.935L13.438,22.947C13.629,22.954 13.755,22.883 13.772,22.619C13.781,22.365 13.679,22.322 13.432,22.312L13.246,22.306L13.203,22.935Z" clip-rule="evenodd" fill-rule="evenodd" fill="#FFFFFF"/>
<path d="M75.238,3.768L71.713,9.801C70.382,8.782 68.757,8.032 66.684,8.032C61.778,8.032 59.785,11.479 59.785,13.908C59.785,15.71 61.037,18.37 65.403,18.37C67.235,18.37 69.84,17.168 70.589,16.621L67.103,23.62C65.441,23.932 64.895,24.126 63.488,24.167C55.675,24.387 52.518,19.862 52.52,15.239C52.525,9.127 58.29,1.694 67.846,1.694C68.431,1.694 69.147,1.885 69.76,2.097L70.379,1.351Z" clip-rule="evenodd" fill-rule="evenodd" fill="#FFFFFF"/>
<path d="M89.785,1.54L90.783,23.463L83.353,23.463L83.349,19.703L78.283,19.703L76.616,23.463L68.558,23.463L76.982,7.808L75.083,7.797L78.692,1.54L89.785,1.54ZM83.301,8.247L80.437,14.623L83.387,14.623L83.301,8.247Z" clip-rule="evenodd" fill-rule="evenodd" fill="#FFFFFF"/>
<path d="M47.83,1.541C51.509,1.56 53.588,3.443 53.588,6.162C53.588,8.669 51.395,10.888 48.988,12.036C51.466,12.895 51.681,15.003 51.681,16.494C51.681,20.097 47.846,23.464 42.86,23.464L31.988,23.464L36.229,8.027L34.487,8.018L38.048,1.541C38.048,1.541 44.838,1.521 47.83,1.541L47.83,1.541ZM44.22,10.429C44.981,10.429 46.325,10.248 46.661,8.859C47.029,7.352 45.768,7.311 45.163,7.311L43.002,7.303L42.248,10.429L44.22,10.429ZM41.164,14.303L40.169,17.907L42.714,17.907C43.715,17.907 45.08,17.438 45.415,16.265C45.745,15.09 44.791,14.303 43.793,14.303L41.164,14.303Z" clip-rule="evenodd" fill-rule="evenodd" fill="#FFFFFF"/>
<path d="M13.888,26.157C10.123,26.157 6.255,25.283 2.391,23.555L2.296,23.511L2.251,23.42C0.517,19.969 -0.4,16.196 -0.4,12.504C-0.4,8.818 0.479,5.206 2.214,1.76L2.262,1.669L2.359,1.623C5.933,0.027 9.777,-0.781 13.79,-0.781C17.527,-0.781 21.519,0.119 25.332,1.826L25.429,1.867L25.475,1.96C27.241,5.474 28.173,9.246 28.173,12.877C28.173,16.494 27.278,20.109 25.509,23.621L25.463,23.713L25.365,23.755C21.845,25.326 17.876,26.157 13.888,26.157M2.749,23.081C6.502,24.746 10.245,25.586 13.888,25.586C17.75,25.586 21.591,24.79 25.011,23.282C26.709,19.879 27.57,16.377 27.57,12.877C27.57,9.363 26.672,5.708 24.972,2.297C21.272,0.658 17.408,-0.212 13.79,-0.212C9.905,-0.212 6.182,0.565 2.716,2.097C1.052,5.437 0.206,8.936 0.206,12.504C0.206,16.079 1.085,19.736 2.749,23.081Z" clip-rule="evenodd" fill-rule="evenodd" fill="#FFFFFF"/>
</svg>
