<svg width="80" height="48" viewBox="0 0 80 48" fill="none" xmlns="http://www.w3.org/2000/svg" xmlns:xlink="http://www.w3.org/1999/xlink">
<path d="M46.891,35.576L44.427,40.428L41.963,35.576L39.314,35.576L39.314,46.574L42.01,46.574L42.01,41.076C42.01,41.076 43.334,43.395 43.532,43.741C43.73,44.087 44.069,44.267 44.427,44.267C44.785,44.267 45.124,44.087 45.322,43.741C45.521,43.395 46.844,41.076 46.844,41.076L46.844,46.574L49.541,46.574L49.541,35.576L46.891,35.576Z" clip-rule="evenodd" fill-rule="evenodd" fill="#595A59"/>
<path d="M51.802,46.573L51.802,35.575L59.26,35.575L59.26,37.985L54.498,37.985L54.498,39.822L58.566,39.822L58.566,42.234L54.498,42.234L54.498,44.166L59.26,44.166L59.26,46.573L51.802,46.573Z" clip-rule="evenodd" fill-rule="evenodd" fill="#595A59"/>
<path d="M68.165,45.525C67.224,46.497 66.177,46.758 64.976,46.758C63.697,46.758 62.725,46.329 61.925,45.525C60.769,44.366 60.815,42.695 60.815,41.044C60.815,39.392 60.769,37.736 61.925,36.575C62.725,35.773 63.653,35.342 64.976,35.342C67.794,35.342 68.997,37.178 69.257,38.986L66.548,38.986C66.33,38.151 65.899,37.749 64.976,37.749C64.483,37.749 64.112,37.967 63.913,38.23C63.665,38.554 63.512,39.036 63.512,41.044C63.512,43.051 63.665,43.563 63.913,43.887C64.112,44.153 64.483,44.351 64.976,44.351C65.546,44.351 65.93,44.182 66.177,43.918C66.485,43.609 66.594,43.06 66.594,42.643L66.594,42.488L64.976,42.488L64.976,40.23L69.274,40.23L69.274,41.76C69.274,43.54 68.997,44.677 68.165,45.525Z" clip-rule="evenodd" fill-rule="evenodd" fill="#595A59"/>
<path d="M73.858,42.735L74.866,39.55L75.875,42.735L73.858,42.735ZM75.906,35.575L73.827,35.575L69.837,46.573L72.609,46.573L73.148,44.935L76.584,44.935L77.123,46.573L79.896,46.573L75.906,35.575Z" clip-rule="evenodd" fill-rule="evenodd" fill="#595A59"/>
<path d="M4.291,41.491L1.301,41.491L1.301,45.523L4.291,45.523C5.647,45.523 6.494,44.735 6.494,43.499C6.494,42.263 5.647,41.491 4.291,41.491M4.168,36.624L1.301,36.624L1.301,40.44L4.168,40.44C5.385,40.44 6.325,39.838 6.325,38.524C6.325,37.211 5.385,36.624 4.168,36.624M4.399,46.574L0.13,46.574L0.13,35.573L4.26,35.573C6.171,35.573 7.496,36.67 7.496,38.509C7.496,39.668 6.803,40.579 5.878,40.919C6.926,41.305 7.666,42.217 7.666,43.53C7.666,45.523 6.34,46.574 4.399,46.574Z" clip-rule="evenodd" fill-rule="evenodd" fill="#595A59"/>
<path d="M12.951,37.257L10.886,43.066L14.985,43.066L12.951,37.257ZM16.202,46.574L15.324,44.086L10.531,44.086L9.653,46.574L8.405,46.574L12.442,35.573L13.428,35.573L17.45,46.574L16.202,46.574Z" clip-rule="evenodd" fill-rule="evenodd" fill="#595A59"/>
<path d="M25.601,46.574L19.777,37.752L19.777,46.574L18.605,46.574L18.605,35.573L19.715,35.573L25.54,44.364L25.54,35.573L26.711,35.573L26.711,46.574L25.601,46.574Z" clip-rule="evenodd" fill-rule="evenodd" fill="#595A59"/>
<path d="M36.095,46.574L32.751,40.718L30.439,43.499L30.439,46.574L29.268,46.574L29.268,35.573L30.439,35.573L30.439,41.892L35.555,35.573L36.989,35.573L33.537,39.822L37.482,46.574L36.095,46.574Z" clip-rule="evenodd" fill-rule="evenodd" fill="#595A59"/>
<path d="M44.051,0.039L40.013,9.129L46.407,23.525L56.837,0.039L44.051,0.039Z" clip-rule="evenodd" fill-rule="evenodd" fill="#949594"/>
<path d="M56.837,0.039L44.051,0.039L56.45,27.959L69.238,27.959L56.837,0.039Z" clip-rule="evenodd" fill-rule="evenodd" fill="#595A59"/>
<path d="M35.979,0.039L23.193,0.039L33.623,23.525L40.017,9.129L35.979,0.039Z" clip-rule="evenodd" fill-rule="evenodd" fill="#EC952D"/>
<path d="M23.193,0.039L10.792,27.959L23.58,27.959L35.979,0.039L23.193,0.039Z" clip-rule="evenodd" fill-rule="evenodd" fill="#F9C623"/>
<path d="M40.015,9.13L33.623,23.526C34.738,25.946 37.182,27.618 40.015,27.618C42.848,27.618 45.292,25.946 46.407,23.526L40.015,9.13Z" clip-rule="evenodd" fill-rule="evenodd" fill="#E3672A"/>
</svg>
