<svg width="96" height="30" viewBox="0 0 96 30" fill="none" xmlns="http://www.w3.org/2000/svg" xmlns:xlink="http://www.w3.org/1999/xlink">
<path d="M0.101,20.37C0.101,18.935 0.076,17.731 0,16.657L2.629,16.657L2.753,18.502L2.826,18.502C3.422,17.527 4.512,16.375 6.545,16.375C8.132,16.375 9.371,17.299 9.891,18.681L9.942,18.681C10.364,17.99 10.858,17.478 11.428,17.118C12.098,16.632 12.867,16.375 13.858,16.375C15.866,16.375 17.897,17.783 17.897,21.778L17.897,29.126L14.923,29.126L14.923,22.239C14.923,20.166 14.23,18.935 12.768,18.935C11.725,18.935 10.956,19.704 10.636,20.601C10.561,20.907 10.486,21.292 10.486,21.648L10.486,29.126L7.511,29.126L7.511,21.905C7.511,20.166 6.843,18.935 5.43,18.935C4.289,18.935 3.522,19.858 3.249,20.727C3.124,21.036 3.074,21.394 3.074,21.751L3.074,29.126L0.101,29.126L0.101,20.37Z" clip-rule="evenodd" fill-rule="evenodd" fill="#FFFFFF"/>
<path d="M29.485,26.131C29.485,27.257 29.534,28.356 29.658,29.126L26.906,29.126L26.708,27.744L26.633,27.744C25.89,28.718 24.626,29.408 23.064,29.408C20.634,29.408 19.271,27.592 19.271,25.696C19.271,22.545 21.972,20.959 26.435,20.985L26.435,20.779C26.435,19.959 26.112,18.603 23.981,18.603C22.79,18.603 21.55,18.988 20.733,19.524L20.137,17.478C21.031,16.913 22.594,16.375 24.501,16.375C28.37,16.375 29.485,18.911 29.485,21.624L29.485,26.131ZM26.509,23.033C24.353,22.981 22.296,23.468 22.296,25.363C22.296,26.591 23.064,27.155 24.031,27.155C25.244,27.155 26.138,26.335 26.41,25.44C26.484,25.209 26.509,24.952 26.509,24.748L26.509,23.033Z" clip-rule="evenodd" fill-rule="evenodd" fill="#FFFFFF"/>
<path d="M31.594,20.37C31.594,18.935 31.566,17.731 31.494,16.657L34.169,16.657L34.319,18.526L34.392,18.526C34.913,17.555 36.227,16.375 38.234,16.375C40.342,16.375 42.523,17.783 42.523,21.727L42.523,29.126L39.475,29.126L39.475,22.086C39.475,20.292 38.83,18.935 37.169,18.935C35.954,18.935 35.112,19.831 34.789,20.779C34.691,21.061 34.665,21.446 34.665,21.802L34.665,29.126L31.594,29.126L31.594,20.37Z" clip-rule="evenodd" fill-rule="evenodd" fill="#FFFFFF"/>
<path d="M55.742,11.647L55.742,25.617C55.742,26.897 55.791,28.282 55.841,29.126L53.114,29.126L52.992,27.155L52.941,27.155C52.222,28.538 50.757,29.408 48.999,29.408C46.125,29.408 43.844,26.874 43.844,23.033C43.819,18.859 46.347,16.375 49.247,16.375C50.907,16.375 52.098,17.093 52.643,18.015L52.693,18.015L52.693,11.647L55.742,11.647ZM52.693,21.853C52.693,21.6 52.667,21.291 52.62,21.036C52.347,19.807 51.379,18.808 49.991,18.808C48.033,18.808 46.942,20.601 46.942,22.931C46.942,25.209 48.033,26.874 49.966,26.874C51.205,26.874 52.296,26.004 52.594,24.647C52.667,24.364 52.693,24.057 52.693,23.723L52.693,21.853Z" clip-rule="evenodd" fill-rule="evenodd" fill="#FFFFFF"/>
<path d="M57.896,29.126L60.973,29.126L60.973,16.658L57.896,16.658L57.896,29.126Z" clip-rule="evenodd" fill-rule="evenodd" fill="#FFFFFF"/>
<path d="M63.127,20.677C63.127,18.988 63.101,17.783 63.027,16.657L65.68,16.657L65.777,19.037L65.88,19.037C66.474,17.271 67.887,16.657 69.176,16.657C69.472,16.657 69.646,16.605 69.894,16.657L69.894,19.423C69.646,19.372 69.374,19.321 69.002,19.321C67.54,19.321 66.547,20.293 66.275,21.7C66.227,21.982 66.177,22.316 66.177,22.676L66.177,29.126L63.127,29.126L63.127,20.677Z" clip-rule="evenodd" fill-rule="evenodd" fill="#FFFFFF"/>
<path d="M71.307,29.126L74.379,29.126L74.379,16.658L71.307,16.658L71.307,29.126Z" clip-rule="evenodd" fill-rule="evenodd" fill="#FFFFFF"/>
<path d="M70.58,1.583C68.735,2.687 64.382,5.266 62.757,6.226L62.757,6.226C61.766,6.747 59.473,6.975 58.176,5.168L58.176,5.168C58.152,5.135 56.45,2.938 56.381,2.856L56.381,2.856C56.332,2.797 55.231,1.111 52.779,1.059L52.779,1.059C52.417,1.05 50.616,1.04 48.858,2.072L48.858,2.072C46.522,3.45 41.089,6.659 41.089,6.659L41.089,6.659C41.087,6.659 41.087,6.661 41.085,6.661L41.085,6.661C38.851,7.981 37.111,9.009 37.111,9.009L37.111,9.009L39.167,11.617C40.129,12.851 42.298,13.805 44.179,12.69L44.179,12.69C44.179,12.69 51.128,8.533 51.154,8.521L51.154,8.521C54.159,6.818 56.479,6.818 58.018,7.452L58.018,7.452C59.4,8.055 60.602,9.557 60.602,9.557L60.602,9.557C60.602,9.557 62.172,11.568 62.45,11.92L62.45,11.92C63.343,13.056 64.823,12.61 64.823,12.61L64.823,12.61C64.823,12.61 65.371,12.545 66.197,12.039L66.197,12.039C66.197,12.039 72.929,8.007 72.933,8.006L72.933,8.006C75.071,6.71 77.031,6.469 78.033,6.564L78.033,6.564C81.171,6.858 82.146,9.123 83.507,10.703L83.507,10.703C84.308,11.632 85.031,12.16 86.137,12.133L86.137,12.133C86.864,12.117 87.684,11.662 87.805,11.58L87.805,11.58L95.866,6.775C95.866,6.775 95.039,5.488 93.345,3.486L93.345,3.486C91.829,1.7 90.219,2.508 88.935,3.165L88.935,3.165C88.396,3.44 86.442,4.783 84.505,5.72L84.505,5.72C83.126,6.387 81.144,6.186 80.058,4.8L80.058,4.8C79.993,4.716 78.236,2.519 78.051,2.248L78.051,2.248C77.342,1.331 75.959,0.509 74.185,0.509L74.185,0.509C73.107,0.509 71.884,0.813 70.58,1.583Z" clip-rule="evenodd" fill-rule="evenodd" fill="url(#pf_0_i_1402_4333;848_639)"/>
<defs>
<linearGradient id="pf_0_i_1402_4333;848_639" x1="37.111" y1="13.183" x2="95.866" y2="13.183" gradientUnits="userSpaceOnUse">
<stop stop-color="#FFCA06"/>
<stop offset="0.331" stop-color="#FBAA18"/>
<stop offset="0.695" stop-color="#FFC907"/>
<stop offset="1" stop-color="#FAA619"/>
</linearGradient>
</defs>
</svg>
