<svg width="92" height="28" viewBox="0 0 92 28" fill="none" xmlns="http://www.w3.org/2000/svg" xmlns:xlink="http://www.w3.org/1999/xlink">
<path d="M13.035,19.666C13.035,18.592 13.048,15.723 13.02,15.369C13.044,11.099 9.75,8.086 7.669,8.321C6.23,8.439 5.023,8.992 4.375,10.584C3.774,12.068 4.311,14.042 6.308,14.505C8.443,15.002 9.689,15.416 10.592,16C11.697,16.715 12.6,18.08 12.624,19.668Z" clip-rule="evenodd" fill-rule="evenodd" fill="#FFFFFF"/>
<path d="M12.143,19.668C12.15,18.291 11.336,17.074 10.271,16.42C9.326,15.842 8.058,15.463 6.011,14.973C5.379,14.821 4.717,14.482 4.513,14.05C3.971,14.565 3.872,15.722 3.968,16.398C4.078,17.18 5.048,18.47 6.509,18.521C7.401,18.554 8.528,18.34 9.069,18.231C10.002,18.041 11.478,18.592 11.713,19.666Z" clip-rule="evenodd" fill-rule="evenodd" fill="#FFFFFF"/>
<path d="M13.79,1.666C11.313,1.666 9.174,3.205 9.182,5.869C9.189,8.109 11.1,9.308 11.783,10.165C12.813,11.456 13.371,12.983 13.429,15.321C13.474,17.182 13.472,19.019 13.482,19.67L14.028,19.67C14.019,18.989 13.994,17.038 14.022,15.264C14.059,12.925 14.637,11.456 15.668,10.165C16.356,9.308 18.266,8.109 18.27,5.869C18.279,3.205 16.141,1.666 13.667,1.666Z" clip-rule="evenodd" fill-rule="evenodd" fill="#FFFFFF"/>
<path d="M14.419,19.666C14.419,18.592 14.406,15.723 14.434,15.369C14.409,11.099 17.701,8.086 19.784,8.321C21.224,8.439 22.429,8.992 23.079,10.584C23.679,12.068 23.139,14.042 21.145,14.505C19.009,15.002 17.764,15.416 16.859,16C15.755,16.715 14.915,18.08 14.89,19.668Z" clip-rule="evenodd" fill-rule="evenodd" fill="#FFFFFF"/>
<path d="M15.311,19.668C15.303,18.291 16.117,17.074 17.179,16.42C18.128,15.842 19.398,15.463 21.442,14.973C22.076,14.821 22.737,14.482 22.938,14.05C23.482,14.565 23.581,15.722 23.485,16.398C23.372,17.18 22.405,18.47 20.947,18.521C20.055,18.554 18.922,18.34 18.383,18.231C17.454,18.041 15.974,18.592 15.738,19.666Z" clip-rule="evenodd" fill-rule="evenodd" fill="#FFFFFF"/>
<path d="M16.074,24.11L15.758,21.931L16.523,21.822C16.709,21.798 16.935,21.828 17.026,21.938C17.126,22.053 17.157,22.148 17.176,22.299C17.205,22.485 17.148,22.7 16.926,22.808L16.926,22.814C17.174,22.814 17.324,22.982 17.368,23.267C17.374,23.327 17.393,23.472 17.374,23.592C17.324,23.88 17.142,23.973 16.834,24.014L16.074,24.11ZM16.567,23.72C16.657,23.708 16.749,23.703 16.821,23.66C16.932,23.592 16.922,23.448 16.906,23.34C16.868,23.104 16.802,23.013 16.536,23.051L16.369,23.075L16.475,23.732L16.567,23.72ZM16.407,22.713C16.508,22.698 16.645,22.686 16.702,22.596C16.732,22.535 16.771,22.487 16.745,22.352C16.714,22.193 16.658,22.094 16.443,22.132L16.243,22.163L16.322,22.721L16.407,22.713Z" clip-rule="evenodd" fill-rule="evenodd" fill="#FFFFFF"/>
<path d="M19.388,22.8C19.394,22.841 19.401,22.886 19.404,22.926C19.465,23.324 19.388,23.653 18.914,23.744C18.213,23.871 18.079,23.46 17.956,22.886L17.89,22.575C17.793,22.025 17.752,21.609 18.435,21.48C18.82,21.414 19.075,21.559 19.181,21.92C19.197,21.974 19.218,22.027 19.225,22.082L18.806,22.163C18.758,22.027 18.694,21.785 18.505,21.805C18.167,21.844 18.278,22.241 18.313,22.407L18.439,23.003C18.477,23.184 18.552,23.472 18.845,23.416C19.083,23.371 18.979,23.022 18.958,22.879Z" clip-rule="evenodd" fill-rule="evenodd" fill="#FFFFFF"/>
<path d="M20.059,23.46L19.914,21.204L20.477,21.042L21.658,23.004L21.214,23.129L20.935,22.63L20.442,22.77L20.506,23.337L20.059,23.46ZM20.401,22.405L20.757,22.308L20.284,21.396L20.401,22.405Z" clip-rule="evenodd" fill-rule="evenodd" fill="#FFFFFF"/>
<path d="M6.151,21.754C6.327,21.223 6.485,20.831 7.157,21.005C7.517,21.1 7.74,21.249 7.73,21.643C7.728,21.731 7.697,21.82 7.677,21.907L7.259,21.798C7.314,21.58 7.348,21.408 7.064,21.325C6.735,21.24 6.655,21.616 6.61,21.778L6.439,22.369C6.385,22.545 6.32,22.835 6.61,22.91C6.849,22.971 6.994,22.75 7.08,22.427L6.787,22.353L6.889,22.011L7.577,22.22L7.25,23.36L6.934,23.279L7.005,23.038L6.996,23.038C6.85,23.235 6.672,23.255 6.516,23.227C5.828,23.052 5.899,22.627 6.064,22.061Z" clip-rule="evenodd" fill-rule="evenodd" fill="#FFFFFF"/>
<path d="M8.713,22.717L8.506,23.644L8.039,23.549L8.537,21.384L9.332,21.553C9.798,21.648 9.939,21.843 9.873,22.246C9.835,22.477 9.714,22.726 9.419,22.705L9.416,22.702C9.666,22.784 9.687,22.903 9.643,23.107C9.625,23.195 9.495,23.724 9.584,23.809L9.587,23.874L9.104,23.755C9.084,23.609 9.153,23.345 9.18,23.199C9.207,23.07 9.25,22.888 9.111,22.819C9.003,22.764 8.962,22.767 8.839,22.741L8.713,22.717ZM8.793,22.381L9.107,22.461C9.298,22.487 9.404,22.394 9.442,22.176C9.476,21.977 9.432,21.899 9.26,21.861L8.923,21.796L8.793,22.381Z" clip-rule="evenodd" fill-rule="evenodd" fill="#FFFFFF"/>
<path d="M11.708,21.867L12.17,21.918L11.971,23.44C11.874,23.923 11.676,24.133 11.113,24.068C10.54,23.999 10.404,23.753 10.439,23.267L10.639,21.746L11.104,21.796L10.905,23.283C10.883,23.444 10.844,23.684 11.148,23.713C11.419,23.732 11.48,23.563 11.511,23.353Z" clip-rule="evenodd" fill-rule="evenodd" fill="#FFFFFF"/>
<path d="M12.678,24.151L12.817,21.974L13.704,22.01C14.123,22.03 14.233,22.352 14.22,22.66C14.207,22.848 14.145,23.057 13.972,23.17C13.83,23.267 13.648,23.289 13.479,23.282L13.19,23.267L13.132,24.179L12.678,24.151ZM13.203,22.935L13.437,22.947C13.628,22.954 13.755,22.882 13.771,22.618C13.781,22.365 13.679,22.321 13.432,22.311L13.246,22.305L13.203,22.935Z" clip-rule="evenodd" fill-rule="evenodd" fill="#FFFFFF"/>
<path d="M75.238,3.769L71.712,9.801C70.382,8.782 68.757,8.033 66.684,8.033C61.778,8.033 59.785,11.48 59.785,13.908C59.785,15.711 61.037,18.37 65.402,18.37C67.235,18.37 69.839,17.169 70.589,16.622L67.103,23.62C65.441,23.933 64.894,24.126 63.488,24.167C55.674,24.387 52.517,19.863 52.52,15.24C52.525,9.128 58.289,1.695 67.845,1.695C68.431,1.695 69.147,1.886 69.759,2.097L70.378,1.351Z" clip-rule="evenodd" fill-rule="evenodd" fill="#FFFFFF"/>
<path d="M89.785,1.541L90.783,23.464L83.354,23.464L83.349,19.704L78.283,19.704L76.616,23.464L68.559,23.464L76.982,7.809L75.083,7.797L78.692,1.541L89.785,1.541ZM83.301,8.247L80.437,14.624L83.388,14.624L83.301,8.247Z" clip-rule="evenodd" fill-rule="evenodd" fill="#FFFFFF"/>
<path d="M47.83,1.54C51.509,1.56 53.588,3.442 53.588,6.162C53.588,8.669 51.396,10.888 48.989,12.035C51.467,12.894 51.681,15.002 51.681,16.494C51.681,20.097 47.846,23.463 42.861,23.463L31.988,23.463L36.229,8.027L34.487,8.017L38.048,1.54C38.048,1.54 44.838,1.521 47.83,1.54L47.83,1.54ZM44.221,10.429C44.982,10.429 46.325,10.247 46.661,8.859C47.03,7.351 45.769,7.311 45.164,7.311L43.002,7.302L42.248,10.429L44.221,10.429ZM41.165,14.303L40.169,17.906L42.715,17.906C43.716,17.906 45.081,17.437 45.415,16.265C45.745,15.089 44.791,14.303 43.794,14.303L41.165,14.303Z" clip-rule="evenodd" fill-rule="evenodd" fill="#FFFFFF"/>
<path d="M13.888,26.157C10.123,26.157 6.254,25.283 2.391,23.555L2.296,23.511L2.251,23.42C0.517,19.969 -0.4,16.196 -0.4,12.504C-0.4,8.818 0.479,5.206 2.214,1.76L2.262,1.669L2.359,1.623C5.933,0.027 9.777,-0.781 13.79,-0.781C17.527,-0.781 21.519,0.119 25.331,1.826L25.429,1.867L25.474,1.96C27.241,5.474 28.173,9.246 28.173,12.877C28.173,16.494 27.278,20.109 25.509,23.621L25.463,23.713L25.364,23.755C21.845,25.326 17.876,26.157 13.888,26.157M2.748,23.081C6.501,24.746 10.245,25.586 13.888,25.586C17.75,25.586 21.591,24.79 25.01,23.282C26.709,19.879 27.57,16.377 27.57,12.877C27.57,9.363 26.671,5.708 24.971,2.297C21.272,0.658 17.408,-0.212 13.79,-0.212C9.905,-0.212 6.182,0.565 2.716,2.097C1.052,5.437 0.205,8.936 0.205,12.504C0.205,16.079 1.085,19.736 2.748,23.081Z" clip-rule="evenodd" fill-rule="evenodd" fill="#FFFFFF"/>
</svg>
