<svg width="120" height="120" viewBox="0 0 120 120" fill="none" xmlns="http://www.w3.org/2000/svg" xmlns:xlink="http://www.w3.org/1999/xlink">
<path d="M81.2,10L38.8,10C25,10 20,15 20,29.05L20,90.95C20,105 25,110 38.8,110L81.15,110C95,110 100,105 100,90.95L100,29.05C100,15 95,10 81.2,10Z" fill="#E3E3E3"/>
<path d="M70,31.25L50,31.25C47.95,31.25 46.25,29.55 46.25,27.5C46.25,25.45 47.95,23.75 50,23.75L70,23.75C72.05,23.75 73.75,25.45 73.75,27.5C73.75,29.55 72.05,31.25 70,31.25Z" fill="#292D32"/>
<path d="M60,96.5C64.832,96.5 68.75,92.582 68.75,87.75C68.75,82.918 64.832,79 60,79C55.168,79 51.25,82.918 51.25,87.75C51.25,92.582 55.168,96.5 60,96.5Z" fill="#292D32"/>
</svg>
