<svg width="120" height="120" viewBox="0 0 120 120" fill="none" xmlns="http://www.w3.org/2000/svg" xmlns:xlink="http://www.w3.org/1999/xlink">
<path d="M109.85,32.05L109.85,64.55L10,64.55L10,32.05C10,19.9 19.9,10 32.05,10L87.8,10C99.95,10 109.85,19.9 109.85,32.05Z" fill="#E3E3E3"/>
<path d="M10,64.6L10,65.6C10,77.8 19.9,87.65 32.05,87.65L51.25,87.65C54,87.65 56.25,89.9 56.25,92.65L56.25,97.5C56.25,100.25 54,102.5 51.25,102.5L39.15,102.5C37.1,102.5 35.4,104.2 35.4,106.25C35.4,108.3 37.05,110 39.15,110L80.9,110C82.95,110 84.65,108.3 84.65,106.25C84.65,104.2 82.95,102.5 80.9,102.5L68.8,102.5C66.05,102.5 63.8,100.25 63.8,97.5L63.8,92.65C63.8,89.9 66.05,87.65 68.8,87.65L87.85,87.65C100.05,87.65 109.9,77.75 109.9,65.6L109.9,64.6L10,64.6L10,64.6Z" fill="#292D32"/>
</svg>
