<svg width="42" height="30" viewBox="0 0 42 30" fill="none" xmlns="http://www.w3.org/2000/svg" xmlns:xlink="http://www.w3.org/1999/xlink">
<path d="M24.083,7.667L26.167,7.667C27.317,7.667 28.25,8.6 28.25,9.75L28.25,22.25C28.25,23.401 27.317,24.334 26.167,24.334L24.083,24.334C22.933,24.334 22,23.401 22,22.25L22,9.75C22,8.6 22.933,7.667 24.083,7.667Z" clip-rule="evenodd" fill-rule="evenodd" fill="#D1D1D6"/>
<path d="M14.708,11.833L16.792,11.833C17.942,11.833 18.875,12.766 18.875,13.917L18.875,22.25C18.875,23.401 17.942,24.333 16.792,24.333L14.708,24.333C13.558,24.333 12.625,23.401 12.625,22.25L12.625,13.917C12.625,12.766 13.558,11.833 14.708,11.833Z" clip-rule="evenodd" fill-rule="evenodd" fill="#D1D1D6"/>
<path d="M5.333,14.958L7.417,14.958C8.567,14.958 9.5,15.891 9.5,17.042L9.5,22.25C9.5,23.401 8.567,24.333 7.417,24.333L5.333,24.333C4.183,24.333 3.25,23.401 3.25,22.25L3.25,17.042C3.25,15.891 4.183,14.958 5.333,14.958Z" clip-rule="evenodd" fill-rule="evenodd" fill="#D1D1D6"/>
<path d="M33.458,3.5L35.542,3.5C36.692,3.5 37.625,4.433 37.625,5.583L37.625,22.25C37.625,23.401 36.692,24.333 35.542,24.333L33.458,24.333C32.308,24.333 31.375,23.401 31.375,22.25L31.375,5.583C31.375,4.433 32.308,3.5 33.458,3.5Z" clip-rule="evenodd" fill-rule="evenodd" fill="#3C3C43" fill-opacity="0.18"/>
<path d="M24.083,7.667L26.167,7.667C27.317,7.667 28.25,8.6 28.25,9.75L28.25,22.25C28.25,23.401 27.317,24.334 26.167,24.334L24.083,24.334C22.933,24.334 22,23.401 22,22.25L22,9.75C22,8.6 22.933,7.667 24.083,7.667Z" clip-rule="evenodd" fill-rule="evenodd" fill="#333333"/>
<path d="M14.708,11.833L16.792,11.833C17.942,11.833 18.875,12.766 18.875,13.917L18.875,22.25C18.875,23.401 17.942,24.333 16.792,24.333L14.708,24.333C13.558,24.333 12.625,23.401 12.625,22.25L12.625,13.917C12.625,12.766 13.558,11.833 14.708,11.833Z" clip-rule="evenodd" fill-rule="evenodd" fill="#333333"/>
<path d="M5.333,14.958L7.417,14.958C8.567,14.958 9.5,15.891 9.5,17.042L9.5,22.25C9.5,23.401 8.567,24.333 7.417,24.333L5.333,24.333C4.183,24.333 3.25,23.401 3.25,22.25L3.25,17.042C3.25,15.891 4.183,14.958 5.333,14.958Z" clip-rule="evenodd" fill-rule="evenodd" fill="#333333"/>
</svg>
