<svg width="26" height="28" viewBox="0 0 26 28" fill="none" xmlns="http://www.w3.org/2000/svg" xmlns:xlink="http://www.w3.org/1999/xlink">
<path d="M5.338,7.941C5.778,7.941 6.217,7.94 6.657,7.94C6.768,5.712 7.3,3.329 8.884,1.665C10.424,0.044 13.272,-0.042 14.867,1.543C16.565,3.192 17.208,5.643 17.328,7.94C18.104,7.944 18.88,7.942 19.657,7.94C20.801,7.938 21.946,7.935 23.09,7.949C23.612,7.921 24.127,8.301 24.194,8.829C24.247,9.321 24.205,9.814 24.163,10.308C24.144,10.529 24.125,10.751 24.115,10.973C23.784,15.421 23.46,19.872 23.136,24.32L23.123,24.509C23.041,25.51 22.677,26.558 21.865,27.198C21.336,27.621 20.649,27.776 19.983,27.758C17.129,27.755 14.275,27.755 11.422,27.756C8.886,27.757 6.35,27.757 3.814,27.755C2.89,27.786 1.954,27.335 1.474,26.532C0.939,25.706 0.883,24.72 0.829,23.76C0.818,23.57 0.808,23.381 0.794,23.194C0.657,21.345 0.522,19.496 0.388,17.647C0.194,14.987 0,12.326 -0.199,9.666C-0.201,9.633 -0.203,9.6 -0.205,9.566C-0.228,9.136 -0.255,8.659 0.055,8.323C0.362,7.95 0.876,7.944 1.322,7.938C1.341,7.938 1.361,7.937 1.38,7.937C2.7,7.942 4.019,7.942 5.338,7.941ZM12.641,1.861C11.427,1.55 10.133,2.19 9.446,3.195C8.481,4.574 8.187,6.291 8.065,7.936C10.684,7.944 13.303,7.944 15.92,7.936C15.776,6.448 15.497,4.934 14.759,3.618C14.3,2.804 13.575,2.079 12.641,1.861ZM11.185,11.365C9.846,11.592 8.674,12.686 8.466,14.044C8.326,14.954 8.741,15.878 9.426,16.469C10.226,17.207 11.274,17.538 12.293,17.86C12.41,17.897 12.526,17.934 12.641,17.971C13.605,18.316 14.624,18.794 15.169,19.707C15.608,20.438 15.505,21.438 14.931,22.066C14.31,22.754 13.361,23.048 12.462,23.11C11.108,23.157 9.797,22.649 8.693,21.891C8.446,21.67 8.24,21.899 8.066,22.092L8.066,22.092C8.026,22.137 7.987,22.18 7.95,22.215C8.721,23.106 9.869,23.563 10.992,23.821C12.403,24.124 13.997,23.996 15.187,23.123C16.317,22.296 16.632,20.662 16.113,19.403C15.69,18.446 14.756,17.844 13.825,17.45C13.424,17.273 12.995,17.132 12.564,16.99L12.564,16.99L12.564,16.99C11.498,16.64 10.421,16.285 9.714,15.37C9.015,14.485 9.482,13.175 10.355,12.601C11.402,11.869 12.785,12.026 13.917,12.459C14.106,12.519 14.284,12.609 14.463,12.699C14.722,12.829 14.981,12.959 15.27,12.999C15.608,12.87 15.649,12.387 15.329,12.215C14.14,11.397 12.597,11.116 11.185,11.365Z" clip-rule="evenodd" fill-rule="evenodd" fill="#FFFFFF"/>
</svg>
