<svg width="54" height="18" viewBox="0 0 54 18" fill="none" xmlns="http://www.w3.org/2000/svg" xmlns:xlink="http://www.w3.org/1999/xlink">
<path d="M8.246,0.32L8.026,0.32C6.198,0.359 4.397,1.104 3.07,2.385C1.513,3.852 0.62,5.99 0.6,8.145L0.6,8.346C0.637,10.456 1.505,12.545 3.017,13.996C4.355,15.313 6.19,16.08 8.053,16.112L8.268,16.112C10.785,16.083 13.207,14.648 14.516,12.467C15.636,10.66 15.98,8.386 15.483,6.313C15.066,4.524 14.015,2.895 12.558,1.806C11.321,0.865 9.789,0.349 8.246,0.32ZM4.828,6.736C5.539,6.948 6.297,6.819 6.989,6.592C7.37,6.464 7.745,6.318 8.121,6.171L8.121,6.171L8.121,6.171C8.728,5.935 9.334,5.698 9.967,5.539C10.812,5.337 11.763,5.5 12.44,6.071C12.574,6.202 12.574,6.392 12.574,6.571C12.574,6.616 12.574,6.659 12.576,6.702C12.568,7.28 12.571,7.858 12.574,8.436L12.574,8.437L12.574,8.437L12.574,8.437L12.574,8.437L12.574,8.437C12.577,9.289 12.581,10.141 12.553,10.992C12.451,10.948 12.349,10.901 12.247,10.854L12.247,10.854C11.829,10.661 11.408,10.466 10.937,10.457C9.955,10.402 9.047,10.734 8.138,11.066C7.398,11.337 6.657,11.608 5.873,11.671C5.163,11.721 4.42,11.55 3.844,11.114C3.726,10.948 3.732,10.74 3.737,10.536L3.737,10.536C3.74,10.453 3.742,10.371 3.736,10.292C3.747,9.775 3.742,9.256 3.737,8.738C3.73,7.902 3.722,7.066 3.78,6.233C3.91,6.292 4.035,6.362 4.159,6.432L4.159,6.432C4.374,6.553 4.589,6.673 4.828,6.736ZM19.741,4.253C19.352,4.255 18.963,4.258 18.574,4.253C18.573,5.583 18.573,6.912 18.573,8.242C18.573,9.572 18.573,10.902 18.573,12.232C19.006,12.233 19.439,12.233 19.873,12.233C20.306,12.233 20.739,12.233 21.172,12.233C21.802,12.234 22.439,12.111 23.003,11.814C24.501,11.066 25.369,9.268 25.082,7.6C24.844,5.864 23.355,4.389 21.624,4.271C20.997,4.245 20.369,4.249 19.741,4.253ZM20.211,9.863C20.214,8.565 20.218,7.267 20.206,5.969C20.374,5.974 20.543,5.971 20.713,5.968L20.713,5.968L20.713,5.968L20.713,5.968L20.713,5.968C21.083,5.962 21.453,5.955 21.816,6.035C22.719,6.246 23.415,7.103 23.479,8.039C23.575,8.971 23.043,9.933 22.198,10.314C21.741,10.534 21.237,10.523 20.739,10.513L20.739,10.513C20.561,10.509 20.384,10.505 20.21,10.512L20.211,9.863ZM27.992,7.48C28.045,5.75 29.575,4.195 31.295,4.254C32.982,4.236 34.462,5.757 34.53,7.454C34.547,8.429 34.544,9.404 34.542,10.379L34.542,10.379L34.542,10.38L34.542,10.38C34.54,10.996 34.538,11.613 34.542,12.23L34.54,12.23C33.994,12.231 33.449,12.232 32.904,12.23C32.901,11.944 32.901,11.659 32.901,11.373L32.901,11.373L32.901,11.373L32.901,11.373C32.902,11.088 32.902,10.802 32.899,10.517C32.256,10.521 31.613,10.52 30.971,10.52C30.521,10.519 30.071,10.519 29.621,10.52C29.62,10.733 29.62,10.946 29.621,11.159L29.621,11.159L29.621,11.159L29.621,11.159C29.623,11.519 29.624,11.878 29.614,12.238C29.251,12.229 28.888,12.23 28.526,12.231L28.526,12.231L28.526,12.231L28.526,12.231L28.526,12.231L28.526,12.231L28.526,12.231C28.344,12.231 28.163,12.232 27.982,12.231C27.984,11.655 27.983,11.08 27.981,10.504L27.981,10.503L27.981,10.503L27.981,10.503L27.981,10.503C27.979,9.495 27.976,8.487 27.992,7.48ZM30.04,6.541C29.594,7.033 29.607,7.695 29.619,8.33L29.619,8.33L29.619,8.33L29.619,8.33C29.623,8.492 29.626,8.652 29.621,8.806C30.058,8.807 30.495,8.806 30.932,8.806L30.932,8.806L30.932,8.806L30.932,8.806L30.933,8.806C31.589,8.806 32.244,8.805 32.899,8.807C32.895,8.653 32.899,8.494 32.902,8.334C32.916,7.713 32.93,7.066 32.51,6.576C31.924,5.792 30.648,5.774 30.04,6.541ZM37.407,7.498C37.456,5.975 38.625,4.561 40.109,4.305C41.213,4.089 42.397,4.531 43.116,5.407C43.673,6.031 43.957,6.875 43.957,7.713C43.959,8.716 43.958,9.718 43.957,10.721L43.957,10.725C43.957,11.227 43.957,11.729 43.957,12.231C43.771,12.232 43.585,12.231 43.4,12.231L43.4,12.231L43.4,12.231C43.041,12.23 42.683,12.228 42.325,12.24C42.313,11.387 42.315,10.533 42.317,9.679C42.319,9.023 42.32,8.366 42.315,7.71C42.324,7.1 42.004,6.493 41.48,6.191C40.937,5.859 40.201,5.909 39.703,6.307C39.272,6.636 39.031,7.182 39.038,7.726C39.036,8.585 39.036,9.443 39.037,10.301C39.037,10.944 39.037,11.587 39.036,12.231C38.837,12.23 38.637,12.231 38.437,12.231L38.437,12.231C38.088,12.232 37.739,12.232 37.39,12.227C37.401,11.467 37.399,10.707 37.397,9.947C37.395,9.13 37.392,8.314 37.407,7.498ZM47.347,5.8C47.979,4.796 49.147,4.149 50.328,4.263C51.662,4.347 52.846,5.382 53.215,6.676C53.352,7.113 53.358,7.569 53.365,8.025L53.365,8.025C53.368,8.285 53.372,8.546 53.4,8.803L53.4,12.222C52.981,12.234 52.562,12.232 52.143,12.231C52.003,12.23 51.863,12.23 51.724,12.23C51.723,12.046 51.723,11.862 51.724,11.678C51.724,11.289 51.725,10.9 51.716,10.512C51.052,10.522 50.388,10.521 49.724,10.519L49.724,10.519C49.297,10.518 48.87,10.517 48.443,10.52C48.443,10.805 48.443,11.09 48.443,11.375C48.443,11.66 48.443,11.945 48.442,12.231L46.803,12.231C46.803,11.496 46.803,10.761 46.803,10.026C46.803,9.291 46.803,8.556 46.802,7.822C46.795,7.114 46.961,6.395 47.347,5.8ZM48.854,6.553C48.416,7.042 48.429,7.699 48.442,8.33C48.445,8.491 48.448,8.651 48.443,8.806C49.172,8.807 49.901,8.807 50.63,8.806L51.723,8.806C51.718,8.648 51.721,8.485 51.725,8.32C51.738,7.702 51.751,7.06 51.33,6.573C50.738,5.788 49.457,5.778 48.854,6.553Z" clip-rule="evenodd" fill-rule="evenodd" fill="#FFFFFF"/>
</svg>
