<svg width="90" height="22" viewBox="0 0 90 22" fill="none" xmlns="http://www.w3.org/2000/svg" xmlns:xlink="http://www.w3.org/1999/xlink">
<path d="M0.986,6.861C1.804,7.641 2.848,8.016 3.892,8.389C4.943,8.766 5.993,9.142 6.81,9.933C7.552,10.559 7.635,11.702 7.213,12.533C6.667,13.462 5.518,13.815 4.5,13.857C2.817,13.863 1.357,12.919 0.018,12.008C-0.019,12.038 -0.058,12.07 -0.099,12.104C-0.532,12.455 -1.129,12.939 -0.579,13.465C1.612,15.475 5.379,16.309 7.834,14.311C9.588,12.901 9.514,10.049 7.819,8.624C7.003,7.772 5.926,7.399 4.85,7.026C3.953,6.715 3.055,6.404 2.307,5.816C1.069,4.961 1.642,2.803 3.052,2.485C4.485,2.005 5.961,2.533 7.249,3.168C8.113,3.652 8.668,2.123 7.89,1.728C6.213,0.615 3.904,0.271 2.045,1.123C-0.074,2.031 -0.792,5.287 0.986,6.861ZM10.342,13.685L10.343,13.836C10.348,14.274 10.352,14.717 10.44,15.148C10.766,15.564 11.577,15.614 11.847,15.115C12.072,14.316 12.026,13.448 11.98,12.582C11.909,11.255 11.839,9.932 12.746,8.87C13.755,7.531 16.35,7.638 16.902,9.339C17.084,10.342 17.057,11.362 17.03,12.382C17.005,13.303 16.98,14.224 17.11,15.133C17.549,15.751 18.787,15.469 18.647,14.635C18.662,13.032 18.674,11.429 18.662,9.826C18.677,7.894 16.807,6.249 14.91,6.32C13.833,6.217 12.865,6.739 11.968,7.261C11.968,6.654 11.974,6.046 11.981,5.437L11.981,5.437L11.981,5.437L11.981,5.437L11.981,5.437L11.981,5.437L11.981,5.437L11.981,5.437C11.996,4.125 12.011,2.813 11.948,1.503C11.968,1.007 11.577,0.553 11.051,0.684C10.422,0.627 10.348,1.36 10.351,1.823C10.346,3.537 10.348,5.25 10.35,6.963L10.35,6.964C10.353,9.204 10.355,11.444 10.342,13.685ZM61.85,15.783L61.852,15.783L61.853,15.783L61.853,15.783L61.854,15.783L61.854,15.783L61.854,15.783L61.855,15.783L61.855,15.783C62.187,15.78 62.519,15.776 62.851,15.771C63.007,14.775 63.182,13.783 63.358,12.792L63.358,12.792C63.46,12.212 63.563,11.632 63.661,11.052C63.919,11.048 64.176,11.047 64.434,11.046C65.259,11.043 66.084,11.04 66.903,10.927C69.171,10.58 71.156,8.366 70.782,6.012C70.578,4.551 69.183,3.53 67.767,3.465C66.912,3.433 66.057,3.439 65.203,3.445C64.484,3.451 63.766,3.456 63.047,3.438C62.624,5.774 62.21,8.11 61.796,10.447C61.48,12.23 61.164,14.012 60.845,15.795C61.18,15.791 61.515,15.787 61.85,15.783ZM64.398,6.969L64.399,6.966C64.497,6.422 64.594,5.88 64.694,5.338C65.038,5.351 65.385,5.34 65.734,5.33C66.488,5.307 67.246,5.284 67.968,5.501C69.117,6.012 68.954,7.692 68.135,8.44C67.324,9.241 66.209,9.198 65.126,9.156C64.742,9.141 64.361,9.126 64,9.149C64.137,8.423 64.268,7.696 64.398,6.97L64.398,6.969ZM21.233,13.904C20.051,12.515 19.74,10.387 20.675,8.784C21.304,7.656 22.444,6.881 23.67,6.525C25.97,5.854 28.573,7.407 29.253,9.666C29.579,10.945 29.44,12.391 28.668,13.489C27.107,15.953 23.061,16.169 21.233,13.904ZM27.638,11.898C28.496,9.838 26.27,7.54 24.171,8.131C22.093,8.401 20.962,11.156 22.408,12.735C23.744,14.593 26.941,14.059 27.638,11.898ZM31.847,6.478C31.295,6.246 30.725,6.905 30.829,7.445C30.808,9.339 30.811,11.232 30.815,13.125L30.815,13.126L30.815,13.126L30.815,13.126L30.815,13.126L30.815,13.126L30.815,13.127L30.815,13.127C30.819,14.903 30.823,16.678 30.805,18.455C30.813,18.589 30.813,18.726 30.812,18.866C30.811,19.295 30.809,19.736 31.058,20.099C31.521,20.286 32.429,20.358 32.435,19.657C32.516,18.464 32.496,17.267 32.476,16.071L32.476,16.071L32.476,16.071L32.476,16.071L32.476,16.071L32.476,16.071L32.476,16.07L32.476,16.07L32.476,16.07L32.476,16.069L32.476,16.069C32.467,15.512 32.458,14.956 32.459,14.4C34.629,16.104 38.294,15.783 39.687,13.248C41.108,11.01 39.986,7.781 37.552,6.804C35.929,5.958 33.958,6.433 32.583,7.54C32.527,7.436 32.487,7.308 32.446,7.177C32.343,6.848 32.235,6.503 31.847,6.478ZM34.37,8.324C35.78,7.73 37.618,8.196 38.324,9.621C39.268,11.058 38.342,13.073 36.81,13.64C35.276,14.373 33.299,13.447 32.788,11.85C32.212,10.488 33.085,8.897 34.37,8.324ZM49.467,14.715C47.71,15.807 45.27,15.956 43.498,14.807C41.091,13.008 41.183,8.823 43.634,7.107C45.573,5.724 48.764,6.383 49.722,8.642C50.055,9.458 50.271,10.414 49.951,11.269C49.676,11.461 49.34,11.47 49.015,11.478C48.929,11.48 48.844,11.483 48.761,11.488C48.132,11.491 47.504,11.488 46.875,11.485C45.692,11.48 44.508,11.474 43.326,11.509C43.376,11.633 43.424,11.763 43.472,11.894C43.724,12.575 43.993,13.302 44.703,13.614C46.009,14.225 47.511,13.86 48.787,13.346C49.544,12.922 50.212,14.338 49.467,14.715ZM47.318,8.324C46.585,8.021 45.742,8.015 44.985,8.226C44.33,8.409 43.993,9.013 43.679,9.575C43.62,9.68 43.563,9.783 43.504,9.882C45.16,9.909 46.819,9.906 48.479,9.882C48.421,9.773 48.366,9.659 48.31,9.544C48.076,9.058 47.832,8.552 47.318,8.324ZM53.189,14.638C54.92,15.982 57.481,15.831 59.313,14.765C60.126,14.347 59.405,12.797 58.583,13.382C57.378,13.881 55.971,14.172 54.721,13.67C53.927,13.36 53.62,12.556 53.336,11.814C53.296,11.71 53.256,11.607 53.216,11.506C54.432,11.474 55.649,11.48 56.865,11.486C57.43,11.489 57.994,11.492 58.559,11.491C58.653,11.485 58.75,11.483 58.848,11.482C59.221,11.475 59.609,11.468 59.901,11.212C60.233,9.971 59.791,8.609 58.992,7.638C57.544,6.154 54.967,5.952 53.335,7.258C51.171,9.019 51.073,12.797 53.189,14.638ZM53.418,9.888C53.83,8.873 54.679,7.935 55.885,8.084C57.084,7.926 58.063,8.766 58.369,9.885C56.719,9.906 55.068,9.903 53.418,9.888ZM76.016,8.716C74.784,7.905 73.264,8.582 72.255,9.431L71.07,8.389C72.059,7.52 73.246,6.807 74.594,6.724C75.748,6.656 77.108,6.772 77.918,7.707C78.524,8.336 78.622,9.289 78.482,10.117C78.258,11.533 78,12.943 77.741,14.354C77.653,14.832 77.565,15.311 77.479,15.789L77.478,15.789C76.837,15.786 76.196,15.783 75.558,15.783L75.784,14.75C74.546,15.994 72.483,16.585 70.928,15.582C69.462,14.596 69.779,12.337 70.996,11.28C72.495,9.873 74.76,9.98 76.603,10.524C76.582,10.379 76.575,10.221 76.568,10.061C76.543,9.54 76.517,8.986 76.016,8.716ZM76.324,12.097C75.17,11.634 73.742,11.319 72.632,12.058C71.878,12.536 71.593,13.845 72.534,14.29C74.169,15.003 75.858,13.64 76.324,12.097ZM80.228,9.653C79.997,8.771 79.765,7.889 79.53,7.009L81.7,7.009C81.927,7.917 82.144,8.828 82.361,9.739C82.613,10.802 82.866,11.865 83.136,12.925C83.947,11.691 84.682,10.414 85.418,9.136C85.828,8.425 86.237,7.713 86.66,7.009C87.369,7.009 88.079,7.012 88.791,7.015L88.8,7.015C87.857,8.538 86.921,10.066 85.984,11.593C84.358,14.244 82.733,16.895 81.074,19.526C80.624,19.52 80.175,19.517 79.726,19.514C79.501,19.512 79.277,19.511 79.052,19.509C79.357,19.024 79.666,18.541 79.975,18.059C80.57,17.128 81.165,16.198 81.735,15.252C81.211,13.393 80.72,11.522 80.228,9.653Z" clip-rule="evenodd" fill-rule="evenodd" fill="#FFFFFF"/>
</svg>
