<svg width="90" height="26" viewBox="0 0 90 26" fill="none" xmlns="http://www.w3.org/2000/svg" xmlns:xlink="http://www.w3.org/1999/xlink">
<path d="M12.175,-0.8L11.802,-0.8C8.7,-0.734 5.644,0.507 3.391,2.642C0.75,5.088 -0.766,8.651 -0.8,12.243L-0.8,12.577C-0.736,16.094 0.736,19.575 3.301,21.994C5.573,24.189 8.687,25.468 11.847,25.52L12.213,25.52C16.484,25.472 20.594,23.08 22.815,19.446C24.716,16.433 25.3,12.644 24.456,9.189C23.749,6.208 21.964,3.492 19.493,1.677C17.393,0.109 14.794,-0.751 12.175,-0.8ZM6.376,9.894C7.582,10.247 8.868,10.032 10.042,9.654C10.689,9.44 11.326,9.196 11.963,8.953L11.963,8.953L11.963,8.953L11.963,8.953L11.963,8.953C12.992,8.558 14.022,8.164 15.095,7.899C16.53,7.563 18.143,7.834 19.293,8.786C19.52,9.004 19.52,9.32 19.52,9.619C19.519,9.693 19.519,9.766 19.523,9.836C19.51,10.8 19.514,11.764 19.519,12.728L19.519,12.728L19.519,12.728L19.519,12.728L19.519,12.728L19.519,12.728C19.526,14.149 19.532,15.569 19.483,16.988C19.31,16.914 19.138,16.836 18.965,16.757L18.965,16.757L18.965,16.757C18.255,16.435 17.54,16.11 16.741,16.095C15.075,16.004 13.535,16.557 11.991,17.111C10.736,17.562 9.478,18.013 8.149,18.119C6.943,18.203 5.683,17.917 4.705,17.191C4.505,16.914 4.515,16.567 4.524,16.227C4.528,16.089 4.532,15.952 4.522,15.821C4.541,14.959 4.532,14.094 4.524,13.23C4.511,11.837 4.498,10.443 4.597,9.056C4.817,9.154 5.028,9.271 5.24,9.387L5.24,9.387L5.24,9.387L5.24,9.387L5.24,9.387C5.605,9.588 5.969,9.789 6.376,9.894ZM31.682,5.755C31.022,5.76 30.361,5.764 29.702,5.756C29.701,7.972 29.701,10.188 29.701,12.404C29.701,14.621 29.701,16.837 29.7,19.054C30.435,19.055 31.17,19.055 31.905,19.055C32.64,19.055 33.375,19.055 34.111,19.056C35.18,19.058 36.261,18.852 37.217,18.358C39.759,17.111 41.232,14.113 40.745,11.334C40.342,8.44 37.814,5.982 34.878,5.786C33.813,5.742 32.747,5.749 31.682,5.755ZM32.48,15.105C32.485,12.942 32.491,10.779 32.472,8.616C32.757,8.624 33.044,8.619 33.331,8.614L33.331,8.614C33.959,8.604 34.588,8.593 35.203,8.726C36.735,9.077 37.917,10.505 38.025,12.065C38.187,13.618 37.286,15.222 35.852,15.856C35.075,16.224 34.221,16.206 33.376,16.188C33.074,16.182 32.773,16.176 32.477,16.187L32.48,15.105ZM45.684,11.134C45.774,8.25 48.37,5.659 51.29,5.758C54.151,5.728 56.664,8.263 56.778,11.091C56.807,12.715 56.803,14.341 56.798,15.966L56.798,15.966L56.798,15.966L56.798,15.966L56.798,15.966C56.795,16.994 56.792,18.023 56.798,19.05L56.796,19.05C55.869,19.052 54.944,19.054 54.019,19.05C54.014,18.575 54.014,18.099 54.015,17.623L54.015,17.622L54.015,17.622L54.015,17.622L54.015,17.622C54.015,17.147 54.016,16.671 54.011,16.196C52.92,16.202 51.829,16.201 50.738,16.2C49.975,16.199 49.212,16.198 48.448,16.2C48.446,16.554 48.447,16.909 48.448,17.264L48.448,17.264L48.448,17.264L48.448,17.265C48.451,17.865 48.453,18.464 48.435,19.063C47.819,19.048 47.204,19.05 46.589,19.052L46.589,19.052L46.589,19.052L46.589,19.052C46.282,19.053 45.974,19.053 45.667,19.052C45.671,18.092 45.668,17.132 45.665,16.172C45.661,14.492 45.657,12.812 45.684,11.134ZM49.16,9.57C48.402,10.388 48.424,11.493 48.445,12.551L48.445,12.551L48.445,12.551L48.445,12.552C48.451,12.82 48.456,13.086 48.448,13.344C49.19,13.345 49.932,13.344 50.673,13.344L50.673,13.344L50.673,13.344L50.673,13.344L50.674,13.344C51.787,13.343 52.899,13.342 54.011,13.346C54.004,13.089 54.01,12.825 54.016,12.557L54.016,12.557L54.016,12.557L54.016,12.557C54.039,11.522 54.064,10.445 53.35,9.627C52.355,8.321 50.19,8.291 49.16,9.57ZM61.661,11.164C61.743,8.625 63.727,6.269 66.245,5.842C68.119,5.482 70.128,6.219 71.349,7.679C72.293,8.718 72.775,10.126 72.775,11.522C72.779,13.196 72.777,14.869 72.776,16.542L72.776,16.542L72.776,16.572C72.775,17.399 72.775,18.225 72.775,19.052C72.46,19.054 72.145,19.053 71.83,19.052L71.83,19.052L71.83,19.052C71.222,19.05 70.614,19.047 70.007,19.067C69.987,17.645 69.99,16.222 69.993,14.799C69.995,13.705 69.998,12.61 69.99,11.516C70.005,10.501 69.462,9.489 68.573,8.985C67.651,8.433 66.402,8.515 65.556,9.179C64.825,9.726 64.416,10.637 64.429,11.544C64.425,12.973 64.425,14.401 64.426,15.828L64.426,15.835C64.426,16.907 64.427,17.98 64.425,19.052C64.087,19.051 63.749,19.051 63.41,19.052L63.409,19.052C62.816,19.053 62.224,19.054 61.631,19.045C61.651,17.778 61.647,16.512 61.643,15.245L61.643,15.244C61.64,13.884 61.636,12.524 61.661,11.164ZM78.528,8.334C79.601,6.661 81.584,5.582 83.587,5.773C85.851,5.913 87.859,7.638 88.487,9.794C88.718,10.521 88.729,11.282 88.74,12.042L88.74,12.042C88.746,12.476 88.753,12.91 88.8,13.338L88.8,19.037C88.089,19.057 87.378,19.054 86.667,19.052L86.667,19.052L86.665,19.052C86.428,19.051 86.192,19.05 85.955,19.05C85.954,18.744 85.955,18.437 85.955,18.13C85.956,17.482 85.958,16.834 85.942,16.187C84.816,16.204 83.69,16.202 82.563,16.199L82.563,16.199C81.838,16.198 81.114,16.196 80.389,16.2C80.388,16.675 80.388,17.15 80.388,17.625C80.388,18.101 80.388,18.576 80.387,19.052L77.606,19.052C77.605,17.827 77.605,16.602 77.605,15.377C77.605,14.152 77.605,12.928 77.604,11.703C77.591,10.523 77.873,9.325 78.528,8.334ZM81.085,9.588C80.343,10.404 80.365,11.499 80.386,12.55L80.386,12.55C80.391,12.82 80.397,13.086 80.389,13.344C81.626,13.345 82.863,13.345 84.1,13.344L85.954,13.344C85.945,13.081 85.951,12.809 85.957,12.534C85.979,11.504 86.002,10.434 85.287,9.622C84.283,8.313 82.108,8.296 81.085,9.588Z" clip-rule="evenodd" fill-rule="evenodd" fill="#FFFFFF"/>
</svg>
