<svg width="16" height="18" viewBox="0 0 16 18" fill="none" xmlns="http://www.w3.org/2000/svg" xmlns:xlink="http://www.w3.org/1999/xlink">
<path d="M3.074,5.164C3.333,5.164 3.592,5.164 3.851,5.164C3.917,3.827 4.23,2.398 5.164,1.399C6.071,0.426 7.749,0.374 8.689,1.326C9.69,2.315 10.069,3.786 10.139,5.164C10.597,5.166 11.054,5.165 11.512,5.164C12.186,5.162 12.861,5.161 13.535,5.169C13.843,5.152 14.146,5.381 14.185,5.697C14.217,5.992 14.192,6.289 14.167,6.584C14.156,6.718 14.145,6.851 14.139,6.983C13.944,9.652 13.753,12.322 13.562,14.99L13.554,15.105C13.506,15.706 13.291,16.335 12.813,16.719C12.501,16.973 12.096,17.066 11.704,17.055C10.022,17.053 8.341,17.053 6.66,17.054C5.165,17.054 3.67,17.054 2.176,17.053C1.631,17.072 1.08,16.801 0.797,16.319C0.482,15.824 0.449,15.232 0.417,14.656C0.411,14.542 0.404,14.428 0.396,14.317C0.315,13.207 0.236,12.098 0.157,10.988C0.043,9.392 -0.072,7.796 -0.189,6.2C-0.19,6.18 -0.191,6.16 -0.192,6.139C-0.206,5.882 -0.222,5.595 -0.039,5.393C0.142,5.17 0.444,5.166 0.707,5.163C0.719,5.163 0.73,5.162 0.741,5.162C1.519,5.165 2.297,5.165 3.074,5.164ZM7.378,1.517C6.662,1.33 5.9,1.714 5.495,2.317C4.926,3.144 4.753,4.175 4.681,5.161C6.224,5.166 7.767,5.166 9.31,5.161C9.225,4.269 9.061,3.361 8.626,2.571C8.355,2.082 7.928,1.647 7.378,1.517ZM6.519,7.219C5.73,7.355 5.04,8.011 4.917,8.826C4.835,9.372 5.079,9.927 5.483,10.281C5.955,10.724 6.572,10.923 7.173,11.116C7.241,11.138 7.31,11.16 7.378,11.183C7.945,11.389 8.546,11.676 8.867,12.224C9.126,12.663 9.065,13.262 8.727,13.64C8.361,14.052 7.802,14.228 7.272,14.266C6.474,14.294 5.702,13.989 5.051,13.535C4.905,13.402 4.784,13.539 4.682,13.655L4.682,13.655C4.658,13.682 4.635,13.708 4.613,13.729C5.067,14.264 5.744,14.538 6.406,14.693C7.237,14.874 8.176,14.798 8.878,14.273C9.544,13.778 9.729,12.797 9.423,12.042C9.174,11.468 8.624,11.106 8.075,10.87C7.839,10.764 7.586,10.679 7.332,10.594L7.332,10.594C6.704,10.384 6.069,10.171 5.652,9.622C5.241,9.091 5.516,8.305 6.031,7.96C6.647,7.521 7.462,7.615 8.129,7.875C8.241,7.911 8.346,7.965 8.451,8.019C8.604,8.097 8.756,8.176 8.927,8.199C9.126,8.122 9.15,7.832 8.962,7.729C8.261,7.238 7.352,7.07 6.519,7.219Z" clip-rule="evenodd" fill-rule="evenodd" fill="#FFFFFF"/>
</svg>
