<svg width="54" height="12" viewBox="0 0 54 12" fill="none" xmlns="http://www.w3.org/2000/svg" xmlns:xlink="http://www.w3.org/1999/xlink">
<path d="M1.652,3.717C2.134,4.185 2.75,4.41 3.365,4.634C3.984,4.86 4.603,5.086 5.084,5.56C5.522,5.936 5.571,6.622 5.322,7.12C5,7.678 4.323,7.89 3.723,7.915C2.732,7.918 1.871,7.352 1.082,6.805C1.06,6.823 1.037,6.843 1.013,6.863C0.758,7.073 0.406,7.364 0.731,7.679C2.021,8.885 4.241,9.386 5.688,8.187C6.721,7.341 6.678,5.63 5.679,4.775C5.198,4.264 4.564,4.04 3.929,3.816C3.401,3.629 2.872,3.443 2.431,3.09C1.701,2.577 2.039,1.282 2.87,1.092C3.715,0.803 4.584,1.12 5.343,1.501C5.852,1.792 6.179,0.874 5.721,0.637C4.733,-0.03 3.372,-0.237 2.277,0.274C1.028,0.819 0.605,2.773 1.652,3.717ZM7.166,7.811L7.167,7.902C7.169,8.165 7.172,8.431 7.223,8.689C7.416,8.939 7.893,8.969 8.053,8.67C8.185,8.19 8.158,7.669 8.131,7.15C8.089,6.353 8.048,5.56 8.583,4.923C9.177,4.119 10.706,4.183 11.031,5.204C11.139,5.806 11.123,6.418 11.107,7.03C11.092,7.582 11.078,8.135 11.154,8.68C11.413,9.051 12.142,8.882 12.06,8.381C12.069,7.419 12.076,6.458 12.069,5.496C12.077,4.337 10.975,3.35 9.858,3.393C9.223,3.33 8.653,3.644 8.124,3.957C8.124,3.593 8.128,3.227 8.132,2.862C8.14,2.075 8.149,1.288 8.112,0.502C8.124,0.205 7.893,-0.068 7.584,0.011C7.213,-0.023 7.169,0.417 7.171,0.694C7.168,1.722 7.169,2.75 7.17,3.778C7.172,5.123 7.174,6.467 7.166,7.811ZM37.52,9.07L37.52,9.07C37.716,9.068 37.912,9.066 38.109,9.063C38.2,8.466 38.304,7.871 38.407,7.276L38.407,7.276L38.407,7.275L38.407,7.275L38.407,7.274C38.468,6.927 38.528,6.579 38.586,6.232C38.738,6.229 38.89,6.228 39.042,6.228C39.527,6.226 40.014,6.225 40.496,6.157C41.833,5.948 43.003,4.62 42.782,3.207C42.662,2.331 41.84,1.719 41.005,1.679C40.502,1.66 39.998,1.664 39.495,1.668C39.071,1.671 38.648,1.674 38.224,1.663C37.975,3.065 37.731,4.467 37.487,5.869C37.301,6.938 37.115,8.008 36.926,9.078C37.123,9.075 37.32,9.073 37.518,9.07L37.518,9.07L37.518,9.07L37.519,9.07L37.519,9.07L37.52,9.07ZM39.021,3.78L39.021,3.78L39.021,3.779L39.021,3.779L39.021,3.779L39.021,3.778L39.021,3.778C39.079,3.453 39.136,3.128 39.195,2.803C39.397,2.811 39.602,2.805 39.807,2.798C40.252,2.785 40.698,2.771 41.124,2.901C41.801,3.207 41.705,4.215 41.222,4.664C40.745,5.145 40.087,5.119 39.45,5.094C39.223,5.085 38.998,5.076 38.786,5.09C38.867,4.654 38.944,4.217 39.021,3.78ZM13.583,7.943C12.887,7.11 12.704,5.833 13.255,4.871C13.625,4.194 14.297,3.729 15.02,3.516C16.375,3.113 17.909,4.044 18.31,5.4C18.502,6.167 18.42,7.035 17.965,7.694C17.045,9.172 14.661,9.302 13.583,7.943ZM17.358,6.739C17.864,5.503 16.552,4.125 15.315,4.479C14.091,4.641 13.424,6.294 14.276,7.241C15.063,8.356 16.947,8.036 17.358,6.739ZM19.839,3.487C19.513,3.348 19.177,3.743 19.239,4.068C19.226,5.204 19.228,6.339 19.23,7.476L19.23,7.476L19.23,7.476L19.23,7.476L19.23,7.476L19.23,7.476L19.23,7.477C19.233,8.542 19.235,9.607 19.225,10.673C19.229,10.753 19.229,10.836 19.229,10.92L19.229,10.92L19.229,10.92L19.229,10.92L19.229,10.92L19.229,10.92C19.228,11.177 19.227,11.442 19.373,11.66C19.646,11.772 20.181,11.815 20.185,11.395C20.233,10.679 20.221,9.961 20.209,9.243L20.209,9.243L20.209,9.243C20.204,8.908 20.198,8.574 20.199,8.24C21.478,9.263 23.638,9.07 24.458,7.549C25.296,6.207 24.635,4.269 23.2,3.683C22.244,3.175 21.082,3.46 20.272,4.125C20.239,4.062 20.215,3.985 20.191,3.906C20.131,3.709 20.067,3.502 19.839,3.487ZM21.325,4.595C22.156,4.239 23.239,4.518 23.655,5.373C24.211,6.235 23.666,7.444 22.763,7.785C21.859,8.224 20.694,7.669 20.393,6.711C20.054,5.893 20.568,4.939 21.325,4.595ZM30.222,8.429C29.186,9.085 27.748,9.174 26.704,8.484C25.285,7.405 25.34,4.894 26.785,3.865C27.927,3.035 29.807,3.43 30.372,4.785C30.568,5.275 30.696,5.849 30.507,6.362C30.345,6.477 30.147,6.482 29.955,6.487C29.905,6.489 29.854,6.49 29.805,6.493C29.435,6.495 29.065,6.493 28.694,6.492C27.997,6.488 27.299,6.485 26.603,6.506C26.632,6.58 26.66,6.658 26.689,6.737C26.838,7.146 26.996,7.582 27.414,7.769C28.184,8.135 29.069,7.916 29.821,7.608C30.267,7.354 30.661,8.203 30.222,8.429ZM28.955,4.595C28.523,4.413 28.026,4.41 27.58,4.536C27.194,4.646 26.996,5.008 26.811,5.345C26.776,5.408 26.742,5.47 26.708,5.53C27.684,5.546 28.661,5.544 29.639,5.53C29.605,5.464 29.573,5.396 29.54,5.327C29.402,5.035 29.258,4.732 28.955,4.595ZM32.415,8.383C33.435,9.19 34.944,9.099 36.024,8.46C36.503,8.208 36.078,7.279 35.593,7.63C34.883,7.929 34.054,8.103 33.318,7.802C32.85,7.617 32.669,7.134 32.501,6.689C32.478,6.626 32.455,6.564 32.431,6.504C33.148,6.485 33.864,6.488 34.581,6.492C34.914,6.494 35.247,6.496 35.579,6.495C35.635,6.491 35.692,6.49 35.749,6.489C35.969,6.486 36.198,6.481 36.37,6.328C36.566,5.583 36.305,4.766 35.835,4.183C34.981,3.293 33.463,3.172 32.501,3.955C31.226,5.012 31.168,7.279 32.415,8.383ZM32.55,5.533C32.793,4.924 33.293,4.361 34.003,4.451C34.71,4.356 35.287,4.86 35.467,5.532C34.495,5.544 33.522,5.542 32.55,5.533ZM45.866,4.83C45.14,4.344 44.245,4.75 43.65,5.259L42.952,4.634C43.535,4.112 44.234,3.685 45.028,3.635C45.709,3.594 46.51,3.663 46.988,4.224C47.344,4.602 47.402,5.174 47.32,5.671C47.188,6.52 47.035,7.366 46.883,8.213L46.883,8.214L46.882,8.216C46.831,8.502 46.779,8.788 46.729,9.074C46.351,9.072 45.973,9.07 45.597,9.07L45.73,8.451C45,9.197 43.785,9.551 42.868,8.949C42.004,8.358 42.191,7.003 42.908,6.369C43.792,5.524 45.126,5.589 46.213,5.915C46.2,5.828 46.196,5.733 46.192,5.637L46.192,5.637C46.177,5.324 46.162,4.992 45.866,4.83ZM46.048,6.858C45.368,6.581 44.526,6.392 43.872,6.835C43.428,7.122 43.26,7.907 43.815,8.175C44.778,8.602 45.774,7.785 46.048,6.858ZM48.349,5.392C48.212,4.863 48.076,4.334 47.937,3.806L49.216,3.806C49.35,4.351 49.478,4.897 49.605,5.444C49.754,6.081 49.903,6.719 50.063,7.355C50.54,6.615 50.974,5.849 51.407,5.082C51.648,4.655 51.89,4.228 52.139,3.806C52.557,3.806 52.975,3.808 53.395,3.809L53.4,3.809C52.844,4.723 52.293,5.639 51.741,6.556C50.783,8.147 49.825,9.738 48.847,11.316C48.582,11.313 48.317,11.311 48.053,11.309C47.92,11.308 47.788,11.307 47.656,11.306C47.836,11.015 48.017,10.725 48.199,10.436C48.55,9.877 48.901,9.319 49.237,8.752C48.928,7.636 48.638,6.514 48.349,5.392Z" clip-rule="evenodd" fill-rule="evenodd" fill="#FFFFFF"/>
</svg>
