<svg width="46" height="46" viewBox="0 0 46 46" fill="none" xmlns="http://www.w3.org/2000/svg" xmlns:xlink="http://www.w3.org/1999/xlink">
<path d="M22,44.667C20.533,44.667 19.055,44.5 17.565,44.165C16.076,43.831 14.554,43.354 13,42.733C13.533,37.356 15.089,32.333 17.667,27.667C20.244,23 23.556,18.889 27.6,15.333C22.711,17.822 18.477,21.111 14.899,25.2C11.32,29.289 8.82,33.956 7.4,39.2C7.222,39.067 7.055,38.923 6.899,38.768L6.4,38.267C4.311,36.178 2.722,33.844 1.632,31.267C0.542,28.689 -0.002,26 0,23.2C0,20.178 0.6,17.289 1.8,14.533C3,11.778 4.667,9.333 6.8,7.2C10.4,3.6 15.067,1.256 20.8,0.168C26.533,-0.92 34.578,-1.02 44.933,-0.133C45.733,10.489 45.6,18.589 44.533,24.168C43.467,29.747 41.156,34.313 37.6,37.867C35.422,40.044 32.988,41.723 30.299,42.901C27.609,44.08 24.843,44.668 22,44.667Z" fill="#658C4A"/>
</svg>
