<svg width="28" height="28" viewBox="0 0 28 28" fill="none" xmlns="http://www.w3.org/2000/svg" xmlns:xlink="http://www.w3.org/1999/xlink">
<path d="M11.519,0.667C5.526,0.667 0.667,5.525 0.667,11.519C0.667,17.513 5.526,22.372 11.519,22.372C14.181,22.372 16.62,21.414 18.508,19.823L25.745,27.061C26.109,27.424 26.698,27.424 27.061,27.061C27.424,26.698 27.424,26.109 27.061,25.745L19.823,18.507C21.414,16.619 22.372,14.181 22.372,11.519C22.372,5.525 17.513,0.667 11.519,0.667ZM2.527,11.519C2.527,6.553 6.553,2.527 11.519,2.527C16.486,2.527 20.512,6.553 20.512,11.519C20.512,16.486 16.486,20.511 11.519,20.511C6.553,20.511 2.527,16.486 2.527,11.519Z" clip-rule="evenodd" fill-rule="evenodd" fill="#999999"/>
</svg>
