<svg width="36" height="40" viewBox="0 0 36 40" fill="none" xmlns="http://www.w3.org/2000/svg" xmlns:xlink="http://www.w3.org/1999/xlink">
<path d="M30.552,8.505C30.286,8.368 30.028,8.217 29.778,8.054C29.05,7.573 28.382,7.006 27.79,6.365C26.307,4.669 25.753,2.948 25.549,1.743L25.557,1.743C25.387,0.743 25.458,0.096 25.468,0.096L18.715,0.096L18.715,26.208C18.715,26.558 18.715,26.905 18.701,27.247C18.701,27.29 18.697,27.329 18.694,27.375C18.694,27.394 18.694,27.413 18.69,27.433C18.69,27.438 18.69,27.443 18.69,27.448C18.619,28.385 18.318,29.29 17.815,30.083C17.312,30.877 16.622,31.535 15.805,31.999C14.954,32.483 13.991,32.737 13.011,32.736C9.865,32.736 7.315,30.171 7.315,27.002C7.315,23.834 9.865,21.268 13.011,21.268C13.607,21.268 14.199,21.362 14.765,21.546L14.773,14.67C13.054,14.448 11.308,14.585 9.644,15.072C7.98,15.558 6.436,16.384 5.107,17.498C3.943,18.509 2.965,19.716 2.216,21.064C1.931,21.555 0.855,23.53 0.725,26.735C0.643,28.554 1.19,30.439 1.45,31.218L1.45,31.235C1.614,31.693 2.249,33.259 3.283,34.578C4.117,35.637 5.103,36.567 6.208,37.338L6.208,37.321L6.225,37.338C9.494,39.559 13.118,39.414 13.118,39.414C13.746,39.388 15.848,39.414 18.235,38.282C20.882,37.028 22.389,35.16 22.389,35.16C23.352,34.043 24.118,32.771 24.653,31.398C25.264,29.791 25.468,27.865 25.468,27.095L25.468,13.242C25.55,13.291 26.641,14.013 26.641,14.013C26.641,14.013 28.213,15.02 30.666,15.676C32.425,16.143 34.796,16.241 34.796,16.241L34.796,9.538C33.965,9.628 32.278,9.366 30.552,8.505Z" fill="#FFFFFF"/>
</svg>
