<svg width="54" height="44" viewBox="0 0 54 44" fill="none" xmlns="http://www.w3.org/2000/svg" xmlns:xlink="http://www.w3.org/1999/xlink">
<path d="M4.667,0.667C3.253,0.667 1.896,1.228 0.896,2.229C-0.104,3.229 -0.666,4.585 -0.666,6L-0.666,16.667C0.748,16.667 2.105,17.228 3.105,18.229C4.105,19.229 4.667,20.585 4.667,22C4.667,23.414 4.105,24.771 3.105,25.771C2.105,26.771 0.748,27.333 -0.666,27.333L-0.666,38C-0.666,39.414 -0.104,40.771 0.896,41.771C1.896,42.771 3.253,43.333 4.667,43.333L47.334,43.333C48.748,43.333 50.105,42.771 51.105,41.771C52.105,40.771 52.667,39.414 52.667,38L52.667,27.333C51.253,27.333 49.896,26.771 48.896,25.771C47.896,24.771 47.334,23.414 47.334,22C47.334,20.585 47.896,19.229 48.896,18.229C49.896,17.228 51.253,16.667 52.667,16.667L52.667,6C52.667,4.585 52.105,3.229 51.105,2.229C50.105,1.228 48.748,0.667 47.334,0.667L4.667,0.667ZM35.334,8.667L39.334,12.667L16.667,35.333L12.667,31.333L35.334,8.667ZM17.494,8.773C20.107,8.773 22.214,10.88 22.214,13.493C22.214,14.745 21.717,15.946 20.832,16.831C19.946,17.716 18.746,18.213 17.494,18.213C14.881,18.213 12.774,16.107 12.774,13.493C12.774,12.241 13.271,11.041 14.156,10.156C15.042,9.27 16.242,8.773 17.494,8.773ZM34.507,25.787C37.121,25.787 39.227,27.893 39.227,30.507C39.227,31.758 38.73,32.959 37.845,33.844C36.96,34.729 35.759,35.227 34.507,35.227C31.894,35.227 29.787,33.12 29.787,30.507C29.787,29.255 30.285,28.054 31.17,27.169C32.055,26.284 33.256,25.787 34.507,25.787Z" fill="#FFFFFF"/>
</svg>
