<svg width="40" height="24" viewBox="0 0 40 24" fill="none" xmlns="http://www.w3.org/2000/svg" xmlns:xlink="http://www.w3.org/1999/xlink">
<path d="M0.5,2C0.5,1.172 1.172,0.5 2,0.5L38,0.5C38.828,0.5 39.5,1.172 39.5,2C39.5,2.828 38.828,3.5 38,3.5L2,3.5C1.172,3.5 0.5,2.828 0.5,2Z" fill="#333333"/>
<path d="M0.5,12C0.5,11.172 1.172,10.5 2,10.5L38,10.5C38.828,10.5 39.5,11.172 39.5,12C39.5,12.828 38.828,13.5 38,13.5L2,13.5C1.172,13.5 0.5,12.828 0.5,12Z" fill="#333333"/>
<path d="M2,20.5C1.172,20.5 0.5,21.172 0.5,22C0.5,22.828 1.172,23.5 2,23.5L38,23.5C38.828,23.5 39.5,22.828 39.5,22C39.5,21.172 38.828,20.5 38,20.5L2,20.5Z" fill="#333333"/>
</svg>
