<svg width="74" height="56" viewBox="0 0 74 56" fill="none" xmlns="http://www.w3.org/2000/svg" xmlns:xlink="http://www.w3.org/1999/xlink">
<path d="M47.841,1.598C46.67,0.427 44.77,0.427 43.599,1.598C42.427,2.77 42.427,4.669 43.599,5.841L62.758,25L2,25C0.343,25 -1,26.343 -1,28C-1,29.657 0.343,31 2,31L62.757,31L43.599,50.158C42.427,51.33 42.427,53.23 43.599,54.401C44.77,55.573 46.67,55.573 47.841,54.401L72.121,30.121C72.684,29.559 73,28.795 73,28C73,27.204 72.684,26.441 72.121,25.878L47.841,1.598Z" fill="#333333"/>
</svg>
