<svg width="64" height="64" viewBox="0 0 64 64" fill="none" xmlns="http://www.w3.org/2000/svg" xmlns:xlink="http://www.w3.org/1999/xlink">
<path d="M62.592,8.206C64.469,6.329 64.469,3.285 62.592,1.408C60.715,-0.469 57.671,-0.469 55.794,1.408L32,25.202L8.206,1.408C6.329,-0.469 3.285,-0.469 1.408,1.408C-0.469,3.285 -0.469,6.329 1.408,8.206L25.202,32L1.408,55.794C-0.469,57.671 -0.469,60.715 1.408,62.592C3.285,64.469 6.329,64.469 8.206,62.592L32,38.798L55.794,62.592C57.671,64.469 60.715,64.469 62.592,62.592C64.469,60.715 64.469,57.671 62.592,55.794L38.798,32L62.592,8.206Z" fill="#333333"/>
</svg>
