<svg width="70" height="68" viewBox="0 0 70 68" fill="none" xmlns="http://www.w3.org/2000/svg" xmlns:xlink="http://www.w3.org/1999/xlink">
<path d="M33,68C30.8,68 28.583,67.749 26.348,67.248C24.113,66.747 21.831,66.031 19.5,65.1C20.3,57.033 22.633,49.5 26.5,42.5C30.367,35.5 35.333,29.333 41.4,24C34.067,27.733 27.716,32.667 22.348,38.8C16.98,44.933 13.231,51.933 11.1,59.8C10.833,59.6 10.583,59.384 10.348,59.152L9.6,58.4C6.467,55.267 4.083,51.767 2.448,47.9C0.813,44.033 -0.003,40 0,35.8C0,31.267 0.9,26.933 2.7,22.8C4.5,18.666 7,15 10.2,11.8C15.6,6.4 22.6,2.884 31.2,1.252C39.8,-0.38 51.867,-0.531 67.4,0.8C68.6,16.733 68.4,28.884 66.8,37.252C65.2,45.62 61.733,52.469 56.4,57.8C53.133,61.067 49.483,63.584 45.448,65.352C41.413,67.12 37.264,68.003 33,68Z" fill="#333333"/>
</svg>
