<svg width="40" height="40" viewBox="0 0 40 40" fill="none" xmlns="http://www.w3.org/2000/svg" xmlns:xlink="http://www.w3.org/1999/xlink">
<path d="M16.279,0C7.288,0 0,7.288 0,16.279C0,25.27 7.288,32.558 16.279,32.558C20.272,32.558 23.929,31.121 26.761,28.735L37.618,39.591C38.163,40.136 39.046,40.136 39.591,39.591C40.136,39.046 40.136,38.163 39.591,37.618L28.735,26.761C31.121,23.929 32.558,20.272 32.558,16.279C32.558,7.288 25.27,0 16.279,0ZM2.791,16.279C2.791,8.83 8.83,2.791 16.279,2.791C23.728,2.791 29.767,8.83 29.767,16.279C29.767,23.728 23.728,29.767 16.279,29.767C8.83,29.767 2.791,23.728 2.791,16.279Z" clip-rule="evenodd" fill-rule="evenodd" fill="#999999"/>
</svg>
