<svg width="78" height="46" viewBox="0 0 78 46" fill="none" xmlns="http://www.w3.org/2000/svg" xmlns:xlink="http://www.w3.org/1999/xlink">
<path d="M-1,2C-1,0.343 0.343,-1 2,-1L74,-1C75.657,-1 77,0.343 77,2C77,3.657 75.657,5 74,5L2,5C0.343,5 -1,3.657 -1,2Z" fill="#333333"/>
<path d="M-1,22C-1,20.343 0.343,19 2,19L74,19C75.657,19 77,20.343 77,22C77,23.657 75.657,25 74,25L2,25C0.343,25 -1,23.657 -1,22Z" fill="#333333"/>
<path d="M2,39C0.343,39 -1,40.343 -1,42C-1,43.657 0.343,45 2,45L74,45C75.657,45 77,43.657 77,42C77,40.343 75.657,39 74,39L2,39Z" fill="#333333"/>
</svg>
