<svg width="62" height="86" viewBox="0 0 62 86" fill="none" xmlns="http://www.w3.org/2000/svg" xmlns:xlink="http://www.w3.org/1999/xlink">
<path d="M30,-1C18.499,-1 9.24,8.308 9.24,19.76C9.24,30.973 18.079,40.104 29.219,40.478C29.344,40.482 29.468,40.479 29.592,40.468C29.861,40.443 30.149,40.446 30.342,40.465C30.474,40.478 30.608,40.483 30.741,40.478C41.884,40.104 50.713,30.974 50.76,19.773L50.76,19.76C50.76,8.303 41.457,-1 30,-1ZM15.24,19.76C15.24,11.612 21.821,5 30,5C38.141,5 44.757,11.614 44.76,19.754C44.724,27.692 38.524,34.124 30.708,34.475C30.235,34.441 29.734,34.442 29.26,34.475C21.436,34.128 15.24,27.692 15.24,19.76Z" clip-rule="evenodd" fill-rule="evenodd" fill="#333333"/>
<path d="M52.346,49.745C46.268,45.686 38.403,43.75 30.69,43.75C22.976,43.75 15.096,45.686 8.982,49.74L8.971,49.747C3.51,53.403 0.38,58.51 0.38,63.995C0.38,69.481 3.511,74.579 8.975,78.216C15.072,82.293 22.945,84.24 30.66,84.24C38.376,84.24 46.251,82.293 52.348,78.213C57.809,74.557 60.94,69.45 60.94,63.965C60.94,58.479 57.81,53.382 52.346,49.745ZM6.38,63.995C6.38,60.972 8.089,57.56 12.303,54.737C17.229,51.473 23.886,49.75 30.69,49.75C37.497,49.75 44.132,51.474 49.014,54.735L49.018,54.738C53.232,57.541 54.94,60.942 54.94,63.965C54.94,66.99 53.23,70.403 49.011,73.227C44.108,76.507 37.463,78.24 30.66,78.24C23.856,78.24 17.211,76.507 12.308,73.227L12.302,73.222C8.088,70.419 6.38,67.018 6.38,63.995Z" clip-rule="evenodd" fill-rule="evenodd" fill="#333333"/>
</svg>
