<svg width="40" height="42" viewBox="0 0 40 42" fill="none" xmlns="http://www.w3.org/2000/svg" xmlns:xlink="http://www.w3.org/1999/xlink">
<path d="M32.94,29.66L33.72,35.98C33.92,37.64 32.14,38.8 30.72,37.94L23.8,33.82C23.32,33.54 23.2,32.94 23.46,32.46C24.46,30.62 25,28.54 25,26.46C25,19.14 18.72,13.18 11,13.18C9.42,13.18 7.88,13.42 6.44,13.9C5.7,14.14 4.98,13.46 5.16,12.7C6.98,5.42 13.98,0 22.34,0C32.1,0 40,7.38 40,16.48C40,21.88 37.22,26.66 32.94,29.66Z" fill="#FFFFFF"/>
<path d="M22,26.46C22,28.84 21.12,31.04 19.64,32.78C17.66,35.18 14.52,36.72 11,36.72L5.78,39.82C4.9,40.36 3.78,39.62 3.9,38.6L4.4,34.66C1.72,32.8 0,29.82 0,26.46C0,22.94 1.88,19.84 4.76,18C6.54,16.84 8.68,16.18 11,16.18C17.08,16.18 22,20.78 22,26.46Z" fill="#FFFFFF"/>
</svg>
