<svg width="86" height="86" viewBox="0 0 86 86" fill="none" xmlns="http://www.w3.org/2000/svg" xmlns:xlink="http://www.w3.org/1999/xlink">
<path d="M40.25,86C37.5,86 34.728,85.687 31.935,85.06C29.142,84.433 26.288,83.538 23.375,82.375C24.375,72.292 27.292,62.875 32.125,54.125C36.958,45.375 43.167,37.667 50.75,31C41.583,35.667 33.645,41.833 26.935,49.5C20.225,57.167 15.538,65.917 12.875,75.75C12.542,75.5 12.228,75.23 11.935,74.94L11,74C7.083,70.083 4.103,65.708 2.06,60.875C0.017,56.042 -1.003,51 -1,45.75C-1,40.083 0.125,34.667 2.375,29.5C4.625,24.333 7.75,19.75 11.75,15.75C18.5,9 27.25,4.605 38,2.565C48.75,0.525 63.833,0.337 83.25,2C84.75,21.917 84.5,37.105 82.5,47.565C80.5,58.025 76.167,66.587 69.5,73.25C65.417,77.333 60.853,80.48 55.81,82.69C50.767,84.9 45.58,86.003 40.25,86Z" fill="#999999"/>
</svg>
