<svg width="42" height="38" viewBox="0 0 42 38" fill="none" xmlns="http://www.w3.org/2000/svg" xmlns:xlink="http://www.w3.org/1999/xlink">
<path d="M8.957,37.453L8.957,11.521L0.345,11.521L0.345,37.453L8.958,37.453L8.957,37.453ZM4.653,7.981C7.656,7.981 9.525,5.989 9.525,3.501C9.469,0.955 7.656,-0.98 4.71,-0.98C1.763,-0.98 -0.162,0.955 -0.162,3.5C-0.162,5.989 1.706,7.98 4.597,7.98L4.652,7.98L4.653,7.981ZM13.724,37.453L22.335,37.453L22.335,22.973C22.335,22.199 22.391,21.423 22.619,20.87C23.241,19.321 24.658,17.717 27.038,17.717C30.153,17.717 31.4,20.095 31.4,23.581L31.4,37.453L40.011,37.453L40.011,22.584C40.011,14.619 35.763,10.913 30.097,10.913C25.452,10.913 23.412,13.511 22.279,15.281L22.336,15.281L22.336,11.521L13.724,11.521C13.837,13.954 13.724,37.454 13.724,37.454L13.724,37.453Z" fill="#FFFFFF"/>
</svg>
