<svg width="30" height="44" viewBox="0 0 30 44" fill="none" xmlns="http://www.w3.org/2000/svg" xmlns:xlink="http://www.w3.org/1999/xlink">
<path d="M14,0.5C8.249,0.5 3.62,5.154 3.62,10.88C3.62,16.487 8.039,21.052 13.61,21.239C13.672,21.241 13.734,21.239 13.796,21.234C13.93,21.222 14.074,21.223 14.171,21.233C14.237,21.239 14.304,21.241 14.371,21.239C19.942,21.052 24.357,16.487 24.38,10.886L24.38,10.88C24.38,5.152 19.729,0.5 14,0.5ZM6.62,10.88C6.62,6.806 9.911,3.5 14,3.5C18.071,3.5 21.379,6.807 21.38,10.877C21.362,14.846 18.262,18.062 14.354,18.238C14.118,18.22 13.867,18.221 13.63,18.238C9.718,18.064 6.62,14.846 6.62,10.88Z" clip-rule="evenodd" fill-rule="evenodd" fill="#333333"/>
<path d="M25.173,25.873C22.134,23.843 18.201,22.875 14.345,22.875C10.488,22.875 6.548,23.843 3.491,25.87L3.486,25.874C0.755,27.701 -0.81,30.255 -0.81,32.997C-0.81,35.741 0.755,38.29 3.488,40.108C6.536,42.147 10.473,43.12 14.33,43.12C18.188,43.12 22.126,42.146 25.174,40.107C27.905,38.279 29.47,35.725 29.47,32.982C29.47,30.24 27.905,27.691 25.173,25.873ZM2.19,32.997C2.19,31.486 3.044,29.78 5.152,28.368C7.614,26.736 10.943,25.875 14.345,25.875C17.749,25.875 21.066,26.737 23.507,28.367L23.509,28.369C25.616,29.771 26.47,31.471 26.47,32.982C26.47,34.495 25.615,36.201 23.506,37.614C21.054,39.254 17.732,40.12 14.33,40.12C10.928,40.12 7.606,39.254 5.154,37.613L5.151,37.611C3.044,36.209 2.19,34.509 2.19,32.997Z" clip-rule="evenodd" fill-rule="evenodd" fill="#333333"/>
</svg>
