<svg width="80" height="80" viewBox="0 0 80 80" fill="none" xmlns="http://www.w3.org/2000/svg" xmlns:xlink="http://www.w3.org/1999/xlink">
<path d="M32.558,0C14.577,0 0,14.577 0,32.558C0,50.54 14.577,65.116 32.558,65.116C40.544,65.116 47.859,62.241 53.523,57.469L75.236,79.183C76.326,80.272 78.093,80.272 79.183,79.183C80.272,78.093 80.272,76.326 79.183,75.236L57.469,53.523C62.241,47.859 65.116,40.544 65.116,32.558C65.116,14.577 50.54,0 32.558,0ZM5.581,32.558C5.581,17.659 17.659,5.581 32.558,5.581C47.457,5.581 59.535,17.659 59.535,32.558C59.535,47.457 47.457,59.535 32.558,59.535C17.659,59.535 5.581,47.457 5.581,32.558Z" clip-rule="evenodd" fill-rule="evenodd" fill="#333333"/>
</svg>
