<svg width="596" height="80" viewBox="0 0 596 80" fill="none" xmlns="http://www.w3.org/2000/svg" xmlns:xlink="http://www.w3.org/1999/xlink">
<path d="M3.351,68.698C3.847,68.698 4.131,68.461 3.989,68.2C3.847,67.939 3.847,67.3 4.414,67.679C4.981,68.058 5.997,69.693 6.091,69.314C6.186,68.935 6.587,67.892 6.682,68.295C6.776,68.698 7.461,69.48 8.075,69.361C9.443,69.306 10.811,69.449 12.138,69.788L13.153,69.788C13.636,69.816 14.113,69.911 14.57,70.072C15.161,70.19 16.011,70.072 16.247,70.475C16.814,71.186 17.121,70.19 17.712,70.475L18.231,70.688C19.25,70.459 20.307,70.459 21.325,70.688L22.105,70.688C23.144,70.688 24.349,70.19 25.222,70.451L26.451,70.806C28.059,70.384 29.704,70.115 31.363,70.001L32.922,70.143C34.451,70.45 36.035,70.302 37.481,69.717C38.184,69.467 38.951,69.467 39.654,69.717C39.88,69.833 40.131,69.894 40.386,69.894C40.64,69.894 40.891,69.833 41.118,69.717C41.85,69.48 42.842,68.556 43.763,69.717C43.94,69.774 44.13,69.774 44.306,69.717C44.755,68.958 45.251,69.859 45.7,69.717C46.174,69.411 46.692,69.179 47.235,69.029L47.731,69.029C48.873,69.219 50.038,69.219 51.18,69.029C52.938,68.77 54.67,68.35 56.352,67.774L56.801,68.105C57.105,68.278 57.454,68.357 57.802,68.332C58.151,68.307 58.485,68.178 58.761,67.963C59.571,67.626 60.42,67.395 61.288,67.276C62.112,66.965 62.983,66.805 63.863,66.802C64.808,66.944 65.469,66.115 66.343,66.541C66.343,66.541 66.532,66.731 66.555,66.707C67.5,66.399 68.162,65.452 69.437,65.925L72.484,65.594L73.429,65.167C75.005,64.567 76.634,64.115 78.294,63.817L79.782,63.627C80.396,63.627 81.105,63.627 81.01,62.869C81.215,62.709 81.46,62.61 81.719,62.584L83.278,63.485C84.228,62.683 85.266,61.992 86.372,61.423C87.355,61.001 88.296,60.485 89.182,59.883C90.551,59.681 91.932,59.578 93.316,59.575C95.271,58.592 97.143,57.451 98.913,56.163L100.519,56.163L101.393,56.163C102.551,55.571 102.645,54.173 101.629,53.036L101.133,51.969C100.518,50.799 100.005,49.579 99.598,48.32C98.545,45.648 98.086,42.777 98.252,39.909L98.583,38.132C98.724,36.165 99.008,33.772 99.197,32.8L98.961,31.853C98.901,30.856 99.096,29.861 99.527,28.962L99.858,28.038C100.378,27.043 100.992,25.929 101.228,25.526C101.655,24.778 101.996,23.983 102.244,23.157C102.244,22.73 103.755,21.972 103.897,21.735L103.897,21.522L104.558,19.982C106.168,18.306 107.871,16.724 109.66,15.243L110.179,14.129C110.557,13.3 111.762,13.371 111.951,12.399C111.951,11.902 113.321,11.546 114.053,11.096C114.387,10.897 114.689,10.65 114.95,10.362C115.234,10.03 115.328,9.58 115.659,9.319C115.99,9.058 116.273,10.054 116.769,9.319C117.265,8.584 118.21,9.319 117.95,8.466L120.95,6.428L122.225,5.67C123.784,5.03 126.24,3.964 127.681,3.301L128.838,2.542C129.522,2.147 130.276,1.889 131.059,1.784C132.256,1.456 133.431,1.052 134.578,0.576C135.05,0.292 135.578,0.117 136.126,0.064C136.673,0.011 137.225,0.08 137.743,0.268C137.884,0.268 138.168,0.268 138.38,0.268L139.703,0.268C141.402,-0.044 143.14,-0.084 144.852,0.149L146.151,0.149L147.474,0.149C148.749,0.347 150.034,0.473 151.324,0.528C152.625,0.98 153.896,1.519 155.126,2.14C157.504,3.309 159.746,4.74 161.81,6.405L161.976,7.566L162.117,8.513C162.936,9.279 163.644,10.157 164.219,11.12L164.597,11.854C165.022,12.684 165.4,13.513 165.778,14.342C165.896,14.556 165.778,14.887 166.038,15.029C166.548,15.254 167.045,15.507 167.526,15.788C167.904,16.119 166.983,16.664 167.762,17.115C168.164,17.351 168.187,18.015 168.305,18.489C168.684,19.609 168.93,20.77 169.038,21.948L169.038,23.275C168.731,24.721 167.857,27.659 167.125,29.815L166.44,31.758L165.967,33.179C164.637,34.447 163.39,35.801 162.235,37.231L161.078,37.776L160.11,38.226C159.281,39.301 158.302,40.25 157.205,41.046C156.354,41.615 153.922,43.652 153.378,44.15C152.835,44.648 151.229,45.738 151.489,46.117C151.749,46.496 149.528,46.875 148.631,47.325C147.733,47.775 143.907,51.756 140.53,54.007L137.294,55.855C133.279,58.225 129.098,60.262 124.965,62.419L124.233,62.798C123.312,63.106 123.949,63.982 125.603,64.764C129.131,66.061 132.736,67.138 136.396,67.987L138.64,68.39L139.939,68.627C141.209,68.457 142.496,68.457 143.765,68.627C144.427,68.792 146.765,68.627 147.356,68.627L147.852,68.816C148.466,69.077 148.678,67.963 149.363,68.579C149.501,68.628 149.651,68.628 149.788,68.579C150.166,68.461 153.402,67.987 153.78,67.963C154.158,67.939 154.394,67.726 154.701,67.726C156.213,67.845 157.724,66.328 159.283,67.726C160.416,67.379 161.567,67.094 162.731,66.873C164.219,66.541 168.093,65.286 167.786,64.504L169.109,65.499L169.888,66.091C170.691,65.807 172.25,65.333 173.384,65.001C174.517,64.67 178.367,63.437 179.619,63.272L180.422,62.774C181.319,62.229 182.146,63.011 182.17,62.916L182.878,60.807L187.46,60.594C187.897,60.651 188.331,60.73 188.759,60.831C189.09,60.831 190.224,59.552 191.121,59.599C193.03,59.223 194.892,58.634 196.672,57.846L197.971,57.466C198.856,57.01 199.833,56.759 200.828,56.732C201.278,56.732 201.798,56.163 202.34,55.997L202.648,55.997C203.096,55.997 203.71,55.618 204.04,54.907L205.104,55.713C205.104,55.713 206.096,55.026 206.71,54.86L207.206,54.718C208.006,54.714 208.802,54.594 209.568,54.362L209.898,53.794C210.082,53.525 210.36,53.339 210.678,53.272C211.812,53.272 213.512,53.272 213.984,52.704L214.976,51.424C216.654,50.927 218.354,50.358 218.732,50.169L219.11,50.169C219.912,50.169 220.81,50.334 220.882,49.268C221.144,49.16 221.424,49.104 221.708,49.102C222.866,49.102 223.668,48.936 224.07,47.846C224.234,47.254 224.802,48.012 224.872,47.965L225.652,47.349L230.376,45.311L231.864,45.003L233.186,44.742C234.392,44.15 236.398,43.226 237.65,42.705L238.69,42.065C239.114,41.781 240.202,42.776 240.154,41.496C240.154,41.283 241.288,40.999 241.926,40.762L242.634,40.477C243.776,40.18 244.89,39.784 245.964,39.293C246.956,38.819 250.876,37.231 252.318,36.473C254.578,35.707 256.88,35.074 259.214,34.577C260.208,34.064 261.234,33.613 262.284,33.227C262.922,33.085 264.86,32.066 265.426,31.947C266.406,31.994 267.374,32.169 268.308,32.469C268.614,32.469 268.992,32.469 268.024,32.066L268.284,31.118C268.45,30.549 268.756,30.407 269.324,30.573C269.89,30.739 270.268,31.047 270.316,31L272.228,29.199C273.792,29.435 275.37,29.569 276.952,29.602C276.668,29.602 276.528,29.08 277.188,28.82C278.592,28.33 280.028,27.942 281.488,27.659L282.102,27.232L282.786,26.735C284.324,26.529 285.818,26.064 287.202,25.36L290.132,25.36C290.466,25.067 290.864,24.854 291.294,24.739C291.724,24.624 292.176,24.609 292.612,24.697C293.178,24.957 294.642,24.697 294.406,23.891L295.848,23.702C296.462,23.702 296.982,23.323 297.572,23.702C297.832,23.702 299.484,22.849 301.232,21.996L302.674,22.114C303.444,22.334 304.236,22.476 305.036,22.541C305.756,22.289 306.44,21.938 307.066,21.498C307.73,21.12 308.424,20.803 309.144,20.55L309.64,20.384C310.388,20.521 311.102,20.803 311.742,21.214L311.742,20.29C311.742,20.29 312.616,20.053 313.112,20.029L314.624,19.91C315.832,19.749 317.054,19.749 318.262,19.91C318.494,20.149 318.756,20.356 319.042,20.527C319.106,20.458 319.15,20.374 319.172,20.282C319.192,20.191 319.188,20.095 319.16,20.005C319.16,19.792 319.018,19.01 319.16,18.963C319.848,19.168 320.502,19.48 321.096,19.887L321.284,18.655C321.614,18.543 321.972,18.543 322.3,18.655C322.844,19.223 323.08,18.655 323.458,18.536C323.836,18.418 324.12,18.939 324.474,18.986L324.852,18.986L326.646,18.252C328.034,17.718 329.488,17.383 330.968,17.257L331.89,16.735C332.312,16.452 332.81,16.301 333.318,16.301C333.828,16.301 334.324,16.452 334.748,16.735C334.886,16.784 335.036,16.784 335.172,16.735L336.472,15.314C338.29,15.811 339.494,16.285 339.188,16.333C338.88,16.38 338.078,16.712 338.74,16.854L338.928,17.091C339.518,17.731 339.732,16.972 340.086,16.949C340.44,16.925 340.794,16.475 341.078,16.285L341.88,15.811C343.368,15.409 344.242,15.48 343.676,15.954L343.676,16.214L343.676,16.404C343.822,16.556 344.006,16.669 344.208,16.731C344.41,16.793 344.626,16.803 344.832,16.759L344.95,16.57L345.706,15.124C347.242,15.124 348.99,14.887 349.604,14.792L349.888,14.792L350.974,15.172C351.934,14.951 352.88,14.674 353.808,14.342C354.28,14.153 355.862,14.65 356.17,14.579C356.476,14.508 357.752,14.579 357.964,14.437C358.178,14.295 359.052,13.963 359.382,14.129C360.038,14.419 360.744,14.572 361.46,14.579C362.774,14.211 364.06,13.752 365.31,13.205L366.208,13.347L368.144,13.655C369.988,13.102 371.918,12.893 373.836,13.039L375.042,13.158L375.702,13.158C376.606,12.935 377.54,12.863 378.466,12.944C379.964,12.864 381.448,12.602 382.882,12.162L383.592,12.636L384.324,13.11C384.956,13.04 385.576,12.88 386.166,12.636C387.984,13.631 390.086,12.636 391.952,13.181L392.59,13.371C393.252,13.75 393.984,13.916 394.22,13.726C395.178,13.41 396.214,13.41 397.172,13.726C398.236,14.153 403.29,15.053 406.052,15.693L408.414,16.333C409.406,16.593 410.376,17.043 411.414,17.328L412.596,17.66L415.476,20.029C416.168,20.579 416.822,21.173 417.438,21.806C417.438,21.996 417.438,22.801 417.438,23.086C417.438,23.37 419.044,23.702 419.468,23.796L419.468,24.839C419.946,25.027 420.458,25.112 420.972,25.088C421.484,25.063 421.986,24.93 422.444,24.697C423.272,24.223 426.128,25.218 426.624,25.242C427.646,25.135 428.676,25.207 429.672,25.455L430.546,24.792L430.688,24.673C431.234,24.634 431.778,24.563 432.318,24.46C433.34,24.474 434.36,24.577 435.364,24.768C435.718,24.768 436.568,25.218 436.828,25.242C437.088,25.265 439.616,25.242 441.836,25.1L443.844,25.218C444.418,25.361 445.016,25.361 445.59,25.218C446.356,24.949 447.188,24.949 447.952,25.218L448.662,25.645L451.306,25.645L451.944,25.645C452.558,25.645 453.504,25.645 453.716,25.81L454.306,26.521C454.816,26.114 455.352,25.741 455.912,25.408C456.314,25.171 458.108,26.213 458.936,26.403L460.448,26.403C461.164,26.27 461.89,26.19 462.62,26.166C463.046,26.166 464.982,26.427 465.738,26.521L466.54,26.521L467.532,26.64L470.486,27.09C471.552,27.109 472.618,27.037 473.674,26.877C474.336,26.877 476.508,27.043 477.594,26.877C478.68,26.711 482.908,27.99 485.01,27.99L486.782,28.535C487.774,28.867 488.27,27.73 489.144,28.322L489.758,28.677C490.534,28.863 491.344,28.863 492.12,28.677L492.498,28.677C493.254,28.559 494.246,28.156 494.27,29.365C494.27,29.365 495.144,29.602 495.284,29.365L496.112,28.654C497.088,28.85 498.044,29.135 498.97,29.507C499.536,29.744 501.332,29.151 501.662,29.317C501.992,29.483 503.48,29.957 503.74,29.767C504,29.578 504.78,29.341 504.638,29.767C504.496,30.194 506.41,29.767 507,29.767L507.59,29.767L509.386,29.767C511.112,29.761 512.808,30.22 514.298,31.094L515.124,30.289C516.07,29.365 516.542,30.526 517.274,30.478C517.68,30.39 518.102,30.388 518.508,30.474C518.916,30.56 519.3,30.731 519.636,30.976C520.05,30.874 520.432,30.671 520.746,30.384C521.076,30.099 523.108,30.715 523.934,30.834L524.762,30.834C525.564,30.834 526.462,30.62 527.124,31.355C527.314,31.426 527.524,31.426 527.714,31.355L528.588,29.957C529.72,30.386 530.816,30.901 531.87,31.497C533.278,31.603 534.692,31.603 536.098,31.497L536.642,31.9C537.562,32.563 537.87,31.616 538.46,31.9C539.05,32.184 540.138,32.563 540.374,32.374C541.2,31.71 541.766,32.54 542.452,32.374C543.146,32.348 543.836,32.494 544.46,32.8L545.05,33.014C546.482,32.918 547.918,32.918 549.348,33.014C550.766,33.014 554.876,33.535 555.348,33.677C555.82,33.819 556.978,33.867 557.356,34.032C558.106,34.091 558.862,34.043 559.6,33.89C560.704,34.054 561.76,34.458 562.694,35.075L563.568,33.985C564.842,34.395 566.144,34.712 567.464,34.933C568.952,35.194 573.368,35.715 573.96,35.904C574.684,36.034 575.422,36.073 576.156,36.023C576.534,36.023 578.234,36.26 579.108,36.426L579.698,36.805C580.526,37.35 581.068,37.966 582.274,37.16L582.722,36.852C583.848,37.033 584.93,37.427 585.91,38.013L586.312,38.558L587.092,39.624L590.328,39.387C590.846,39.387 592.452,39.387 592.5,39.577C592.672,39.886 592.916,40.147 593.214,40.337C593.51,40.528 593.85,40.641 594.2,40.667C595.028,40.667 596.42,42.302 595.878,42.065C595.236,41.776 594.548,41.607 593.846,41.567C593.728,41.686 593.374,42.444 593.704,42.705L594.06,42.705C595.288,42.705 595.098,43.463 595.17,44.126C595.24,44.79 594.272,45.122 595.17,45.832L595.618,46.235C595.634,47.209 595.58,48.184 595.452,49.15C595.452,49.932 592.878,50.074 592.43,50.121C591.98,50.168 590.068,50.121 589.336,50.121C588.604,50.121 585.65,49.624 584.894,49.718C584.14,49.813 581.47,49.079 580.738,49.126C579.764,49.03 578.784,49.03 577.81,49.126C577.266,49.363 574.998,48.344 573.51,48.226C572.022,48.107 566.944,47.728 565.456,47.586C563.968,47.444 559.718,46.52 559.174,46.33L558.726,46.33L555.466,46.662C551.946,46.164 548.12,45.595 546.916,45.382L545.83,45.382C544.816,45.404 543.806,45.235 542.854,44.885L542.24,44.577L539.146,44.956C538.484,44.956 536.146,44.458 535.484,44.553C534.822,44.648 532.342,43.889 531.374,43.795C529.68,43.757 527.982,43.828 526.296,44.008L526.014,43.747C525.398,43.179 524.88,43.747 524.336,43.605C523.764,43.447 523.18,43.336 522.588,43.273C521.856,43.273 521.1,43.273 520.368,43.273C519.636,43.273 519.07,42.681 518.738,42.823C517.44,43.416 516.376,42.563 515.078,42.823C514.34,42.918 513.594,42.918 512.858,42.823L512.22,42.823C511.49,42.677 510.772,42.479 510.07,42.231L509.48,42.231C509.132,42.34 508.762,42.368 508.402,42.31C508.042,42.252 507.698,42.112 507.402,41.899L507.236,41.757C506.082,42.095 504.894,42.301 503.694,42.373C502.24,42.185 500.818,41.803 499.466,41.236L496.04,41.093C494.388,41.093 489.332,40.572 488.46,40.454C487.586,40.335 484.774,39.861 484.136,39.719L483.546,39.719C482.554,39.719 481.61,40.122 480.524,39.719C479.436,39.316 478.468,40.004 477.524,39.364L476.578,38.724C475.258,38.812 473.932,38.812 472.61,38.724C471.69,38.724 467.888,38.606 466.186,38.487C464.486,38.369 459.928,38.013 459.456,38.084C458.656,38.089 457.86,37.977 457.094,37.753C456.692,37.61 454.542,38.203 453.196,38.298C451.198,38.063 449.218,37.699 447.268,37.208L441.104,37.208C435.01,37.208 429.176,37.065 428.136,36.9L427.358,37.658C427.192,37.847 426.506,37.824 426.152,37.658C425.798,37.492 425.256,36.757 424.594,37.35L423.862,38.037C423.188,38.782 422.824,39.757 422.846,40.762L422.28,41.354C422.28,41.473 422.468,41.828 422.516,42.065L422.634,42.681C422.206,42.525 421.738,42.525 421.31,42.681L421.31,42.823L421.31,43.155C421.378,43.849 421.22,44.547 420.862,45.145C420.508,45.88 418.5,47.633 417.508,47.515L417.508,48.368C417.474,48.721 417.36,49.062 417.176,49.366C416.992,49.669 416.742,49.927 416.446,50.121L416.256,50.263C416.236,50.867 416.284,51.471 416.398,52.064L415.476,52.443L415.24,52.443C415.052,52.68 414.484,53.367 413.966,53.936C412.956,54.568 411.846,55.017 410.682,55.263L410.446,55.405L410.186,55.523C409.854,55.909 409.554,56.321 409.288,56.756C409.006,57.206 408.014,58.059 407.304,57.561L407.162,58.817L407.162,59.338C407.006,59.542 406.806,59.709 406.578,59.828C406.348,59.947 406.098,60.014 405.84,60.025C404.742,60.156 403.664,60.418 402.628,60.807C401.424,61.234 397.716,62.656 396.912,62.869C395.18,63.209 393.428,63.455 391.67,63.603C390.346,63.722 385.67,64.67 384.11,64.859L382.694,64.551L381.796,64.338C380.828,64.338 379.056,64.527 377.9,64.527L376.836,64.527C375.774,64.527 374.688,64.527 373.624,64.527C373.436,64.527 373.152,64.527 373.034,64.527C372.396,64.125 372.066,63.319 370.86,64.006C370.46,64.219 369.514,63.532 368.618,63.485C367.058,63.485 365.782,62.253 364.058,62.442C364.058,62.442 363.87,62.158 363.798,62.016C363.536,61.688 363.33,61.32 363.184,60.926L362.996,60.073C362.288,60.262 361.862,60.073 362.05,59.836L361.862,59.552C361.578,59.125 361.224,58.722 360.894,58.296L360.138,56.637L360.138,56.187C359.948,55.713 359.524,54.647 359.146,53.817L358.838,53.059C358.494,52.396 358.202,51.707 357.964,50.998C357.67,49.693 357.458,48.372 357.328,47.041L357.328,46.306C357.446,45.607 357.686,44.933 358.036,44.316C358.6,43.878 359.2,43.489 359.83,43.155C360.506,42.731 361.048,42.123 361.39,41.402L361.72,40.975C362.098,40.454 363.28,40.667 363.302,39.696L363.302,39.198C363.836,39.406 364.412,39.479 364.98,39.411C365.714,39.128 366.424,38.787 367.106,38.392L367.648,38.203L368.192,38.013C368.9,38.013 369.49,37.563 369.49,37.231C369.49,36.9 369.868,35.881 370.342,35.881C370.814,35.881 372.112,35.762 371.948,35.596C371.782,35.43 371.57,35.028 371.712,34.909L371.852,34.909C372.062,34.861 372.28,34.861 372.49,34.909C374.286,35.288 374.852,34.08 375.868,33.298C376.884,32.516 376.648,32.635 377.144,33.44L377.71,34.341C377.946,33.796 378.324,33.44 378.536,33.559C378.75,33.677 379.552,33.559 379.458,33.393L379.316,33.274L378.536,32.516L382.622,30.692L384.016,30.099C384.446,29.867 384.922,29.737 385.41,29.72C386.472,30.153 387.632,30.285 388.764,30.099L389.426,29.886C389.906,29.998 390.408,29.998 390.89,29.886L391.032,29.744C391.22,29.578 391.362,29.222 391.504,29.222C392.974,29.067 394.424,28.749 395.826,28.275L397.148,27.99C398.708,27.825 400.88,27.516 401.99,27.327L402.864,27.019C403.596,26.735 403.928,26.427 404.706,27.019L405.226,27.374C405.524,27.192 405.86,27.079 406.206,27.042C406.554,27.005 406.904,27.046 407.234,27.161C407.564,27.422 408.368,26.545 408.532,26.284C408.698,26.024 410.044,26.284 410.754,26.284L411.036,25.645L411.036,25.502C411.296,25.313 410.872,25.123 410.116,25.029C408.976,24.805 407.806,24.805 406.666,25.029L405.982,24.578C405.354,24.143 404.67,23.792 403.95,23.536L403.314,23.346C402.472,23.307 401.63,23.428 400.834,23.702C400.266,23.962 396.748,23.014 394.008,23.014C391.268,23.014 383.614,23.015 383.048,22.778C382.482,22.541 380.852,23.536 380.45,23.702C380.048,23.868 377.758,23.299 376.624,23.323L375.608,23.536L374.498,23.796C373.062,23.92 371.636,24.126 370.224,24.413L369.278,24.01L368.854,23.82C368.522,23.394 368.168,23.607 368.074,24.341L366.916,24.033L365.806,23.749C364.306,23.991 362.79,24.11 361.272,24.104L360.162,24.839L359.784,25.076C358.324,24.777 356.83,24.674 355.344,24.768C353.878,24.768 350.194,25.905 350.124,25.739C350.024,25.608 349.88,25.518 349.718,25.487C349.556,25.456 349.39,25.487 349.25,25.574C348.896,25.81 347.644,26.237 346.888,26.711L346.676,26.545C345.66,25.81 344.738,26.284 343.77,26.545C343.066,26.35 342.324,26.35 341.62,26.545C340.606,26.758 337.062,27.327 336.046,27.54C334.486,27.828 332.884,27.828 331.322,27.54L330.804,28.441C330.59,28.82 329.622,28.986 328.96,29.08C328.3,29.175 327.472,29.08 326.74,29.08C326.45,29.087 326.168,29.187 325.938,29.365C325.624,29.7 325.226,29.944 324.786,30.074C324.346,30.203 323.878,30.212 323.434,30.099L322.324,29.91C320.496,30.523 318.626,30.999 316.726,31.331C314.624,31.71 307.42,33.416 305.2,33.89L303.17,34.269C301.698,34.356 300.276,34.821 299.036,35.62C298.8,35.762 298.53,35.836 298.256,35.833C297.642,35.051 297.004,35.715 296.532,35.833C295.166,36.398 293.726,36.765 292.258,36.923L291.052,36.923C289.872,37.62 288.6,38.146 287.274,38.487C285.766,38.877 284.296,39.4 282.88,40.051C282.102,40.406 279.408,41.07 278.748,41.283L270.41,44.126L267.41,45.145C267.034,45.213 266.674,45.35 266.348,45.548L265.568,46.283C264.588,46.576 263.632,46.949 262.71,47.396C262.262,47.633 260.348,47.989 259.876,48.202L259.522,48.51C259.252,48.806 258.918,49.035 258.544,49.179C258.172,49.323 257.77,49.378 257.372,49.339C256.896,49.391 256.438,49.545 256.026,49.789C255.468,50.164 254.864,50.467 254.23,50.69L251.61,51.164C249.624,52.369 247.556,53.43 245.422,54.339C243.854,55.047 242.324,55.838 240.838,56.708C240.39,56.969 238.478,57.372 238.076,57.561C236.894,58.019 235.742,58.549 234.628,59.149L233.8,59.646C233.542,59.792 233.246,59.858 232.95,59.836L232.052,59.646C231.296,60.049 228.746,61.139 226.408,62.016L224.046,62.395C224.046,62.395 223.904,62.395 223.81,62.537L222.392,63.106C220.94,63.588 219.52,64.166 218.142,64.835C217.432,65.238 213.914,65.831 212.472,66.257C211.032,66.684 206.734,68.627 205.624,69.077C204.514,69.527 199.978,70.641 198.042,71.091L196.601,71.849L195.396,72.489C194.163,72.594 192.949,72.857 191.783,73.271C191.169,73.531 187.933,74.266 186.256,74.669L184.862,75.166C183.587,75.617 182.241,75 181.012,75.877C180.233,76.422 178.651,76.256 177.517,76.47C175.155,76.896 172.793,77.37 170.431,77.844L170.242,77.844C168.772,78.085 167.29,78.243 165.802,78.318L163.771,78.531C162.448,78.673 161.173,78.886 159.874,79.052C158.574,79.218 157.134,78.673 155.976,79.55C155.976,79.55 155.504,79.55 155.339,79.55C154.323,80.024 153.544,78.389 152.245,79.431L151.725,79.882C150.23,79.695 148.768,79.304 147.379,78.721L146.316,79.194L145.348,79.645C144.127,79.257 142.849,79.08 141.569,79.123L140.601,78.555C139.877,78.398 139.128,78.398 138.404,78.555L137.672,78.555C137.484,78.289 137.236,78.071 136.949,77.919C136.662,77.767 136.343,77.684 136.019,77.678L135.452,77.678C135.027,77.678 134.554,78.199 134.153,77.678C133.751,77.157 132.381,76.991 131.366,76.825C129.866,76.469 128.391,76.017 126.949,75.474L126.571,75.356C126.217,75.356 125.98,74.953 126.099,74.74C126.217,74.527 126.429,73.91 126.358,73.887C126.102,73.883 125.853,73.967 125.65,74.124C125.28,74.296 124.877,74.385 124.469,74.385C124.061,74.385 123.658,74.296 123.288,74.124L122.816,73.697L122.579,73.46C122.461,73.105 122.201,72.892 122.013,72.986C121.824,73.081 121.304,72.797 121.115,72.441C120.926,72.086 120.147,71.067 120.076,71.28C120.005,71.494 119.627,71.968 119.438,71.754C118.854,71.336 118.219,70.994 117.549,70.735L116.982,70.593C115.588,70.19 115.328,69.882 114.62,68.224L114.62,67.916C114.543,67.831 114.445,67.769 114.336,67.735C114.227,67.701 114.111,67.697 114,67.724C113.889,67.751 113.787,67.807 113.705,67.886C113.623,67.966 113.564,68.066 113.533,68.176L112.919,67.797L112.707,67.655C111.675,67.697 110.652,67.864 109.66,68.153L108.479,68.579L106.117,69.409C103.495,70.285 100.496,71.257 99.433,71.565C98.37,71.873 94.52,72.986 93.245,73.271C91.969,73.555 87.765,74.503 86.679,74.882C85.592,75.261 82.097,75.616 81.601,75.853L81.176,75.853L79.593,75.853C77.963,76.185 75.318,76.659 73.736,76.92C72.153,77.18 67.193,77.796 66.343,78.081L65.611,78.081L64.808,78.081C63.91,78.081 62.824,78.389 62.446,78.507C62.068,78.626 57.958,79.147 54.581,79.668L51.416,79.242L50.518,79.242C49.35,79.368 48.19,79.566 47.046,79.834L46.149,79.834C45.086,79.834 44.023,79.834 42.96,79.834L41.992,79.834C40.503,79.796 39.018,79.645 37.551,79.384L36.087,79.739L34.953,80L31.104,79.052C29.878,79.017 28.655,78.906 27.443,78.721L26.71,79.574C26.042,79.628 25.371,79.628 24.703,79.574C23.362,79.112 22.045,78.582 20.758,77.986L20.168,77.796L19.27,77.512C19.27,78.152 18.798,78.578 18.444,78.484C18.09,78.389 16.578,77.702 15.633,77.275L15.35,76.683L14.712,75.427C13.768,76.156 12.594,76.517 11.405,76.446L10.886,75.451C10.793,75.343 10.676,75.259 10.545,75.206C10.413,75.152 10.271,75.13 10.13,75.143C8.524,75.545 8.099,74.171 7.012,73.792C6.776,73.792 6.516,73.223 6.611,73.105C6.705,72.986 7.083,72.56 6.398,72.512C6.076,72.537 5.752,72.537 5.43,72.512C5.076,72.394 4.769,72.086 4.414,72.015C3.611,72.015 3.564,71.423 3.942,71.138L4.839,70.475C4.125,70.217 3.437,69.891 2.785,69.503C2.336,69.243 0.635,68.864 0.423,68.2L0.116,67.608C-0.262,66.873 0.375,66.328 0.753,65.76C1.71,66.22 2.478,66.998 2.926,67.963L3.517,68.911L3.351,68.698ZM119.084,47.965C118.564,47.657 118.493,47.349 118.918,47.278C119.993,47.075 121.046,46.765 122.06,46.354L122.201,45.619C122.39,44.6 123.619,44.624 124.256,44.032C124.944,43.519 125.679,43.074 126.453,42.705C127.153,42.252 127.878,41.841 128.626,41.473C130.046,41.029 131.234,40.041 131.932,38.724C132.169,38.179 132.216,37.753 133.09,37.871C133.964,37.989 133.964,37.681 134.011,37.16C134.011,36.994 134.814,36.971 134.979,36.757C135.145,36.544 134.814,35.904 134.979,35.881L136.42,35.454C137.223,34.388 138.168,33.085 138.522,32.8C140.042,31.677 141.619,30.633 143.246,29.673L144.427,28.251L145.324,27.185C146.789,26.355 147.875,25.384 147.686,25.029L147.828,24.91L148.064,24.721C148.825,24.305 149.467,23.702 149.93,22.967C150.52,22.138 152.292,19.342 152.552,18.726C153.097,17.521 153.501,16.257 153.756,14.958C153.756,14.129 151.229,12.589 150.898,12.589C150.247,12.37 149.542,12.37 148.891,12.589C148.395,12.826 146.08,13.229 144.781,13.584C142.542,14.174 140.335,14.877 138.168,15.693C137.129,16.19 133.09,18.678 131.342,19.91L129.24,20.384C129.122,20.384 129.122,20.692 128.98,20.787C128.366,21.285 127.232,21.688 127.161,22.209C126.996,23.394 125.532,22.754 125.13,23.417C125.13,23.417 124.658,23.417 124.634,23.607C124.115,25.029 122.39,25.621 121.469,26.735C120.548,27.848 119.84,29.104 118.8,30.241C117.881,31.185 117.087,32.245 116.438,33.393C115.872,34.412 115.021,35.288 114.478,36.355L113.982,37.326C113.323,38.04 112.759,38.836 112.305,39.696L112.447,39.838C113.344,40.596 113.155,40.951 111.927,41.165C111.738,41.165 111.644,41.923 111.691,42.326L111.691,42.634C111.76,43.359 111.76,44.089 111.691,44.814L111.006,45.643L110.486,46.235C110.497,47.192 110.353,48.144 110.061,49.055C109.825,49.458 111.006,50.619 111.03,51.045C111.053,51.472 113.51,50.453 114.856,49.529L116.344,49.031C116.982,48.818 117.667,48.676 118.281,48.439L119.084,47.965ZM412.69,41.093C413.706,40.809 414.106,40.454 413.54,40.312C412.974,40.169 411.462,39.601 411.178,39.767C410.894,39.932 409.524,40.146 409.17,40.359C408.816,40.572 407.14,40.122 406.312,40.24C405.486,40.359 402.864,41.07 401.966,41.093C401.07,41.117 399.062,42.42 398.518,42.278L398.022,42.278C397.692,42.278 397.456,42.823 397.102,42.942C396.748,43.06 396.416,42.61 396.228,42.705L395.448,43.06C394.734,43.525 393.928,43.832 393.086,43.961C391.504,44.425 389.964,45.019 388.48,45.738L387.158,46.069L385.882,46.401C385.362,47.088 384.584,47.444 384.158,47.207L383.874,47.207L383.214,47.373C382.576,47.728 381.276,48.51 380.332,49.126C379.388,49.742 375.986,51.235 375.372,51.614L374.734,51.851L374.144,52.111C373.862,52.444 373.554,52.754 373.222,53.036C373.222,53.178 373.058,53.415 373.222,53.509L373.364,53.675C373.848,53.829 374.348,53.933 374.852,53.983C375.99,54.125 377.14,54.125 378.278,53.983L378.938,53.817L379.742,53.628C380.936,53.51 382.138,53.51 383.332,53.628L384.37,53.415L385.15,53.249C385.624,53.792 386.25,54.18 386.946,54.362L387.158,54.22L388.174,53.438L391.622,53.225L392.402,53.083C393.276,52.917 394.22,52.396 394.408,53.699C394.408,53.699 395.282,53.865 395.4,53.699L396.014,53.107C396.558,52.396 397.172,51.922 397.408,52.088C397.644,52.254 397.976,52.68 397.74,52.775C397.502,52.87 397.384,53.012 398.494,52.775C399.604,52.538 401.826,50.998 401.896,51.424C401.966,51.851 402.628,52.467 403.148,52.017C403.894,51.305 404.682,50.641 405.51,50.026C405.888,49.86 407.068,49.505 406.974,49.268C406.88,49.031 408.368,47.87 409.194,47.278L409.572,46.472C409.784,46.022 410.02,45.359 410.422,45.24C411.272,45.027 411.39,44.719 411.532,44.055C411.674,43.392 412.618,42.776 412.69,42.136L412.69,41.093Z" fill="#E7CEC0"/>
</svg>
