<svg width="54" height="54" viewBox="0 0 54 54" fill="none" xmlns="http://www.w3.org/2000/svg" xmlns:xlink="http://www.w3.org/1999/xlink">
<path d="M26,52.667C40.728,52.667 52.667,40.728 52.667,26C52.667,11.272 40.728,-0.667 26,-0.667C11.272,-0.667 -0.667,11.272 -0.667,26C-0.667,40.728 11.272,52.667 26,52.667ZM16.392,35.475C16.549,35.264 16.745,35.085 16.971,34.95C17.196,34.815 17.446,34.726 17.706,34.688C17.966,34.649 18.231,34.662 18.486,34.727C18.741,34.791 18.981,34.905 19.192,35.061C21.133,36.501 23.477,37.333 26,37.333C28.523,37.333 30.867,36.499 32.808,35.061C33.018,34.898 33.259,34.778 33.516,34.709C33.774,34.639 34.042,34.622 34.306,34.658C34.57,34.694 34.824,34.782 35.054,34.918C35.283,35.054 35.483,35.234 35.642,35.447C35.801,35.661 35.915,35.905 35.979,36.164C36.042,36.422 36.053,36.691 36.011,36.954C35.97,37.218 35.875,37.47 35.735,37.696C35.594,37.922 35.41,38.118 35.192,38.272C32.538,40.256 29.314,41.33 26,41.333C22.686,41.33 19.462,40.256 16.808,38.272C16.382,37.956 16.099,37.484 16.021,36.96C15.943,36.435 16.076,35.901 16.392,35.475ZM36.667,22C36.667,24.208 35.472,26 34,26C32.528,26 31.333,24.208 31.333,22C31.333,19.792 32.528,18 34,18C35.472,18 36.667,19.792 36.667,22ZM18,26C19.472,26 20.667,24.208 20.667,22C20.667,19.792 19.472,18 18,18C16.528,18 15.333,19.792 15.333,22C15.333,24.208 16.528,26 18,26Z" clip-rule="evenodd" fill-rule="evenodd" fill="#658C4A"/>
</svg>
