<svg width="32" height="32" viewBox="0 0 32 32" fill="none" xmlns="http://www.w3.org/2000/svg" xmlns:xlink="http://www.w3.org/1999/xlink">
<path d="M31.296,4.103C32.235,3.164 32.235,1.643 31.296,0.704C30.357,-0.235 28.836,-0.235 27.897,0.704L16,12.601L4.103,0.704C3.164,-0.235 1.643,-0.235 0.704,0.704C-0.235,1.643 -0.235,3.164 0.704,4.103L12.601,16L0.704,27.897C-0.235,28.836 -0.235,30.357 0.704,31.296C1.643,32.235 3.164,32.235 4.103,31.296L16,19.399L27.897,31.296C28.836,32.235 30.357,32.235 31.296,31.296C32.235,30.357 32.235,28.836 31.296,27.897L19.399,16L31.296,4.103Z" fill="#333333"/>
</svg>
