<svg width="40" height="44" viewBox="0 0 40 44" fill="none" xmlns="http://www.w3.org/2000/svg" xmlns:xlink="http://www.w3.org/1999/xlink">
<path d="M24.991,22C24.991,20.896 25.886,20 26.991,20L27.009,20C28.113,20 29.009,20.896 29.009,22C29.009,23.105 28.113,24 27.009,24L26.991,24C25.886,24 24.991,23.105 24.991,22Z" fill="#333333"/>
<path d="M12.989,20C11.884,20 10.989,20.896 10.989,22C10.989,23.105 11.884,24 12.989,24L13.007,24C14.112,24 15.007,23.105 15.007,22C15.007,20.896 14.112,20 13.007,20L12.989,20Z" fill="#333333"/>
<path d="M9.5,12.624L9.5,11.4C9.5,6.216 13.622,1.068 18.978,0.567C25.23,-0.038 30.5,4.888 30.5,11.02L30.5,12.624C33.61,12.955 35.836,13.95 37.253,15.635C39.01,17.723 39.174,20.468 38.891,23.025L38.889,23.046L37.39,35.034C37.169,37.086 36.651,39.334 34.819,41.008C32.997,42.672 30.174,43.5 26,43.5L14,43.5C9.826,43.5 7.003,42.672 5.181,41.008C3.349,39.334 2.831,37.086 2.61,35.033L1.112,23.046L1.109,23.025C0.826,20.468 0.991,17.723 2.747,15.635C4.164,13.951 6.39,12.955 9.5,12.624ZM19.265,3.553C23.731,3.12 27.5,6.634 27.5,11.02L27.5,12.5L12.5,12.5L12.5,11.4C12.5,7.585 15.616,3.894 19.259,3.554L19.265,3.553ZM5.589,34.674L4.09,22.685C3.835,20.368 4.101,18.686 5.043,17.566C5.972,16.461 7.906,15.5 12,15.5L28,15.5C32.094,15.5 34.028,16.461 34.957,17.566C35.899,18.686 36.165,20.368 35.91,22.685L34.412,34.674L34.409,34.7C34.209,36.564 33.795,37.88 32.796,38.793C31.783,39.718 29.866,40.5 26,40.5L14,40.5C10.134,40.5 8.217,39.718 7.204,38.793C6.205,37.88 5.791,36.564 5.592,34.7L5.589,34.674Z" clip-rule="evenodd" fill-rule="evenodd" fill="#333333"/>
</svg>
