<svg width="74" height="56" viewBox="0 0 74 56" fill="none" xmlns="http://www.w3.org/2000/svg" xmlns:xlink="http://www.w3.org/1999/xlink">
<path d="M28.401,5.841C29.573,4.669 29.573,2.77 28.401,1.598C27.23,0.427 25.33,0.427 24.159,1.598L-0.121,25.878C-0.684,26.441 -1,27.204 -1,28C-1,28.795 -0.684,29.559 -0.121,30.121L24.159,54.401C25.33,55.573 27.23,55.573 28.401,54.401C29.573,53.23 29.573,51.33 28.401,50.158L9.243,31L70,31C71.657,31 73,29.657 73,28C73,26.343 71.657,25 70,25L9.242,25L28.401,5.841Z" fill="#333333"/>
</svg>
