<svg width="52" height="58" viewBox="0 0 52 58" fill="none" xmlns="http://www.w3.org/2000/svg" xmlns:xlink="http://www.w3.org/1999/xlink">
<path d="M32.654,28C32.654,26.527 33.848,25.333 35.32,25.333L35.344,25.333C36.817,25.333 38.011,26.527 38.011,28C38.011,29.473 36.817,30.667 35.344,30.667L35.32,30.667C33.848,30.667 32.654,29.473 32.654,28Z" fill="#666666"/>
<path d="M16.651,25.333C15.179,25.333 13.985,26.527 13.985,28C13.985,29.473 15.179,30.667 16.651,30.667L16.675,30.667C18.148,30.667 19.342,29.473 19.342,28C19.342,26.527 18.148,25.333 16.675,25.333L16.651,25.333Z" fill="#666666"/>
<path d="M11.999,15.499L11.999,13.867C11.999,6.955 17.495,0.091 24.636,-0.578C32.973,-1.384 39.999,5.183 39.999,13.36L39.999,15.499C44.146,15.94 47.114,17.267 49.003,19.513C51.345,22.297 51.565,25.957 51.187,29.367L51.184,29.395L49.186,45.378C48.891,48.114 48.201,51.112 45.758,53.343C43.329,55.563 39.564,56.667 33.999,56.667L17.999,56.667C12.435,56.667 8.67,55.563 6.24,53.343C3.798,51.112 3.108,48.114 2.813,45.378L0.815,29.395L0.812,29.367C0.434,25.957 0.653,22.297 2.996,19.513C4.884,17.267 7.853,15.94 11.999,15.499ZM25.019,3.404C30.974,2.826 35.999,7.511 35.999,13.36L35.999,15.333L15.999,15.333L15.999,13.867C15.999,8.78 20.155,3.858 25.012,3.405L25.019,3.404ZM6.784,44.899L4.786,28.913C4.446,25.823 4.801,23.581 6.057,22.087C7.296,20.614 9.874,19.333 15.333,19.333L36.666,19.333C42.125,19.333 44.703,20.614 45.942,22.087C47.198,23.581 47.553,25.823 47.213,28.913L45.215,44.899L45.211,44.934C44.944,47.419 44.393,49.173 43.06,50.39C41.71,51.624 39.154,52.667 33.999,52.667L17.999,52.667C12.844,52.667 10.289,51.624 8.938,50.39C7.606,49.173 7.054,47.419 6.788,44.934L6.784,44.899Z" clip-rule="evenodd" fill-rule="evenodd" fill="#666666"/>
</svg>
