<svg width="54" height="44" viewBox="0 0 54 44" fill="none" xmlns="http://www.w3.org/2000/svg" xmlns:xlink="http://www.w3.org/1999/xlink">
<path d="M4.666,0.667C3.252,0.667 1.895,1.229 0.895,2.229C-0.105,3.229 -0.667,4.586 -0.667,6L-0.667,16.667C0.747,16.667 2.104,17.229 3.104,18.229C4.104,19.229 4.666,20.586 4.666,22C4.666,23.415 4.104,24.771 3.104,25.772C2.104,26.772 0.747,27.334 -0.667,27.334L-0.667,38C-0.667,39.415 -0.105,40.771 0.895,41.772C1.895,42.772 3.252,43.334 4.666,43.334L47.333,43.334C48.747,43.334 50.104,42.772 51.104,41.772C52.104,40.771 52.666,39.415 52.666,38L52.666,27.334C51.252,27.334 49.895,26.772 48.895,25.772C47.895,24.771 47.333,23.415 47.333,22C47.333,20.586 47.895,19.229 48.895,18.229C49.895,17.229 51.252,16.667 52.666,16.667L52.666,6C52.666,4.586 52.104,3.229 51.104,2.229C50.104,1.229 48.747,0.667 47.333,0.667L4.666,0.667ZM35.333,8.667L39.333,12.667L16.666,35.334L12.666,31.334L35.333,8.667ZM17.493,8.774C20.106,8.774 22.213,10.88 22.213,13.494C22.213,14.745 21.716,15.946 20.831,16.831C19.945,17.716 18.745,18.214 17.493,18.214C14.88,18.214 12.773,16.107 12.773,13.494C12.773,12.242 13.27,11.041 14.155,10.156C15.041,9.271 16.241,8.774 17.493,8.774ZM34.506,25.787C37.12,25.787 39.226,27.894 39.226,30.507C39.226,31.759 38.729,32.959 37.844,33.845C36.959,34.73 35.758,35.227 34.506,35.227C31.893,35.227 29.786,33.12 29.786,30.507C29.786,29.255 30.284,28.055 31.169,27.169C32.054,26.284 33.255,25.787 34.506,25.787Z" fill="#FFFFFF"/>
</svg>
