<svg width="88" height="64" viewBox="0 0 88 64" fill="none" xmlns="http://www.w3.org/2000/svg" xmlns:xlink="http://www.w3.org/1999/xlink">
<path d="M20,64C16.667,64 13.833,62.833 11.5,60.5C9.167,58.167 8,55.333 8,52C5.8,52 3.916,51.216 2.348,49.648C0.78,48.08 -0.003,46.197 0,44L0,8C0,5.8 0.784,3.916 2.352,2.348C3.92,0.78 5.803,-0.003 8,0L56,0C58.2,0 60.084,0.784 61.652,2.352C63.22,3.92 64.003,5.803 64,8L64,16L74,16C74.667,16 75.267,16.133 75.8,16.4C76.333,16.667 76.8,17.067 77.2,17.6L87.2,30.9C87.467,31.233 87.667,31.6 87.8,32C87.933,32.4 88,32.833 88,33.3L88,48C88,49.133 87.616,50.084 86.848,50.852C86.08,51.62 85.131,52.003 84,52L80,52C80,55.333 78.833,58.167 76.5,60.5C74.167,62.833 71.333,64 68,64C64.667,64 61.833,62.833 59.5,60.5C57.167,58.167 56,55.333 56,52L32,52C32,55.333 30.833,58.167 28.5,60.5C26.167,62.833 23.333,64 20,64ZM20,56C21.133,56 22.084,55.616 22.852,54.848C23.62,54.08 24.003,53.131 24,52C24,50.867 23.616,49.916 22.848,49.148C22.08,48.38 21.131,47.997 20,48C18.867,48 17.916,48.384 17.148,49.152C16.38,49.92 15.997,50.869 16,52C16,53.133 16.384,54.084 17.152,54.852C17.92,55.62 18.869,56.003 20,56ZM68,56C69.133,56 70.084,55.616 70.852,54.848C71.62,54.08 72.003,53.131 72,52C72,50.867 71.616,49.916 70.848,49.148C70.08,48.38 69.131,47.997 68,48C66.867,48 65.916,48.384 65.148,49.152C64.38,49.92 63.997,50.869 64,52C64,53.133 64.384,54.084 65.152,54.852C65.92,55.62 66.869,56.003 68,56ZM64,36L81,36L72,24L64,24L64,36Z" fill="#333333"/>
</svg>
