<svg width="28" height="32" viewBox="0 0 28 32" fill="none" xmlns="http://www.w3.org/2000/svg" xmlns:xlink="http://www.w3.org/1999/xlink">
<path d="M24.041,6.804C23.829,6.694 23.623,6.574 23.422,6.444C22.84,6.059 22.306,5.605 21.832,5.092C20.646,3.735 20.203,2.358 20.04,1.394L20.046,1.394C19.91,0.594 19.966,0.077 19.975,0.077L14.572,0.077L14.572,20.966C14.572,21.247 14.572,21.524 14.561,21.798C14.561,21.832 14.557,21.863 14.555,21.9C14.555,21.915 14.555,21.931 14.552,21.946C14.552,21.95 14.552,21.954 14.552,21.958C14.495,22.708 14.255,23.432 13.852,24.067C13.45,24.701 12.898,25.228 12.244,25.599C11.563,25.987 10.793,26.19 10.009,26.189C7.492,26.189 5.452,24.136 5.452,21.602C5.452,19.067 7.492,17.015 10.009,17.015C10.485,17.014 10.959,17.089 11.412,17.237L11.418,11.736C10.043,11.559 8.646,11.668 7.315,12.057C5.984,12.447 4.749,13.108 3.686,13.998C2.755,14.807 1.972,15.773 1.373,16.851C1.145,17.244 0.284,18.824 0.18,21.388C0.115,22.844 0.552,24.351 0.76,24.975L0.76,24.988C0.891,25.355 1.399,26.607 2.227,27.663C2.894,28.509 3.683,29.253 4.567,29.87L4.567,29.857L4.58,29.87C7.195,31.647 10.095,31.531 10.095,31.531C10.597,31.51 12.278,31.531 14.188,30.626C16.306,29.623 17.511,28.128 17.511,28.128C18.282,27.235 18.894,26.217 19.323,25.118C19.811,23.833 19.975,22.292 19.975,21.676L19.975,10.594C20.04,10.633 20.913,11.21 20.913,11.21C20.913,11.21 22.171,12.016 24.133,12.541C25.54,12.915 27.437,12.993 27.437,12.993L27.437,7.63C26.772,7.702 25.423,7.493 24.041,6.804Z" fill="#FFFFFF"/>
</svg>
