<svg width="54" height="54" viewBox="0 0 54 54" fill="none" xmlns="http://www.w3.org/2000/svg" xmlns:xlink="http://www.w3.org/1999/xlink">
<path d="M43.254,38.88L44.294,47.307C44.561,49.52 42.187,51.067 40.294,49.92L31.067,44.427C30.427,44.053 30.267,43.253 30.614,42.613C31.947,40.16 32.667,37.387 32.667,34.613C32.667,24.853 24.294,16.907 14.001,16.907C11.894,16.907 9.841,17.227 7.921,17.867C6.934,18.187 5.974,17.28 6.214,16.267C8.641,6.56 17.974,-0.667 29.121,-0.667C42.134,-0.667 52.667,9.173 52.667,21.307C52.667,28.507 48.961,34.88 43.254,38.88Z" fill="#FFFFFF"/>
<path d="M28.667,34.613C28.667,37.787 27.494,40.72 25.521,43.04C22.881,46.24 18.694,48.293 14.001,48.293L7.041,52.427C5.867,53.147 4.374,52.16 4.534,50.8L5.201,45.547C1.627,43.067 -0.666,39.093 -0.666,34.613C-0.666,29.92 1.841,25.787 5.681,23.333C8.054,21.787 10.907,20.907 14.001,20.907C22.107,20.907 28.667,27.04 28.667,34.613Z" fill="#FFFFFF"/>
</svg>
