<svg width="22" height="22" viewBox="0 0 22 22" fill="none" xmlns="http://www.w3.org/2000/svg" xmlns:xlink="http://www.w3.org/1999/xlink">
<path d="M20.197,2.069C20.823,1.443 20.823,0.429 20.197,-0.197C19.572,-0.823 18.557,-0.823 17.931,-0.197L10,7.734L2.069,-0.197C1.443,-0.823 0.428,-0.823 -0.197,-0.197C-0.823,0.429 -0.823,1.443 -0.197,2.069L7.734,10L-0.197,17.931C-0.823,18.557 -0.823,19.572 -0.197,20.197C0.428,20.823 1.443,20.823 2.069,20.197L10,12.266L17.931,20.197C18.557,20.823 19.572,20.823 20.197,20.197C20.823,19.572 20.823,18.557 20.197,17.931L12.266,10L20.197,2.069Z" fill="#333333"/>
</svg>
