<svg width="54" height="54" viewBox="0 0 54 54" fill="none" xmlns="http://www.w3.org/2000/svg" xmlns:xlink="http://www.w3.org/1999/xlink">
<path d="M43.253,38.88L44.293,47.307C44.56,49.52 42.186,51.067 40.293,49.92L31.066,44.427C30.426,44.053 30.266,43.253 30.613,42.613C31.946,40.16 32.666,37.387 32.666,34.613C32.666,24.853 24.293,16.907 14,16.907C11.893,16.907 9.84,17.227 7.92,17.867C6.933,18.187 5.973,17.28 6.213,16.267C8.64,6.56 17.973,-0.667 29.12,-0.667C42.133,-0.667 52.666,9.173 52.666,21.307C52.666,28.507 48.96,34.88 43.253,38.88Z" fill="#FFFFFF"/>
<path d="M28.666,34.613C28.666,37.787 27.493,40.72 25.52,43.04C22.88,46.24 18.693,48.293 14,48.293L7.04,52.427C5.866,53.147 4.373,52.16 4.533,50.8L5.2,45.547C1.626,43.067 -0.667,39.093 -0.667,34.613C-0.667,29.92 1.84,25.787 5.68,23.333C8.053,21.787 10.906,20.907 14,20.907C22.106,20.907 28.666,27.04 28.666,34.613Z" fill="#FFFFFF"/>
</svg>
