<svg width="888" height="120" viewBox="0 0 888 120" fill="none" xmlns="http://www.w3.org/2000/svg" xmlns:xlink="http://www.w3.org/1999/xlink">
<path d="M4.993,103.047C5.732,103.047 6.155,102.691 5.943,102.3C5.732,101.909 5.732,100.95 6.577,101.518C7.421,102.087 8.935,104.539 9.075,103.971C9.216,103.402 9.814,101.838 9.955,102.442C10.096,103.047 11.116,104.219 12.031,104.042C14.069,103.959 16.108,104.174 18.084,104.681L19.597,104.681C20.317,104.724 21.028,104.867 21.709,105.108C22.589,105.286 23.855,105.108 24.207,105.712C25.052,106.778 25.509,105.286 26.389,105.712L27.163,106.032C28.681,105.689 30.255,105.689 31.773,106.032L32.935,106.032C34.483,106.032 36.278,105.286 37.58,105.677L39.41,106.21C41.807,105.577 44.257,105.172 46.729,105.001L49.052,105.215C51.329,105.676 53.69,105.453 55.844,104.575C56.891,104.201 58.034,104.201 59.081,104.575C59.419,104.749 59.793,104.841 60.172,104.841C60.551,104.841 60.925,104.749 61.263,104.575C62.354,104.219 63.832,102.833 65.204,104.575C65.467,104.662 65.751,104.662 66.014,104.575C66.682,103.437 67.421,104.788 68.09,104.575C68.796,104.116 69.568,103.769 70.377,103.544L71.116,103.544C72.817,103.829 74.553,103.829 76.254,103.544C78.875,103.156 81.454,102.525 83.961,101.66L84.629,102.158C85.083,102.418 85.602,102.536 86.122,102.498C86.642,102.46 87.139,102.268 87.55,101.945C88.756,101.438 90.022,101.092 91.316,100.914C92.542,100.448 93.841,100.207 95.151,100.203C96.559,100.416 97.544,99.172 98.846,99.812C98.846,99.812 99.128,100.097 99.163,100.061C100.571,99.599 101.556,98.177 103.456,98.888L107.996,98.391L109.404,97.751C111.753,96.85 114.18,96.172 116.653,95.725L118.87,95.441C119.785,95.441 120.84,95.441 120.7,94.303C121.005,94.063 121.371,93.915 121.755,93.877L124.078,95.227C125.495,94.025 127.041,92.988 128.688,92.135C130.153,91.501 131.556,90.728 132.876,89.825C134.915,89.522 136.973,89.367 139.034,89.363C141.947,87.888 144.736,86.176 147.374,84.245L149.767,84.245L151.069,84.245C152.793,83.356 152.934,81.259 151.421,79.553L150.682,77.954C149.765,76.199 149,74.368 148.395,72.481C146.826,68.472 146.141,64.166 146.389,59.863L146.881,57.197C147.093,54.248 147.515,50.658 147.796,49.201L147.445,47.779C147.355,46.284 147.646,44.792 148.289,43.443L148.782,42.057C149.556,40.564 150.471,38.893 150.823,38.289C151.46,37.167 151.968,35.974 152.336,34.735C152.336,34.095 154.588,32.958 154.799,32.603L154.799,32.283L155.785,29.972C158.183,27.459 160.72,25.086 163.386,22.864L164.16,21.194C164.723,19.95 166.518,20.056 166.799,18.599C166.799,17.853 168.84,17.319 169.931,16.644C170.429,16.346 170.879,15.975 171.269,15.542C171.691,15.045 171.832,14.369 172.324,13.979C172.817,13.588 173.239,15.08 173.978,13.979C174.717,12.877 176.125,13.979 175.738,12.699L180.207,9.642L182.107,8.505C184.43,7.545 188.09,5.946 190.236,4.951L191.96,3.814C192.979,3.22 194.103,2.834 195.268,2.676C197.052,2.184 198.804,1.579 200.512,0.864C201.214,0.438 202.002,0.176 202.818,0.096C203.634,0.016 204.456,0.121 205.228,0.402C205.438,0.402 205.86,0.402 206.178,0.402L208.148,0.402C210.68,-0.066 213.27,-0.126 215.82,0.224L217.756,0.224L219.726,0.224C221.626,0.52 223.54,0.71 225.462,0.793C227.402,1.471 229.294,2.278 231.128,3.209C234.67,4.964 238.012,7.109 241.086,9.607L241.332,11.348L241.544,12.77C242.764,13.919 243.818,15.235 244.676,16.68L245.238,17.782C245.872,19.025 246.436,20.269 246.998,21.513C247.174,21.833 246.998,22.331 247.386,22.544C248.146,22.88 248.886,23.26 249.602,23.682C250.166,24.179 248.794,24.997 249.954,25.672C250.552,26.027 250.588,27.022 250.764,27.733C251.328,29.414 251.694,31.155 251.854,32.922L251.854,34.913C251.398,37.081 250.096,41.488 249.004,44.722L247.984,47.637L247.28,49.769C245.298,51.671 243.44,53.701 241.72,55.847L239.996,56.664L238.552,57.34C237.318,58.951 235.86,60.375 234.224,61.569C232.958,62.422 229.332,65.479 228.524,66.225C227.714,66.971 225.322,68.606 225.708,69.175C226.096,69.744 222.788,70.312 221.45,70.988C220.112,71.663 214.412,77.634 209.38,81.011L204.558,83.783C198.576,87.337 192.348,90.394 186.189,93.628L185.098,94.197C183.726,94.659 184.676,95.974 187.139,97.147C192.396,99.092 197.767,100.706 203.222,101.98L206.564,102.584L208.5,102.94C210.392,102.685 212.31,102.685 214.2,102.94C215.186,103.189 218.67,102.94 219.55,102.94L220.288,103.224C221.204,103.615 221.52,101.945 222.542,102.869C222.746,102.942 222.97,102.942 223.174,102.869C223.738,102.691 228.558,101.98 229.122,101.945C229.684,101.909 230.036,101.589 230.494,101.589C232.746,101.767 234.998,99.492 237.322,101.589C239.01,101.069 240.724,100.641 242.458,100.31C244.676,99.812 250.448,97.929 249.99,96.756L251.96,98.248L253.122,99.137C254.318,98.71 256.64,98 258.33,97.502C260.018,97.004 265.756,95.156 267.62,94.907L268.816,94.161C270.154,93.344 271.386,94.516 271.42,94.374L272.476,91.211L279.304,90.891C279.954,90.977 280.6,91.095 281.238,91.247C281.732,91.247 283.42,89.327 284.758,89.398C287.602,88.834 290.376,87.952 293.028,86.768L294.964,86.2C296.282,85.514 297.738,85.138 299.222,85.098C299.89,85.098 300.664,84.245 301.474,83.996L301.93,83.996C302.6,83.996 303.514,83.427 304.008,82.361L305.59,83.57C305.59,83.57 307.068,82.539 307.984,82.29L308.722,82.077C309.914,82.071 311.1,81.892 312.242,81.544L312.734,80.691C313.006,80.288 313.422,80.008 313.896,79.909C315.584,79.909 318.118,79.909 318.822,79.056L320.3,77.136C322.798,76.39 325.332,75.537 325.896,75.253L326.458,75.253C327.656,75.253 328.992,75.502 329.098,73.902C329.488,73.741 329.908,73.656 330.33,73.653C332.054,73.653 333.25,73.405 333.848,71.77C334.096,70.881 334.94,72.018 335.046,71.947L336.206,71.023L343.244,67.967L345.462,67.505L347.432,67.114C349.226,66.225 352.218,64.839 354.084,64.057L355.632,63.097C356.266,62.671 357.884,64.164 357.814,62.244C357.814,61.925 359.502,61.498 360.452,61.143L361.508,60.716C363.21,60.27 364.87,59.675 366.47,58.939C367.948,58.228 373.79,55.847 375.936,54.71C379.304,53.56 382.734,52.61 386.212,51.866C387.694,51.096 389.222,50.419 390.786,49.84C391.738,49.627 394.622,48.099 395.468,47.921C396.926,47.991 398.37,48.254 399.76,48.703C400.218,48.703 400.782,48.703 399.338,48.099L399.726,46.677C399.972,45.824 400.43,45.611 401.274,45.86C402.118,46.108 402.682,46.57 402.752,46.499L405.602,43.798C407.932,44.152 410.284,44.354 412.64,44.402C412.218,44.402 412.006,43.621 412.992,43.23C415.084,42.495 417.224,41.913 419.396,41.488L420.312,40.848L421.332,40.102C423.626,39.794 425.85,39.097 427.912,38.04L432.276,38.04C432.776,37.6 433.368,37.281 434.01,37.108C434.65,36.936 435.322,36.914 435.972,37.045C436.816,37.436 438.998,37.045 438.646,35.837L440.792,35.552C441.708,35.552 442.482,34.984 443.362,35.552C443.748,35.552 446.212,34.273 448.816,32.993L450.962,33.171C452.112,33.5 453.29,33.715 454.482,33.811C455.558,33.433 456.576,32.907 457.508,32.247C458.496,31.68 459.532,31.205 460.604,30.825L461.344,30.577C462.458,30.782 463.522,31.205 464.476,31.821L464.476,30.434C464.476,30.434 465.778,30.079 466.516,30.043L468.77,29.866C470.568,29.623 472.39,29.623 474.188,29.866C474.534,30.224 474.924,30.535 475.35,30.79C475.446,30.688 475.514,30.561 475.544,30.423C475.576,30.286 475.568,30.142 475.526,30.008C475.526,29.688 475.314,28.515 475.526,28.444C476.552,28.752 477.526,29.22 478.412,29.83L478.692,27.982C479.184,27.814 479.716,27.814 480.206,27.982C481.016,28.835 481.368,27.982 481.93,27.804C482.494,27.627 482.916,28.409 483.444,28.48L484.006,28.48L486.682,27.378C488.748,26.577 490.916,26.075 493.12,25.885L494.494,25.103C495.124,24.678 495.864,24.452 496.622,24.452C497.38,24.452 498.122,24.678 498.752,25.103C498.956,25.176 499.18,25.176 499.384,25.103L501.32,22.971C504.03,23.717 505.824,24.428 505.368,24.499C504.91,24.57 503.714,25.068 504.698,25.281L504.98,25.636C505.86,26.596 506.176,25.459 506.704,25.423C507.232,25.387 507.76,24.712 508.182,24.428L509.378,23.717C511.596,23.113 512.898,23.219 512.054,23.93L512.054,24.321L512.054,24.606C512.272,24.834 512.546,25.003 512.848,25.097C513.15,25.19 513.47,25.204 513.778,25.139L513.954,24.854L515.08,22.686C517.368,22.686 519.972,22.331 520.886,22.189L521.308,22.189L522.928,22.757C524.358,22.427 525.768,22.011 527.15,21.513C527.854,21.229 530.212,21.975 530.67,21.869C531.126,21.762 533.026,21.869 533.344,21.656C533.66,21.442 534.962,20.945 535.456,21.194C536.432,21.629 537.484,21.859 538.552,21.869C540.508,21.317 542.426,20.628 544.288,19.807L545.626,20.021L548.51,20.483C551.258,19.653 554.132,19.34 556.992,19.559L558.786,19.736L559.772,19.736C561.118,19.402 562.508,19.294 563.89,19.416C566.122,19.296 568.332,18.902 570.47,18.244L571.526,18.954L572.616,19.665C573.56,19.559 574.484,19.32 575.362,18.954C578.07,20.447 581.202,18.954 583.982,19.772L584.932,20.056C585.918,20.625 587.01,20.874 587.362,20.589C588.79,20.115 590.332,20.115 591.76,20.589C593.344,21.229 600.874,22.58 604.992,23.539L608.51,24.499C609.988,24.89 611.432,25.565 612.98,25.992L614.74,26.489L619.032,30.043C620.062,30.869 621.036,31.759 621.954,32.709C621.954,32.993 621.954,34.202 621.954,34.628C621.954,35.055 624.346,35.552 624.98,35.695L624.98,37.258C625.692,37.541 626.456,37.668 627.22,37.631C627.984,37.595 628.732,37.395 629.414,37.045C630.646,36.334 634.904,37.827 635.642,37.863C637.162,37.703 638.698,37.811 640.182,38.183L641.484,37.187L641.696,37.01C642.51,36.951 643.32,36.845 644.124,36.69C645.648,36.71 647.166,36.865 648.664,37.152C649.19,37.152 650.458,37.827 650.844,37.863C651.232,37.898 654.998,37.863 658.306,37.649L661.296,37.827C662.152,38.041 663.046,38.041 663.9,37.827C665.04,37.423 666.28,37.423 667.42,37.827L668.476,38.467L672.416,38.467L673.366,38.467C674.282,38.467 675.69,38.467 676.006,38.716L676.886,39.782C677.644,39.17 678.444,38.612 679.278,38.112C679.876,37.756 682.552,39.32 683.784,39.604L686.036,39.604C687.104,39.404 688.186,39.286 689.272,39.249C689.906,39.249 692.792,39.64 693.918,39.782L695.114,39.782L696.592,39.96L700.992,40.635C702.58,40.663 704.17,40.556 705.742,40.315C706.728,40.315 709.964,40.564 711.584,40.315C713.202,40.066 719.502,41.986 722.634,41.986L725.272,42.803C726.75,43.301 727.49,41.595 728.792,42.483L729.706,43.016C730.864,43.294 732.068,43.294 733.226,43.016L733.788,43.016C734.914,42.839 736.394,42.234 736.428,44.047C736.428,44.047 737.73,44.402 737.942,44.047L739.174,42.981C740.628,43.275 742.054,43.703 743.432,44.26C744.276,44.616 746.95,43.727 747.442,43.976C747.936,44.225 750.152,44.936 750.54,44.651C750.926,44.367 752.088,44.011 751.876,44.651C751.666,45.291 754.516,44.651 755.396,44.651L756.276,44.651L758.95,44.651C761.522,44.642 764.05,45.329 766.27,46.642L767.502,45.433C768.908,44.047 769.612,45.789 770.704,45.717C771.31,45.585 771.936,45.582 772.542,45.711C773.148,45.84 773.722,46.096 774.222,46.464C774.838,46.312 775.408,46.006 775.876,45.575C776.37,45.149 779.396,46.073 780.628,46.251L781.86,46.251C783.056,46.251 784.392,45.931 785.378,47.033C785.662,47.139 785.974,47.139 786.258,47.033L787.56,44.936C789.246,45.58 790.882,46.352 792.452,47.246C794.548,47.404 796.654,47.404 798.75,47.246L799.56,47.85C800.932,48.845 801.39,47.423 802.27,47.85C803.15,48.276 804.768,48.845 805.12,48.561C806.352,47.566 807.196,48.81 808.216,48.561C809.25,48.521 810.278,48.741 811.208,49.201L812.088,49.52C814.22,49.377 816.36,49.377 818.492,49.52C820.604,49.52 826.726,50.302 827.43,50.516C828.134,50.729 829.858,50.8 830.422,51.049C831.54,51.136 832.666,51.065 833.766,50.836C835.412,51.081 836.986,51.687 838.376,52.613L839.678,50.978C841.576,51.592 843.516,52.067 845.484,52.399C847.7,52.79 854.282,53.572 855.16,53.857C856.24,54.05 857.34,54.11 858.434,54.034C858.996,54.034 861.53,54.39 862.832,54.638L863.712,55.207C864.944,56.025 865.754,56.949 867.548,55.74L868.216,55.278C869.896,55.549 871.508,56.14 872.968,57.02L873.566,57.837L874.726,59.437L879.548,59.081C880.322,59.081 882.716,59.081 882.786,59.366C883.04,59.829 883.406,60.221 883.848,60.506C884.29,60.791 884.796,60.961 885.32,61C886.55,61 888.628,63.453 887.818,63.097C886.862,62.664 885.836,62.411 884.792,62.351C884.616,62.529 884.088,63.666 884.58,64.057L885.108,64.057C886.938,64.057 886.656,65.194 886.762,66.19C886.868,67.185 885.424,67.682 886.762,68.749L887.43,69.353C887.456,70.814 887.374,72.275 887.184,73.724C887.184,74.897 883.348,75.111 882.68,75.182C882.012,75.253 879.16,75.182 878.07,75.182C876.98,75.182 872.58,74.435 871.454,74.577C870.328,74.72 866.352,73.618 865.26,73.689C863.81,73.546 862.348,73.546 860.898,73.689C860.088,74.044 856.71,72.516 854.492,72.338C852.276,72.161 844.71,71.592 842.492,71.379C840.276,71.165 833.942,69.779 833.132,69.495L832.464,69.495L827.606,69.993C822.364,69.246 816.662,68.393 814.868,68.073L813.25,68.073C811.738,68.106 810.234,67.853 808.816,67.327L807.9,66.865L803.29,67.434C802.304,67.434 798.82,66.687 797.836,66.829C796.85,66.972 793.156,65.834 791.712,65.692C789.186,65.636 786.66,65.743 784.146,66.012L783.724,65.621C782.81,64.768 782.036,65.621 781.226,65.408C780.372,65.17 779.502,65.004 778.622,64.91C777.53,64.91 776.404,64.91 775.314,64.91C774.222,64.91 773.378,64.022 772.886,64.235C770.95,65.123 769.366,63.844 767.432,64.235C766.332,64.377 765.222,64.377 764.124,64.235L763.172,64.235C762.086,64.016 761.016,63.719 759.97,63.346L759.09,63.346C758.572,63.511 758.022,63.551 757.484,63.465C756.948,63.379 756.438,63.168 755.994,62.849L755.748,62.635C754.028,63.142 752.258,63.452 750.47,63.559C748.304,63.278 746.184,62.704 744.17,61.853L739.068,61.64C736.604,61.64 729.074,60.858 727.772,60.681C726.47,60.503 722.282,59.792 721.332,59.579L720.452,59.579C718.974,59.579 717.566,60.183 715.948,59.579C714.328,58.975 712.886,60.005 711.478,59.046L710.07,58.086C708.102,58.218 706.126,58.218 704.158,58.086C702.786,58.086 697.12,57.908 694.586,57.731C692.052,57.553 685.262,57.02 684.558,57.126C683.366,57.133 682.182,56.966 681.038,56.629C680.44,56.416 677.238,57.304 675.232,57.446C672.256,57.094 669.306,56.548 666.398,55.811L657.214,55.811C648.136,55.811 639.444,55.598 637.894,55.349L636.734,56.487C636.488,56.771 635.466,56.735 634.938,56.487C634.41,56.238 633.602,55.136 632.616,56.025L631.526,57.055C630.522,58.172 629.98,59.635 630.012,61.143L629.168,62.031C629.168,62.209 629.448,62.742 629.52,63.097L629.696,64.022C629.058,63.788 628.362,63.788 627.724,64.022L627.724,64.235L627.724,64.732C627.826,65.774 627.59,66.821 627.056,67.718C626.528,68.82 623.536,71.45 622.06,71.272L622.06,72.552C622.008,73.082 621.838,73.593 621.564,74.049C621.29,74.504 620.918,74.891 620.476,75.182L620.194,75.395C620.164,76.3 620.234,77.207 620.406,78.096L619.032,78.665L618.68,78.665C618.4,79.02 617.554,80.051 616.78,80.904C615.278,81.851 613.622,82.525 611.888,82.894L611.536,83.107L611.15,83.285C610.654,83.863 610.208,84.481 609.812,85.133C609.39,85.809 607.912,87.088 606.856,86.342L606.646,88.226L606.646,89.007C606.41,89.313 606.112,89.564 605.772,89.742C605.432,89.92 605.058,90.021 604.674,90.038C603.038,90.234 601.432,90.627 599.888,91.211C598.094,91.851 592.57,93.983 591.372,94.303C588.79,94.814 586.182,95.182 583.56,95.405C581.59,95.583 574.622,97.004 572.3,97.289L570.188,96.827L568.85,96.507C567.408,96.507 564.768,96.791 563.044,96.791L561.46,96.791C559.878,96.791 558.258,96.791 556.674,96.791C556.394,96.791 555.972,96.791 555.796,96.791C554.846,96.187 554.352,94.979 552.558,96.009C551.96,96.329 550.552,95.298 549.214,95.227C546.892,95.227 544.992,93.379 542.422,93.663C542.422,93.663 542.142,93.237 542.036,93.024C541.646,92.532 541.336,91.98 541.12,91.389L540.84,90.109C539.784,90.394 539.15,90.109 539.432,89.754L539.15,89.327C538.728,88.688 538.2,88.083 537.708,87.444L536.582,84.956L536.582,84.28C536.3,83.57 535.666,81.97 535.104,80.726L534.646,79.589C534.132,78.594 533.696,77.56 533.344,76.497C532.904,74.54 532.588,72.558 532.394,70.561L532.394,69.459C532.572,68.41 532.93,67.4 533.45,66.474C534.29,65.816 535.184,65.234 536.124,64.732C537.13,64.097 537.936,63.185 538.446,62.102L538.938,61.462C539.502,60.681 541.262,61 541.296,59.543L541.296,58.797C542.092,59.108 542.95,59.218 543.796,59.117C544.888,58.691 545.948,58.18 546.962,57.588L547.772,57.304L548.582,57.02C549.636,57.02 550.516,56.344 550.516,55.847C550.516,55.349 551.08,53.821 551.784,53.821C552.488,53.821 554.422,53.643 554.176,53.395C553.93,53.146 553.614,52.541 553.824,52.364L554.036,52.364C554.348,52.292 554.674,52.292 554.986,52.364C557.66,52.932 558.504,51.12 560.018,49.947C561.532,48.774 561.18,48.952 561.918,50.16L562.764,51.511C563.114,50.693 563.678,50.16 563.994,50.338C564.312,50.516 565.508,50.338 565.368,50.089L565.156,49.911L563.994,48.774L570.082,46.037L572.158,45.149C572.798,44.8 573.508,44.606 574.234,44.58C575.818,45.23 577.546,45.427 579.232,45.149L580.218,44.829C580.936,44.997 581.682,44.997 582.4,44.829L582.61,44.616C582.892,44.367 583.104,43.834 583.314,43.834C585.506,43.6 587.666,43.124 589.754,42.412L591.724,41.986C594.048,41.737 597.284,41.275 598.938,40.99L600.24,40.528C601.332,40.102 601.824,39.64 602.986,40.528L603.76,41.061C604.204,40.788 604.702,40.618 605.22,40.562C605.738,40.507 606.26,40.568 606.752,40.742C607.244,41.133 608.44,39.817 608.686,39.427C608.932,39.036 610.938,39.427 611.994,39.427L612.416,38.467L612.416,38.254C612.804,37.969 612.17,37.685 611.044,37.543C609.348,37.207 607.602,37.207 605.906,37.543L604.886,36.868C603.95,36.214 602.932,35.688 601.86,35.304L600.91,35.019C599.656,34.961 598.402,35.142 597.214,35.552C596.37,35.943 591.126,34.522 587.044,34.522C582.962,34.522 571.56,34.522 570.716,34.166C569.872,33.811 567.444,35.304 566.846,35.552C566.246,35.801 562.834,34.948 561.144,34.984L559.63,35.304L557.976,35.695C555.838,35.88 553.712,36.189 551.608,36.619L550.2,36.014L549.566,35.73C549.074,35.09 548.546,35.41 548.406,36.512L546.68,36.05L545.026,35.624C542.792,35.986 540.534,36.164 538.27,36.157L536.616,37.258L536.054,37.614C533.878,37.166 531.654,37.011 529.438,37.152C527.256,37.152 521.766,38.858 521.66,38.609C521.512,38.412 521.298,38.277 521.058,38.231C520.816,38.185 520.568,38.231 520.358,38.36C519.83,38.716 517.966,39.355 516.84,40.066L516.522,39.818C515.01,38.716 513.636,39.427 512.194,39.818C511.146,39.525 510.04,39.525 508.992,39.818C507.478,40.137 502.2,40.99 500.686,41.31C498.36,41.741 495.976,41.741 493.648,41.31L492.874,42.661C492.558,43.23 491.116,43.478 490.13,43.621C489.144,43.763 487.912,43.621 486.822,43.621C486.388,43.631 485.97,43.78 485.626,44.047C485.158,44.55 484.564,44.917 483.908,45.11C483.252,45.304 482.558,45.317 481.896,45.149L480.242,44.864C477.518,45.785 474.73,46.498 471.902,46.997C468.77,47.566 458.036,50.125 454.728,50.836L451.702,51.404C449.51,51.534 447.39,52.232 445.544,53.43C445.192,53.643 444.79,53.753 444.382,53.75C443.468,52.577 442.516,53.572 441.814,53.75C439.778,54.598 437.632,55.148 435.444,55.385L433.648,55.385C431.89,56.43 429.996,57.22 428.018,57.731C425.772,58.315 423.582,59.1 421.474,60.076C420.312,60.609 416.3,61.605 415.314,61.925L402.892,66.19L398.424,67.718C397.864,67.82 397.326,68.024 396.84,68.322L395.678,69.424C394.216,69.864 392.794,70.423 391.42,71.094C390.752,71.45 387.902,71.983 387.198,72.303L386.67,72.765C386.268,73.209 385.77,73.553 385.214,73.769C384.658,73.985 384.06,74.067 383.468,74.009C382.758,74.087 382.074,74.317 381.462,74.684C380.63,75.246 379.732,75.7 378.786,76.035L374.88,76.746C371.924,78.554 368.844,80.146 365.66,81.508C363.324,82.571 361.046,83.757 358.834,85.062C358.166,85.453 355.314,86.057 354.716,86.342C352.958,87.028 351.242,87.823 349.578,88.723L348.348,89.47C347.962,89.688 347.522,89.787 347.08,89.754L345.744,89.47C344.616,90.074 340.816,91.709 337.332,93.024L333.814,93.592C333.814,93.592 333.602,93.592 333.462,93.806L331.35,94.659C329.184,95.382 327.068,96.249 325.016,97.253C323.96,97.857 318.716,98.746 316.57,99.386C314.424,100.025 308.018,102.94 306.364,103.615C304.71,104.29 297.954,105.961 295.068,106.636L292.922,107.774L291.128,108.733C289.29,108.891 287.482,109.285 285.744,109.906C284.828,110.297 280.008,111.399 277.508,112.003L275.432,112.749C273.532,113.425 271.526,112.501 269.696,113.816C268.536,114.633 266.178,114.384 264.488,114.704C260.97,115.344 257.45,116.055 253.93,116.766L253.65,116.766C251.46,117.127 249.25,117.364 247.034,117.477L244.008,117.796C242.036,118.01 240.136,118.33 238.2,118.578C236.266,118.827 234.118,118.01 232.394,119.325C232.394,119.325 231.69,119.325 231.444,119.325C229.932,120.036 228.77,117.583 226.834,119.147L226.06,119.822C223.834,119.542 221.654,118.956 219.586,118.081L218.002,118.792L216.558,119.467C214.74,118.885 212.836,118.62 210.928,118.685L209.486,117.832C208.406,117.596 207.292,117.596 206.212,117.832L205.122,117.832C204.842,117.434 204.472,117.107 204.044,116.879C203.618,116.65 203.142,116.527 202.658,116.517L201.814,116.517C201.18,116.517 200.476,117.299 199.878,116.517C199.28,115.735 197.239,115.486 195.726,115.237C193.492,114.703 191.294,114.026 189.145,113.211L188.582,113.034C188.054,113.034 187.702,112.43 187.878,112.11C188.054,111.79 188.371,110.866 188.265,110.83C187.884,110.825 187.512,110.95 187.21,111.186C186.658,111.444 186.058,111.577 185.45,111.577C184.843,111.577 184.242,111.444 183.691,111.186L182.987,110.546L182.635,110.19C182.459,109.657 182.072,109.337 181.79,109.48C181.509,109.622 180.735,109.195 180.453,108.662C180.172,108.129 179.01,106.601 178.905,106.921C178.799,107.24 178.236,107.951 177.955,107.631C177.084,107.004 176.138,106.49 175.139,106.103L174.295,105.89C172.219,105.286 171.832,104.824 170.776,102.336L170.776,101.874C170.661,101.747 170.515,101.653 170.353,101.602C170.19,101.552 170.017,101.546 169.852,101.586C169.687,101.626 169.535,101.71 169.413,101.829C169.291,101.949 169.202,102.099 169.157,102.265L168.242,101.696L167.925,101.483C166.388,101.545 164.864,101.796 163.386,102.229L161.626,102.869L158.107,104.113C154.201,105.428 149.732,106.885 148.148,107.347C146.565,107.809 140.829,109.48 138.928,109.906C137.028,110.333 130.764,111.754 129.145,112.323C127.527,112.892 122.318,113.425 121.579,113.78L120.946,113.78L118.588,113.78C116.16,114.278 112.219,114.989 109.861,115.38C107.503,115.771 100.113,116.695 98.846,117.121L97.755,117.121L96.559,117.121C95.222,117.121 93.603,117.583 93.04,117.761C92.477,117.939 86.354,118.72 81.322,119.502L76.606,118.863L75.269,118.863C73.528,119.052 71.801,119.349 70.096,119.751L68.759,119.751C67.175,119.751 65.591,119.751 64.008,119.751L62.565,119.751C60.346,119.694 58.135,119.468 55.949,119.076L53.767,119.609L52.078,120L46.342,118.578C44.516,118.526 42.694,118.36 40.888,118.081L39.797,119.36C38.801,119.442 37.801,119.442 36.806,119.36C34.808,118.668 32.846,117.873 30.929,116.979L30.049,116.695L28.712,116.268C28.712,117.228 28.008,117.867 27.48,117.725C26.952,117.583 24.7,116.552 23.292,115.913L22.87,115.024L21.92,113.14C20.514,114.233 18.764,114.776 16.993,114.669L16.219,113.176C16.081,113.015 15.907,112.889 15.711,112.808C15.515,112.728 15.303,112.696 15.093,112.714C12.7,113.318 12.067,111.257 10.448,110.688C10.096,110.688 9.709,109.835 9.85,109.657C9.99,109.48 10.553,108.84 9.533,108.769C9.053,108.805 8.57,108.805 8.09,108.769C7.562,108.591 7.105,108.129 6.577,108.022C5.38,108.022 5.31,107.134 5.873,106.707L7.21,105.712C6.147,105.325 5.122,104.837 4.149,104.255C3.48,103.864 0.946,103.295 0.63,102.3L0.172,101.412C-0.391,100.31 0.559,99.492 1.122,98.639C2.548,99.329 3.692,100.498 4.36,101.945L5.24,103.366L4.993,103.047ZM177.427,71.947C176.653,71.485 176.547,71.023 177.18,70.917C178.782,70.612 180.35,70.148 181.861,69.531L182.072,68.429C182.354,66.9 184.183,66.936 185.134,66.047C186.158,65.278 187.254,64.612 188.406,64.057C189.449,63.378 190.53,62.761 191.644,62.209C193.76,61.544 195.53,60.062 196.57,58.086C196.922,57.269 196.993,56.629 198.295,56.807C199.597,56.984 199.597,56.522 199.667,55.74C199.667,55.491 200.864,55.456 201.11,55.136C201.356,54.816 200.864,53.857 201.11,53.821L203.256,53.181C204.454,51.582 205.86,49.627 206.388,49.201C208.654,47.516 211.002,45.95 213.426,44.509L215.186,42.377L216.524,40.777C218.706,39.533 220.324,38.076 220.042,37.543L220.254,37.365L220.606,37.081C221.74,36.458 222.696,35.553 223.386,34.451C224.266,33.207 226.904,29.013 227.292,28.089C228.104,26.281 228.706,24.385 229.086,22.438C229.086,21.194 225.322,18.883 224.828,18.883C223.858,18.555 222.808,18.555 221.838,18.883C221.098,19.239 217.65,19.843 215.714,20.376C212.378,21.26 209.09,22.316 205.86,23.539C204.312,24.286 198.295,28.018 195.691,29.866L192.559,30.577C192.383,30.577 192.383,31.039 192.172,31.181C191.257,31.927 189.568,32.531 189.462,33.313C189.216,35.09 187.034,34.131 186.436,35.126C186.436,35.126 185.732,35.126 185.697,35.41C184.922,37.543 182.354,38.431 180.981,40.102C179.609,41.772 178.553,43.656 177.005,45.362C175.635,46.778 174.452,48.367 173.485,50.089C172.641,51.617 171.374,52.932 170.565,54.532L169.826,55.989C168.844,57.059 168.004,58.254 167.327,59.543L167.538,59.757C168.876,60.894 168.594,61.427 166.764,61.747C166.483,61.747 166.342,62.884 166.412,63.488L166.412,63.95C166.514,65.038 166.514,66.133 166.412,67.22L165.392,68.464L164.617,69.353C164.633,70.788 164.419,72.216 163.984,73.582C163.632,74.187 165.392,75.928 165.427,76.568C165.462,77.208 169.122,75.679 171.128,74.293L173.345,73.547C174.295,73.227 175.315,73.014 176.23,72.658L177.427,71.947ZM614.88,61.64C616.394,61.214 616.992,60.681 616.146,60.467C615.302,60.254 613.05,59.401 612.628,59.65C612.206,59.899 610.164,60.219 609.636,60.538C609.108,60.858 606.61,60.183 605.378,60.361C604.146,60.538 600.24,61.605 598.904,61.64C597.566,61.676 594.576,63.631 593.766,63.417L593.026,63.417C592.534,63.417 592.182,64.235 591.654,64.412C591.126,64.59 590.634,63.915 590.352,64.057L589.19,64.59C588.126,65.288 586.926,65.748 585.672,65.941C583.316,66.637 581.02,67.528 578.81,68.606L576.84,69.104L574.938,69.602C574.164,70.632 573.004,71.165 572.37,70.81L571.948,70.81L570.962,71.059C570.012,71.592 568.076,72.765 566.67,73.689C565.262,74.613 560.194,76.852 559.28,77.421L558.328,77.776L557.45,78.167C557.03,78.667 556.572,79.13 556.076,79.553C556.076,79.767 555.83,80.122 556.076,80.264L556.288,80.513C557.01,80.744 557.752,80.899 558.504,80.975C560.2,81.187 561.914,81.187 563.608,80.975L564.592,80.726L565.79,80.442C567.568,80.265 569.36,80.265 571.138,80.442L572.686,80.122L573.848,79.873C574.554,80.688 575.486,81.27 576.522,81.544L576.84,81.33L578.352,80.158L583.49,79.838L584.652,79.624C585.954,79.376 587.362,78.594 587.642,80.549C587.642,80.549 588.944,80.797 589.12,80.549L590.036,79.66C590.846,78.594 591.76,77.883 592.112,78.132C592.464,78.38 592.956,79.02 592.604,79.162C592.252,79.305 592.076,79.518 593.73,79.162C595.384,78.807 598.692,76.497 598.798,77.136C598.904,77.776 599.888,78.7 600.664,78.025C601.774,76.958 602.95,75.961 604.182,75.04C604.746,74.791 606.504,74.258 606.364,73.902C606.224,73.547 608.44,71.805 609.672,70.917L610.234,69.708C610.552,69.033 610.904,68.038 611.502,67.86C612.768,67.54 612.944,67.078 613.156,66.083C613.366,65.088 614.774,64.164 614.88,63.204L614.88,61.64Z" fill="#E7CEC0"/>
</svg>
