<svg width="34" height="34" viewBox="0 0 34 34" fill="none" xmlns="http://www.w3.org/2000/svg" xmlns:xlink="http://www.w3.org/1999/xlink">
<path d="M10.674,16.082C10.674,13.134 13.063,10.744 16.01,10.744C18.957,10.744 21.347,13.134 21.347,16.082C21.347,19.03 18.957,21.421 16.01,21.421C13.063,21.421 10.674,19.03 10.674,16.082ZM7.789,16.082C7.789,20.624 11.469,24.305 16.01,24.305C20.55,24.305 24.231,20.624 24.231,16.082C24.231,11.54 20.55,7.859 16.01,7.859C11.469,7.859 7.789,11.54 7.789,16.082ZM22.635,7.533C22.635,7.913 22.747,8.285 22.958,8.601C23.169,8.917 23.469,9.163 23.82,9.309C24.171,9.454 24.557,9.493 24.93,9.419C25.303,9.345 25.645,9.162 25.914,8.893C26.183,8.624 26.366,8.282 26.44,7.909C26.514,7.537 26.476,7.15 26.331,6.799C26.186,6.448 25.94,6.148 25.624,5.936C25.308,5.725 24.937,5.612 24.557,5.612L24.556,5.612C24.047,5.612 23.558,5.815 23.198,6.175C22.838,6.535 22.635,7.023 22.635,7.533L22.635,7.533ZM9.542,29.117C7.981,29.046 7.133,28.786 6.569,28.566C5.821,28.275 5.288,27.929 4.727,27.368C4.167,26.808 3.82,26.275 3.53,25.528C3.31,24.964 3.05,24.115 2.979,22.554C2.901,20.866 2.886,20.359 2.886,16.082C2.886,11.806 2.903,11.3 2.979,9.611C3.05,8.049 3.312,7.202 3.53,6.637C3.821,5.889 4.167,5.356 4.727,4.795C5.287,4.234 5.82,3.887 6.569,3.597C7.132,3.377 7.981,3.117 9.542,3.046C11.229,2.968 11.736,2.953 16.01,2.953C20.283,2.953 20.791,2.97 22.48,3.046C24.04,3.117 24.887,3.379 25.453,3.597C26.2,3.887 26.733,4.235 27.294,4.795C27.855,5.355 28.201,5.889 28.492,6.637C28.711,7.2 28.971,8.049 29.042,9.611C29.12,11.3 29.135,11.806 29.135,16.082C29.135,20.359 29.12,20.864 29.042,22.554C28.971,24.115 28.71,24.964 28.492,25.528C28.201,26.275 27.854,26.809 27.294,27.368C26.734,27.928 26.2,28.275 25.453,28.566C24.889,28.786 24.04,29.046 22.48,29.117C20.792,29.195 20.285,29.21 16.01,29.21C11.734,29.21 11.229,29.195 9.542,29.117L9.542,29.117ZM9.409,0.165C7.705,0.242 6.54,0.513 5.523,0.909C4.47,1.317 3.578,1.866 2.687,2.756C1.796,3.646 1.249,4.539 0.841,5.593C0.445,6.611 0.175,7.775 0.097,9.48C0.018,11.187 0,11.733 0,16.082C0,20.431 0.018,20.977 0.097,22.684C0.175,24.389 0.445,25.553 0.841,26.571C1.249,27.624 1.796,28.519 2.687,29.408C3.578,30.298 4.47,30.845 5.523,31.255C6.542,31.651 7.705,31.922 9.409,31.999C11.117,32.077 11.662,32.096 16.01,32.096C20.357,32.096 20.903,32.078 22.61,31.999C24.315,31.922 25.479,31.651 26.496,31.255C27.549,30.845 28.441,30.298 29.332,29.408C30.223,28.518 30.769,27.624 31.179,26.571C31.575,25.553 31.846,24.389 31.922,22.684C32,20.976 32.018,20.431 32.018,16.082C32.018,11.733 32,11.187 31.922,9.48C31.845,7.775 31.575,6.61 31.179,5.593C30.769,4.54 30.222,3.647 29.332,2.756C28.443,1.865 27.549,1.317 26.497,0.909C25.479,0.513 24.315,0.241 22.612,0.165C20.905,0.087 20.359,0.068 16.011,0.068C11.663,0.068 11.117,0.086 9.409,0.165Z" fill="#FFFFFF"/>
</svg>
