<svg width="60" height="60" viewBox="0 0 60 60" fill="none" xmlns="http://www.w3.org/2000/svg" xmlns:xlink="http://www.w3.org/1999/xlink">
<path d="M54,19.333C55.414,19.333 56.771,19.895 57.771,20.895C58.771,21.895 59.333,23.252 59.333,24.667L59.333,35.333C59.333,36.748 58.771,38.104 57.771,39.104C56.771,40.105 55.414,40.667 54,40.667L51.168,40.667C50.518,45.822 48.009,50.563 44.111,54C40.214,57.437 35.196,59.333 30,59.333L30,54C34.243,54 38.313,52.314 41.314,49.314C44.314,46.313 46,42.243 46,38L46,22C46,17.756 44.314,13.687 41.314,10.686C38.313,7.686 34.243,6 30,6C25.756,6 21.687,7.686 18.686,10.686C15.686,13.687 14,17.756 14,22L14,40.667L6,40.667C4.585,40.667 3.229,40.105 2.229,39.104C1.229,38.104 0.667,36.748 0.667,35.333L0.667,24.667C0.667,23.252 1.229,21.895 2.229,20.895C3.229,19.895 4.585,19.333 6,19.333L8.832,19.333C9.483,14.178 11.992,9.438 15.89,6.002C19.787,2.565 24.804,0.669 30,0.669C35.196,0.669 40.213,2.565 44.11,6.002C48.008,9.438 50.517,14.178 51.168,19.333L54,19.333ZM18.693,40.093L21.52,35.571C24.061,37.163 27.001,38.005 30,38C32.999,38.005 35.938,37.163 38.48,35.571L41.307,40.093C37.918,42.216 33.999,43.339 30,43.333C26.001,43.339 22.082,42.216 18.693,40.093Z" fill="#658C4A"/>
</svg>
