<svg width="110" height="110" viewBox="0 0 110 110" fill="none" xmlns="http://www.w3.org/2000/svg" xmlns:xlink="http://www.w3.org/1999/xlink">
<path d="M99,34C101.652,34 104.196,35.054 106.071,36.929C107.946,38.804 109,41.348 109,44L109,64C109,66.652 107.946,69.196 106.071,71.071C104.196,72.946 101.652,74 99,74L93.69,74C92.471,83.667 87.766,92.556 80.459,99C73.151,105.444 63.743,109 54,109L54,99C61.956,99 69.587,95.839 75.213,90.213C80.839,84.587 84,76.957 84,69L84,39C84,31.044 80.839,23.413 75.213,17.787C69.587,12.161 61.956,9 54,9C46.044,9 38.413,12.161 32.787,17.787C27.161,23.413 24,31.044 24,39L24,74L9,74C6.348,74 3.804,72.946 1.929,71.071C0.054,69.196 -1,66.652 -1,64L-1,44C-1,41.348 0.054,38.804 1.929,36.929C3.804,35.054 6.348,34 9,34L14.31,34C15.53,24.334 20.235,15.446 27.543,9.003C34.85,2.56 44.258,-0.995 54,-0.995C63.742,-0.995 73.15,2.56 80.457,9.003C87.765,15.446 92.47,24.334 93.69,34L99,34ZM32.8,72.925L38.1,64.445C42.865,67.43 48.377,69.009 54,69C59.623,69.009 65.135,67.43 69.9,64.445L75.2,72.925C68.846,76.906 61.498,79.012 54,79C46.502,79.012 39.154,76.906 32.8,72.925Z" fill="#999999"/>
</svg>
