<svg width="60" height="44" viewBox="0 0 60 44" fill="none" xmlns="http://www.w3.org/2000/svg" xmlns:xlink="http://www.w3.org/1999/xlink">
<path d="M14,43.333C11.778,43.333 9.889,42.555 8.333,41C6.778,39.444 6,37.555 6,35.333C4.533,35.333 3.277,34.811 2.232,33.765C1.187,32.72 0.665,31.465 0.667,30L0.667,6C0.667,4.533 1.189,3.277 2.235,2.232C3.28,1.187 4.535,0.665 6,0.667L38,0.667C39.467,0.667 40.723,1.189 41.768,2.235C42.813,3.28 43.335,4.535 43.333,6L43.333,11.333L50,11.333C50.444,11.333 50.844,11.422 51.2,11.6C51.555,11.778 51.867,12.044 52.133,12.4L58.8,21.267C58.978,21.489 59.111,21.733 59.2,22C59.289,22.267 59.333,22.555 59.333,22.867L59.333,32.667C59.333,33.422 59.077,34.056 58.565,34.568C58.053,35.08 57.42,35.335 56.667,35.333L54,35.333C54,37.555 53.222,39.444 51.667,41C50.111,42.555 48.222,43.333 46,43.333C43.778,43.333 41.889,42.555 40.333,41C38.778,39.444 38,37.555 38,35.333L22,35.333C22,37.555 21.222,39.444 19.667,41C18.111,42.555 16.222,43.333 14,43.333ZM14,38C14.756,38 15.389,37.744 15.901,37.232C16.413,36.72 16.668,36.087 16.667,35.333C16.667,34.578 16.411,33.944 15.899,33.432C15.387,32.92 14.754,32.665 14,32.667C13.244,32.667 12.611,32.923 12.099,33.435C11.587,33.947 11.332,34.579 11.333,35.333C11.333,36.089 11.589,36.723 12.101,37.235C12.613,37.747 13.246,38.002 14,38ZM46,38C46.755,38 47.389,37.744 47.901,37.232C48.413,36.72 48.668,36.087 48.667,35.333C48.667,34.578 48.411,33.944 47.899,33.432C47.387,32.92 46.754,32.665 46,32.667C45.244,32.667 44.611,32.923 44.099,33.435C43.587,33.947 43.331,34.579 43.333,35.333C43.333,36.089 43.589,36.723 44.101,37.235C44.613,37.747 45.246,38.002 46,38ZM43.333,24.667L54.667,24.667L48.667,16.667L43.333,16.667L43.333,24.667Z" fill="#658C4A"/>
</svg>
