<svg width="80" height="80" viewBox="0 0 80 80" fill="none" xmlns="http://www.w3.org/2000/svg" xmlns:xlink="http://www.w3.org/1999/xlink">
<path d="M40,80C62.092,80 80,62.092 80,40C80,17.908 62.092,0 40,0C17.908,0 0,17.908 0,40C0,62.092 17.908,80 40,80ZM25.588,54.212C25.823,53.895 26.118,53.628 26.456,53.425C26.794,53.223 27.169,53.089 27.559,53.031C27.95,52.974 28.347,52.994 28.73,53.09C29.112,53.186 29.472,53.357 29.788,53.592C32.7,55.752 36.216,57 40,57C43.784,57 47.3,55.748 50.212,53.592C50.527,53.347 50.889,53.167 51.275,53.063C51.661,52.959 52.063,52.933 52.459,52.987C52.855,53.041 53.237,53.174 53.581,53.377C53.925,53.58 54.225,53.85 54.463,54.171C54.701,54.492 54.873,54.857 54.968,55.245C55.063,55.634 55.08,56.037 55.017,56.432C54.954,56.826 54.813,57.204 54.602,57.544C54.391,57.883 54.114,58.177 53.788,58.408C49.807,61.384 44.971,62.995 40,63C35.029,62.995 30.193,61.384 26.212,58.408C25.573,57.934 25.148,57.226 25.031,56.439C24.914,55.652 25.114,54.851 25.588,54.212ZM56,34C56,37.312 54.208,40 52,40C49.792,40 48,37.312 48,34C48,30.688 49.792,28 52,28C54.208,28 56,30.688 56,34ZM28,40C30.208,40 32,37.312 32,34C32,30.688 30.208,28 28,28C25.792,28 24,30.688 24,34C24,37.312 25.792,40 28,40Z" clip-rule="evenodd" fill-rule="evenodd" fill="#333333"/>
</svg>
