<svg width="88" height="88" viewBox="0 0 88 88" fill="none" xmlns="http://www.w3.org/2000/svg" xmlns:xlink="http://www.w3.org/1999/xlink">
<path d="M80,28C82.122,28 84.157,28.843 85.657,30.343C87.157,31.844 88,33.878 88,36L88,52C88,54.122 87.157,56.157 85.657,57.657C84.157,59.157 82.122,60 80,60L75.752,60C74.777,67.733 71.013,74.845 65.167,80C59.321,85.155 51.794,88 44,88L44,80C50.365,80 56.47,77.472 60.971,72.971C65.471,68.47 68,62.365 68,56L68,32C68,25.635 65.471,19.53 60.971,15.03C56.47,10.529 50.365,8 44,8C37.635,8 31.53,10.529 27.029,15.03C22.529,19.53 20,25.635 20,32L20,60L8,60C5.878,60 3.843,59.157 2.343,57.657C0.843,56.157 0,54.122 0,52L0,36C0,33.878 0.843,31.844 2.343,30.343C3.843,28.843 5.878,28 8,28L12.248,28C13.224,20.268 16.988,13.157 22.834,8.003C28.68,2.848 36.206,0.004 44,0.004C51.794,0.004 59.32,2.848 65.166,8.003C71.012,13.157 74.776,20.268 75.752,28L80,28ZM27.04,59.14L31.28,52.356C35.092,54.744 39.501,56.007 44,56C48.499,56.007 52.908,54.744 56.72,52.356L60.96,59.14C55.877,62.325 49.998,64.009 44,64C38.002,64.01 32.123,62.325 27.04,59.14Z" fill="#333333"/>
</svg>
