<svg width="42" height="58" viewBox="0 0 42 58" fill="none" xmlns="http://www.w3.org/2000/svg" xmlns:xlink="http://www.w3.org/1999/xlink">
<path d="M20,-0.667C12.333,-0.667 6.16,5.538 6.16,13.173C6.16,20.649 12.052,26.736 19.48,26.986C19.562,26.988 19.645,26.986 19.728,26.979C19.907,26.962 20.099,26.964 20.228,26.977C20.316,26.986 20.405,26.989 20.494,26.986C27.923,26.736 33.809,20.649 33.84,13.182L33.84,13.173C33.84,5.535 27.638,-0.667 20,-0.667ZM10.16,13.173C10.16,7.742 14.548,3.333 20,3.333C25.428,3.333 29.838,7.742 29.84,13.169C29.816,18.462 25.682,22.749 20.472,22.983C20.157,22.961 19.823,22.962 19.506,22.984C14.291,22.752 10.16,18.461 10.16,13.173Z" clip-rule="evenodd" fill-rule="evenodd" fill="#666666"/>
<path d="M34.897,33.164C30.845,30.457 25.602,29.167 20.46,29.167C15.317,29.167 10.064,30.457 5.988,33.16L5.981,33.165C2.34,35.602 0.253,39.007 0.253,42.663C0.253,46.321 2.34,49.72 5.983,52.144C10.048,54.862 15.297,56.16 20.44,56.16C25.584,56.16 30.834,54.862 34.899,52.142C38.54,49.705 40.627,46.3 40.627,42.643C40.627,38.986 38.54,35.588 34.897,33.164ZM4.253,42.663C4.253,40.648 5.392,38.373 8.202,36.491C11.486,34.315 15.924,33.167 20.46,33.167C24.998,33.167 29.421,34.316 32.676,36.49L32.679,36.492C35.488,38.361 36.627,40.628 36.627,42.643C36.627,44.66 35.486,46.935 32.674,48.818C29.405,51.005 24.975,52.16 20.44,52.16C15.904,52.16 11.474,51.005 8.205,48.818L8.201,48.815C5.392,46.946 4.253,44.679 4.253,42.663Z" clip-rule="evenodd" fill-rule="evenodd" fill="#666666"/>
</svg>
