<svg width="54" height="54" viewBox="0 0 54 54" fill="none" xmlns="http://www.w3.org/2000/svg" xmlns:xlink="http://www.w3.org/1999/xlink">
<path d="M43.253,38.88L44.293,47.306C44.56,49.52 42.187,51.066 40.293,49.92L31.067,44.426C30.427,44.053 30.267,43.253 30.613,42.613C31.947,40.16 32.667,37.386 32.667,34.613C32.667,24.853 24.293,16.906 14,16.906C11.893,16.906 9.84,17.226 7.92,17.866C6.933,18.186 5.973,17.28 6.213,16.266C8.64,6.56 17.973,-0.667 29.12,-0.667C42.133,-0.667 52.667,9.173 52.667,21.306C52.667,28.506 48.96,34.88 43.253,38.88Z" fill="#FFFFFF"/>
<path d="M28.667,34.613C28.667,37.786 27.493,40.72 25.52,43.04C22.88,46.24 18.693,48.293 14,48.293L7.04,52.426C5.867,53.146 4.373,52.16 4.533,50.8L5.2,45.546C1.627,43.066 -0.667,39.093 -0.667,34.613C-0.667,29.92 1.84,25.786 5.68,23.333C8.053,21.786 10.907,20.906 14,20.906C22.107,20.906 28.667,27.04 28.667,34.613Z" fill="#FFFFFF"/>
</svg>
