<svg width="38" height="28" viewBox="0 0 38 28" fill="none" xmlns="http://www.w3.org/2000/svg" xmlns:xlink="http://www.w3.org/1999/xlink">
<path d="M23.921,0.799C23.335,0.213 22.385,0.213 21.799,0.799C21.214,1.385 21.214,2.335 21.799,2.921L31.379,12.5L1,12.5C0.172,12.5 -0.5,13.172 -0.5,14C-0.5,14.828 0.172,15.5 1,15.5L31.379,15.5L21.799,25.079C21.214,25.665 21.214,26.615 21.799,27.2C22.385,27.786 23.335,27.786 23.921,27.2L36.061,15.061C36.342,14.779 36.5,14.398 36.5,14C36.5,13.602 36.342,13.221 36.061,12.939L23.921,0.799Z" fill="#333333"/>
</svg>
