<svg width="80" height="64" viewBox="0 0 80 64" fill="none" xmlns="http://www.w3.org/2000/svg" xmlns:xlink="http://www.w3.org/1999/xlink">
<path d="M8,0C5.878,0 3.843,0.843 2.343,2.343C0.843,3.843 0,5.878 0,8L0,24C2.122,24 4.157,24.843 5.657,26.343C7.157,27.843 8,29.878 8,32C8,34.122 7.157,36.157 5.657,37.657C4.157,39.157 2.122,40 0,40L0,56C0,58.122 0.843,60.157 2.343,61.657C3.843,63.157 5.878,64 8,64L72,64C74.122,64 76.157,63.157 77.657,61.657C79.157,60.157 80,58.122 80,56L80,40C77.878,40 75.843,39.157 74.343,37.657C72.843,36.157 72,34.122 72,32C72,29.878 72.843,27.843 74.343,26.343C75.843,24.843 77.878,24 80,24L80,8C80,5.878 79.157,3.843 77.657,2.343C76.157,0.843 74.122,0 72,0L8,0ZM54,12L60,18L26,52L20,46L54,12ZM27.24,12.16C31.16,12.16 34.32,15.32 34.32,19.24C34.32,21.118 33.574,22.919 32.246,24.246C30.919,25.574 29.118,26.32 27.24,26.32C23.32,26.32 20.16,23.16 20.16,19.24C20.16,17.362 20.906,15.561 22.234,14.234C23.561,12.906 25.362,12.16 27.24,12.16ZM52.76,37.68C56.68,37.68 59.84,40.84 59.84,44.76C59.84,46.638 59.094,48.439 57.766,49.766C56.439,51.094 54.638,51.84 52.76,51.84C48.84,51.84 45.68,48.68 45.68,44.76C45.68,42.882 46.426,41.081 47.754,39.754C49.081,38.426 50.882,37.68 52.76,37.68Z" fill="#333333"/>
</svg>
