<svg width="42" height="42" viewBox="0 0 42 42" fill="none" xmlns="http://www.w3.org/2000/svg" xmlns:xlink="http://www.w3.org/1999/xlink">
<path d="M13.342,20.103C13.342,16.418 16.328,13.43 20.012,13.43C23.696,13.43 26.683,16.418 26.683,20.103C26.683,23.788 23.696,26.776 20.012,26.776C16.328,26.776 13.342,23.788 13.342,20.103ZM9.736,20.103C9.736,25.78 14.337,30.382 20.012,30.382C25.687,30.382 30.288,25.78 30.288,20.103C30.288,14.426 25.687,9.824 20.012,9.824C14.337,9.824 9.736,14.426 9.736,20.103ZM28.293,9.416C28.293,9.891 28.434,10.356 28.697,10.751C28.961,11.146 29.336,11.454 29.775,11.636C30.214,11.818 30.696,11.866 31.162,11.773C31.628,11.681 32.056,11.452 32.392,11.117C32.728,10.781 32.957,10.353 33.05,9.887C33.143,9.421 33.095,8.938 32.914,8.499C32.732,8.06 32.424,7.685 32.03,7.42C31.635,7.156 31.171,7.015 30.696,7.015L30.695,7.015C30.058,7.015 29.448,7.268 28.997,7.719C28.547,8.169 28.294,8.779 28.293,9.416L28.293,9.416ZM11.927,36.397C9.976,36.308 8.916,35.983 8.211,35.708C7.277,35.344 6.61,34.911 5.909,34.211C5.208,33.511 4.774,32.844 4.412,31.91C4.137,31.205 3.812,30.144 3.724,28.193C3.627,26.082 3.607,25.449 3.607,20.103C3.607,14.757 3.628,14.125 3.724,12.013C3.813,10.062 4.14,9.003 4.412,8.296C4.776,7.361 5.209,6.695 5.909,5.993C6.609,5.292 7.275,4.858 8.211,4.496C8.915,4.221 9.976,3.896 11.927,3.807C14.037,3.71 14.67,3.691 20.012,3.691C25.354,3.691 25.988,3.712 28.099,3.807C30.05,3.896 31.109,4.224 31.816,4.496C32.75,4.858 33.417,5.293 34.117,5.993C34.818,6.694 35.251,7.361 35.614,8.296C35.889,9.001 36.214,10.062 36.303,12.013C36.4,14.125 36.419,14.757 36.419,20.103C36.419,25.449 36.4,26.081 36.303,28.193C36.214,30.144 35.887,31.205 35.614,31.91C35.251,32.844 34.817,33.511 34.117,34.211C33.417,34.91 32.75,35.344 31.816,35.708C31.111,35.983 30.05,36.308 28.099,36.397C25.99,36.494 25.356,36.513 20.012,36.513C14.668,36.513 14.036,36.494 11.927,36.397L11.927,36.397ZM11.761,0.206C9.631,0.303 8.175,0.641 6.904,1.136C5.587,1.647 4.473,2.333 3.359,3.445C2.245,4.557 1.562,5.674 1.051,6.991C0.556,8.263 0.218,9.719 0.121,11.85C0.023,13.984 0,14.667 0,20.103C0,25.539 0.023,26.221 0.121,28.356C0.218,30.487 0.556,31.942 1.051,33.215C1.562,34.531 2.245,35.649 3.359,36.761C4.473,37.872 5.587,38.557 6.904,39.07C8.178,39.564 9.631,39.902 11.761,39.999C13.896,40.096 14.577,40.121 20.012,40.121C25.447,40.121 26.129,40.098 28.263,39.999C30.393,39.902 31.848,39.564 33.12,39.07C34.436,38.557 35.551,37.873 36.665,36.761C37.779,35.648 38.461,34.531 38.973,33.215C39.468,31.942 39.807,30.487 39.903,28.356C40,26.22 40.022,25.539 40.022,20.103C40.022,14.667 40,13.984 39.903,11.85C39.806,9.719 39.468,8.263 38.973,6.991C38.461,5.675 37.777,4.559 36.665,3.445C35.553,2.331 34.436,1.647 33.122,1.136C31.848,0.641 30.393,0.302 28.264,0.206C26.13,0.109 25.448,0.085 20.014,0.085C14.579,0.085 13.896,0.108 11.761,0.206Z" fill="#FFFFFF"/>
</svg>
