<svg width="110" height="80" viewBox="0 0 110 80" fill="none" xmlns="http://www.w3.org/2000/svg" xmlns:xlink="http://www.w3.org/1999/xlink">
<path d="M24,80C19.833,80 16.292,78.542 13.375,75.625C10.458,72.708 9,69.167 9,65C6.25,65 3.895,64.02 1.935,62.06C-0.025,60.1 -1.003,57.747 -1,55L-1,10C-1,7.25 -0.02,4.895 1.94,2.935C3.9,0.975 6.253,-0.003 9,0L69,0C71.75,0 74.105,0.98 76.065,2.94C78.025,4.9 79.003,7.253 79,10L79,20L91.5,20C92.333,20 93.083,20.167 93.75,20.5C94.417,20.833 95,21.333 95.5,22L108,38.625C108.333,39.042 108.583,39.5 108.75,40C108.917,40.5 109,41.042 109,41.625L109,60C109,61.417 108.52,62.605 107.56,63.565C106.6,64.525 105.413,65.003 104,65L99,65C99,69.167 97.542,72.708 94.625,75.625C91.708,78.542 88.167,80 84,80C79.833,80 76.292,78.542 73.375,75.625C70.458,72.708 69,69.167 69,65L39,65C39,69.167 37.542,72.708 34.625,75.625C31.708,78.542 28.167,80 24,80ZM24,70C25.417,70 26.605,69.52 27.565,68.56C28.525,67.6 29.003,66.413 29,65C29,63.583 28.52,62.395 27.56,61.435C26.6,60.475 25.413,59.997 24,60C22.583,60 21.395,60.48 20.435,61.44C19.475,62.4 18.997,63.587 19,65C19,66.417 19.48,67.605 20.44,68.565C21.4,69.525 22.587,70.003 24,70ZM84,70C85.417,70 86.605,69.52 87.565,68.56C88.525,67.6 89.003,66.413 89,65C89,63.583 88.52,62.395 87.56,61.435C86.6,60.475 85.413,59.997 84,60C82.583,60 81.395,60.48 80.435,61.44C79.475,62.4 78.997,63.587 79,65C79,66.417 79.48,67.605 80.44,68.565C81.4,69.525 82.587,70.003 84,70ZM79,45L100.25,45L89,30L79,30L79,45Z" fill="#658C4A"/>
</svg>
