<svg width="26" height="20" viewBox="0 0 26 20" fill="none" xmlns="http://www.w3.org/2000/svg" xmlns:xlink="http://www.w3.org/1999/xlink">
<path d="M16.947,1.2C16.557,0.809 15.923,0.809 15.533,1.2C15.142,1.59 15.142,2.223 15.533,2.614L21.919,9L1.667,9C1.114,9 0.667,9.448 0.667,10C0.667,10.552 1.114,11 1.667,11L21.919,11L15.533,17.386C15.142,17.777 15.142,18.41 15.533,18.801C15.923,19.191 16.557,19.191 16.947,18.801L25.04,10.707C25.228,10.52 25.333,10.265 25.333,10C25.333,9.735 25.228,9.48 25.04,9.293L16.947,1.2Z" fill="#FFFFFF"/>
</svg>
