<svg width="80" height="82" viewBox="0 0 80 82" fill="none" xmlns="http://www.w3.org/2000/svg" xmlns:xlink="http://www.w3.org/1999/xlink">
<path d="M65.88,59.32L67.44,71.96C67.84,75.28 64.28,77.6 61.44,75.88L47.6,67.64C46.64,67.08 46.4,65.88 46.92,64.92C48.92,61.24 50,57.08 50,52.92C50,38.28 37.44,26.36 22,26.36C18.84,26.36 15.76,26.84 12.88,27.8C11.4,28.28 9.96,26.92 10.32,25.4C13.96,10.84 27.96,0 44.68,0C64.2,0 80,14.76 80,32.96C80,43.76 74.44,53.32 65.88,59.32Z" fill="#292D32"/>
<path d="M44,52.92C44,57.68 42.24,62.08 39.28,65.56C35.32,70.36 29.04,73.44 22,73.44L11.56,79.64C9.8,80.72 7.56,79.24 7.8,77.2L8.8,69.32C3.44,65.6 0,59.64 0,52.92C0,45.88 3.76,39.68 9.52,36C13.08,33.68 17.36,32.36 22,32.36C34.16,32.36 44,41.56 44,52.92Z" fill="#292D32"/>
</svg>
