<svg width="100" height="100" viewBox="0 0 100 100" fill="none" xmlns="http://www.w3.org/2000/svg" xmlns:xlink="http://www.w3.org/1999/xlink">
<path d="M50,100C77.615,100 100,77.615 100,50C100,22.385 77.615,0 50,0C22.385,0 0,22.385 0,50C0,77.615 22.385,100 50,100ZM31.985,67.765C32.279,67.369 32.647,67.035 33.07,66.782C33.493,66.529 33.962,66.361 34.449,66.289C34.937,66.217 35.434,66.242 35.912,66.362C36.39,66.483 36.84,66.696 37.235,66.99C40.875,69.69 45.27,71.25 50,71.25C54.73,71.25 59.125,69.685 62.765,66.99C63.159,66.683 63.611,66.458 64.093,66.328C64.576,66.199 65.079,66.166 65.574,66.234C66.069,66.301 66.546,66.467 66.976,66.721C67.406,66.975 67.781,67.313 68.079,67.714C68.377,68.115 68.591,68.572 68.71,69.057C68.829,69.542 68.85,70.046 68.771,70.54C68.693,71.033 68.516,71.506 68.252,71.93C67.989,72.354 67.643,72.721 67.235,73.01C62.259,76.731 56.213,78.744 50,78.75C43.787,78.744 37.741,76.731 32.765,73.01C31.966,72.418 31.435,71.533 31.289,70.549C31.143,69.565 31.393,68.564 31.985,67.765ZM70,42.5C70,46.64 67.76,50 65,50C62.24,50 60,46.64 60,42.5C60,38.36 62.24,35 65,35C67.76,35 70,38.36 70,42.5ZM35,50C37.76,50 40,46.64 40,42.5C40,38.36 37.76,35 35,35C32.24,35 30,38.36 30,42.5C30,46.64 32.24,50 35,50Z" clip-rule="evenodd" fill-rule="evenodd" fill="#999999"/>
</svg>
