<svg width="50" height="50" viewBox="0 0 50 50" fill="none" xmlns="http://www.w3.org/2000/svg" xmlns:xlink="http://www.w3.org/1999/xlink">
<path d="M16.011,24.123C16.011,19.701 19.594,16.115 24.015,16.115C28.435,16.115 32.02,19.701 32.02,24.123C32.02,28.545 28.435,32.131 24.015,32.131C19.594,32.131 16.011,28.545 16.011,24.123ZM11.683,24.123C11.683,30.935 17.204,36.458 24.015,36.458C30.825,36.458 36.346,30.935 36.346,24.123C36.346,17.311 30.825,11.788 24.015,11.788C17.204,11.788 11.683,17.311 11.683,24.123ZM33.952,11.299C33.952,11.869 34.121,12.427 34.437,12.901C34.754,13.375 35.204,13.745 35.73,13.963C36.256,14.182 36.836,14.239 37.395,14.128C37.954,14.017 38.468,13.743 38.871,13.34C39.274,12.937 39.549,12.423 39.66,11.864C39.771,11.305 39.715,10.725 39.497,10.198C39.279,9.672 38.91,9.221 38.436,8.904C37.962,8.587 37.405,8.418 36.835,8.418L36.834,8.418C36.07,8.418 35.337,8.722 34.797,9.262C34.257,9.802 33.953,10.535 33.952,11.299L33.952,11.299ZM14.313,43.676C11.971,43.569 10.699,43.179 9.853,42.849C8.732,42.413 7.932,41.893 7.091,41.053C6.25,40.212 5.729,39.413 5.295,38.291C4.965,37.446 4.575,36.173 4.469,33.831C4.352,31.299 4.329,30.538 4.329,24.123C4.329,17.708 4.354,16.95 4.469,14.416C4.575,12.074 4.968,10.803 5.295,9.955C5.731,8.833 6.251,8.033 7.091,7.192C7.931,6.351 8.73,5.83 9.853,5.395C10.698,5.065 11.971,4.675 14.313,4.569C16.844,4.452 17.604,4.429 24.015,4.429C30.425,4.429 31.186,4.454 33.719,4.569C36.061,4.675 37.331,5.068 38.179,5.395C39.3,5.83 40.1,6.352 40.941,7.192C41.782,8.032 42.301,8.833 42.737,9.955C43.067,10.8 43.457,12.074 43.563,14.416C43.68,16.95 43.703,17.708 43.703,24.123C43.703,30.538 43.68,31.296 43.563,33.831C43.457,36.173 43.065,37.446 42.737,38.291C42.301,39.413 41.781,40.213 40.941,41.053C40.101,41.892 39.3,42.413 38.179,42.849C37.334,43.179 36.061,43.569 33.719,43.676C31.188,43.792 30.428,43.815 24.015,43.815C17.602,43.815 16.843,43.792 14.313,43.676L14.313,43.676ZM14.114,0.247C11.557,0.364 9.81,0.769 8.285,1.363C6.705,1.976 5.367,2.799 4.031,4.134C2.694,5.468 1.874,6.808 1.261,8.389C0.667,9.916 0.262,11.662 0.146,14.22C0.027,16.781 0,17.6 0,24.123C0,30.646 0.027,31.465 0.146,34.026C0.262,36.584 0.667,38.33 1.261,39.857C1.874,41.437 2.695,42.778 4.031,44.112C5.367,45.447 6.705,46.268 8.285,46.883C9.813,47.477 11.557,47.882 14.114,47.999C16.676,48.115 17.493,48.144 24.015,48.144C30.536,48.144 31.355,48.117 33.915,47.999C36.472,47.882 38.218,47.477 39.744,46.883C41.323,46.268 42.662,45.447 43.998,44.112C45.335,42.778 46.153,41.437 46.768,39.857C47.362,38.33 47.769,36.584 47.884,34.026C48,31.463 48.027,30.646 48.027,24.123C48.027,17.6 48,16.781 47.884,14.22C47.767,11.662 47.362,9.915 46.768,8.389C46.153,6.809 45.333,5.471 43.998,4.134C42.664,2.797 41.323,1.976 39.746,1.363C38.218,0.769 36.472,0.362 33.917,0.247C31.357,0.131 30.538,0.102 24.017,0.102C17.495,0.102 16.676,0.129 14.114,0.247Z" fill="#FFFFFF"/>
</svg>
