<svg width="34" height="30" viewBox="0 0 34 30" fill="none" xmlns="http://www.w3.org/2000/svg" xmlns:xlink="http://www.w3.org/1999/xlink">
<path d="M16.026,17.958C17.359,17.958 18.653,18.308 19.794,18.976L20.256,19.246C20.606,19.451 20.668,19.931 20.381,20.218L16.435,24.153C16.192,24.394 15.799,24.394 15.557,24.153L11.636,20.243C11.35,19.958 11.41,19.48 11.757,19.274L12.214,19.002C13.366,18.317 14.677,17.958 16.026,17.958Z" fill="#333333"/>
<path d="M16.026,10.729C19.341,10.729 22.523,11.829 25.115,13.865L25.481,14.153C25.773,14.382 25.799,14.814 25.536,15.077L23.18,17.426C22.963,17.643 22.618,17.668 22.371,17.485L22.083,17.271C20.333,15.97 18.221,15.272 16.026,15.272C13.818,15.272 11.694,15.979 9.938,17.295L9.65,17.51C9.403,17.695 9.057,17.671 8.838,17.453L6.484,15.105C6.221,14.843 6.246,14.412 6.537,14.182L6.901,13.894C9.5,11.84 12.696,10.729 16.026,10.729Z" fill="#333333"/>
<path d="M16.026,3.5C21.286,3.5 26.316,5.355 30.297,8.756L30.637,9.046C30.912,9.281 30.928,9.699 30.672,9.954L28.324,12.296C28.097,12.523 27.733,12.538 27.487,12.332L27.196,12.089C24.061,9.468 20.132,8.042 16.026,8.042C11.907,8.042 7.965,9.478 4.826,12.115L4.535,12.36C4.289,12.567 3.924,12.551 3.696,12.324L1.348,9.983C1.093,9.728 1.109,9.311 1.383,9.076L1.721,8.786C5.707,5.366 10.751,3.5 16.026,3.5Z" fill="#333333"/>
</svg>
